<?xml version="1.0" encoding="utf-8"?>
<!-- Generator: Adobe Illustrator 24.0.2, SVG Export Plug-In . SVG Version: 6.00 Build 0)  -->
<svg version="1.1" id="Layer_1" xmlns="http://www.w3.org/2000/svg" xmlns:xlink="http://www.w3.org/1999/xlink" x="0px" y="0px"
	 viewBox="0 0 703.09 988.36" style="enable-background:new 0 0 703.09 988.36;" xml:space="preserve">
<style type="text/css">
	.st0{fill:#8D9BFE;}
	.st1{fill:#97D1FD;}
	.st2{fill:#B4B6FD;}
	.st3{fill:#C3B2FE;}
	.st4{fill:#8D9BFD;}
	.st5{fill:#C7A0FB;}
	.st6{fill:#A57BFE;}
	.st7{fill:#D7FEB4;}
	.st8{fill:#D7FDB4;}
	.st9{fill:#DCDDFE;}
	.st10{fill:#B3FAFE;}
	.st11{fill:#E3D6FE;}
	.st12{fill:#C8A0FA;}
	.st13{fill:#A1A4EB;}
	.st14{fill:#92FE9C;}
	.st15{fill:#DBFDDF;}
	.st16{fill:#C4B2FE;}
	.st17{fill:#C3B1FE;}
	.st18{fill:#C7E6FE;}
	.st19{fill:#F7CBFE;}
	.st20{fill:#F195FE;}
	.st21{fill:#C79FFB;}
</style>
<g>
	<g>
		<path class="st0" d="M689.51,13.71c0.53-0.02,1.07-0.04,1.6-0.07c2.54,0.01,5.07,0.02,7.61,0.03c1.64,0.17,3.28,0.34,4.92,0.51
			c0,138.29,0,276.57,0,414.86c-0.33,0.64-0.75,1.24-0.98,1.91c-7.21,21.2-14.6,42.34-21.56,63.62
			c-9.37,28.69-18.09,57.57-24.03,87.22c-1.6,7.99-3.54,15.91-5.32,23.86c-3.1,0.53-6.23,0.92-9.29,1.61
			c-9.24,2.09-16.09,7.4-20.75,15.64c-3.89,6.87-5.68,14.43-7.37,22.03c-1.66,7.52-2.14,15.31-0.84,22.7
			c1.37,7.8,4.72,15.27,7.36,22.83c1.63,4.68,4.57,9.13,5.13,13.9c0.91,7.78,0.7,15.75-2.15,23.34c-1.05,2.8-2.53,3.3-4.08,0.78
			c-1.9-3.09-3.75-6.57-4.25-10.08c-1.35-9.42-3.98-18.41-8.94-26.41c-7.39-11.92-17.38-20-32.64-18.19
			c0.17-21.15,0.31-42.29,0.53-63.44c0.08-7.52,0.39-15.04,0.52-22.56c0.22-13.15,0.32-26.3,0.57-39.45
			c0.3-15.13,0.67-30.26,1.08-45.39c0.32-11.77,0.72-23.53,1.11-35.3c0.14-4.16,0.27-8.32,0.58-12.47
			c0.83-10.98,1.79-21.95,2.66-32.93c0.6-7.56,1.15-15.13,1.68-22.7c0.74-10.63,1.44-21.27,2.16-31.9
			c0.37-5.41,0.61-10.83,1.16-16.22c1.15-11.3,2.34-22.61,3.76-33.88c1.31-10.47,2.68-20.94,4.49-31.33
			c3.01-17.24,6.15-34.46,9.67-51.6c5.22-25.38,10.63-50.72,16.33-76c2.66-11.81,5.91-23.5,9.36-35.11
			c4.82-16.22,9.83-32.4,15.24-48.43c2.65-7.86,5.85-15.65,9.77-22.94c3.91-7.29,8.71-14.17,13.73-20.78
			c4.88-6.43,11.03-11.66,18.36-15.34C687.76,15.52,688.58,14.5,689.51,13.71z"/>
		<path class="st1" d="M573.93,673.8c15.26-1.81,25.24,6.27,32.64,18.19c4.96,7.99,7.59,16.99,8.94,26.41
			c0.5,3.51,2.36,6.99,4.25,10.08c1.55,2.52,3.03,2.01,4.08-0.78c2.85-7.58,3.06-15.56,2.15-23.34c-0.56-4.76-3.49-9.22-5.13-13.9
			c-2.64-7.56-5.99-15.03-7.36-22.83c-1.3-7.39-0.82-15.18,0.84-22.7c1.68-7.6,3.48-15.15,7.37-22.03
			c4.66-8.24,11.51-13.54,20.75-15.64c3.06-0.69,6.19-1.08,9.29-1.61c2.02,0.52,4.04,1.04,6.06,1.56
			c5.68,3.69,11.39,7.33,17.04,11.08c1.69,1.12,3.2,2.51,4.79,3.78c0.33,0.82,0.53,1.72,1,2.44c5.63,8.73,7.3,18.25,4.91,28.24
			c-2.67,11.18-8.03,21.2-14.58,30.61c-1.54,2.2-2.91,4.52-4.37,6.78c-0.75,0.77-1.58,1.47-2.23,2.32
			c-1.75,2.29-3.41,4.64-5.13,6.96c-3.74,5.06-7.49,10.15-8.26,16.65c-0.69,5.76-0.87,11.49,4.46,15.52
			c0.99,0.75,2.71,1.78,3.39,1.41c1.23-0.67,1.93-2.31,2.85-3.54c0.7-0.76,1.78-1.42,2.02-2.31c1.08-3.89,2.27-7.8,2.76-11.78
			c1.15-9.24,4.27-17.81,8.73-25.83c1.92-3.45,4.56-6.76,7.59-9.26c5.96-4.9,13.23-6.28,20.84-5.92c0,25.08,0,50.15,0,75.23
			c-4.68,1.8-9.35,3.61-14.03,5.4c-6.73,2.58-13.55,4.94-20.16,7.78c-5.35,2.3-10.01,5.73-13.23,10.78
			c-0.51,0.32-1.15,0.53-1.52,0.98c-6.11,7.35-9.32,15.96-10.31,25.33c-0.26,2.43-0.5,5.51,2.25,7.74c4.24-4.8,6.5-10.19,7.95-16
			c0.71-0.76,1.63-1.4,2.08-2.29c3.06-5.97,6.66-11.54,11.92-15.83c5.25-4.27,11.13-6.97,18.04-7.01c6.4-0.04,11.78,2.76,17.01,6.01
			c0,15.08,0,30.17,0,45.25c-3.76,2.73-7.53,5.47-11.29,8.2c-3.11,1.35-6.13,3-9.36,3.97c-4.89,1.47-9.9,2.62-14.92,3.61
			c-5.82,1.15-11.7,1.95-17.55,2.96c-0.67,0.12-1.29,0.58-1.93,0.89c-3.1,1.09-6.7,1.52-9.18,3.42c-4.74,3.63-8.55,6.51-14.76,13.44
			c-2.39,2.67-4.29,4.96-5.57,6.55c-0.59,0.62-1.5,1.68-2.39,3.14c-0.43,0.71-4.95,8.44-1.75,16.28c0.4,0.98,1.02,2.2,2.01,3.5
			c1.99,2.44,3.46,0.17,4.76-0.76c3.7-2.63,5.28-6.73,6.79-10.81c2.58-6.96,6.08-13.32,11.91-18.13c2.15-1.77,4.38-3.45,6.57-5.17
			c1.19-0.38,2.39-0.73,3.57-1.15c4.99-1.77,9.91-3.06,15.31-1.23c10.76,3.64,16.11,13.59,16.51,14.51
			c0.45,1.03,0.75,1.92,0.95,2.55c1.04,2.6,2.06,6.14,2.19,10.4c0.35,11.56-6.14,19.82-8.31,22.36c-1.09,0.91-2.24,1.76-3.27,2.74
			c-4.32,4.07-9.53,6.56-15.25,7.5c-5.28,0.87-10.71,0.85-16.08,1.23c-0.37,0-0.74,0-1.11,0c-3.62-0.02-7.24-0.04-10.86-0.06
			c-3.29,0-6.58,0-9.87,0c-1.99,0.13-3.97,0.27-5.96,0.4c-1.7,0.11-2.91,0.92-3.44,1.16c-1.2,0.55-2.18,1.15-2.93,1.68
			c-1.55,1.05-3.25,2.32-5,3.84c-1.73,1.5-3.2,2.99-4.44,4.37c-1.46,0.38-2.92,0.75-4.38,1.13c-6.2,0.75-11.53,3.36-16.06,7.62
			c-4.47,4.22-8.69,8.73-13.39,12.66c-8.02,6.69-16.33,13.03-24.51,19.52c-2.34-1.63-4.66-3.28-7.01-4.89
			c-9.09-6.22-18.72-11.46-28.87-15.72c-0.47-2.39-0.83-4.8-1.44-7.16c-2.71-10.47-1.82-20.4,3.94-29.78
			c3.86-6.28,13.5-9.77,20.16-7.48c9.9,3.4,15.45,11.05,19.66,19.86c3.72,7.77,4.23,16.2,3.97,24.71c-0.08,2.42,0.15,5.56,2.96,6.03
			c2.71,0.46,3.72-2.49,4.54-4.65c3.65-9.6,4.14-19.25,0.89-29.17c-2.33-7.09-7.14-12.29-11.87-17.64
			c-4.9-5.54-10.42-10.49-14.03-17.17c-3.46-6.42-6.05-12.98-5.91-20.33c0.13-7.24,1.74-14.25,5.06-20.66
			c4.05-7.82,10.58-12.34,19.64-12.19c4.79,0.08,8.67,2.78,12.58,5.31c9.17,5.93,14.31,14.18,15.08,25.11
			c0.16,1.1,0.32,2.2,0.48,3.29c0.01,2.19,0.01,4.37,0.02,6.56c-0.11,4.87-0.35,9.73-0.24,14.6c0.03,1.2,0.99,2.53,1.84,3.53
			c1.19,1.39,2.88,2.34,4.42,0.62c1.59-1.77,3.47-3.66,4.1-5.83c1.81-6.21,3.19-12.57,4.46-18.92c0.45-2.28,0.09-4.72,0.09-7.09
			c0.14-2.16,0.28-4.32,0.42-6.49c-0.67-2.02-1.35-4.04-2.02-6.06c-3.18-6.17-8.59-9.78-14.65-12.55c-6.91-3.16-14-6.1-19.48-11.53
			c-9.25-9.17-13.84-20.22-12.84-33.45c0.52-6.94,2.65-13.22,6.66-18.86c6.36-8.95,17.82-11.65,27.72-6.84
			c7.21,3.5,12.57,8.98,17.48,15.09c3.04,3.78,5.48,7.83,6,12.76c0.76,7.08,1.49,14.17,2.1,21.26c0.38,4.42,1.91,7.1,4.96,8.04
			c0.83-0.22,2.13-0.18,2.4-0.69c1.32-2.51,2.88-5.06,3.43-7.78c2.19-10.79,1.45-21.59-1.1-32.22c-0.73-3.06-2.47-6.03-5.81-7.38
			c-1.13-1.01-2.15-2.2-3.41-2.99c-9.97-6.25-20.76-11.19-29.64-19.17c-5.35-4.81-10.29-9.93-13.65-16.3
			c-2.54-4.82-4.5-9.95-6.72-14.94c-0.02-1.36,0.13-2.75-0.1-4.08c-0.92-5.34-0.5-10.53,1.17-15.69
			C560.77,682.93,566.07,677.21,573.93,673.8z M638.62,625.28c-7.6-0.66-10.6,5.28-10.59,10.36c0,6.08,4.11,10.81,10.47,10.89
			c5.91,0.08,11.16-5.15,11.19-11.02C649.73,628.61,646.19,625.34,638.62,625.28z M578.22,789.94c5.65,0.76,9.68-4.57,9.78-9.37
			c0.09-4.76-4.56-9.13-9.38-9.17c-5.11-0.04-9.61,4.4-9.58,9.52C569.05,785.43,573.06,790.58,578.22,789.94z M696.56,736.18
			c0.58-4.78-3.67-8.77-8.54-8.82c-4.58-0.05-8.37,3.96-8.38,8.57c-0.01,5.43,3.35,8.77,8.8,8.75
			C693.33,744.67,696.57,741.28,696.56,736.18z M695.48,780.22c0.78-4.87-3.79-8.12-7.73-8.2c-4.09-0.08-8.01,3.94-8.07,8
			c-0.07,4.11,4.01,8.24,8.15,8.25C691.17,788.29,696.31,784.84,695.48,780.22z M587.18,710.35c3.4,0.85,8.05-4.47,7.97-8.03
			c-0.09-3.93-4.14-7.27-8.71-7.2c-3,0.05-6.01,4.04-5.98,7.92C580.49,707.17,583.39,710.33,587.18,710.35z M579.12,921.32
			c4.08,0,7.25-2.92,7.32-6.71c0.08-4.53-2.98-7.51-7.71-7.48c-3.93,0.02-6.97,3.09-6.99,7.05
			C571.72,918.56,574.58,921.33,579.12,921.32z M652.79,903.88c4.16,0.03,6.66-2.25,6.7-6.11c0.05-4.17-2.48-6.98-6.29-6.98
			c-3.65,0-6.74,2.88-6.8,6.35C646.34,901.33,648.73,903.85,652.79,903.88z M525.79,917.48c-3.61-0.02-5.77,2.07-5.82,5.62
			c-0.04,3.16,2.14,5.26,5.5,5.31c3.76,0.05,5.92-1.93,5.93-5.42C531.41,919.63,529.25,917.51,525.79,917.48z M679.56,813.37
			c3.22,0.03,5.46-2,5.54-5.02c0.08-3.07-2.59-5.92-5.52-5.87c-2.89,0.04-5.32,2.48-5.37,5.37
			C674.17,811.12,676.32,813.34,679.56,813.37z M568.44,862.44c2.95,0,5.45-2.39,5.45-5.2c0-2.96-2.82-5.74-5.76-5.68
			c-2.97,0.06-5.14,2.39-5.12,5.5C563.03,860.37,565.12,862.44,568.44,862.44z M642.59,747.95c-2.46,0.03-4.41,2.53-4.37,5.58
			c0.04,2.76,2,4.82,4.52,4.73c2.49-0.09,4.66-2.28,4.72-4.78C647.53,750.5,645.25,747.91,642.59,747.95z M657.87,866.36
			c0.03-2.46-1.73-4.41-4.03-4.45c-2.29-0.04-4.15,1.89-4.16,4.32c-0.01,2.6,1.6,4.35,4.03,4.37
			C656.16,870.63,657.84,868.92,657.87,866.36z M561.3,876.06c-2.35-0.06-4.19,1.6-4.27,3.87c-0.09,2.34,1.58,4.21,3.83,4.31
			c2.5,0.11,4.33-1.6,4.35-4.06C565.23,877.52,563.91,876.13,561.3,876.06z M686.69,706.53c-2.1,0.03-3.8,1.87-3.77,4.12
			c0.02,2.21,1.79,4.05,3.88,4.02c2.11-0.03,3.79-1.87,3.77-4.12C690.55,708.34,688.78,706.51,686.69,706.53z M656.94,671.07
			c-2.34,0.03-3.47,1.29-3.46,3.85c0.01,2.52,1.27,3.88,3.51,3.79c2.25-0.09,3.62-1.58,3.59-3.89
			C660.55,672.45,659.18,671.04,656.94,671.07z M538.47,947.36c0.05-1.75-1.78-3.61-3.63-3.69c-2.29-0.1-3.84,1.28-3.96,3.53
			c-0.11,1.99,1.62,3.84,3.67,3.92C536.53,951.2,538.4,949.4,538.47,947.36z M586.91,813.38c-0.63,0.86-1.95,2.07-2.46,3.56
			c-0.48,1.39,1.9,3.61,3.45,3.47c1.98-0.19,3.47-1.01,3.47-3.35C591.37,814.91,590.01,813.41,586.91,813.38z M588.57,728.65
			c-1.19-0.83-2.3-2.2-3.57-2.36c-1.81-0.22-2.91,1.19-2.91,3.14c-0.01,2.16,1.28,2.77,3.2,2.73
			C587.22,732.13,588.12,731.19,588.57,728.65z M672.31,871.74c1.71,0.02,2.95-1.37,2.74-3c-0.14-1.1-1.67-2.6-2.83-2.88
			c-1.74-0.42-3.27,0.91-3.3,2.76C668.89,870.35,669.93,871.69,672.31,871.74z M637.27,701.51c0.68-0.95,2.1-2.15,1.89-2.81
			c-0.39-1.19-1.64-2.65-2.76-2.89c-1.44-0.31-2.66,0.83-2.54,2.71C633.97,700.33,634.95,701.09,637.27,701.51z M612.49,891.85
			c-1.62,0.05-2.92,0.94-2.47,2.61c0.3,1.1,1.72,1.9,2.63,2.84c0.89-0.96,2.29-1.8,2.56-2.91
			C615.63,892.68,614.28,891.86,612.49,891.85z M624.4,834.58c-1.46,1.52-2.98,2.48-2.85,3.1c0.22,1.07,1.46,1.92,2.28,2.86
			c0.8-0.81,2.03-1.5,2.28-2.45C626.3,837.35,625.29,836.29,624.4,834.58z M607.07,735.6c-1.53-1.08-2.5-2.3-3.32-2.2
			c-0.9,0.1-1.67,1.41-2.49,2.2c0.92,0.83,1.73,2.02,2.81,2.36C604.61,738.12,605.64,736.77,607.07,735.6z M657.71,822.87
			c-1.35-0.89-2.16-1.84-2.84-1.76c-0.85,0.1-1.58,1.07-2.37,1.66c0.8,0.84,1.48,1.92,2.46,2.39
			C655.31,825.33,656.36,824.03,657.71,822.87z"/>
		<path class="st2" d="M594.62,920.23c1.46-0.38,2.92-0.75,4.38-1.13c3.29-0.54,6.58-1.08,9.88-1.62c1.76-0.2,3.51-0.39,5.27-0.59
			c9.31-0.35,18.61-0.69,27.92-1.04c1.66,0.35,3.36,0.58,4.98,1.07c6.53,1.96,11.19,5.44,17.95,10.64c1.21,0.93,2.89,2.26,4.87,3.92
			c0.71,0.76,1.86,1.99,2.59,2.77c8.74,9.33,13.44,13.78,14.99,15.94c4.93,6.88,10.75,13.12,16.19,19.63c0,6.18,0,12.36,0,18.54
			c-27.08-0.02-54.16-0.04-81.25-0.06c-4.36-3.99-9.51-6.56-15.15-8.07c-5.39-1.44-10.96-2.27-16.26-3.96
			c-10.98-3.48-15.89-13.1-14.75-21.45c0.95-6.94,3.81-13.39,7.7-19.26C587.37,930.37,591.05,925.34,594.62,920.23z M655.67,953.43
			c2.84-1.05,5.77-1.94,8.5-3.24c1.26-0.6,2.14-1.99,2.86-2.71c-3.98-1.56-7.49-3-11.04-4.32c-3.16-1.18-6.37-2.22-9.56-3.33
			c0.63-1.66,1.27-3.31,1.9-4.97c-0.29-0.28-0.58-0.56-0.86-0.83c-3.61,1.39-7.21,2.79-10.82,4.18c-1.66-2.32-4.11-2.74-6.71-2.75
			c-4.08-0.02-8.49,1.04-10.97-3.89c-1.94,4.01-0.74,8.09,2.91,11.05c-1.66,2.1-3.76,3.16-6.49,3c-0.5-0.03-1.03,0.38-1.55,0.59
			c0.27,0.5,0.41,1.26,0.82,1.45c1.99,0.94,4.06,1.73,6.09,2.58c-1.25,2.28-2.86,4.44-3.67,6.86c-1.22,3.63-1.92,7.44-2.75,11.19
			c-0.35,1.55,0.11,2.98,2,2.57c3.13-0.68,6.3-1.46,9.23-2.71c1.73-0.74,3.03-2.48,4.53-3.77c2.14,0.17,4.37,0.82,6.4,0.43
			c4.46-0.87,8.93-1.95,13.17-3.55C652.99,959.99,655.67,957.58,655.67,953.43z"/>
		<path class="st3" d="M679.64,622.07c-1.59-1.27-3.1-2.66-4.79-3.78c-5.65-3.75-11.35-7.39-17.04-11.08
			c1.58-6.96,3.02-13.95,4.77-20.87c4.18-16.49,8.07-33.07,12.92-49.36c4.34-14.57,8.81-29.19,16.14-42.68
			c1.98-3.66,3.52-7.55,5.46-11.23c2.05-3.9,4.34-7.67,6.53-11.5c0,13.63,0,27.26,0,40.89c-1.09,3.61-2.4,7.18-3.22,10.85
			c-3.05,13.65-6.03,27.31-8.86,41.01c-2.3,11.13-4.26,22.33-6.53,33.46C683.37,605.89,681.45,613.97,679.64,622.07z"/>
		<path class="st0" d="M679.64,622.07c1.8-8.1,3.73-16.17,5.39-24.3c2.27-11.13,4.23-22.33,6.53-33.46
			c2.83-13.7,5.81-27.36,8.86-41.01c0.82-3.67,2.13-7.23,3.22-10.85c0,53.97,0,107.94,0,161.91c-7.61-0.36-14.89,1.02-20.84,5.92
			c-3.03,2.5-5.67,5.81-7.59,9.26c-4.47,8.02-7.58,16.59-8.73,25.83c-0.49,3.98-1.69,7.89-2.76,11.78
			c-0.25,0.89-1.33,1.55-2.02,2.31c0.36-2.58,0.72-5.15,1.07-7.73c1.02-7.47,2.07-14.93,3.02-22.4c0.39-3.05,0.56-6.12,0.83-9.18
			c1.45-2.26,2.83-4.58,4.37-6.78c6.55-9.4,11.91-19.42,14.58-30.61c2.39-10,0.72-19.52-4.91-28.24
			C680.17,623.78,679.97,622.89,679.64,622.07z"/>
		<path class="st4" d="M703.64,772.48c-5.23-3.25-10.61-6.06-17.01-6.01c-6.91,0.05-12.8,2.74-18.04,7.01
			c-5.26,4.29-8.86,9.85-11.92,15.83c-0.45,0.89-1.38,1.53-2.08,2.29c0.55-6.02,1.09-12.03,1.64-18.05
			c3.22-5.05,7.88-8.47,13.23-10.78c6.61-2.84,13.43-5.21,20.16-7.78c4.68-1.79,9.35-3.6,14.03-5.4
			C703.64,757.22,703.64,764.85,703.64,772.48z"/>
		<path class="st5" d="M131.32,893.01c-5.39,0.6-10.77,1.22-16.16,1.8c-15.73,1.7-31.37,1.91-46.16-4.83
			c-8.66-3.95-15.74-9.7-18.42-19.49c-2.09-7.65-0.44-14.91,2.2-22.05c3.82-10.29,10.14-18.95,17.66-26.83
			c14.46-15.17,31.59-26.72,49.55-37.27c9.59-5.63,19.18-11.44,27.95-18.23c11.31-8.75,15.45-20.85,11.38-35.4
			c-4.34-15.51-15.16-23.55-30.39-25.72c-10.18-1.45-20.54-1.67-30.82-2.27c-11.94-0.69-23.93-1.16-35.31-5.23
			c-13.89-4.97-21.23-15.43-23.57-29.69c-1.96-11.98,1.48-23.03,6.29-33.69c5.72-12.66,13.7-23.89,23.08-34.09
			c6.75-7.34,13.77-14.44,20.57-21.74c8.41-9.05,16.49-18.43,21.81-29.69c6.95-14.7,9.1-29.9,1.39-45
			c-5.63-11.04-15.48-17.03-27.25-19.87c-6.61-1.6-13.33-1.94-20.2-1.5c-6.37,0.41-12.53,1.26-18.75,2.67
			c-3.13,0.71-6.71-0.46-10.07-0.94c-0.47-0.07-1.14-1.01-1.14-1.53c0.01-0.52,0.68-1.3,1.21-1.48c1.89-0.61,3.86-0.99,5.78-1.5
			c9.88-2.61,19.67-5.64,29.66-7.74c13.16-2.77,26.34-5.47,39.87-6.31c17.39-1.08,34.37,0.15,50.86,6.05
			c10.11,3.62,18.62,9.48,25.67,17.66c5.91,6.86,11.26,14,14.18,22.67c4.38,12.99,3.05,25.68-2.15,38.16
			c-7.45,17.89-19.17,32.75-33.7,45.18c-12.44,10.63-25.82,20.16-38.82,30.14c-8.57,6.57-17.34,12.99-22.77,22.63
			c-1.69,2.99-2.78,6.49-3.36,9.88c-0.58,3.42,1.1,5.35,4.44,6.52c6.48,2.27,13.22,2.52,19.89,1.59c13.33-1.85,26.61-4.12,39.91-6.2
			c0.89-0.14,1.81-0.1,2.72-0.14c0.2,1.25,0.27,2.54,0.63,3.74c1.91,6.3,3.28,12.85,6,18.78c3.99,8.66,10.66,15.44,17.99,21.5
			c6.39,5.28,13.45,9.06,22.02,8.25c7.25-0.69,13.82-3.42,19.66-7.88c9.8-7.47,17.33-16.42,19.32-29.07
			c3.54,4.21,7.76,8.01,10.5,12.69c9.41,16.03,10.48,32.97,4.19,50.45c-6.13,17.01-17.24,29.98-32.68,38.95
			c-14.42,8.37-29.27,15.99-44.03,23.75c-16.54,8.69-33.16,17.3-46.74,30.43c-3.85,3.72-6.84,8.36-10,12.74
			c-1.44,2-0.73,4.08,1.3,5.4c1.19,0.77,2.59,1.27,3.96,1.69c6.55,2,13.11,1,19.6-0.26c5.5-1.06,10.93-2.45,16.4-3.7
			c0.59,0.62,1.3,1.17,1.76,1.89c1.83,2.86,3.59,5.76,5.38,8.65c-0.7,5-2.11,10.02-1.93,14.99c0.32,8.81,1.6,17.59,2.48,26.39
			c-0.59-0.19-1.21-0.32-1.77-0.57c-5.31-2.46-10.94-3.7-16.73-4.33c0,0,0.03,0.02,0.03,0.02c-0.38-0.21-0.75-0.42-1.13-0.62
			c-1.59-0.59-3.22-1.1-4.77-1.78c-7.27-3.2-14.71-3.39-22.24-1.17C135.43,891.1,133.4,892.15,131.32,893.01z"/>
		<path class="st6" d="M580,854.22c-0.77-10.93-5.91-19.19-15.08-25.11c-3.91-2.53-7.79-5.23-12.58-5.31
			c-9.06-0.15-15.58,4.37-19.64,12.19c-3.32,6.41-4.93,13.42-5.06,20.66c-0.14,7.35,2.45,13.91,5.91,20.33
			c3.61,6.68,9.13,11.63,14.03,17.17c4.73,5.35,9.54,10.55,11.87,17.64c3.26,9.92,2.76,19.57-0.89,29.17
			c-0.82,2.17-1.83,5.11-4.54,4.65c-2.81-0.47-3.04-3.61-2.96-6.03c0.26-8.51-0.25-16.95-3.97-24.71
			c-4.22-8.81-9.77-16.45-19.66-19.86c-6.66-2.29-16.3,1.2-20.16,7.48c-5.76,9.38-6.65,19.31-3.94,29.78
			c0.61,2.35,0.97,4.77,1.44,7.15c-9.43-2.37-18.59-0.82-27.43,2.48c-15.8,5.88-31.49,12.04-47.19,18.17
			c-12.16,4.75-23.79,10.42-32.77,20.32c-1.88,2.07-3.62,4.27-5.42,6.41c-0.81-0.32-1.66-0.58-2.44-0.96
			c-2.32-1.14-4.61-2.32-6.91-3.48c-5.62-4.06-11.23-8.12-16.85-12.18c0.07-0.81-0.01-1.66,0.23-2.41
			c3.55-10.96,6.97-21.96,10.78-32.82c2.01-5.74,4.65-11.26,9.43-15.4c4.98-4.31,9.24-3.52,12.23,2.33
			c0.33,0.65,0.68,1.29,0.94,1.97c2.22,5.85,4.32,11.75,6.69,17.53c0.54,1.31,1.8,2.9,3.02,3.23c2.07,0.55,2.8-1.49,3.43-3.13
			c0.2-0.51,0.36-1.03,0.48-1.56c2.98-13.54,4.37-27.21,2.78-41.03c-0.49-4.28-1.38-8.62-2.83-12.67
			c-1.94-5.43-5.47-6.87-10.52-4.09c-4.8,2.64-9.54,5.71-13.57,9.39c-13.72,12.51-22.09,28.59-29.17,45.44
			c-2.31,5.51-4.63,11.01-6.95,16.51c-0.44-0.88-0.87-1.76-1.31-2.63c0.27-0.96,0.46-1.95,0.82-2.87
			c4.7-12.19,8.59-24.6,10.52-37.56c1.42-9.54,1.8-19.1,0.38-28.65c-0.9-6.06-2.21-12.07-3.33-18.1c0.52-0.75,1.05-1.49,1.57-2.24
			c6.63-8.41,13.06-16.97,16.65-27.21c4.03-11.5,2.59-22-6.66-30.6c-1.86-1.73-4.42-2.7-6.65-4.01c-4.67-2.14-9.28-2.64-13.74,0.55
			c-1.58,1.58-3.2,3.12-4.71,4.75c-1.55,1.66-3.22,3.15-5.64,2.31c-2.53-0.88-2.99-3.17-3.12-5.52c-0.04-0.63-0.02-1.27,0.05-1.9
			c0.65-5.86,2.78-11.15,5.9-16.14c3.2-5.13,7.93-8.59,12.54-12.21c3.94-1.9,7.88-3.8,11.82-5.71c0.87-0.24,1.74-0.47,2.61-0.71
			c8.79-2.45,17.72-2.98,26.77-1.93c2.31,0.42,4.65,0.71,6.92,1.27c7.47,1.85,15.09,3.47,21.08,8.76c3.44,3.04,6.54,6.47,9.79,9.73
			c2.92,5.51,6.59,10.76,8.61,16.58c6.72,19.34,6.25,38.81-0.56,58.12c-2.59,4.31-4.91,8.82-7.81,12.91
			c-10.6,14.92-16.19,31.34-15.46,49.72c0.16,4.04,0.99,8.02,4.2,10.99c0.67,1.24,1.13,2.69,2.06,3.69
			c5.48,5.86,12.73,8.01,20.32,9.35c0.3,0.05,0.65-0.15,1.18-0.28c-3.41-10.05-6.52-20.04-6.67-30.66
			c0.33-5.54-0.02-11.23,1.12-16.59c2.83-13.28,9.13-25.14,17.03-36.06c4.11-5.68,9.01-10.8,13.56-16.17
			c0.23-0.15,0.5-0.25,0.68-0.44c6.25-6.99,12.64-13.87,18.66-21.06c2.2-2.62,3.53-5.98,5.25-9c1.06-1.5,2.42-2.87,3.13-4.52
			c3.62-8.54,4.89-17.53,3.78-26.7c-0.39-3.17-1.59-6.68-3.56-9.12c-3.07-3.82-6.98-7.01-10.8-10.15c-1.52-1.25-3.75-1.65-5.66-2.43
			c-1.92-0.74-3.79-1.78-5.78-2.15c-5.72-1.06-11.52-1.66-17.22-2.79c-4.03-0.8-7.94-2.17-11.91-3.28c-2.86-2.03-5.8-3.94-8.55-6.11
			c-4.61-3.64-7-8.83-9.37-14.01c-0.05-0.36-0.05-0.73-0.15-1.07c-1.96-6.64-2.91-13.42-1.57-20.26c0.83-4.21,2.35-8.29,3.56-12.43
			c2.85-3.22,5.63-6.51,8.59-9.64c3.21-3.41,6.89-6.41,9.8-10.05c2.82-3.53,6.02-7.05,6.45-11.95c0.49-0.68,1.26-1.29,1.44-2.05
			c0.84-3.5,1.6-7.03,2.25-10.58c1.37-7.53-4.06-16.58-11.34-19.04c-3.37-2.07-7.27-2.7-10.53-0.91c-3.62,1.98-6.7,5.06-9.76,7.93
			c-2.33,2.19-5.04,2.69-6.99,0.22c-1.75-2.22-3.57-4.77-4.16-7.45c-1.94-8.79-0.17-16.83,6.31-23.5c0.81-0.84,1.61-1.74,2.2-2.73
			c3-5.08,7.35-8.61,12.58-11.17c1.95-0.72,3.85-1.62,5.84-2.14c9.47-2.46,19.12-2.67,28.77-1.55c3.73,0.43,7.45,1.41,11.03,2.6
			c6.81,2.26,11.9,7.04,16.84,12.03c11.33,11.46,13.83,25.37,11.2,40.59c-1.97,11.42-8.15,20.76-15.42,29.48
			c-5.91,7.08-9.84,14.9-9.28,24.5c0.17,2.97,1.35,5,4.12,5.63c4.11,0.95,8.32,2.18,12.46,2.11c10.56-0.18,21.11-1.02,31.66-1.6
			c1.89-0.18,3.78-0.36,5.67-0.54c4.76,0.58,9.53,1.16,14.29,1.74c2.22,4.99,4.18,10.12,6.72,14.94c3.35,6.37,8.3,11.49,13.65,16.3
			c8.88,7.98,19.68,12.92,29.64,19.17c1.27,0.79,2.28,1.98,3.41,2.99c2.65,11.34,3.13,22.86,2.65,34.42
			c-0.19,4.56-1.03,9.1-1.58,13.65c-3.06-0.94-4.58-3.62-4.96-8.04c-0.61-7.1-1.34-14.18-2.1-21.26c-0.53-4.93-2.96-8.98-6-12.76
			c-4.91-6.11-10.27-11.59-17.48-15.09c-9.9-4.8-21.36-2.1-27.72,6.84c-4.01,5.64-6.14,11.92-6.66,18.86
			c-1,13.22,3.59,24.28,12.84,33.45c5.48,5.43,12.57,8.36,19.48,11.53c6.06,2.78,11.46,6.39,14.64,12.55
			c0.67,2.02,1.35,4.04,2.02,6.06c-0.14,2.16-0.28,4.32-0.42,6.49c-0.22,0.15-0.47,0.28-0.66,0.47c-2.78,2.89-5.53,5.8-8.33,8.67
			c-1.18,1.21-1.64,1.58-3.11,3.15c-1.15,1.24-2.06,2.29-2.64,2.97c0.01-2.91,0.02-5.82,0.04-8.73
			C580.32,856.42,580.16,855.32,580,854.22z"/>
		<path class="st0" d="M537.07,709.69c-10.55,0.58-21.1,1.42-31.66,1.6c-4.15,0.07-8.35-1.16-12.46-2.11
			c-2.77-0.64-3.95-2.67-4.12-5.63c-0.56-9.6,3.37-17.41,9.28-24.5c7.27-8.72,13.45-18.06,15.42-29.48
			c2.63-15.22,0.13-29.13-11.2-40.59c-4.94-5-10.03-9.78-16.84-12.03c-3.58-1.19-7.3-2.16-11.03-2.6
			c-9.65-1.12-19.29-0.91-28.77,1.55c-2,0.52-3.9,1.41-5.84,2.14c-0.18-0.79-0.29-1.6-0.54-2.37c-3.08-9.29-6.28-18.53-9.24-27.86
			c-5.45-17.17-10.8-34.38-16.09-51.6c-1.19-3.87-2-7.86-2.99-11.8c1.9-0.07,3.86,0.11,5.7-0.26c15.88-3.14,28.49-11.1,35.99-25.77
			c4.11-8.05,7.9-16.34,10.88-24.86c2.31-6.59,3.73-13.64,4.5-20.59c1.4-12.69-1.64-24.83-5.96-36.72
			c-2.76-7.58-6.64-14.4-12.99-19.4c-12.81-10.08-27.19-15.8-43.79-14.2c-5.2,0.5-10.46,1.24-15.47,2.64
			c-5.62,1.57-10.99,4.03-16.48,6.1c-0.16-0.42-0.38-0.83-0.49-1.27c-3.86-15.52-7.84-31-11.51-46.57
			c-3.46-14.67-6.63-29.41-9.84-44.14c-2.51-11.49-3.91-23.12-4.35-34.88c-0.24-6.32-0.85-12.63-1.02-18.95
			c-0.33-12.32-0.44-24.66,2.76-36.69c2.16-8.1,5.59-15.54,13.52-19.79c12.6-1.03,23.88,3.24,34.21,9.68
			c7.57,4.72,14.62,10.41,21.36,16.28c23.23,20.24,37.93,46.21,49.04,74.49c8.47,21.57,14.53,43.89,20.05,66.34
			c5.75,23.4,11.51,46.8,16.62,70.34c2.97,13.69,4.79,27.63,6.95,41.49c1.88,12.07,3.62,24.16,5.25,36.26
			c1.29,9.6,2.32,19.23,3.48,28.84c1.04,8.62,2.16,17.24,3.1,25.87c0.71,6.57,1.24,13.16,1.76,19.75c0.92,11.64,1.7,23.3,2.67,34.94
			c0.83,9.92,1.78,19.83,2.8,29.74c0.98,9.54,2.2,19.06,3.14,28.61c0.74,7.48,1.25,14.98,1.78,22.48
			C535.5,686.01,536.27,697.85,537.07,709.69z"/>
		<path class="st3" d="M557.03,710.88c-4.76-0.58-9.52-1.16-14.29-1.74c-0.13-4.89-0.37-9.77-0.38-14.66
			c-0.04-27.17-0.07-54.33,0-81.5c0.03-9.79,0.35-19.59,0.53-29.38c0.17-9.16,0.35-18.32,0.51-27.48
			c0.2-11.88,0.36-23.77,0.58-35.65c0.14-7.8,0.26-15.6,0.57-23.39c0.45-11.49,1.03-22.97,1.63-34.45
			c0.48-9.12,0.93-18.25,1.65-27.36c0.69-8.73,1.79-17.43,2.57-26.15c0.51-5.67,0.78-11.37,1.17-17.05
			c0.71-10.37,1.41-20.75,2.15-31.12c0.53-7.48,0.98-14.98,1.72-22.44c0.9-9.07,1.93-18.14,3.14-27.17
			c1.56-11.63,3.17-23.26,5.08-34.84c1.68-10.16,3.75-20.25,5.73-30.36c3.67-18.71,7.08-37.47,11.21-56.08
			c4.85-21.83,10.2-43.56,19.65-64.02c5.78-12.51,11-25.29,17.09-37.64c7.14-14.47,14.74-28.75,24.76-41.51
			c7.51-9.56,15.42-18.85,25.33-26.03c6.47-4.69,13.91-7.28,22.08-7.16c-0.93,0.79-1.75,1.81-2.81,2.34
			c-7.33,3.68-13.48,8.91-18.36,15.34c-5.01,6.6-9.81,13.49-13.73,20.78c-3.92,7.3-7.12,15.08-9.77,22.94
			c-5.41,16.03-10.42,32.21-15.24,48.43c-3.45,11.61-6.7,23.3-9.36,35.11c-5.7,25.28-11.11,50.62-16.33,76
			c-3.52,17.14-6.67,34.36-9.67,51.6c-1.81,10.39-3.18,20.86-4.49,31.33c-1.42,11.27-2.61,22.58-3.76,33.88
			c-0.55,5.39-0.79,10.81-1.16,16.22c-0.72,10.63-1.42,21.27-2.16,31.9c-0.53,7.57-1.08,15.13-1.68,22.7
			c-0.87,10.98-1.82,21.95-2.66,32.93c-0.32,4.15-0.44,8.31-0.58,12.47c-0.4,11.77-0.8,23.53-1.11,35.3
			c-0.41,15.13-0.78,30.26-1.08,45.39c-0.26,13.15-0.35,26.3-0.57,39.45c-0.13,7.52-0.44,15.04-0.52,22.56
			c-0.22,21.14-0.36,42.29-0.53,63.44c-7.86,3.41-13.16,9.12-15.83,17.32c-1.68,5.16-2.09,10.35-1.17,15.69
			C557.16,708.13,557.01,709.52,557.03,710.88z"/>
		<path class="st7" d="M355.98,771.43c-4.61,3.62-9.34,7.09-12.54,12.21c-3.12,4.99-5.25,10.28-5.9,16.14
			c-0.07,0.63-0.09,1.27-0.05,1.9c0.13,2.35,0.6,4.64,3.12,5.52c2.42,0.84,4.09-0.64,5.64-2.31c1.52-1.63,3.14-3.17,4.72-4.75
			c-0.81,6.42-1.67,12.84-2.41,19.27c-0.88,7.6-1.65,15.2-2.48,22.8c-4.23-3.23-8.39-6.55-12.7-9.66c-2.77-2-5.75-3.69-8.64-5.52
			c0.21-3.79,0.39-7.58,0.65-11.37c0.36-5.13,0.78-10.25,1.2-15.38c0.68-8.36,1.38-16.71,2.08-25.07c0.36-3.47,0.83-6.94,1.05-10.42
			c0.46-7.39,0.84-14.79,1.14-22.19c0.37-9.3,0.63-18.6,0.94-27.9c-0.31-9.58-0.11-19.21-1.07-28.72
			c-1.14-11.28-2.56-22.63-5.13-33.66c-4.26-18.27-10.89-35.71-23.36-50.21c-3.25-3.78-7.42-6.78-11.17-10.13
			c-0.39-0.46-0.69-1.08-1.19-1.36c-5.55-3.16-10.96-6.64-16.75-9.3c-7.73-3.54-15.85-5.99-24.54-5.57
			c-2.42,0.26-4.89,0.26-7.23,0.82c-11.53,2.74-21.32,8.58-28.92,17.65c-2.54,3.03-4.36,6.83-5.83,10.55
			c-3.03,7.66-2.05,15.52,0.09,23.2c1.93,6.93,6.41,11.35,13.74,12.64c5.42,0.95,10.85,1.91,16.19,3.25
			c8.27,2.07,13.69,7.47,15.61,15.71c1.16,4.96,1.21,10.18,1.76,15.29c-1.99,12.65-9.52,21.59-19.32,29.07
			c-5.84,4.46-12.41,7.19-19.66,7.88c-8.57,0.81-15.63-2.97-22.02-8.25c-7.33-6.05-14-12.83-17.99-21.5
			c-2.73-5.93-4.09-12.49-6-18.78c-0.36-1.2-0.43-2.49-0.63-3.74c-0.36-5.95-0.87-11.9-1.03-17.86c-0.28-10.44,2.51-20.26,6.9-29.61
			c6.09-12.97,13.46-25.22,22.16-36.58c8.03-10.49,18.3-18.5,29.87-24.84c9.7-5.31,20.01-9.22,30.97-10.12
			c10.42-0.86,20.97-0.26,31.46-0.31c0.61,0.18,1.23,0.33,1.82,0.54c7.89,2.86,16.07,5.13,23.6,8.76
			c8.45,4.06,14.73,11.03,19.84,18.86c3.15,4.84,5.93,9.92,8.88,14.89c0.69,1.57,1.44,3.12,2.06,4.71
			c3.4,8.76,7.32,17.37,9.98,26.35c1.95,6.59,2.44,13.66,3.24,20.55c1.07,9.14,1.99,18.31,2.64,27.48
			c0.63,8.93,0.82,17.9,1.21,26.85c0.17,14.32-0.65,28.59-2.22,42.82c-0.73,6.64-1.42,13.29-2.06,19.95
			C357.08,758.47,356.55,764.95,355.98,771.43z"/>
		<path class="st8" d="M373.36,371.35c5.48-2.07,10.86-4.53,16.48-6.1c5.02-1.4,10.27-2.14,15.47-2.64
			c16.6-1.61,30.98,4.12,43.79,14.2c6.36,5,10.23,11.82,12.99,19.4c4.33,11.89,7.36,24.03,5.96,36.72c-0.77,6.96-2.19,14-4.5,20.59
			c-2.98,8.52-6.77,16.81-10.88,24.86c-7.49,14.67-20.11,22.63-35.99,25.77c-1.84,0.37-3.8,0.18-5.7,0.26
			c-0.38-0.01-0.75-0.03-1.12-0.04c-3.89-0.76-7.88-1.21-11.66-2.35c-6.93-2.09-13.16-5.75-17.05-11.93
			c-5.09-8.08-6.72-17.19-4.91-26.62c1.38-7.22,3.99-14.03,10.39-18.46c2.28-1.57,4.98-2.54,7.48-3.78c2.72-0.08,5.44-0.3,8.16-0.2
			c5.43,0.19,10.06,2.32,13.45,6.6c2.53,3.18,4.68,6.66,7.09,9.94c1.82,2.47,3.61,5,5.7,7.22c2.26,2.4,5.21,2.61,7.86,0.65
			c7.53-5.56,11.42-13.24,12.11-22.42c0.85-11.36-2.18-21.94-7.75-31.73c-3.56-6.26-7.84-12.18-14.87-14.93
			c-7.66-2.99-15.38-3.33-23.21,0.18c-7,3.14-13.7,6.57-19.01,12.25c-1.98,1.93-4.15,3.71-5.92,5.81
			c-7.27,8.61-12.36,18.43-15.82,29.13c-0.31,0.32-0.79,0.59-0.89,0.97c-1.36,4.77-3.02,9.48-3.89,14.34
			c-1.09,6.1-1.88,12.3-2.12,18.48c-0.21,5.25,0.55,10.55,0.88,15.82c0.12,1.71,0.09,3.44,0.4,5.11c1.12,5.93,2.19,11.87,3.6,17.73
			c1.17,4.88,2.8,9.65,4.22,14.46c0.56,1.93,1.12,3.85,1.68,5.78c6.35,15.08,12.7,30.16,19.06,45.24
			c1.82,5.39,3.61,10.78,5.47,16.15c4.26,12.31,7.63,24.85,9.79,37.71c0.83,4.95,1.76,9.89,2.64,14.83
			c0.4,16.21,0.8,32.42,1.2,48.63c-0.38,6.05-0.66,12.11-1.16,18.14c-0.59,7.02-1.37,14.02-2.07,21.02
			c-0.22,2.06-0.37,4.14-0.68,6.19c-0.92,6.24-1.9,12.48-2.85,18.72c-9.05-1.05-17.98-0.52-26.77,1.93
			c-0.87,0.24-1.74,0.47-2.61,0.7c0.55-8.65,1.24-17.3,1.62-25.96c0.39-8.77,0.47-17.55,0.69-26.32c0.01-0.36,0.02-0.72,0.03-1.09
			c0.29-9.76,0.58-19.52,0.87-29.27c0.04-3.35,0.15-6.71,0.11-10.06c-0.14-12.05-0.08-24.1-0.56-36.13
			c-0.5-12.57-3.33-24.84-6.19-37.04c-1.48-6.3-3.47-12.49-5.22-18.73c-1.08-3.44-1.97-6.95-3.29-10.3
			c-4.48-11.34-9.09-22.62-13.7-33.91c-3.17-7.76-6.41-15.49-9.62-23.24c-1.53-6.5-3.05-13-4.6-19.5
			c-2.81-11.83-3.38-23.91-2.34-35.88c0.85-9.92,3.33-19.7,5.07-29.55c0.08-0.44,0.08-0.9,0.12-1.35c1.49-4.54,2.98-9.07,4.46-13.61
			c2.21-4.1,4.34-8.24,6.65-12.28c1.24-2.17,2.83-4.15,4.18-6.27c0.51-0.81,0.8-1.76,1.19-2.64c0.77-0.59,1.62-1.09,2.31-1.77
			c3.68-3.6,7.08-7.53,11.04-10.78C364.58,376.79,369.09,374.22,373.36,371.35z"/>
		<path class="st9" d="M391.95,986.81c1.8-2.14,3.54-4.34,5.42-6.41c8.98-9.9,20.61-15.57,32.77-20.32
			c15.7-6.13,31.4-12.29,47.19-18.17c8.85-3.29,18-4.85,27.43-2.48c10.16,4.26,19.79,9.5,28.87,15.72c2.35,1.61,4.68,3.26,7.01,4.89
			c1.75,1.1,3.53,2.17,5.26,3.32c9.39,6.2,14.91,15.58,20.44,24.95c-1.18,0.02-2.36,0.06-3.54,0.06c-55.83,0-111.65,0-167.48,0
			c-1.18,0-2.36-0.05-3.54-0.07C391.86,987.8,391.9,987.3,391.95,986.81z"/>
		<path class="st3" d="M373.36,371.35c-4.27,2.87-8.78,5.44-12.74,8.68c-3.96,3.25-7.36,7.18-11.04,10.78
			c-0.69,0.67-1.54,1.18-2.31,1.77c-1.31-6.83-2.65-13.66-3.94-20.49c-2.17-11.54-4.34-23.08-6.46-34.63
			c-1.47-7.99-3.05-15.97-4.22-24.01c-0.89-6.07-1.09-12.24-1.82-18.34c-1.91-16.14-2.58-32.35-2.07-48.56
			c0.3-9.47,1.81-18.89,2.4-28.35c0.46-7.47,1.64-14.82,4.15-21.78c2.23-6.18,5.13-12.18,8.38-17.9c2.75-4.82,8.18-6.35,13.04-8.34
			c1.25-0.51,2.53-0.99,3.83-1.31c0.57-0.14,1.24,0.13,1.86,0.22c-7.93,4.26-11.36,11.7-13.52,19.79
			c-3.2,12.02-3.09,24.37-2.76,36.69c0.17,6.32,0.78,12.63,1.02,18.95c0.44,11.76,1.84,23.39,4.35,34.88
			c3.22,14.73,6.38,29.47,9.84,44.14c3.67,15.56,7.65,31.05,11.51,46.57C372.98,370.52,373.19,370.93,373.36,371.35z"/>
		<path class="st10" d="M324.73,827.04c2.89,1.83,5.88,3.52,8.64,5.52c4.31,3.11,8.48,6.43,12.7,9.66c1.63,1.8,3.59,3.41,4.82,5.45
			c3.14,5.22,5.95,10.64,8.9,15.98c1.12,6.03,2.43,12.03,3.33,18.1c1.42,9.55,1.04,19.11-0.38,28.65
			c-1.93,12.97-5.82,25.38-10.52,37.56c-0.36,0.92-0.55,1.91-0.82,2.87c-3.99,11.07-7.98,22.14-11.97,33.2
			c-0.52,1.43-1.04,2.86-1.56,4.29c-4-0.01-8-0.01-12-0.02c0.28-1.78,0.55-3.56,0.85-5.33c1.57-9.31,3.15-18.63,4.73-27.94
			c0.15-0.41,0.38-0.81,0.43-1.24c0.96-7.87,2.05-15.73,2.81-23.63c0.56-5.93,1.25-11.94,0.87-17.84
			c-0.56-8.61-1.65-17.24-3.21-25.73c-1.7-9.25-4.29-18.31-9.64-26.29c-4.66-6.57-9.17-13.24-14.02-19.66
			c-3.04-4.02-6.61-7.65-9.94-11.45c-0.89-1.13-1.87-2.21-2.65-3.41c-1.26-1.93-0.69-3.87,1.39-4.62c1.16-0.42,2.54-0.85,3.69-0.61
			c5.62,1.15,11.23,2.42,16.79,3.86C320.29,825.02,322.48,826.15,324.73,827.04z"/>
		<path class="st11" d="M289.91,931.7c-14.1,16.26-16.88,35.76-15.94,56.65c-4.71,0-9.31,0.05-13.91-0.07
			c-0.5-0.01-1.26-0.97-1.43-1.61c-2.32-8.63-4.55-17.29-6.85-25.92c-0.18-0.66-0.72-1.22-1.09-1.83c0.18-1.14,0.54-2.28,0.52-3.41
			c-0.04-1.97-0.53-3.94-0.46-5.89c0.27-7.45,0.69-14.89,1.06-22.33c6.81-7.81,10.17-16.8,9.33-27.23c0.67-0.84,1.37-1.66,1.99-2.53
			c4.68-6.64,10.4-11.8,18.73-13.29c3.59-0.19,7.02,0.25,10.11,2.27c8.82,5.76,11.86,17.16,7.42,27.91
			c-0.96,2.31-1.95,4.61-2.93,6.92C294.28,924.78,292.09,928.24,289.91,931.7z"/>
		<path class="st10" d="M352.73,953.46c2.32-5.5,4.63-11.01,6.95-16.51c7.07-16.85,15.45-32.93,29.17-45.44
			c4.04-3.68,8.77-6.75,13.57-9.39c5.05-2.78,8.58-1.34,10.52,4.09c1.45,4.05,2.34,8.39,2.83,12.67c1.59,13.82,0.2,27.49-2.78,41.03
			c-0.12,0.53-0.28,1.06-0.48,1.56c-0.64,1.64-1.37,3.68-3.43,3.13c-1.23-0.33-2.49-1.92-3.02-3.23
			c-2.37-5.79-4.47-11.68-6.69-17.53c-0.26-0.68-0.61-1.32-0.94-1.97c-2.98-5.85-7.25-6.64-12.23-2.33
			c-4.78,4.14-7.42,9.66-9.43,15.4c-3.81,10.87-7.23,21.87-10.78,32.82c-0.24,0.75-0.16,1.6-0.23,2.41
			c-1.83,6.05-3.65,12.1-5.48,18.14c-6.54-0.01-13.09-0.02-19.63-0.03c0.01-0.15,0.02-0.3,0.03-0.46c0.42-0.89,0.92-1.74,1.23-2.66
			c2.51-7.43,4.97-14.88,7.49-22.32C350.46,959.71,351.61,956.6,352.73,953.46z"/>
		<path class="st10" d="M296.47,921.32c0.98-2.3,1.97-4.6,2.93-6.92c4.44-10.75,1.4-22.14-7.42-27.91
			c-3.1-2.02-6.53-2.47-10.11-2.27c-1.37-2.65-2.35-5.62-4.19-7.89c-6.73-8.27-13.76-16.28-20.62-24.44
			c-0.63-0.75-0.86-1.85-1.27-2.79c1.07-0.24,2.13-0.52,3.21-0.69c0.31-0.05,0.67,0.24,1,0.39c9.1,4.28,18.26,8.41,27.26,12.89
			c6.48,3.22,12.05,7.79,16.6,13.42c9.02,11.16,14.63,23.87,16.69,38.1c0.7,10.04,1.46,20.08,2.07,30.13
			c0.13,2.13-0.26,4.3-0.4,6.45c-0.56,6.83-1.09,13.66-1.67,20.48c-0.51,6.01-1.09,12.02-1.63,18.03c-4.03,0-8.07,0-12.1,0
			c-0.54-7.82-1.09-15.64-1.63-23.46c-1.14-12.37-3.4-24.55-6.65-36.54c-0.06-0.24-0.32-0.42-0.49-0.63
			C297.51,925.57,296.99,923.44,296.47,921.32z"/>
		<path class="st11" d="M131.32,893.01c2.09-0.86,4.12-1.91,6.27-2.54c7.53-2.22,14.96-2.02,22.24,1.17
			c1.55,0.68,3.18,1.19,4.77,1.78c0.38,0.21,0.75,0.41,1.12,0.62c0,0-0.03-0.02-0.03-0.02c0.48,0.52,0.92,1.1,1.45,1.56
			c3.34,2.89,6.81,5.65,10.04,8.66c2.83,2.64,5.41,5.56,8.09,8.36c-0.35,4.77-0.61,9.54-1.07,14.3c-0.52,5.38-1.44,10.73-1.78,16.11
			c-0.31,4.76-0.52,9.62,0.04,14.34c0.63,5.33,2.18,10.56,3.33,15.83c-2.1-2.46-4.16-4.95-6.31-7.36c-0.49-0.55-1.29-0.83-1.95-1.24
			c-3.03-5.87-5.91-11.83-9.12-17.6c-10.37-18.65-24.43-33.36-44.7-41.32c1.21-4.22,3.37-7.85,6.6-10.86
			C130.78,894.36,130.98,893.62,131.32,893.01z"/>
		<path class="st12" d="M332.53,513.66c3.21,7.74,6.45,15.47,9.62,23.24c4.61,11.29,9.22,22.57,13.7,33.91
			c1.32,3.34,2.21,6.86,3.29,10.3c-5.43,0.73-10.87,1.45-16.3,2.18c-2.95-4.97-5.73-10.06-8.88-14.89
			c-5.11-7.83-11.39-14.8-19.84-18.86c-7.53-3.62-15.7-5.89-23.6-8.76c-0.59-0.22-1.21-0.36-1.82-0.54
			c3.85-2.35,7.68-4.72,11.55-7.03c10.34-6.18,20.69-12.34,31.02-18.52C331.74,514.41,332.12,514,332.53,513.66z"/>
		<path class="st13" d="M566.36,988.3c-5.53-9.37-11.05-18.75-20.44-24.95c-1.73-1.14-3.51-2.21-5.26-3.32
			c8.19-6.49,16.5-12.83,24.51-19.52c4.71-3.93,8.92-8.44,13.39-12.66c4.52-4.27,9.86-6.87,16.06-7.62
			c-3.57,5.1-7.25,10.14-10.7,15.33c-3.89,5.87-6.75,12.32-7.7,19.26c-1.14,8.34,3.78,17.97,14.75,21.45
			c5.3,1.68,10.87,2.51,16.26,3.96c5.64,1.51,10.79,4.09,15.15,8.07C603.71,988.3,585.04,988.3,566.36,988.3z"/>
		<path class="st14" d="M205.39,988.32c-2.11-0.02-4.21-0.04-6.32-0.07c-1.25-2.91-2.43-5.86-3.76-8.74
			c-6.77-14.64-7.94-29.87-5.45-45.67c1.12-7.12,2.07-14.44,1.69-21.6c-0.58-10.98-2.38-21.9-3.64-32.85
			c-1-8.73-1.04-17.52,2.35-25.71c2.72-6.57,6.48-12.71,9.78-19.04c0.05,0.91,0.4,1.93,0.11,2.73c-3.07,8.6-3.39,17.33-1.54,26.2
			c2.45,11.77,6.17,23.32,5.99,35.53c-0.62,8.03-1.05,16.08-1.92,24.09c-0.58,5.39-1.78,10.71-2.7,16.06
			c-2.36,8.99-3.13,18.06-1.9,27.33C199.12,974.32,201.91,981.42,205.39,988.32z"/>
		<path class="st14" d="M123.7,905.67c20.28,7.95,34.33,22.67,44.7,41.32c3.21,5.77,6.09,11.73,9.12,17.6
			c2.73,8.46,6.71,16.31,11.59,23.73c-2.51-0.01-5.02-0.01-7.53-0.02c-3.05-4.37-6.19-8.68-9.13-13.13
			c-8.39-12.67-14.85-26.63-25.26-37.95c-6.76-7.35-13.59-14.7-23.06-18.66c-5.51-2.3-11.1-4.46-16.77-6.32
			c-3.06-1-6.4-1.88-9.55-1.7c-5.37,0.31-10.7,1.38-16.01,2.37c-3.01,0.56-5.93,1.59-8.89,2.41c1.63-2.89,4.08-4.83,7.16-5.92
			c9.37-3.32,18.78-6.76,28.94-6.01C113.95,903.75,118.81,904.88,123.7,905.67z"/>
		<path class="st14" d="M261.14,900.04c0.83,10.43-2.53,19.42-9.33,27.23c-3.63,3.48-7.25,6.97-10.88,10.45
			c-2.31,1.86-4.65,3.69-6.93,5.59c-5.32,4.43-10.1,9.28-12.21,16.15c-0.52,1.33-1.2,2.62-1.53,3.99
			c-1.99,8.43-2.18,16.76,1.71,24.79c-2,0-3.99-0.01-5.99-0.01c-1.78-5.78-4.07-11.46-5.19-17.37c-1.04-5.53-1.86-11.46-0.97-16.92
			c1.57-9.63,7.55-17.16,14.86-23.39c6.67-5.69,14.24-10.3,19.99-17.1c5.7-6.74,12.29-12.86,14.8-21.76
			C260.04,894.48,260.59,897.26,261.14,900.04z"/>
		<path class="st14" d="M77.83,939.34c2.38-0.9,4.69-2.31,7.14-2.58c6.19-0.69,12.48-1.45,18.67-1.14
			c20.96,1.05,38.25,9.66,51.03,26.51c5.14,6.78,9.76,13.95,14.67,20.91c0.82,1.17,1.89,2.16,2.84,3.23c0,0,0.01-0.06,0.01-0.06
			c0.37,0.55,0.74,1.1,1.12,1.65c0,0-0.03-0.02-0.03-0.02c-0.65,0.17-1.31,0.5-1.96,0.5c-5.46,0-10.93-0.05-16.39-0.09
			c-3.34-4.73-6.58-9.54-10.04-14.18c-4.83-6.47-9.98-12.6-16.8-17.22c-10.67-7.21-22.46-11.79-34.74-15.12
			C88.32,940.37,83.01,940.1,77.83,939.34z"/>
		<path class="st15" d="M200.05,834.64c-3.3,6.33-7.06,12.47-9.78,19.04c-3.39,8.2-3.35,16.98-2.35,25.71
			c1.25,10.95,3.06,21.87,3.64,32.85c0.38,7.16-0.57,14.47-1.69,21.6c-2.49,15.8-1.33,31.03,5.45,45.67
			c1.33,2.88,2.51,5.83,3.76,8.74c-2.21,0.03-4.43,0.07-6.64,0.1c-0.31-0.93-0.55-1.89-0.95-2.77c-1.88-4.15-3.8-8.27-5.7-12.4
			c-1.15-5.27-2.69-10.5-3.33-15.83c-0.56-4.72-0.35-9.57-0.04-14.34c0.35-5.39,1.26-10.73,1.78-16.11
			c0.46-4.76,0.72-9.53,1.07-14.3c-0.36-4.56-0.73-9.12-1.09-13.67c-0.88-8.79-2.16-17.57-2.48-26.39
			c-0.18-4.97,1.23-9.99,1.93-14.99c2.08-9.23,7.81-16.31,13.79-23.22C198.2,833.44,199.39,832.7,200.05,834.64z"/>
		<path class="st11" d="M221.8,959.47c2.11-6.86,6.89-11.72,12.21-16.15c2.28-1.9,4.62-3.73,6.93-5.59
			c0.17,0.97,0.38,1.94,0.49,2.92c0.58,5.19,0.93,10.41,1.77,15.55c0.42,2.6,1.69,5.07,2.58,7.59c0.81,3.22,1.42,6.51,2.47,9.65
			c1.4,4.19,3.08,8.3,4.77,12.39c0.83,2.02,0.21,2.58-1.81,2.56c-5.62-0.07-11.23-0.03-16.85-0.03c-1.11-2.43-2.28-4.83-3.34-7.29
			C227.92,973.88,224.87,966.67,221.8,959.47z"/>
		<path class="st15" d="M72.92,915.31c2.96-0.82,5.88-1.85,8.89-2.41c5.31-0.99,10.64-2.06,16.01-2.37c3.15-0.18,6.49,0.7,9.55,1.7
			c5.67,1.86,11.26,4.02,16.77,6.32c9.48,3.96,16.3,11.3,23.06,18.66c10.41,11.32,16.87,25.28,25.26,37.95
			c2.94,4.44,6.08,8.76,9.13,13.13c-2.77-0.15-5.54-0.3-8.32-0.45c0,0,0.03,0.02,0.03,0.02c-0.37-0.55-0.74-1.1-1.12-1.65
			c0,0-0.01,0.06-0.01,0.06c-1.53-2.92-2.79-6.03-4.65-8.73c-7.55-11.02-14.67-22.42-23.15-32.7c-6.6-8.01-13.62-16.28-23.74-20.33
			c-7.53-3.02-15.19-5.98-23.06-7.81c-7.02-1.63-14.34-1.07-21.34,1.41C73.38,919.13,72.28,918.12,72.92,915.31z"/>
		<path class="st15" d="M259.49,891.7c-2.51,8.91-9.1,15.02-14.8,21.76c-5.75,6.8-13.32,11.41-19.99,17.1
			c-7.31,6.23-13.29,13.76-14.86,23.39c-0.89,5.46-0.08,11.39,0.97,16.92c1.12,5.91,3.41,11.59,5.19,17.37
			c-2.23,0.04-4.45,0.07-6.68,0.11c-0.3-0.75-0.59-1.5-0.88-2.25c-4.7-12.16-7.74-24.51-4.09-37.58c3.12-5.43,6.24-10.85,9.36-16.28
			c4.44-3.83,8.88-7.66,13.33-11.48c4.44-3.81,8.89-7.6,13.34-11.4c5.3-5.88,10.61-11.74,15.88-17.65
			C257.39,890.42,258.4,889.13,259.49,891.7z"/>
		<path class="st15" d="M77.83,939.34c5.18,0.77,10.49,1.04,15.5,2.4c12.29,3.33,24.07,7.91,34.74,15.12
			c6.82,4.61,11.97,10.74,16.8,17.22c3.46,4.64,6.7,9.45,10.04,14.18c-6.09,1.72-9.14-2.08-12.16-6.41
			c-7.51-10.78-16.72-19.85-28.83-25.25c-9.22-4.11-18.84-7.36-28.27-11.01c-2.11-0.82-4.26-1.56-6.24-2.63
			C78.17,942.27,76.63,941.3,77.83,939.34z"/>
		<path class="st12" d="M335.25,413.77c-1.49,4.54-2.98,9.07-4.46,13.61c-10.28,1.98-20.02,5.63-29.67,9.59
			c-1.05,0.43-2.33,0.79-3.4,0.6c-2.46-0.42-3.52-3.79-1.62-5.51c1.85-1.67,4.12-2.91,6.3-4.17c9.99-5.79,20.49-10.47,31.51-13.93
			C334.33,413.83,334.8,413.84,335.25,413.77z"/>
		<path class="st5" d="M318.9,988.31c0.55-6.01,1.12-12.02,1.63-18.03c0.58-6.83,1.12-13.66,1.67-20.48
			c2.33-1.36,4.65-2.72,6.98-4.08c0.76,3.11,1.51,6.22,2.27,9.32c-1.58,9.31-3.16,18.62-4.73,27.94c-0.3,1.77-0.57,3.55-0.85,5.33
			C323.55,988.31,321.22,988.31,318.9,988.31z"/>
		<path class="st5" d="M305.17,964.85c0.54,7.82,1.09,15.64,1.63,23.46c-7.31,0-14.63,0-22.69,0c2.69-3.58,4.8-6.81,7.33-9.67
			c3.96-4.48,8.18-8.72,12.33-13.03C304.12,965.24,304.69,965.1,305.17,964.85z"/>
		<path class="st8" d="M360.27,988.33c1.83-6.05,3.65-12.09,5.48-18.14c5.62,4.06,11.23,8.12,16.85,12.18
			c0.41,1.98,0.83,3.96,1.24,5.93C375.99,988.31,368.13,988.32,360.27,988.33z"/>
		<path class="st12" d="M245.77,963.79c-0.89-2.53-2.16-4.99-2.58-7.59c-0.83-5.14-1.19-10.36-1.77-15.55
			c-0.11-0.98-0.32-1.95-0.49-2.92c3.63-3.48,7.25-6.97,10.88-10.45c-0.37,7.44-0.79,14.88-1.06,22.33
			c-0.07,1.95,0.42,3.92,0.46,5.89c0.02,1.13-0.33,2.27-0.52,3.41C249.05,960.53,247.41,962.16,245.77,963.79z"/>
		<path class="st12" d="M221.8,959.47c3.07,7.2,6.13,14.41,9.22,21.6c1.06,2.45,2.22,4.86,3.34,7.29
			c-4.13-0.04-8.25-0.07-12.38-0.11c-3.88-8.04-3.7-16.36-1.7-24.79C220.6,962.08,221.28,960.79,221.8,959.47z"/>
		<path class="st11" d="M204.33,948.52c-3.65,13.07-0.61,25.42,4.09,37.58c0.29,0.75,0.59,1.5,0.88,2.25
			c-1.31-0.01-2.61-0.02-3.92-0.03c-3.48-6.9-6.27-14-7.3-21.75c-1.23-9.27-0.45-18.34,1.9-27.33c0.41,0.77,0.85,1.53,1.22,2.32
			C202.27,943.87,203.3,946.2,204.33,948.52z"/>
		<path class="st12" d="M185.78,973.18c1.9,4.13,3.83,8.26,5.7,12.4c0.4,0.89,0.64,1.85,0.95,2.77c-1.1-0.02-2.21-0.03-3.31-0.05
			c-4.88-7.41-8.86-15.26-11.59-23.73c0.66,0.41,1.45,0.69,1.95,1.24C181.62,968.23,183.69,970.72,185.78,973.18z"/>
		<path class="st12" d="M296.47,921.32c0.52,2.12,1.04,4.25,1.56,6.37c-2.71,1.34-5.41,2.68-8.12,4.01
			C292.09,928.24,294.28,924.78,296.47,921.32z"/>
		<path class="st12" d="M383.85,988.3c-0.41-1.98-0.83-3.96-1.24-5.93c2.3,1.16,4.59,2.35,6.91,3.48c0.78,0.38,1.62,0.65,2.44,0.96
			c-0.05,0.49-0.1,0.99-0.15,1.48C389.15,988.29,386.5,988.29,383.85,988.3z"/>
		<path class="st3" d="M698.72,13.67c-2.54-0.01-5.07-0.02-7.61-0.03C693.65,13.65,696.18,13.66,698.72,13.67z"/>
		<path class="st16" d="M340.68,987.84c-0.01,0.15-0.02,0.3-0.03,0.46c-0.92,0.01-1.84,0.02-2.76,0.03
			c0.52-1.43,1.04-2.86,1.57-4.29C339.86,985.3,340.27,986.57,340.68,987.84z"/>
		<path class="st4" d="M692.34,825.94c-3.01,12.52-6.01,25.04-9.02,37.56c-0.2-0.64-0.5-1.53-0.95-2.55
			c-0.4-0.92-5.75-10.87-16.51-14.51c-5.4-1.82-10.31-0.54-15.31,1.23c-1.18,0.42-2.38,0.77-3.57,1.15
			c0.53-3.82,1.07-7.63,1.6-11.45c0.64-0.3,1.25-0.77,1.93-0.89c5.85-1.01,11.73-1.81,17.55-2.96c5.02-0.99,10.02-2.14,14.92-3.61
			C686.21,828.94,689.23,827.28,692.34,825.94z"/>
		<path class="st3" d="M648.59,837.36c-0.53,3.82-1.07,7.63-1.6,11.45c-2.19,1.72-4.42,3.4-6.57,5.17
			c-5.83,4.81-9.33,11.17-11.91,18.13c-1.51,4.08-3.09,8.18-6.79,10.81c-1.3,0.93-2.77,3.2-4.76,0.76
			c0.71-7.64,1.42-15.28,2.13-22.91c0.61-0.76,1.43-1.76,2.42-2.93c0,0,1.59-1.89,3.15-3.62c5.72-6.38,9.87-9.69,14.76-13.44
			C641.89,838.87,645.5,838.45,648.59,837.36z"/>
		<path class="st4" d="M677.2,896.25c-2.44,11.75-4.89,23.49-7.33,35.24c-2.02-1.68-3.71-3.02-4.87-3.92c0,0-11.33-8.66-17.95-10.64
			c-1.62-0.49-3.32-0.72-4.98-1.07c0-2.36,0.01-4.72,0.01-7.07c0.18-0.35,0.36-0.71,0.53-1.06c5.36-0.38,10.79-0.36,16.08-1.23
			c5.72-0.94,10.93-3.43,15.25-7.5C674.96,898.01,676.11,897.16,677.2,896.25z"/>
		<path class="st17" d="M666.6,690.14c-0.27,3.06-0.44,6.13-0.83,9.18c-0.95,7.48-2.01,14.94-3.02,22.4
			c-0.35,2.58-0.71,5.15-1.07,7.73c-0.92,1.23-1.62,2.87-2.85,3.54c-0.69,0.37-2.4-0.66-3.39-1.41c-5.33-4.03-5.15-9.76-4.46-15.52
			c0.77-6.5,4.52-11.59,8.26-16.65c1.71-2.32,3.38-4.67,5.13-6.96C665.02,691.61,665.85,690.91,666.6,690.14z"/>
		<path class="st18" d="M638.62,625.28c7.57,0.05,11.11,3.33,11.07,10.23c-0.04,5.87-5.28,11.1-11.19,11.02
			c-6.36-0.08-10.47-4.81-10.47-10.89C628.02,630.57,631.02,624.62,638.62,625.28z"/>
		<path class="st4" d="M580.44,866.24c0.58-0.69,1.48-1.74,2.64-2.97c1.47-1.58,1.93-1.94,3.11-3.15c2.79-2.87,5.55-5.78,8.33-8.67
			c0.18-0.19,0.44-0.31,0.66-0.47c-0.01,2.37,0.36,4.81-0.09,7.09c-1.26,6.36-2.64,12.71-4.46,18.92c-0.63,2.17-2.51,4.06-4.1,5.83
			c-0.26,0.29-0.79,0.7-1.55,0.91c-1.85,0.51-3.57-0.77-3.66-0.83c-0.69-0.53-1.77-1.75-1.75-7.64
			C579.57,872.98,579.74,869.89,580.44,866.24z"/>
		<path class="st18" d="M578.22,789.94c-5.16,0.64-9.16-4.51-9.19-9.01c-0.02-5.12,4.47-9.56,9.58-9.52
			c4.82,0.04,9.47,4.41,9.38,9.17C587.9,785.36,583.87,790.69,578.22,789.94z"/>
		<path class="st3" d="M642.07,908.78c0,2.36-0.01,4.72-0.01,7.07c-9.31,0.35-18.61,0.69-27.92,1.04c0.11-1.34,0.21-2.68,0.31-4.03
			c0.12-1.61,0.24-3.21,0.35-4.8c1.99-0.13,3.97-0.27,5.96-0.4c3.29,0,6.58,0,9.87,0c3.62,0.02,7.24,0.04,10.86,0.06
			C641.68,908.07,641.88,908.43,642.07,908.78z"/>
		<path class="st18" d="M696.56,736.18c0,5.09-3.23,8.49-8.11,8.5c-5.45,0.02-8.81-3.32-8.8-8.75c0.01-4.61,3.8-8.63,8.38-8.57
			C692.89,727.42,697.14,731.4,696.56,736.18z"/>
		<path class="st4" d="M611.53,812.35c0.55-4.55,1.39-9.09,1.58-13.65c0.48-11.56,0-23.08-2.65-34.42c3.34,1.35,5.08,4.32,5.81,7.38
			c2.55,10.62,3.28,21.43,1.1,32.22c-0.55,2.72-2.11,5.27-3.43,7.78C613.66,812.17,612.36,812.14,611.53,812.35z"/>
		<path class="st17" d="M656.21,773.55c-0.54,6.02-1.09,12.03-1.64,18.05c-1.44,5.81-3.71,11.2-7.95,16
			c-2.75-2.23-2.51-5.31-2.25-7.74c0.99-9.37,4.21-17.98,10.31-25.33C655.06,774.08,655.7,773.87,656.21,773.55z"/>
		<path class="st18" d="M695.48,780.22c0.84,4.62-4.31,8.06-7.66,8.05c-4.14-0.02-8.21-4.14-8.15-8.25c0.07-4.06,3.98-8.08,8.07-8
			C691.69,772.11,696.25,775.35,695.48,780.22z"/>
		<path class="st18" d="M587.18,710.35c-3.79-0.02-6.69-3.18-6.72-7.31c-0.03-3.89,2.98-7.87,5.98-7.92
			c4.56-0.08,8.62,3.27,8.71,7.2C595.23,705.88,590.58,711.2,587.18,710.35z"/>
		<path class="st18" d="M579.12,921.32c-4.55,0-7.4-2.76-7.38-7.15c0.02-3.96,3.06-7.03,6.99-7.05c4.73-0.02,7.79,2.95,7.71,7.48
			C586.38,918.4,583.2,921.32,579.12,921.32z"/>
		<path class="st18" d="M652.79,903.88c-4.07-0.03-6.46-2.55-6.38-6.74c0.06-3.47,3.15-6.35,6.8-6.35c3.81,0,6.33,2.81,6.29,6.98
			C659.45,901.63,656.96,903.9,652.79,903.88z"/>
		<path class="st18" d="M525.79,917.48c3.45,0.02,5.61,2.14,5.6,5.51c-0.01,3.5-2.17,5.47-5.93,5.42c-3.36-0.04-5.54-2.15-5.5-5.31
			C520.02,919.55,522.19,917.46,525.79,917.48z"/>
		<path class="st18" d="M679.56,813.37c-3.25-0.03-5.4-2.25-5.35-5.52c0.04-2.89,2.48-5.33,5.37-5.37c2.92-0.04,5.59,2.8,5.52,5.87
			C685.02,811.37,682.78,813.4,679.56,813.37z"/>
		<path class="st18" d="M568.44,862.44c-3.32,0-5.41-2.07-5.43-5.38c-0.02-3.11,2.15-5.44,5.12-5.5c2.94-0.06,5.76,2.72,5.76,5.68
			C573.89,860.05,571.39,862.44,568.44,862.44z"/>
		<path class="st18" d="M642.59,747.95c2.66-0.04,4.94,2.55,4.87,5.53c-0.06,2.5-2.22,4.69-4.72,4.78
			c-2.52,0.09-4.48-1.97-4.52-4.73C638.18,750.48,640.13,747.99,642.59,747.95z"/>
		<path class="st18" d="M657.87,866.36c-0.03,2.56-1.71,4.27-4.16,4.24c-2.43-0.03-4.04-1.77-4.03-4.37
			c0.01-2.43,1.87-4.36,4.16-4.32C656.13,861.96,657.89,863.9,657.87,866.36z"/>
		<path class="st18" d="M561.3,876.06c2.6,0.07,3.93,1.46,3.9,4.12c-0.02,2.46-1.86,4.17-4.35,4.06c-2.25-0.1-3.91-1.98-3.83-4.31
			C557.11,877.66,558.95,876,561.3,876.06z"/>
		<path class="st18" d="M686.69,706.53c2.09-0.03,3.86,1.81,3.88,4.02c0.02,2.25-1.67,4.1-3.77,4.12c-2.08,0.03-3.86-1.81-3.88-4.02
			C682.9,708.41,684.59,706.56,686.69,706.53z"/>
		<path class="st18" d="M656.94,671.07c2.24-0.03,3.61,1.38,3.64,3.75c0.03,2.32-1.34,3.8-3.59,3.89c-2.25,0.09-3.51-1.27-3.51-3.79
			C653.47,672.36,654.6,671.11,656.94,671.07z"/>
		<path class="st18" d="M538.47,947.36c-0.06,2.04-1.94,3.84-3.92,3.75c-2.05-0.08-3.78-1.93-3.67-3.92
			c0.12-2.25,1.67-3.63,3.96-3.53C536.69,943.75,538.52,945.61,538.47,947.36z"/>
		<path class="st18" d="M586.91,813.38c3.1,0.04,4.46,1.53,4.46,3.68c-0.01,2.35-1.5,3.17-3.47,3.35c-1.54,0.15-3.93-2.08-3.45-3.47
			C584.97,815.45,586.28,814.24,586.91,813.38z"/>
		<path class="st4" d="M608.44,910.89c0.17,1.1,0.3,2.31,0.38,3.6c0.06,1.06,0.08,2.06,0.06,2.99c-3.29,0.54-6.58,1.08-9.88,1.62
			c1.26-1.41,2.76-2.93,4.54-4.46C605.25,913.16,606.91,911.92,608.44,910.89z"/>
		<path class="st18" d="M588.57,728.65c-0.46,2.54-1.35,3.48-3.28,3.52c-1.93,0.04-3.21-0.57-3.2-2.73
			c0.01-1.95,1.11-3.36,2.91-3.14C586.27,726.45,587.39,727.82,588.57,728.65z"/>
		<path class="st18" d="M672.31,871.74c-2.38-0.04-3.42-1.38-3.39-3.12c0.03-1.85,1.56-3.18,3.3-2.76c1.16,0.28,2.69,1.77,2.83,2.88
			C675.26,870.37,674.02,871.75,672.31,871.74z"/>
		<path class="st18" d="M637.27,701.51c-2.33-0.42-3.3-1.17-3.41-2.99c-0.12-1.88,1.1-3.03,2.54-2.71c1.13,0.24,2.37,1.71,2.76,2.89
			C639.37,699.35,637.95,700.55,637.27,701.51z"/>
		<path class="st18" d="M612.49,891.85c1.79,0.02,3.14,0.84,2.72,2.53c-0.27,1.11-1.67,1.95-2.56,2.91
			c-0.92-0.94-2.33-1.74-2.63-2.84C609.57,892.78,610.87,891.9,612.49,891.85z"/>
		<path class="st18" d="M624.4,834.58c0.89,1.71,1.9,2.77,1.71,3.51c-0.25,0.95-1.47,1.65-2.28,2.45c-0.81-0.94-2.06-1.8-2.28-2.86
			C621.42,837.07,622.94,836.11,624.4,834.58z"/>
		<path class="st18" d="M607.07,735.6c-1.43,1.17-2.46,2.52-3,2.35c-1.08-0.34-1.89-1.52-2.81-2.36c0.82-0.78,1.59-2.09,2.49-2.2
			C604.57,733.3,605.54,734.52,607.07,735.6z"/>
		<path class="st18" d="M657.71,822.87c-1.34,1.15-2.4,2.46-2.75,2.29c-0.98-0.47-1.66-1.55-2.46-2.39
			c0.79-0.59,1.52-1.55,2.37-1.66C655.55,821.03,656.35,821.98,657.71,822.87z"/>
		<path class="st4" d="M580,854.22c0.16,1.1,0.32,2.2,0.48,3.29C580.32,856.42,580.16,855.32,580,854.22z"/>
		<path class="st2" d="M630.63,907.66c-0.74-0.34-1.48-0.68-2.22-1.02C629.15,906.97,629.89,907.31,630.63,907.66z"/>
		<path class="st2" d="M622.44,906.64c-0.56,0.34-1.12,0.67-1.68,1.01C621.32,907.32,621.88,906.98,622.44,906.64z"/>
		<path class="st4" d="M595.59,844.49c-0.3-0.58-0.6-1.15-0.9-1.73C594.99,843.34,595.29,843.92,595.59,844.49z"/>
		<path class="st4" d="M594.52,839.58c-0.32-0.38-0.64-0.77-0.96-1.15C593.89,838.81,594.21,839.2,594.52,839.58z"/>
		<path class="st2" d="M642.07,908.78c-0.19-0.35-0.39-0.71-0.58-1.06c0.37,0,0.74,0,1.11,0
			C642.43,908.07,642.25,908.42,642.07,908.78z"/>
		<path class="st19" d="M636.65,938.21c3.61-1.39,7.21-2.79,10.82-4.18c0.29,0.28,0.58,0.56,0.86,0.83
			c-0.63,1.66-1.27,3.31-1.9,4.97c-1.6,2.2-3.21,4.4-4.9,6.72c2.85,1.15,4.66,3.49,4.9,6.93c-0.36,2.02-0.64,4.06-1.09,6.05
			c-0.39,1.72-1.33,1.88-2.72,0.79c-2.5-1.96-5.08-3.8-7.63-5.69c-0.96-2.06-1.92-4.12-2.94-6.3c-3.52,0.59-7.41,1.24-11.29,1.9
			c-2.04-0.85-4.1-1.64-6.09-2.58c-0.41-0.19-0.56-0.95-0.82-1.45c0.35-0.27,0.86-0.67,1.48-1.15c1.42-1.08,2.15-1.63,2.83-2.02
			c0.64-0.36,1.6-0.82,2.9-1.15c4.61-1.05,7.58-1.01,9.48-0.76C631.13,941.21,632.51,941.44,636.65,938.21z"/>
		<path class="st20" d="M620.75,950.23c3.89-0.65,7.77-1.3,11.29-1.9c1.02,2.19,1.98,4.24,2.94,6.3c-1.64,3.24-3.27,6.49-4.91,9.74
			c-1.5,1.29-2.8,3.03-4.53,3.77c-2.93,1.25-6.1,2.03-9.23,2.71c-1.89,0.41-2.35-1.02-2-2.57c0.84-3.75,1.54-7.56,2.75-11.19
			C617.9,954.67,619.5,952.51,620.75,950.23z"/>
		<path class="st20" d="M646.44,953.49c-0.24-3.44-2.05-5.79-4.9-6.93c1.69-2.32,3.29-4.52,4.9-6.72c3.19,1.1,6.4,2.15,9.56,3.33
			c3.55,1.32,7.06,2.76,11.04,4.32c-0.73,0.71-1.6,2.11-2.86,2.71c-2.73,1.3-5.65,2.18-8.5,3.24
			C652.59,953.45,649.51,953.47,646.44,953.49z"/>
		<path class="st13" d="M646.44,953.49c3.08-0.02,6.15-0.04,9.23-0.06c0.01,4.15-2.67,6.56-6.01,7.82
			c-4.24,1.6-8.71,2.68-13.17,3.55c-2.03,0.4-4.26-0.25-6.4-0.43c1.64-3.25,3.27-6.49,4.91-9.74c2.55,1.89,5.13,3.74,7.63,5.69
			c1.39,1.09,2.33,0.94,2.72-0.79C645.8,957.55,646.08,955.51,646.44,953.49z"/>
		<path class="st20" d="M636.65,938.21c-1.46,2.19-2.97,3.37-6.12,2.92c-1.18-0.17-2.08,0-2.15-0.01c-1.39-0.05-3.62,0.06-7.33,0.76
			c-0.52-0.46-2.7-2.47-2.98-5.79c-0.18-2.13,0.51-3.78,0.89-4.53c2.48,4.93,6.89,3.87,10.97,3.89
			C632.54,935.47,634.98,935.89,636.65,938.21z"/>
		<path class="st11" d="M176.5,847.01c-0.53-1.79-1.1-3.57-1.58-5.38c-0.92-3.48-2.23-6.92-2.61-10.46
			c-1.01-9.68,5.31-16.1,14.47-17.78c13.94-2.56,24.33,3.5,33.09,13.5c1.9,2.17,3.53,4.57,5.34,6.81c0.36,0.44,1.02,0.64,1.54,0.96
			c0.24,1.04,0.27,2.18,0.75,3.09c7.22,13.67,8.87,28.7,10.6,43.67c0.77,6.62,0.76,13.34,1.22,20c0.18,2.66,0.68,5.29,1.03,7.93
			c-4.45,3.8-8.9,7.59-13.34,11.4c-4.45,3.82-8.89,7.66-13.33,11.48c-3.02-11.05-6.05-22.1-9.07-33.14
			c0.17-12.21-3.54-23.76-5.99-35.53c-1.85-8.87-1.53-17.6,1.54-26.2c0.28-0.79-0.06-1.81-0.11-2.73c-0.65-1.94-1.85-1.21-2.62-0.31
			c-5.98,6.91-11.71,13.99-13.79,23.22c-1.79-2.89-3.54-5.8-5.38-8.65C177.8,848.19,177.09,847.64,176.5,847.01z"/>
		<path class="st17" d="M449.09,752.81c3.97,1.11,7.88,2.48,11.91,3.28c5.7,1.13,11.5,1.73,17.22,2.79
			c1.99,0.37,3.86,1.42,5.78,2.15c0.86,3.21,1.78,6.41,2.57,9.64c3.53,14.42,7.03,28.85,10.54,43.27c-1.73,3.02-3.05,6.37-5.25,9
			c-6.02,7.19-12.41,14.06-18.66,21.06c-0.17,0.19-0.45,0.3-0.68,0.44c-0.37-0.66-0.93-1.28-1.09-1.99
			c-1.62-7.07-3.14-14.16-4.81-21.22c-0.17-0.71-1.09-1.24-1.66-1.86c0.29-7.54-1.45-14.61-5.03-21.23c0.25-0.67,0.84-1.42,0.7-2
			c-0.87-3.68-1.87-7.33-2.88-10.97c-2-7.21-4.08-14.4-6.04-21.62C450.75,760,449.96,756.39,449.09,752.81z"/>
		<path class="st21" d="M449.09,752.81c0.87,3.58,1.66,7.19,2.63,10.74c1.97,7.22,4.04,14.41,6.04,21.62
			c1.01,3.64,2.01,7.29,2.88,10.97c0.14,0.58-0.45,1.33-0.7,2c-4.36-5.69-9.72-10.16-16.4-12.82c-2.76-1.1-5.72-1.67-8.59-2.49
			c-3.25-3.26-6.34-6.69-9.79-9.73c-5.99-5.29-13.61-6.91-21.08-8.76c-2.27-0.56-4.61-0.85-6.92-1.27
			c0.95-6.24,1.93-12.47,2.85-18.72c0.3-2.05,0.46-4.13,0.68-6.19c10.16-1.83,20.32-3.65,30.48-5.48
			c2.37,5.18,4.76,10.37,9.37,14.01C443.29,748.87,446.24,750.78,449.09,752.81z"/>
		<path class="st17" d="M409.86,504.37c0.37,0.01,0.75,0.03,1.12,0.04c0.99,3.94,1.8,7.93,2.99,11.8
			c5.3,17.22,10.64,34.43,16.09,51.6c2.96,9.32,6.16,18.57,9.24,27.86c0.25,0.77,0.37,1.58,0.54,2.37
			c-5.23,2.56-9.58,6.08-12.58,11.17c-0.59,1-1.38,1.9-2.2,2.73c-6.48,6.66-8.25,14.7-6.31,23.5c0.59,2.67,2.41,5.22,4.16,7.45
			c1.95,2.47,4.66,1.97,6.99-0.22c3.06-2.88,6.13-5.95,9.76-7.93c3.26-1.79,7.16-1.16,10.53,0.91c1.09,4.73,2.14,9.47,3.28,14.19
			c1.41,5.83,2.91,11.65,4.37,17.47c-0.42,4.9-3.63,8.42-6.45,11.95c-2.91,3.64-6.59,6.64-9.8,10.05c-2.95,3.13-5.73,6.42-8.59,9.64
			c-1.9-7.28-3.81-14.57-5.71-21.85c-0.12-0.8-0.17-1.61-0.36-2.39c-2.03-8.38-4.1-16.76-6.13-25.15
			c-1.68-6.91-3.29-13.83-5.03-20.72c-0.27-1.08-1.09-2.02-1.65-3.02c0.04-0.9,0.07-1.79,0.11-2.69c1.73,0.16,2.31-0.51,2.86-2.31
			c0.85-2.81,2.11-5.73,3.99-7.94c4.8-5.64,8.23-12.65,15.71-15.76c-3.51-10.45-6.91-20.54-10.29-30.63
			c-2.63-7.87-5.41-15.7-7.83-23.63c-3.15-10.35-5.88-20.84-9.08-31.17C408.78,509.02,408.1,506.75,409.86,504.37z"/>
		<path class="st21" d="M464.97,819.37c0.57,0.61,1.49,1.15,1.66,1.86c1.66,7.06,3.18,14.15,4.81,21.22
			c0.16,0.71,0.72,1.33,1.09,1.99c-4.54,5.37-9.44,10.48-13.56,16.17c-7.9,10.92-14.2,22.78-17.03,36.06
			c-1.15,5.37-0.79,11.05-1.12,16.59c-0.9,0.45-2.04,0.69-2.66,1.39c-4.8,5.45-9.5,11-14.23,16.52c-3.21-2.97-4.04-6.95-4.2-10.99
			c-0.73-18.38,4.86-34.81,15.46-49.72c2.91-4.09,5.23-8.59,7.81-12.91c0.49-0.34,1.1-0.59,1.45-1.04c3.7-4.66,7.6-9.18,10.97-14.07
			C460.21,835.46,463.77,827.88,464.97,819.37z"/>
		<path class="st12" d="M371,683.07c-0.29,9.76-0.58,19.52-0.87,29.27c-0.01,0.36-0.02,0.72-0.03,1.09
			c-0.22,8.78-0.3,17.56-0.69,26.32c-0.38,8.66-1.07,17.31-1.62,25.96c-3.94,1.9-7.88,3.81-11.82,5.71
			c0.57-6.48,1.1-12.96,1.72-19.43c0.64-6.65,1.33-13.3,2.06-19.95c1.56-14.23,2.38-28.5,2.22-42.82c0.6-0.39,1.21-0.76,1.8-1.16
			C366.19,686.4,368.59,684.74,371,683.07z"/>
		<path class="st8" d="M361.37,861.41c0.18-8.58,0.17-17.17,0.6-25.74c0.52-10.25,1.4-20.48,2.15-30.72
			c0.13-1.79,0.38-3.58,0.58-5.37c2.24,1.32,4.8,2.29,6.65,4.01c9.25,8.6,10.69,19.1,6.66,30.6C374.43,844.44,368,853,361.37,861.41
			z"/>
		<path class="st0" d="M497.12,813.94c-3.51-14.42-7.01-28.85-10.54-43.27c-0.79-3.23-1.71-6.43-2.57-9.64
			c1.91,0.78,4.13,1.18,5.66,2.43c3.82,3.14,7.73,6.33,10.8,10.15c1.97,2.44,3.17,5.95,3.56,9.12c1.11,9.16-0.15,18.15-3.78,26.7
			C499.55,811.07,498.18,812.44,497.12,813.94z"/>
		<path class="st4" d="M457.85,667.3c-1.46-5.82-2.96-11.64-4.37-17.47c-1.14-4.72-2.19-9.46-3.28-14.19
			c7.28,2.46,12.7,11.51,11.34,19.04c-0.64,3.55-1.41,7.07-2.25,10.58C459.11,666,458.34,666.62,457.85,667.3z"/>
		<path class="st8" d="M340.68,987.84c-0.41-1.27-0.82-2.54-1.23-3.81c3.99-11.07,7.98-22.14,11.97-33.2
			c0.44,0.88,0.87,1.76,1.31,2.63c-1.11,3.13-2.27,6.25-3.33,9.4c-2.51,7.43-4.97,14.88-7.49,22.32
			C341.6,986.1,341.09,986.96,340.68,987.84z"/>
		<path class="st12" d="M328.67,775.22c-11.88-4.1-19.5-14.34-18.98-25.9c0.37-8.28,3.93-15.44,9.17-21.6
			c3.95-4.64,8.6-8.69,12.94-13.01c-0.31,9.3-0.56,18.6-0.94,27.9c-0.3,7.4-0.68,14.8-1.14,22.19
			C329.5,768.29,329.02,771.75,328.67,775.22z"/>
		<path class="st12" d="M291.06,592c-5.64,0.54-11.27,1.26-16.93,1.57c-5.17,0.29-10.2-0.73-15.11-2.49
			c-6.12-2.2-11.47-8.27-10.44-15.3c8.7-0.43,16.82,2.03,24.55,5.57c5.79,2.65,11.2,6.14,16.75,9.3
			C290.37,590.92,290.67,591.54,291.06,592z"/>
		<path class="st16" d="M409.86,504.37c-1.76,2.38-1.08,4.65-0.26,7.29c3.21,10.33,5.93,20.82,9.08,31.17
			c2.42,7.94,5.19,15.76,7.83,23.63c3.38,10.09,6.78,20.18,10.29,30.63c-7.48,3.11-10.91,10.12-15.71,15.76
			c-1.88,2.21-3.14,5.13-3.99,7.94c-0.55,1.8-1.13,2.48-2.86,2.31c-1.82-6.42-3.45-12.9-5.51-19.24c-1.77-5.45-4.02-10.74-6.06-16.1
			c0.1-0.63,0.44-1.34,0.27-1.89c-0.91-2.91-1.97-5.78-2.93-8.67c-2.38-7.18-4.78-14.35-7.09-21.55
			c-1.89-5.91-3.67-11.86-5.49-17.79c-2.15-7.05-4.31-14.1-6.46-21.15c-0.12-0.8-0.2-1.6-0.38-2.38c-1.12-4.81-2.29-9.62-3.4-14.44
			c-2.06-8.93-4.07-17.87-6.18-26.79c-0.15-0.62-1.03-1.07-1.57-1.6c-0.51-3-0.74-6.08-1.58-8.98c-1.82-6.32-3.95-12.54-5.96-18.8
			c3.46-10.69,8.56-20.52,15.82-29.13c1.78-2.1,3.94-3.88,5.92-5.81c0.3,1.13,0.55,2.28,0.91,3.39c3.17,9.69,6.37,19.37,9.56,29.05
			c-2.51,1.24-5.21,2.21-7.48,3.78c-6.4,4.43-9.01,11.24-10.39,18.46c-1.8,9.42-0.17,18.54,4.91,26.62
			c3.89,6.18,10.12,9.84,17.05,11.93C401.98,503.16,405.97,503.61,409.86,504.37z"/>
		<path class="st4" d="M394.11,441.23c-3.19-9.68-6.38-19.36-9.56-29.05c-0.36-1.11-0.61-2.26-0.91-3.39c5.31-5.68,12-9.12,19-12.25
			c7.83-3.51,15.55-3.17,23.21-0.18c7.03,2.75,11.31,8.67,14.87,14.93c5.57,9.79,8.6,20.37,7.75,31.73
			c-0.69,9.19-4.58,16.87-12.11,22.42c-2.65,1.96-5.6,1.75-7.86-0.65c-2.1-2.22-3.89-4.75-5.7-7.22c-2.41-3.28-4.57-6.75-7.09-9.94
			c-3.39-4.28-8.02-6.41-13.45-6.6C399.55,440.93,396.83,441.15,394.11,441.23z"/>
		<path class="st12" d="M427.3,677.09c-2.15,1.88-4.4,3.68-6.44,5.67c-4.84,4.72-9.58,9.55-14.39,14.31
			c-0.75,0.74-1.69,1.29-2.54,1.94c-0.4-16.21-0.8-32.42-1.2-48.63c0.59-0.79,1.21-1.56,1.76-2.38c4.54-6.82,7.83-14.19,9.65-22.19
			c0.56,1,1.38,1.95,1.65,3.02c1.74,6.89,3.35,13.82,5.03,20.72c2.04,8.38,4.1,16.76,6.13,25.15
			C427.13,675.47,427.19,676.29,427.3,677.09z"/>
		<path class="st12" d="M402.67,587.77c-5.23-1.94-10.46-3.89-15.71-5.79c-0.66-0.24-1.42-0.22-2.14-0.32
			c-6.35-15.08-12.7-30.16-19.06-45.24c7.07,2.77,14.36,2.18,21.66,1.44c1.83,5.93,3.6,11.88,5.5,17.79
			c2.31,7.2,4.71,14.37,7.09,21.55c0.96,2.9,2.02,5.76,2.93,8.67C403.11,586.43,402.77,587.14,402.67,587.77z"/>
		<path class="st12" d="M369.43,471.52c0.54,0.53,1.42,0.98,1.57,1.6c2.12,8.92,4.12,17.86,6.18,26.79
			c1.11,4.82,2.28,9.62,3.4,14.44c0.18,0.78,0.26,1.59,0.38,2.39c-0.48,0.24-1.04,0.39-1.44,0.73c-5.16,4.38-10.3,8.79-15.45,13.19
			c-1.42-4.82-3.05-9.59-4.22-14.46c-1.41-5.86-2.48-11.8-3.6-17.73c-0.31-1.67-0.28-3.41-0.4-5.11
			C361.54,486.78,366.43,479.74,369.43,471.52z"/>
		<path class="st5" d="M240.36,909.35c-0.35-2.64-0.85-5.28-1.03-7.93c-0.46-6.66-0.45-13.38-1.22-20
			c-1.73-14.97-3.38-30.01-10.6-43.67c-0.48-0.91-0.51-2.06-0.75-3.09c8.1-1.26,16.16-2.85,24.3-3.7
			c11.83-1.23,23.7-2.08,35.58-2.74c4.01-0.22,8.07,0.62,12.11,0.98c3.33,3.8,6.9,7.43,9.94,11.45c4.86,6.41,9.37,13.09,14.02,19.66
			c0,7.53-0.04,15.07,0,22.61c0.02,3.26,0.15,6.52,0.34,9.77c0.36,6.23,0.79,12.45,1.19,18.68c-1.23,0.61-2.47,1.23-3.7,1.84
			c-2.06-14.24-7.67-26.94-16.69-38.1c-4.55-5.63-10.13-10.2-16.6-13.42c-9-4.48-18.16-8.61-27.26-12.89
			c-0.33-0.15-0.69-0.44-1-0.39c-1.08,0.17-2.14,0.45-3.21,0.69c0.41,0.94,0.64,2.04,1.27,2.79c6.86,8.16,13.9,16.17,20.62,24.44
			c1.84,2.27,2.82,5.24,4.19,7.89c-8.33,1.49-14.05,6.65-18.73,13.29c-0.62,0.88-1.33,1.69-1.99,2.53c-0.55-2.78-1.1-5.56-1.65-8.34
			c-1.09-2.58-2.1-1.29-3.25,0C250.97,897.61,245.66,903.47,240.36,909.35z"/>
		<path class="st8" d="M324.23,911.37c-0.4-6.23-0.83-12.45-1.19-18.68c-0.19-3.25-0.32-6.51-0.34-9.77
			c-0.05-7.54-0.01-15.07,0-22.61c5.35,7.98,7.94,17.04,9.64,26.29c1.56,8.49,2.65,17.12,3.21,25.73
			c0.38,5.91-0.31,11.91-0.87,17.84c-0.75,7.89-1.84,15.75-2.81,23.63c-0.05,0.42-0.28,0.82-0.43,1.24
			c-0.76-3.11-1.51-6.22-2.27-9.32c-0.13-1.34-0.2-2.68-0.4-4.01c-0.94-6.49-1.91-12.97-2.88-19.45
			C325.36,918.62,324.79,915,324.23,911.37z"/>
		<path class="st12" d="M204.62,899.1c3.02,11.05,6.05,22.1,9.07,33.14c-3.12,5.43-6.24,10.85-9.36,16.28
			c-1.04-2.32-2.06-4.64-3.12-6.95c-0.36-0.79-0.81-1.55-1.22-2.32c0.92-5.35,2.12-10.67,2.7-16.06
			C203.57,915.18,204,907.13,204.62,899.1z"/>
	</g>
</g>
</svg>
