<?xml version="1.0" encoding="utf-8"?>
<!-- Generator: Adobe Illustrator 24.0.2, SVG Export Plug-In . SVG Version: 6.00 Build 0)  -->
<svg version="1.1" id="Layer_1" xmlns="http://www.w3.org/2000/svg" xmlns:xlink="http://www.w3.org/1999/xlink" x="0px" y="0px"
	 viewBox="0 0 685.09 1035.27" style="enable-background:new 0 0 685.09 1035.27;" xml:space="preserve">
<style type="text/css">
	.st0{fill:#E3D5FE;}
	.st1{fill:#9F83F9;}
	.st2{fill:#CC90FE;}
	.st3{fill:#E3D4FE;}
	.st4{fill:#9AA7FE;}
	.st5{fill:#6C78F2;}
	.st6{fill:#D5DFFE;}
	.st7{fill:#72D7FE;}
	.st8{fill:#A8BDFE;}
	.st9{fill:#73FED7;}
	.st10{fill:#5DDEB9;}
	.st11{fill:#DAF4FE;}
	.st12{fill:#BBDDFE;}
	.st13{fill:#CC91FE;}
	.st14{fill:#77BAFC;}
	.st15{fill:#9ACCFE;}
	.st16{fill:#BBDCFE;}
	.st17{fill:#BADAFE;}
	.st18{fill:#BADBFE;}
	.st19{fill:#B9D5FE;}
	.st20{fill:#C0FEB3;}
	.st21{fill:#B3FAFE;}
	.st22{fill:#9BA9FE;}
	.st23{fill:#FDFDFD;}
	.st24{fill:#FDFDFE;}
	.st25{fill:#D3DDFE;}
	.st26{fill:#56FCD0;}
	.st27{fill:#C690FD;}
	.st28{fill:#C89AFE;}
	.st29{fill:#E2D5FE;}
	.st30{fill:#E1D8FC;}
	.st31{fill:#9BA9FD;}
	.st32{fill:#9CA9FD;}
	.st33{fill:#E5DBFD;}
	.st34{fill:#54FECE;}
	.st35{fill:#54FECF;}
	.st36{fill:#77BBFC;}
	.st37{fill:#55FECF;}
	.st38{fill:#CC93FE;}
	.st39{fill:#56FECF;}
	.st40{fill:#58FED0;}
	.st41{fill:#56FED0;}
	.st42{fill:#58FED1;}
	.st43{fill:#57FED0;}
	.st44{fill:#59FED1;}
	.st45{fill:#5EFED3;}
	.st46{fill:#030303;}
	.st47{fill:#050505;}
</style>
<g>
	<g>
		<path class="st0" d="M95.94,1034.71c-6.19,0-12.38-0.01-18.56-0.01c-0.5-1.73-0.89-3.5-1.53-5.17c-3.73-9.89-6.17-20-6.11-30.67
			c0.03-5.24,0.16-10.58-0.71-15.71c-1.58-9.33-3.52-18.63-5.94-27.77c-3.04-11.47-8.07-22.22-15.31-31.6
			c-4.5-5.83-9.99-10.95-15.44-15.97c-3.31-3.05-7.38-5.3-12.08-5.73c-0.83-0.08-2.13,0.37-2.49,0.99
			c-0.37,0.65-0.14,1.99,0.33,2.69c0.68,1.02,1.77,1.8,2.78,2.56c3.12,2.36,6.07,4.86,7.52,8.66c-3.35,7.9-3.83,16.06-2,24.37
			c3.3,14.97,11.89,26.58,23.29,36.37c0.94,0.81,2.1,1.35,3.16,2.02c0.19,0.6,0.49,1.19,0.55,1.8c0.74,7.82,1.61,15.63,2.13,23.46
			c0.71,10.69,3.51,20.66,9.37,29.69c-11.72,0.02-23.44,0.06-35.15,0.01c-0.89,0-2.02-0.41-2.62-1.03
			c-7.59-7.91-14.46-16.42-20.27-25.73c-1.91-3.06-3.42-6.36-5.16-9.53c-0.47-0.85-1.13-1.59-1.7-2.38c0-97.95,0-195.9,0-293.85
			c0.89,3.92,1.9,7.82,2.66,11.77c1.32,6.89,2.5,13.81,3.73,20.72c2.62,14.71,5.2,29.42,7.88,44.12c0.45,2.48,1.35,4.88,2.05,7.32
			c-0.01,0.36,0.05,0.75-0.05,1.08c-3.53,11.78-3.44,23.83-1.98,35.81c1.31,10.69,5.41,20.48,12.43,28.79
			c3.19,3.78,6.83,7.18,10.26,10.75c0.04,0.82-0.15,1.74,0.15,2.46c3.46,8.4,6.95,16.78,10.53,25.12c0.83,1.94,2.01,3.73,3.03,5.59
			c-4.28,1.65-8.28,3.72-11.55,7.58c2.55,1.22,4.82,2.12,6.92,3.35c6.4,3.74,13.24,6.96,18.96,11.57
			c9.89,7.97,16.14,18.77,20.16,30.75c5.18,15.44,6.19,31.49,6.38,47.63c-0.17,1.06-0.52,2.12-0.49,3.17
			c0.11,4.52,0.3,9.04,0.51,13.56C91.9,1020.67,93.16,1027.85,95.94,1034.71z"/>
		<path class="st1" d="M394.62,467.21c4.97,13.7,10.17,27.32,14.82,41.12c3.29,9.77,5.84,19.79,8.71,29.7
			c0.02,0.39,0.03,0.79,0.05,1.18c-0.82-0.22-1.66-0.38-2.44-0.68c-2.53-0.99-4.99-0.4-6.54,1.64c-1.49,1.95-1.39,5.1,0.23,7.03
			c3.08,3.69,7.02,3.13,10.24-1.47c0.1,0.71,0.2,1.43,0.31,2.14c1.45,9.56,3.72,19.05,2.91,28.8c-0.36,4.3-1.33,8.55-1.88,12.85
			c-0.53,4.16-2.61,7.33-5.44,10.35c-4.77,5.1-10.7,8.44-16.86,11.23c-6.47,2.93-13.29,5.09-19.96,7.59
			c-16.94,3.72-34.21,4.8-51.39,6.71c-3.21,0.36-6.39,1.02-9.58,1.55c-5.13,0.45-10.26,1.06-15.4,1.32
			c-5.95,0.3-11.93,0.5-17.88,0.36c-6.51-0.15-13.01-0.75-19.51-1.15c0.33-3.65,0.66-7.3,1-10.95c1.91,0.04,3.81,0.04,5.72,0.12
			c11.14,0.49,22.17,2.95,33.45,1.09c8.27-1.36,16.67-1.95,25.01-2.91c7.35-0.85,14.71-1.64,22.04-2.63
			c8.66-1.17,17.45-1.91,25.92-3.96c11.19-2.71,21.56-7.51,29.75-16.07c1.35-1.41,2.87-6.76,2.03-7.94
			c-2.87-4.06-5.63-8.3-10.1-10.83c-7.18-4.06-14.34-8.17-21.7-11.9c-13.34-6.75-27.51-11.09-42.21-13.71
			c-13.16-2.35-26.29-4.89-39.5-6.9c-9.9-1.51-19.9-2.45-29.88-3.38c-9.44-0.89-18.91-1.6-28.39-2.08
			c-4.41-0.23-8.86,0.42-13.29,0.4c-16.04-0.09-31.98,0.77-47.88,3.2c-13.29,2.03-26.71,3.16-39.65,7.18
			c-11.18,3.48-22.36,6.86-31.88,14.08c-3.16,2.39-5.88,5.14-7.25,8.95c-0.25,0.69-0.45,1.83-0.09,2.24
			c3.3,3.71,6.25,7.97,10.21,10.81c17.71,12.66,38.39,18,59.17,22.78c9.32,2.14,18.78,3.72,28.24,5.2c8.29,1.29,16.66,2.08,25,3.1
			c-0.92,3.63-1.84,7.25-2.77,10.88c-4.88-0.55-9.75-1.1-14.63-1.65c-0.42-0.17-0.83-0.42-1.26-0.49
			c-11.65-1.85-23.31-3.57-34.94-5.54c-11.75-2-23.39-4.65-34.43-9.19c-8.25-3.4-16.16-7.64-24.22-11.5
			c-6.02-4.38-11.25-9.4-15.99-15.29c-5.13-6.36-8.08-13.1-7.94-21.03c0.11-6.12,0.73-12.3,1.8-18.33
			c2.45-13.79,5.31-27.5,8.01-41.25c1.22,0.59,2.39,1.34,3.66,1.76c4.65,1.52,10.52,1.89,14.01-2.88c2.47-3.37,4.28-6.95,4.5-11.11
			c0.23-4.32-1.87-10.94-6.96-11.92c-2.82-0.54-5.86,0.04-8.81,0.11c0.38-1.67,0.66-3.38,1.15-5.02
			c2.62-8.61,5.28-21.85,11.44-36.84c1.75-4.25,4.34-10.11,7.95-16.95c1.55-2.97,3.57-6.33,6.16-9.86c2.62-3.56,5.27-6.49,7.67-8.87
			c-0.84,1.24-2.23,3.65-2.5,6.9c-0.33,3.96,0.9,10.06,5.57,12.35c4.27,2.09,9.12,0.07,10.62-1.07c4.22-3.21,7.65-7.18,9.34-12.36
			c0.62-1.9,0.92-2.85,0.76-4.19c-0.65-5.46-8.08-10.29-14.16-9.19c-1.4,0.25-2.47,0.77-3.11,1.14c5.22-5.31,13.31-12.55,24.52-19.1
			c16.54-9.67,31.32-12.84,39.98-14.63c9.35-1.93,20.69-2.45,25.55-2.79c5.48-0.38,9.75-0.53,13.09-0.65
			c11.02-0.39,18.12-0.69,27.46-0.2c4.45,0.24,7.48,0.4,11.66,1c8.79,1.26,15.87,3.48,20.76,5.32c0,0,21.81,3.57,31.19,11.09
			c0.62,0.5,2.09,1.67,1.98,3.03c-0.04,0.55-0.34,0.96-0.23,1.81c0.04,0.3,0.13,1.01,0.7,1.55c0.75,0.72,1.83,0.63,2.2,0.6
			c0.92-0.08,1.02-0.45,1.65-0.46c1.04-0.02,1.74,1,2.73,2.1c1.34,1.49,1.36,0.88,3.43,3.07c5.95,6.32,12.18,12.41,17.79,19.03
			c5.56,6.57,8.29,13.74,14.3,27.64c3.55,8.22,6.1,15.19,7.78,20.07c-0.44-0.08-1.13-0.14-1.89,0.12c-0.32,0.11-0.52,0.27-0.66,0.32
			c-2.59,0.9-4.15,2.5-4.19,5.32c-0.02,1.69-0.2,3.43,0.14,5.05C383.16,468.53,389.68,471.85,394.62,467.21z M201.73,478.33
			c0.46-10.92-8.4-22.25-20.62-22.1c-11.5,0.14-21.41,10.04-21.42,21.63c-0.01,11.17,9.71,20.27,21.45,20.46
			C192.65,498.51,202.64,488.46,201.73,478.33z M368.99,494.54c-0.25-9.44-6.77-15.68-15.17-15.6c-8.3,0.08-14.05,6.15-14.05,15.01
			c0,8.42,6.95,14.31,15.96,14.56C362.68,508.69,368.94,501.83,368.99,494.54z M330.28,405.55c-7.26-0.21-15.72,6.11-15.61,15
			c0.1,7.94,5.98,13.65,14.52,13.89c7.81,0.23,14.21-6.3,14.21-14.12C343.4,411.96,337.71,405.55,330.28,405.55z M254.05,441.61
			c6.73,0.72,13.14-5.5,13.07-12.29c-0.07-6.59-5.57-12.71-11.65-12.79c-6.82-0.1-13.5,6.7-13.47,13.72
			C242.02,437.15,246.74,441.61,254.05,441.61z M273.06,374.72c0.08,1.03,0.45,4.19,2.98,6.67c1.39,1.37,2.83,1.94,3.54,2.21
			c2.85,1.09,6,0.87,9.18-0.26c4.76-1.68,6.57-7.66,3.52-11.65c-2.75-3.6-6.34-5.57-11.01-5.37
			C276.64,366.51,273.1,370.07,273.06,374.72z M289.78,486.3c4.21,0.08,8.18-3.72,8.34-7.98c0.15-4.09-3.46-7.77-7.71-7.85
			c-3.91-0.08-7.92,3.94-8.03,8.06C282.27,482.62,285.69,486.22,289.78,486.3z M153.39,504.8c-2.97,0.03-4.68,1.91-4.63,5.08
			c0.05,2.97,1.8,4.75,4.68,4.77c2.92,0.01,5.24-2.27,5.15-5.08C158.5,506.88,156.21,504.77,153.39,504.8z M218.6,366.92
			c3.37,0.01,5.4-1.47,5.36-3.89c-0.04-2.21-2.94-4.84-5.37-4.85c-3.02-0.01-5.54,2.34-5.51,5.14
			C213.11,365.83,214.76,366.91,218.6,366.92z M204.93,403.04c-0.03,2.56,1.08,4.06,2.95,3.99c1.93-0.07,3.55-1.95,3.56-4.12
			c0.01-1.94-1.87-3.87-3.77-3.87C204.81,399.04,204.94,401.09,204.93,403.04z M329.27,462.3c1.62-0.12,3.12-1.11,3.1-3.26
			c-0.02-2.01-1.15-3.36-3.43-3.33c-2.17,0.03-3.4,1.07-3.51,3.24C325.33,460.94,326.79,462.33,329.27,462.3z M252.46,516.85
			c2.63,0.04,3.2-1.55,3.2-3.58c0.01-1.79-1.76-3.7-3.38-3.48c-2.22,0.3-2.99,2.14-3,3.96
			C249.27,515.63,250.45,516.95,252.46,516.85z M138.63,433.56c0.05-1.17-0.86-2.12-1.9-2.14c-1.17-0.03-2.08,1.12-1.96,2.24
			c0.1,0.9,0.86,1.75,1.86,1.78C137.63,435.47,138.55,434.65,138.63,433.56z"/>
		<path class="st0" d="M378.76,618.7c6.67-2.5,13.48-4.66,19.96-7.59c6.17-2.79,12.09-6.13,16.86-11.23
			c2.83-3.02,4.91-6.19,5.44-10.35c0.55-4.29,1.52-8.54,1.88-12.85c0.81-9.76-1.46-19.25-2.91-28.8c-0.11-0.71-0.21-1.43-0.31-2.14
			c-0.49-2.17-0.99-4.35-1.48-6.52c-0.02-0.39-0.03-0.79-0.05-1.18c0.76-0.7,1.66-1.29,2.25-2.1c4.47-6.25,8.7-12.68,13.36-18.77
			c4.28-5.59,8.84-10.99,13.59-16.18c7.28-7.95,14.52-15.99,22.37-23.36c6.56-6.16,13.8-11.64,21.05-17
			c12.91-9.54,26.01-18.84,39.15-28.07c4.65-3.26,9.55-6.19,14.51-8.96c4.69-2.61,9.55-4.95,14.46-7.12
			c3.78-1.67,7.73-2.96,11.64-4.3c5.37-1.83,10.73-3.68,16.17-5.26c4.67-1.35,9.51-2.13,14.17-3.5c11.02-3.25,22.22-2.57,33.38-1.57
			c5.81,0.52,11.64,1.66,17.24,3.29c4.61,1.35,8.89,3.84,13.31,5.84c0.4,0.18,0.87,0.42,1.09,0.78c0.78,1.25,1.46,2.55,2.18,3.83
			c-1.24,0.31-2.47,0.83-3.72,0.88c-8,0.33-15.45,2.76-22.64,5.99c-10.24,4.6-20.46,9.27-30.54,14.21
			c-5.67,2.78-11.31,5.78-16.48,9.38c-6.66,4.63-12.82,9.99-19.24,14.98c-3.78,2.94-7.9,5.48-11.39,8.72
			c-5.56,5.15-11.01,10.46-15.98,16.17c-9.34,10.74-16.83,22.83-24.23,34.94c-6.07,9.94-12.04,19.94-17.89,30.01
			c-4.75,8.17-9.59,16.31-13.81,24.75c-3.88,7.77-7.03,15.91-10.39,23.93c-2.54,6.06-4.93,12.18-7.31,18.3
			c-0.68,1.76-1.07,3.62-1.69,5.41c-2.69,7.79-5.54,15.52-8.08,23.36c-2.83,8.72-5.39,17.53-8.09,26.29
			c-1.66,5.41-3.5,10.78-5,16.24c-1.21,4.41-2.04,8.93-3.01,13.41c-0.94,4.39-1.97,8.78-2.73,13.2c-1.2,7-2.3,14.01-3.28,21.04
			c-1.19,8.56-2.17,17.16-3.33,25.73c-0.15,1.1-0.95,5.59-1.99,11.95c-0.37,2.29-0.68,4.16-0.87,5.39
			c-0.29,0.22-0.75,0.56-1.29,1.01c-15.58,12.91-14.55,38.17-13.99,48.94c0.8,15.44,4.82,28.37,7.85,38.11
			c1.86,5.99,3.69,10.88,5.04,14.27c-0.04,1.41-0.07,2.83-0.1,4.25c-0.1,5-0.13,9.94-0.1,14.79c-2.88-4.69-6.93-8.25-11.27-11.48
			c-0.76-0.57-2.05-0.43-3.1-0.62c0.02,1.02-0.16,2.09,0.11,3.03c0.59,2.07,1.89,4.03,2.05,6.1c0.35,4.38,1.62,9.08-2.33,12.72
			c-3.27-6.69-8.13-12.09-13.72-16.9c-2.15-8.2-7.86-13.79-14.07-18.96c-3.24-2.69-6.68-5.14-10.03-7.69
			c3.82-10.64,5.88-21.67,6.51-32.9c0.69-12.42-0.42-24.77-2.54-37.05c-3.53-20.51-12.43-38.5-25.17-54.71
			c-3.11-3.96-6.8-7.46-10.23-11.18c0.51-0.85,1.31-1.64,1.47-2.55c0.42-2.3,0.37-4.69,0.83-6.98c1.67-8.27,3.43-16.53,5.25-24.77
			c1.58-7.11,3.17-14.22,4.99-21.27c1.39-5.38,3.14-10.67,4.74-16c2.24-7.49,4.42-15.01,6.76-22.47c1.95-6.19,4.11-12.32,6.22-18.61
			C379.64,618.83,379.2,618.77,378.76,618.7z"/>
		<path class="st2" d="M108.49,595.86c8.06,3.86,15.96,8.11,24.22,11.5c11.03,4.54,22.68,7.2,34.43,9.19
			c11.62,1.97,23.29,3.69,34.94,5.54c0.44,0.07,0.84,0.32,1.26,0.49c-2.38,7.1-4.26,14.43-7.27,21.26
			c-4.01,9.12-8.9,17.86-13.42,26.76c-4.98,7.45-9.85,14.97-14.98,22.32c-6.06,8.67-13.5,16.4-17.43,26.49
			c-2.31,5.92-5.02,11.7-4.71,18.26c0.04,0.88,0.45,2.08,1.1,2.47c0.47,0.29,1.62-0.47,2.43-0.83c0.57-0.26,1.13-0.58,1.6-0.99
			c2.29-1.97,5.16-3.59,6.68-6.05c3.32-5.38,6.08-11.12,8.8-16.85c4.24-8.93,9.6-17.05,16.48-24.15c0.35-0.28,0.74-0.52,1.06-0.83
			c9.48-9.46,20.88-14.18,34.3-13.88c1.14,2.55,2.09,5.22,3.46,7.64c3.73,6.58,7.5,13.16,11.54,19.55c2.2,3.49,4.99,6.62,7.51,9.91
			c-1.06-0.22-2.12-0.42-3.18-0.67c-9.3-2.16-15.84,0.79-19.83,9.38c-4.35,9.38-5.38,19.32-3.42,29.39
			c1.29,6.63,3.41,13.1,5.16,19.64c-4.44,5.13-9.6,9.31-15.88,12.02c-4.4-2.32-8.81-4.07-13.96-4.7
			c-8.67-1.06-17.78,4.11-19.36,14.32c-0.29,1.86-0.68,3.7-1.02,5.55c-10.68,3.71-18.41,11.01-24.56,20.22
			c-2.09,3.48-4.4,6.86-6.22,10.47c-4.1,8.13-6.32,16.91-8.28,25.75c-1.2,5.43-1.06,10.76,1.34,15.92
			c2.51,5.38,7.58,6.19,10.61,1.11c3.83-6.41,6.8-13.32,10.14-20.02c0.9-2.36,1.85-4.71,2.69-7.09c3.69-10.35,8.72-19.85,17-27.35
			c0.34,0.63,0.77,1.22,1.02,1.88c3.97,10.6,9.9,20.11,18.09,27.77c7.63,7.14,16.26,13.21,24.47,19.74
			c3.81,3.03,7.64,6.04,11.46,9.06c-1.83,2.56-3.65,5.13-5.48,7.69c-0.93-0.97-1.96-1.87-2.77-2.94
			c-6.12-8.12-13.76-13.51-24.14-14.97c-10.08-1.42-17.31,3.6-18.36,13.48c-0.27,0.45-0.54,0.89-0.88,1.45
			c-1.59-1.37-3.04-2.89-4.75-4.02c-1.98-1.31-4.18-2.28-6.29-3.4c-0.63-1.4-1.14-2.87-1.94-4.17c-0.35-0.57-1.27-0.79-1.94-1.16
			c-0.35,0.66-0.82,1.29-1.01,2c-0.16,0.59-0.11,1.28,0.02,1.89c1.79,8.59,0.63,17.05-0.89,25.53c-1.35,7.59-4.75,14.38-7.63,21.42
			c-6.64,16.26-12.85,32.7-19.36,49.01c-1.97,4.94-4.37,9.7-6.58,14.54c0.1-0.72,0.15-1.44,0.31-2.14
			c2.35-10.07,3.65-20.27,3.53-30.62c-0.09-8.06-0.24-16.13-0.53-24.18c-0.32-9.19-2.15-18.1-5.52-26.69
			c-4.27-10.87-8.63-21.7-12.72-32.63c-3.04-8.13-4.45-16.68-3.92-25.3c0.49-7.98,2.07-15.9,2.96-23.86
			c0.17-1.52-0.6-3.15-0.94-4.72c-0.92-0.54-1.85-1.09-2.77-1.63c-1.5-9.14-5.79-17.13-10.75-24.71
			c-10.1-15.44-22.72-28.78-35.44-42.05c-4.47-4.66-8.28-10.02-11.95-15.37c-3.77-5.51-6.99-11.4-10.46-17.12
			c-2.21-5.83-4.98-11.51-6.51-17.51c-4.14-16.3-3.5-32.29,4.81-47.41c0.26-0.47,0.38-1.01,0.57-1.52
			c4.48-4.96,8.8-10.09,13.49-14.84c7.08-7.15,15.49-10.96,25.89-9.79c9.85,1.11,17.76,6.05,24.09,13.01
			c9.39,10.32,12.52,23.3,12.71,36.94c0.11,7.86-0.8,15.72-0.92,23.59c-0.1,5.88,0.22,11.78,0.56,17.65
			c0.15,2.5,0.54,5.07,1.35,7.42c0.74,2.14,1.65,4.71,4.45,4.98c2.71,0.26,3.76-2.2,5.09-3.93c6.12-7.97,6.89-17.36,5.72-26.71
			c-1.31-10.45-3.4-20.85-5.86-31.1c-2.12-8.86-5.1-17.52-7.94-26.2C109.82,622.92,108.21,609.53,108.49,595.86z"/>
		<path class="st0" d="M348.34,383.7c-1.15-0.97-2.11-1.78-2.81-2.37c-1.71-1.43-1.99-1.65-3-2.51c-1.85-1.58-1.88-1.68-2.7-2.34
			c0,0-1.53-1.33-3.86-2.58c-16.28-8.71-31.26-12.98-31.26-12.98c-10.61-3.21-21.45-5.42-32.42-6.31
			c-8.11-0.66-16.21-0.22-27.46,0.2c-5.42,0.2-9.93,0.45-13.09,0.65c0.29-3.62,0.66-8.98,0.95-15.48
			c0.63-14.23,0.24-24.6,0.01-43.06c-0.13-10.5-0.59-20.99-1.06-31.48c-0.43-9.57-0.98-19.13-1.67-28.68
			c-0.27-3.76-1.12-7.47-1.59-11.22c-0.61-4.92-1.02-9.86-1.65-14.77c-0.71-5.54-1.57-11.06-2.38-16.59
			c-1.19-8.1-2.35-16.21-3.62-24.31c-0.7-4.45-1.58-8.86-2.38-13.29c-1.38-7.61-2.64-15.24-4.18-22.82
			c-1.52-7.48-3.38-14.88-5.02-22.34c-1.46-6.66-2.67-13.38-4.28-20.01c-1.59-6.56-3.46-13.05-5.33-19.54
			c-2.51-8.67-4.9-17.39-7.8-25.94c-3.09-9.14-6.71-18.1-10.1-27.14c-1.08-2.88-2.27-5.73-3.13-8.68c-0.28-0.97-0.04-2.63,0.62-3.18
			c0.76-0.63,2.56-0.9,3.38-0.42c4.41,2.59,9.1,4.97,12.87,8.35c8.87,7.93,16.03,17.42,22.72,27.23
			c8.2,12.02,16.61,23.91,24.51,36.12c5.49,8.49,10.2,17.48,15.38,26.18c4.05,6.81,8.31,13.5,12.42,20.27
			c2.63,4.33,5.2,8.7,7.75,13.08c3.5,6,7.07,11.96,10.4,18.06c3.94,7.21,7.69,14.52,11.46,21.83c2.55,4.94,5.13,9.87,7.4,14.95
			c2.64,5.9,4.98,11.94,7.39,17.95c2.04,5.08,4.07,10.16,5.94,15.3c1.41,3.87,2.56,7.84,3.81,11.77c1.86,5.89,3.79,11.77,5.52,17.7
			c1.15,3.94,1.92,7.98,3,11.94c1.6,5.9,3.35,11.75,4.97,17.64c0.33,1.2,0.27,2.5,0.5,3.73c1.44,8.06,3.1,16.08,4.33,24.17
			c1.62,10.67,3.41,21.35,4.2,32.1C348,357.78,347.96,370.76,348.34,383.7z"/>
		<path class="st3" d="M458.91,779.63c0.56-1.58,1.33-3.12,1.63-4.75c1.31-7.25,2.47-14.52,3.7-21.78
			c0.57-3.38,1.04-6.78,1.82-10.11c1.53-6.55,3.06-13.11,4.95-19.56c2.01-6.89,4.36-13.69,6.71-20.48c1.3-3.74,2.89-7.38,4.37-11.06
			c1.75-4.34,3.45-8.7,5.31-13c1.28-2.97,2.73-5.88,4.23-8.75c2.25-4.3,4.32-8.74,6.99-12.78c6.21-9.41,12.39-18.89,19.25-27.82
			c5.16-6.72,11.03-13,17.18-18.84c6.94-6.58,14.47-12.55,21.92-18.56c5.4-4.36,10.94-8.6,16.69-12.49
			c7.38-5,14.97-9.62,23.42-12.77c6.56-2.44,12.75-5.88,19.34-8.22c6.25-2.22,12.75-3.86,19.25-5.28c7.05-1.55,14.25-3.01,21.5-2.14
			c6.86,0.82,13.64,2.39,20.43,3.71c0.77,0.15,1.42,0.88,2.84,1.81c-2.02,0.86-3.31,1.63-4.7,1.97c-8.69,2.09-17.18,4.61-24.86,9.46
			c-3,1.89-6.56,2.88-9.62,4.69c-4.96,2.91-10.05,5.77-14.5,9.37c-5.13,4.15-9.94,8.79-14.32,13.73c-7.13,8.03-14,16.3-20.57,24.8
			c-3.96,5.11-7.6,10.59-10.54,16.34c-3.98,7.76-7.19,15.91-10.64,23.94c-1.73,4.04-3.39,8.12-4.85,12.27
			c-1.58,4.5-3.04,9.06-4.29,13.67c-1.71,6.31-3.31,12.66-4.7,19.04c-0.88,4.04-1.29,8.17-1.95,12.26
			c-1.92,11.88-2.74,23.84-2.77,35.88c-0.04,14.03,0.04,28.07-0.6,42.08c-0.97,21.36-1.94,42.72-1.59,64.11
			c-7.61-3.06-14.12-1.41-19.59,4.62c-4.95,5.46-8.32,11.82-10.33,18.87c-2.56,8.98-3.74,18.18-3.9,27.53
			c-0.06,3.49-0.64,6.97-0.99,10.45c-1.22,0.21-2.7,0.06-3.61,0.71c-1.06,0.76-2.36,2.33-2.2,3.34c0.15,0.99,1.92,1.88,3.14,2.49
			c0.72,0.36,1.75,0.09,2.65,0.11c-0.35,6.4-0.49,12.81-1.09,19.19c-0.93,9.96-2.16,19.88-3.26,29.82
			c-2.74,2.41-5.49,4.83-8.23,7.24c0.15-1.67,0.36-3.35,0.45-5.02c0.11-2.15,0.13-4.31,0.18-6.46c5.23-9.31,5.74-18.79,1.07-28.47
			c0.19-0.66,0.53-1.32,0.54-1.99c0.05-4.69,0.17-9.39,0-14.07c-0.47-12.85-0.93-25.7-1.66-38.53c-0.48-8.39-1.07-16.79-2.22-25.11
			c-2.17-15.6-4.99-31.09-10.95-45.8C483.37,803.07,474.79,788.49,458.91,779.63z"/>
		<path class="st0" d="M108.49,595.86c-0.27,13.67,1.33,27.06,5.6,40.12c2.84,8.67,5.82,17.34,7.94,26.2
			c2.46,10.25,4.54,20.65,5.86,31.1c1.17,9.35,0.4,18.73-5.72,26.71c-1.33,1.73-2.38,4.19-5.09,3.93c-2.8-0.27-3.71-2.84-4.45-4.98
			c-0.81-2.36-1.2-4.92-1.35-7.42c-0.34-5.88-0.66-11.77-0.56-17.65c0.13-7.87,1.03-15.73,0.92-23.59
			c-0.18-13.63-3.32-26.62-12.71-36.94c-6.33-6.96-14.23-11.89-24.09-13.01c-10.4-1.18-18.81,2.64-25.89,9.79
			c-4.7,4.75-9.01,9.88-13.49,14.84c-0.01-13.08-0.15-26.17,0.03-39.25c0.12-8.96,0.56-17.91,1.08-26.86
			c0.59-10.19,1.37-20.37,2.16-30.55c0.86-11.16,1.69-22.33,2.76-33.47c0.89-9.34,2.23-18.63,3.14-27.96
			c0.61-6.29,0.58-12.65,1.22-18.94c2.38-23.62,1.62-47.3,1.47-70.95c-0.07-10.55-1.12-21.11-2.08-31.63
			c-1.07-11.67-2.34-23.34-3.9-34.96c-1.07-7.94-2.66-15.83-4.25-23.69c-1.48-7.34-3.19-14.64-4.92-21.92
			c-1.96-8.25-4-16.48-6.11-24.69c-0.65-2.53-1.76-4.95-2.42-7.48c-0.65-2.53-0.28-4.95,2.16-6.48c2.21-1.39,4.44-0.92,6.76,1.52
			c5.79,6.09,11.77,12.02,17.22,18.41c9.55,11.19,18.93,22.54,28.04,34.1c3.44,4.37,6.12,9.41,8.78,14.33
			c7.11,13.16,13.26,26.78,18.22,40.9c2,5.7,3.35,11.63,5,17.45c2.52,8.86,5.14,17.69,7.53,26.58c0.38,1.42,1.66,7.21,3.23,14.26
			c0.32,1.46,0.59,2.66,0.77,3.46c-3.62,6.84-6.21,12.71-7.95,16.95c-6.17,15-8.83,28.24-11.44,36.84c-0.5,1.64-0.78,3.34-1.15,5.02
			c-1.48,0.66-3.03,1.19-4.44,1.99c-9.06,5.15-11.33,15.33-1.98,22.05c-2.7,13.74-5.56,27.46-8.01,41.25
			c-1.07,6.03-1.69,12.2-1.8,18.33c-0.14,7.93,2.81,14.67,7.94,21.03C97.24,586.45,102.47,591.48,108.49,595.86z"/>
		<path class="st4" d="M458.91,779.63c15.88,8.86,24.46,23.45,31.01,39.62c5.96,14.72,8.78,30.2,10.95,45.8
			c1.16,8.31,1.75,16.72,2.22,25.11c0.73,12.83,1.19,25.69,1.66,38.53c0.17,4.68,0.05,9.38,0,14.07c-0.01,0.66-0.35,1.33-0.54,1.99
			c-2.86-6.42-7.75-9.92-14.8-10.32c-0.83,0.05-1.66,0.11-2.92,0.19c3.86,5.35,5.74,11.04,5.53,16.9
			c-0.24,6.73-2.63,13.03-6.85,18.52c-7.48,9.73-14.87,19.51-22.3,29.28c-0.21-12.27-2.51-24.26-5.17-36.17
			c-1-4.49-2.05-8.47-4.14-16.24c-4.92-18.31-10.53-39-19.53-64.73c-2.75-7.87-3.04-8.25-5.04-14.27
			c-4.2-12.67-7.85-23.84-9.83-38.03c-3.06-21.91,0.61-31.78,1.88-34.79c2.78-6.61,6.45-9.84,7.77-10.93
			c3.94-3.22,8.03-4.54,10.51-5.12C445.92,776.96,452.47,776.53,458.91,779.63z"/>
		<path class="st5" d="M370.16,1034.65c-1,0.03-1.99,0.07-2.99,0.07c-76.5,0-152.99,0-229.49,0c-1,0-1.99-0.07-2.99-0.1
			c-4.26-5.84-9.99-10.02-15.89-14.01c-1.7-1.16-3.48-2.22-5.07-3.51c-2.23-1.79-1.76-4.42,0.93-5.4c1.33-0.48,2.76-0.69,4.15-1.03
			c5.93-0.04,11.89-0.3,17.51,2.15c3.13,2.14,6.25,4.27,9.66,6.61c-0.65-6.34-4.85-10.12-8.59-14.19
			c-3.98-3.65-8.02-7.23-11.89-10.99c-0.89-0.86-1.92-2.69-1.56-3.46c0.51-1.1,2.18-2.16,3.46-2.31c3.84-0.45,7.72-0.45,11.59-0.63
			c5.72,0.87,11.18,2.44,15.87,6.03c2.04,1.87,4.08,3.75,6.12,5.62c0.23-0.14,0.46-0.28,0.7-0.42c-1.03-3.02-2.07-6.04-3.1-9.05
			c-3.21-7.61-7.3-14.64-13.61-20.16c-0.21-0.29-0.48-0.55-0.62-0.87c-0.56-1.29-1.88-3.22-1.45-3.77c0.81-1.05,2.59-1.63,4.05-1.83
			c2.22-0.31,4.5-0.12,6.76-0.14c7.57,1.11,14.45,3.91,20.66,8.38c8.11,6.01,12.7,14.65,17.2,23.86c0.87-6.15,2.5-11.78-0.8-17.12
			c-1.61-2.61-3.16-5.28-5.01-7.72c-1.94-2.56-4.21-4.87-6.34-7.29c-0.13-1.91,0.89-2.93,2.62-3.39c1.46,0.2,2.92,0.4,4.38,0.61
			c0.68,0.23,1.4,0.39,2.05,0.69c4.22,2.01,8.85,3.47,12.55,6.2c7.12,5.26,11.2,12.92,14.19,21.13c0.65,1.79,1.44,3.29,3.99,3.54
			c0.32-2.08,0.82-4.1,0.92-6.14c0.41-8.92-2.62-16.86-7.04-24.43c-0.73-1.24-1.42-3.4-0.84-4.29c0.76-1.15,2.91-2.16,4.28-1.97
			c4.08,0.57,8.24,1.32,12.07,2.79c7.64,2.93,11.8,9.27,14.68,16.58c0.73,2.39,1.46,4.77,2.19,7.16c0.66,3.18,1.32,6.37,1.87,9.02
			c4.76-5.27,9.16-10.83,14.3-15.6c3.52-3.27,8-5.54,12.17-8.05c1.62-0.98,3.59-1.01,4.96,0.68c1.4,1.72,0.95,3.52-0.11,5.31
			c-1.47,2.5-3,4.98-4.22,7.61c-3.6,7.8-4.44,16.08-4.09,24.21c4.53-4.89,8.91-10.04,13.74-14.72c4.98-4.83,10.83-8.53,17.42-10.9
			c1.68-0.6,3.44-0.76,4.69,0.95c1.27,1.74,0.48,3.25-0.64,4.69c-5.48,7.04-8.45,15.15-10.14,23.81c-0.31,1.57-0.43,3.17-0.63,4.76
			c3.4-2.85,6.18-5.83,9.01-8.77c2.52-2.62,5.25-5.05,7.57-7.82c1.67-2,3.19-2.52,5.29-0.93c0.19,0.77,0.54,1.54,0.56,2.32
			c0.08,3.21,0.06,6.43,0.08,9.65c-0.29,3.99,0.18,7.85,1.79,11.83c1.39-1.71,2.5-3.24,3.77-4.63c6.23-6.83,14.34-10.66,22.74-13.95
			c0.75-0.3,2.26,0.21,2.82,0.85c0.56,0.65,0.76,2.1,0.43,2.92c-0.7,1.75-1.86,3.31-2.81,4.95c-3.45,5.99-4.71,12.57-5.43,19.07
			c6.24-4.67,12.43-9.31,18.62-13.94c4.9-2.23,9.95-3.92,15.41-3.79c3.01,0.07,3.99,1.83,2.33,4.26
			C373.01,1021.39,371.22,1027.88,370.16,1034.65z M188.21,1016.34c0.03-3.87-3.12-7.04-7.08-7.13c-3.87-0.09-7.65,3.9-7.64,8.06
			c0.01,3.71,3.03,6.56,6.91,6.54C184.62,1023.78,188.18,1020.38,188.21,1016.34z M207.65,1022.86c3.44-0.03,6.82-3.54,6.87-7.1
			c0.04-3.51-3.32-6.76-6.89-6.67c-4.16,0.11-7.12,3.16-7.12,7.36C200.5,1020.39,203.3,1022.9,207.65,1022.86z"/>
		<path class="st2" d="M36.98,862.54c-3.44-3.57-7.07-6.97-10.26-10.75C19.7,843.48,15.6,833.68,14.29,823
			c-1.47-11.98-1.55-24.04,1.98-35.81c0.1-0.33,0.03-0.72,0.05-1.08c2.87-8.91,7.45-16.67,15.34-22.04
			c2.37-1.61,5.05-2.75,7.59-4.11c5.62-1.3,11.18-1.62,16.81,0.18c9.45,3.02,16.1,9.65,21.77,17.22
			c9.62,12.86,12.73,28.1,14.86,43.6c-3.73,5.42-7.73,10.68-11.11,16.31c-5.51,9.16-8.09,19.3-8.48,29.94
			c-0.17,4.78,0.29,9.58,0.46,14.37c-2.71-1.11-5.42-2.22-8.14-3.33C55.44,873.9,45.7,869.15,36.98,862.54z"/>
		<path class="st6" d="M118.81,1010.67c-1.39,0.33-2.82,0.54-4.15,1.03c-2.69,0.98-3.16,3.61-0.93,5.4c1.6,1.29,3.38,2.35,5.07,3.51
			c0.94,4.68,1.87,9.37,2.81,14.05c-3.48,0.01-6.97,0.02-10.45,0.03c-0.28-0.95-0.52-1.92-0.84-2.85
			c-4.47-12.73-6.97-25.83-6.67-39.33c0.14-6.21,1.07-12.4,1.63-18.6c0.78-8.62,1.88-17.17,1.16-25.91
			c-0.67-8.18-2.16-16.13-4.79-23.83c-4.67-13.68-10.15-27.08-12.54-41.47c-1.7-10.18-2.01-20.27,0.14-30.42
			c2.73-12.92,8.89-24.21,16.2-35c1.04-1.53,1.68-3.33,2.5-5.01c0.34,1.58,1.11,3.2,0.94,4.72c-0.9,7.97-2.48,15.88-2.96,23.86
			c-0.53,8.62,0.88,17.17,3.92,25.3c4.09,10.93,8.45,21.76,12.72,32.63c3.37,8.58,5.2,17.49,5.52,26.69
			c0.28,8.06,0.44,16.12,0.53,24.18c0.11,10.35-1.18,20.55-3.53,30.62c-0.16,0.7-0.21,1.43-0.31,2.14
			c-1.25,5.11-2.62,10.2-3.72,15.35C120.13,1002.03,119.54,1006.36,118.81,1010.67z"/>
		<path class="st7" d="M462.86,999.32c7.43-9.76,14.82-19.55,22.3-29.28c4.22-5.48,6.61-11.79,6.85-18.52
			c0.21-5.87-1.67-11.55-5.53-16.9c1.27-0.08,2.09-0.13,2.92-0.19c0.12,0.13,0.22,0.31,0.37,0.39
			c10.71,5.15,14.41,17.86,12.13,27.68c-1.89,8.15-6.1,15.32-11.07,21.92c-5.92,7.87-11.66,15.75-13.12,25.83
			c-0.5,3.47-0.78,6.97-1.17,10.45c0.27,0.05,0.54,0.11,0.81,0.16c0.54-1.29,1.08-2.58,1.63-3.86c2.4-5.55,4.81-11.09,7.22-16.63
			c5.44-5.23,10.87-10.45,16.31-15.68c2.74-2.41,5.49-4.83,8.23-7.24c3.12-3.96,6.64-7.67,9.29-11.92
			c5.55-8.88,8.78-18.25,4.34-28.8c-1.84-4.36-4.1-7.87-9.29-8.29c-0.89-0.01-1.93,0.25-2.65-0.11c-1.22-0.61-2.99-1.5-3.14-2.49
			c-0.16-1.01,1.14-2.58,2.2-3.34c0.91-0.65,2.38-0.5,3.61-0.71c1.99,0,3.99,0.01,5.98,0.01c-0.71,0.07-1.43,0.14-2.83,0.28
			c2.75,0.57,4.77,0.99,6.8,1.41c8.39,1.74,14.81,9.42,15.1,17.97c0.34,10.25-2.35,19.72-7.55,28.48
			c-5.86,9.87-13.62,18.25-21.18,26.81c-6.4,7.25-12.61,14.79-16.65,23.71c-2.08,4.6-3.58,9.47-5.34,14.23
			c-10.25,0.01-20.49-0.02-30.74,0.05c-1.64,0.01-2.53-0.3-2.57-2.17c-0.07-2.71-0.36-5.41-0.55-8.12c0.55-3.87,1.11-7.73,1.66-11.6
			c0.49-2.11,1.23-4.57,2.35-7.23C460.63,1003.17,461.78,1001.06,462.86,999.32z"/>
		<path class="st4" d="M521.09,921.82c-1.99,0-3.99-0.01-5.98-0.01c0.35-3.48,0.93-6.96,0.99-10.45c0.16-9.35,1.34-18.54,3.9-27.53
			c2.01-7.05,5.38-13.4,10.33-18.87c5.46-6.03,11.97-7.69,19.59-4.62c8.27,5.63,11.64,14,13.18,23.44
			c2.9,17.8-0.16,34.97-5.09,52.01c-4.91,16.96-11.49,33.23-19.52,48.93c-0.41,0.8-0.67,1.67-0.99,2.51
			c-6.99,2.4-13.44,5.77-19.12,10.56c-0.18,0.16-0.72-0.11-1.09-0.18c5.4-6.56,11-12.95,16.14-19.7
			c7.69-10.12,13.5-21.05,12.21-34.42c-0.69-7.09-3.45-13.04-9.36-17.32C531.72,922.89,526.33,922.61,521.09,921.82z"/>
		<path class="st8" d="M107.94,812.27c-0.82,1.68-1.46,3.48-2.5,5.01c-7.31,10.79-13.47,22.08-16.2,35
			c-2.15,10.15-1.84,20.24-0.14,30.42c2.4,14.38,7.87,27.79,12.54,41.47c2.63,7.7,4.12,15.64,4.79,23.83
			c0.72,8.74-0.38,17.29-1.16,25.91c-0.56,6.2-1.49,12.39-1.63,18.6c-0.3,13.5,2.2,26.6,6.67,39.33c0.33,0.93,0.56,1.9,0.84,2.85
			c-5.07,0.01-10.14,0.01-15.21,0.02c-2.78-6.86-4.04-14.03-4.38-21.39c-0.2-4.52-0.4-9.04-0.51-13.56
			c-0.03-1.05,0.32-2.12,0.49-3.17c0.55-4.26,1.58-8.53,1.55-12.78c-0.07-10.5-0.48-21-1.03-31.48c-0.38-7.28-2.59-14.14-5.21-20.94
			c-2.78-7.24-5.02-14.69-7.37-22.09c-1.2-3.76-2.13-7.61-3.18-11.42c-0.92-5.43-1.85-10.86-2.77-16.3
			c-0.17-4.79-0.63-9.59-0.46-14.37c0.39-10.63,2.98-20.78,8.48-29.94c3.38-5.63,7.39-10.89,11.11-16.31
			c0.41-0.34,0.9-0.61,1.22-1.02c3.06-3.95,6.73-7.14,11.26-9.3C106.09,811.18,107.02,811.73,107.94,812.27z"/>
		<path class="st7" d="M517.28,997.61c0.37,0.07,0.91,0.33,1.09,0.18c5.68-4.79,12.12-8.16,19.11-10.56
			c11.53-3.06,23.1-6,34.59-9.22c6.2-1.73,11.69-4.87,16.08-9.72c0.32,0.3,0.93,0.63,0.9,0.89c-0.3,3.11,0.01,6.51-1.19,9.24
			c-3.39,7.72-9.93,12.47-17.56,15.35c-10.41,3.93-21.07,7.17-31.57,10.86c-6.44,2.26-12.63,5.1-17.52,10.08
			c-1.67,1.7-3.1,3.63-2.97,6.42c1.91-0.91,3.5-2.2,5.25-3.2c1.86-1.07,3.87-1.87,5.82-2.79c6.57-1.15,13.11-2.77,19.87-1.71
			c4.55,0.71,9.1,1.5,13.64,2.26c9.65,1.62,19.08,1.31,28-3.27c-0.22,0.49-0.37,1.02-0.66,1.45c-4.18,6.15-10.32,9.87-16.89,12.7
			c-7.09,3.06-14.48,5.43-21.74,8.11c-18.87,0.01-37.74,0.02-56.61,0.04c0-0.27-0.06-0.56,0.01-0.81
			C498.72,1019.55,507.25,1008.12,517.28,997.61z"/>
		<path class="st8" d="M64.9,1034.67c-5.87-9.03-8.66-19-9.37-29.69c-0.52-7.83-1.39-15.64-2.13-23.46c-0.06-0.61-0.36-1.2-0.55-1.8
			c-0.11-0.8-0.13-1.63-0.33-2.4c-1.89-7.35-3.66-14.74-5.75-22.04c-2.67-9.32-5.4-18.68-10.43-27.07
			c-2.35-3.92-5.28-7.5-7.94-11.24c-1.45-3.81-4.39-6.3-7.52-8.66c-1.01-0.76-2.09-1.54-2.78-2.56c-0.47-0.7-0.7-2.04-0.33-2.69
			c0.35-0.62,1.66-1.07,2.49-0.99c4.7,0.43,8.77,2.68,12.08,5.73c5.44,5.01,10.94,10.14,15.44,15.97
			c7.25,9.39,12.28,20.13,15.31,31.6c2.42,9.14,4.36,18.44,5.94,27.77c0.87,5.13,0.74,10.47,0.71,15.71
			c-0.06,10.66,2.38,20.78,6.11,30.67c0.63,1.68,1.02,3.45,1.53,5.17C73.22,1034.69,69.06,1034.68,64.9,1034.67z"/>
		<path class="st9" d="M370.16,1034.65c1.06-6.77,2.85-13.26,6.81-19.01c1.67-2.42,0.68-4.18-2.33-4.26
			c-5.47-0.14-10.51,1.56-15.41,3.79c-0.73-2.98-1.33-6-2.24-8.92c-0.68-2.2-1.76-4.27-2.66-6.4c0.59-0.48,1.2-0.94,1.76-1.45
			c2.99-2.69,5.68-5.84,9.03-7.95c3.12-1.97,6.94-2.82,10.45-4.17c0.81-0.09,1.64-0.09,2.43-0.27c8.44-1.96,16.14-0.25,23.22,4.61
			c4.05,3.83,8.25,7.53,10.52,12.83c0.45,1.05,1.31,1.93,1.98,2.88c-5.83,1.91-10.13,6.15-14.94,9.64
			c-3.58,2.6-5.96,6.05-7.19,10.23c-0.81,2.75-1.22,5.61-1.81,8.43C383.24,1034.63,376.7,1034.64,370.16,1034.65z"/>
		<path class="st0" d="M105.17,810.64c-4.53,2.16-8.2,5.35-11.26,9.3c-0.32,0.41-0.81,0.69-1.22,1.02
			c-2.13-15.5-5.24-30.74-14.86-43.6c-5.67-7.57-12.32-14.2-21.77-17.22c-5.64-1.8-11.2-1.48-16.81-0.18
			c0.12-0.34,0.38-0.69,0.35-1.02c-0.45-5.3-1.05-10.58-1.39-15.89c-0.64-9.83-1.14-19.66-1.68-29.49
			c-0.04-0.72,0.03-1.45,0.05-2.18c3.46,5.72,6.69,11.61,10.46,17.12c3.66,5.35,7.48,10.71,11.95,15.37
			c12.72,13.27,25.34,26.62,35.44,42.05C99.38,793.51,103.67,801.49,105.17,810.64z"/>
		<path class="st10" d="M389.79,1034.62c0.59-2.81,1-5.68,1.81-8.43c1.23-4.18,3.6-7.62,7.19-10.23c4.81-3.49,9.11-7.74,14.94-9.64
			c4.03-1.06,8.07-2.13,12.1-3.19c0.69,0.16,1.37,0.4,2.07,0.46c7.16,0.6,12.78,3.56,15.81,10.39c1.53,3.44,2.91,6.94,4.36,10.42
			c0.95,3.42,1.91,6.85,2.86,10.27c-0.07,0-0.91,0-0.98-0.01C429.87,1034.57,409.81,1034.56,389.79,1034.62z"/>
		<path class="st4" d="M450.93,1034.68c-3.26-10.48-6.07-18.13-7.22-20.69c-1.18-2.63-2.51-4.17-2.97-4.68
			c-0.45-0.5-0.92-0.97-1.45-1.42c-3.02-2.6-6.91-3.91-11.39-4.29c-0.7-0.06-1.38-0.3-2.08-0.46c-1.96-5.36-1.67-10.48,1.81-15.16
			c2.16-2.89,4.27-5.86,6.77-8.44c5.78-5.97,8.94-12.82,8.2-21.25c0.18,0.31,0.42,0.6,0.52,0.93c2.17,6.66,4.32,13.33,6.48,20
			c0.06,0.54,0.06,1.09,0.18,1.62c1.87,8.18,3.75,16.37,5.64,24.55c0.58,2.51,1.2,5,1.81,7.51c-0.24,1.75-0.43,3.59-0.55,5.52
			c-0.38,6.08,0.03,11.57,0.75,16.25C455.27,1034.66,453.1,1034.67,450.93,1034.68z"/>
		<path class="st11" d="M517.28,997.61c-10.03,10.51-18.56,21.94-22.34,36.3c-0.07,0.25-0.01,0.54-0.01,0.81
			c-1.83,0-3.67-0.01-5.5-0.01c1.76-4.75,3.26-9.62,5.34-14.23c4.04-8.92,10.25-16.46,16.65-23.71
			c7.56-8.56,15.32-16.94,21.18-26.81c5.2-8.75,7.89-18.22,7.55-28.48c-0.28-8.56-6.71-16.23-15.1-17.97
			c-2.03-0.42-4.05-0.84-6.8-1.41c1.4-0.14,2.11-0.21,2.83-0.28c5.25,0.79,10.63,1.07,15.18,4.35c5.91,4.27,8.68,10.23,9.36,17.32
			c1.3,13.37-4.51,24.3-12.21,34.42C528.29,984.66,522.68,991.05,517.28,997.61z"/>
		<path class="st11" d="M529.32,1015.15c-1.95,0.92-3.96,1.72-5.82,2.79c-1.75,1-3.34,2.29-5.25,3.2c-0.13-2.8,1.3-4.72,2.97-6.42
			c4.89-4.98,11.07-7.82,17.52-10.08c10.5-3.69,21.16-6.93,31.57-10.86c7.63-2.88,14.17-7.63,17.56-15.35
			c1.2-2.73,0.89-6.14,1.19-9.24c0.03-0.27-0.59-0.6-0.9-0.89c1.01-0.51,2.51-1.7,2.92-1.4c1.09,0.8,2.2,2.16,2.41,3.44
			c0.93,5.69-1.44,10.57-4.09,15.42c-4.26,7.79-11.69,11.6-19.01,15.53c-10.65,5.71-22.49,7.66-34.02,10.57
			c-2.44,0.62-4.78,1.63-7.15,2.5C529.16,1014.38,529.28,1014.88,529.32,1015.15z"/>
		<path class="st12" d="M141.68,391.97c0.64-0.36,1.72-0.88,3.11-1.14c6.08-1.1,13.51,3.73,14.16,9.19
			c0.16,1.34-0.14,2.29-0.76,4.19c-1.69,5.18-5.12,9.15-9.34,12.36c-1.48,1.13-6.35,3.16-10.62,1.07
			c-4.76-2.33-6.05-8.71-5.49-13.03c0.38-2.9,1.62-5.05,2.43-6.23C137.34,396.25,139.51,394.11,141.68,391.97z"/>
		<path class="st11" d="M551.55,1034.68c7.26-2.67,14.65-5.05,21.74-8.11c6.57-2.83,12.71-6.55,16.89-12.7
			c0.29-0.43,0.44-0.97,0.66-1.45c0.61-1.2,1.05-2.53,1.86-3.57c0.87-1.11,2.06-2.68,3.18-2.74c1.93-0.11,2.74,2.01,2.49,3.55
			c-0.45,2.78-1.05,5.72-2.39,8.15c-3.5,6.36-9.63,9.71-15.75,13.2C571.07,1036.22,561.22,1034.4,551.55,1034.68z"/>
		<path class="st12" d="M394.62,467.21c-4.94,4.64-11.45,1.32-13.01-5.96c-0.35-1.62-0.16-3.36-0.14-5.05
			c0.03-2.83,1.59-4.43,4.19-5.32c0.14-0.05,0.35-0.21,0.66-0.32c0.75-0.26,1.45-0.2,1.89-0.12c0.72,0.15,1.76,0.43,2.87,1.04
			C394.67,453.47,397.55,457.99,394.62,467.21z"/>
		<path class="st8" d="M121.61,1034.66c-0.94-4.68-1.87-9.37-2.81-14.05c5.9,3.99,11.63,8.17,15.89,14.01
			C130.33,1034.63,125.97,1034.65,121.61,1034.66z"/>
		<path class="st13" d="M76.32,897.87c1.05,3.81,1.98,7.65,3.18,11.42c2.35,7.4,4.59,14.85,7.37,22.09
			c2.61,6.8,4.83,13.66,5.21,20.94c0.55,10.49,0.96,20.99,1.03,31.48c0.03,4.26-1,8.52-1.55,12.78c-0.19-16.14-1.2-32.19-6.38-47.63
			c-4.02-11.98-10.27-22.78-20.16-30.75c-5.72-4.61-12.56-7.83-18.96-11.57c-2.09-1.22-4.37-2.13-6.92-3.35
			c3.26-3.86,7.27-5.93,11.55-7.58c6.9-2.05,13.8-1.79,20.69,0.05C73.02,896.46,74.67,897.17,76.32,897.87z"/>
		<path class="st2" d="M28.4,916.98c2.67,3.74,5.59,7.31,7.94,11.24c5.03,8.39,7.76,17.75,10.43,27.07
			c2.09,7.3,3.86,14.69,5.75,22.04c0.2,0.78,0.22,1.6,0.33,2.4c-1.06-0.67-2.22-1.21-3.16-2.02c-11.4-9.78-19.99-21.4-23.29-36.37
			C24.57,933.03,25.05,924.88,28.4,916.98z"/>
		<path class="st14" d="M240.48,713.67c-2.52-3.29-5.3-6.42-7.51-9.91c-4.04-6.4-7.81-12.97-11.54-19.55
			c-1.37-2.42-2.32-5.09-3.46-7.64c-3.03-8.54-3.97-17.25-3.44-26.35c0.51-8.78,1.47-17.42,3.42-25.98
			c0.92-3.63,1.84-7.25,2.77-10.88c3.56-11.94,8.1-23.39,15.83-33.37c2.21-2.86,4.75-4.59,8.47-4.3c7.64,0.58,15.33,0.76,22.89,1.84
			c4.5,0.64,6.89,2.93,5.02,7.97c-1.78,4.8-3.06,9.83-4.15,14.84c-1.17,5.35-1.87,10.8-2.77,16.21c-0.33,3.65-0.66,7.3-1,10.95
			c0.06,3.08-0.16,6.19,0.23,9.23c1.14,9.04,5.48,16.82,10.28,24.32c9.48,14.8,22.53,26.11,36.3,36.7c0.9,0.76,1.82,1.5,2.7,2.28
			c11.85,10.52,23.69,21.04,35.53,31.56c3.42,3.71,7.11,7.22,10.23,11.18c12.74,16.21,21.64,34.21,25.17,54.71
			c2.11,12.28,3.23,24.63,2.54,37.05c-0.62,11.23-2.68,22.26-6.51,32.9c-0.74-0.47-1.42-1.19-2.22-1.35
			c-1.16-0.24-2.74-0.55-3.53,0.01c-1.38,1-0.58,2.34,0.48,3.38c0.95,0.94,1.84,1.93,2.76,2.9c-1.71,3.6-3.42,7.2-5.14,10.8
			c-0.87,0.63-1.67,1.4-2.61,1.88c-5.99,3-9.25,8.04-10.9,14.32c-0.55,2.08-1.07,4.16-1.61,6.25c-2.21,2.5-4.42,5-6.63,7.5
			c-2.35,2.93-4.7,5.87-7.05,8.8c-0.57-0.09-1.22-0.03-1.7-0.29c-4.89-2.69-9.94-3.38-15.42-2.01c-8.12,2.02-13.61,7.55-18.21,13.86
			c-3.66,5.02-6.14,10.87-9.42,16.18c-1.93,3.12-4.05,6.28-6.71,8.73c-3.06,2.82-5.06,1.98-6.17-2.08
			c-1.82-6.62-0.57-12.87,3.28-18.4c8.27-11.86,18.12-22.39,28.26-32.64c6.51-6.58,13.05-13.11,17.5-21.39
			c4.3-8.01,6.99-16.42,5.26-25.54c-1.54-8.11-6.15-13.98-14.3-16.64c-8.84-2.88-21.28,5.2-25.27,12.29
			c-5.25,9.32-8.53,19.36-11.05,29.71c-1.61,6.61-4.2,12.73-9.42,17.45c-1.57,1.42-2.68,1.4-4.13-0.1c-3-3.11-3.83-6.99-3.81-11.02
			c0.05-11.38,4.17-21.22,11.96-29.46c12.68-13.41,22.78-28.62,31.26-44.94c3.5-6.74,5.42-13.87,5.98-21.55
			c0.58-7.86-0.09-15.23-4.5-21.87c-5.71-8.6-15.97-11.24-24.26-5.01c-1.66,1.25-3.11,2.76-4.66,4.15
			c-2.61-6.33-5.99-12.14-10.84-17.07c-5.4-5.48-10.66-11.1-15.99-16.66c-1.89-3.28-3.63-6.66-5.69-9.83
			C252.86,721.49,247.21,716.93,240.48,713.67z"/>
		<path class="st15" d="M266,616.54c0.9-5.41,1.6-10.86,2.77-16.21c1.1-5.02,2.37-10.04,4.15-14.84c1.87-5.04-0.52-7.33-5.02-7.97
			c-7.56-1.07-15.25-1.25-22.89-1.84c-3.71-0.28-6.25,1.45-8.47,4.3c-7.73,9.98-12.27,21.44-15.83,33.37
			c-8.34-1.01-16.71-1.8-25-3.09c-9.45-1.47-18.92-3.05-28.24-5.2c-20.79-4.78-41.47-10.12-59.17-22.78
			c-3.96-2.83-6.91-7.1-10.21-10.81c-0.36-0.41-0.16-1.55,0.09-2.24c1.37-3.81,4.09-6.55,7.25-8.95c9.52-7.21,20.7-10.6,31.88-14.08
			c12.94-4.02,26.36-5.15,39.65-7.18c15.9-2.43,31.84-3.28,47.88-3.2c4.43,0.02,8.88-0.62,13.29-0.4c9.47,0.49,18.94,1.2,28.39,2.08
			c9.98,0.94,19.97,1.88,29.88,3.38c13.21,2.01,26.34,4.55,39.5,6.9c14.7,2.62,28.87,6.96,42.21,13.71
			c7.36,3.72,14.51,7.84,21.7,11.9c4.47,2.53,7.23,6.76,10.1,10.83c0.83,1.18-0.68,6.53-2.03,7.94
			c-8.19,8.56-18.56,13.36-29.75,16.07c-8.46,2.05-17.25,2.79-25.92,3.96c-7.33,0.99-14.69,1.78-22.04,2.63
			c-8.34,0.96-16.74,1.56-25.01,2.91c-11.28,1.85-22.31-0.61-33.45-1.09C269.81,616.57,267.9,616.57,266,616.54z"/>
		<path class="st0" d="M317.79,626.96c-0.7,5.8-1.44,11.59-2.09,17.4c-0.64,5.73-1.14,11.47-1.76,17.2
			c-0.5,4.65-1.32,9.28-1.56,13.95c-0.38,7.4-0.4,14.82-0.57,22.24c-13.76-10.59-26.82-21.9-36.3-36.7
			c-4.8-7.5-9.14-15.28-10.28-24.32c-0.38-3.04-0.17-6.15-0.23-9.23c6.5,0.4,13,1,19.51,1.15c5.96,0.14,11.93-0.06,17.88-0.36
			C307.53,628.02,312.66,627.41,317.79,626.96z"/>
		<path class="st12" d="M201.73,478.33c0.92,10.13-9.08,20.17-20.59,19.99c-11.74-0.18-21.46-9.29-21.45-20.46
			c0.01-11.6,9.92-21.49,21.42-21.63C193.33,456.09,202.19,467.41,201.73,478.33z"/>
		<path class="st0" d="M217.95,624.23c-1.95,8.55-2.9,17.2-3.42,25.98c-0.53,9.1,0.4,17.81,3.44,26.35
			c-13.43-0.3-24.82,4.42-34.3,13.88c-0.31,0.31-0.7,0.56-1.06,0.83c0.18-5.95,0.38-11.9,0.5-17.85c0.02-0.94-0.3-1.88-0.47-2.83
			c4.51-8.9,9.4-17.64,13.42-26.76c3.01-6.83,4.89-14.15,7.27-21.26C208.2,623.13,213.08,623.68,217.95,624.23z"/>
		<path class="st12" d="M368.99,494.54c-0.05,7.29-6.31,14.16-13.26,13.97c-9-0.25-15.95-6.14-15.96-14.56
			c0-8.86,5.75-14.93,14.05-15.01C362.22,478.86,368.74,485.1,368.99,494.54z"/>
		<path class="st12" d="M330.28,405.55c7.43,0,13.12,6.41,13.12,14.78c0,7.82-6.4,14.34-14.21,14.12
			c-8.54-0.25-14.42-5.96-14.52-13.89C314.56,411.66,323.01,405.34,330.28,405.55z"/>
		<path class="st12" d="M94.37,499.97c-9.35-6.72-7.08-16.9,1.98-22.05c1.4-0.8,2.95-1.33,4.44-1.99c2.94-0.07,5.98-0.66,8.81-0.11
			c5.08,0.98,7.19,7.59,6.96,11.92c-0.22,4.16-2.03,7.74-4.5,11.11c-3.49,4.76-9.36,4.4-14.01,2.88
			C96.76,501.31,95.59,500.56,94.37,499.97z"/>
		<path class="st12" d="M254.05,441.61c-7.31-0.01-12.04-4.46-12.06-11.37c-0.02-7.02,6.65-13.82,13.47-13.72
			c6.08,0.09,11.58,6.21,11.65,12.79C267.19,436.11,260.79,442.33,254.05,441.61z"/>
		<path class="st12" d="M273.06,374.72c0.03-4.64,3.58-8.21,8.22-8.4c4.67-0.2,8.26,1.77,11.01,5.37c3.05,3.99,1.23,9.97-3.52,11.65
			c-3.18,1.12-6.33,1.34-9.18,0.26c-0.71-0.27-2.15-0.85-3.54-2.21C273.52,378.9,273.14,375.75,273.06,374.72z"/>
		<path class="st12" d="M289.78,486.3c-4.09-0.08-7.51-3.68-7.4-7.77c0.11-4.12,4.12-8.14,8.03-8.06c4.25,0.09,7.86,3.77,7.71,7.85
			C297.96,482.57,293.98,486.38,289.78,486.3z"/>
		<path class="st12" d="M418.2,539.21c0.49,2.17,0.99,4.34,1.48,6.52c-3.22,4.6-7.16,5.16-10.24,1.47
			c-1.62-1.94-1.72-5.08-0.23-7.03c1.55-2.04,4.02-2.63,6.54-1.64C416.54,538.83,417.38,538.99,418.2,539.21z"/>
		<path class="st16" d="M153.39,504.8c2.82-0.03,5.12,2.08,5.2,4.76c0.09,2.81-2.23,5.09-5.15,5.08c-2.88-0.01-4.63-1.8-4.68-4.77
			C148.71,506.71,150.42,504.83,153.39,504.8z"/>
		<path class="st16" d="M218.6,366.92c-3.84-0.01-5.49-1.08-5.52-3.6c-0.04-2.8,2.48-5.16,5.51-5.14c2.42,0.01,5.33,2.64,5.37,4.85
			C224,365.45,221.97,366.92,218.6,366.92z"/>
		<path class="st16" d="M204.93,403.04c0.01-1.95-0.12-4,2.74-4c1.9,0,3.78,1.93,3.77,3.87c-0.01,2.17-1.63,4.05-3.56,4.12
			C206.01,407.1,204.9,405.61,204.93,403.04z"/>
		<path class="st17" d="M329.27,462.3c-2.47,0.03-3.94-1.36-3.84-3.35c0.11-2.17,1.34-3.21,3.51-3.24c2.28-0.03,3.4,1.32,3.43,3.33
			C332.39,461.19,330.89,462.18,329.27,462.3z"/>
		<path class="st18" d="M252.46,516.85c-2.01,0.11-3.19-1.21-3.18-3.1c0.01-1.81,0.78-3.66,3-3.96c1.62-0.22,3.38,1.69,3.38,3.48
			C255.66,515.3,255.09,516.89,252.46,516.85z"/>
		<path class="st19" d="M136.62,435.44c-0.99-0.03-1.76-0.87-1.86-1.78c-0.12-1.12,0.79-2.26,1.96-2.24
			c1.09,0.02,1.97,1.05,1.9,2.14C138.56,434.58,137.68,435.48,136.62,435.44z"/>
		<path class="st20" d="M378.96,872.36c-0.92-0.97-1.81-1.96-2.76-2.9c-1.06-1.04-1.87-2.39-0.48-3.38
			c0.79-0.57,2.37-0.25,3.53-0.01c0.8,0.17,1.49,0.88,2.22,1.35c3.35,2.56,6.8,5,10.03,7.69c6.21,5.17,11.92,10.76,14.07,18.96
			c0.08,1.61,0.32,3.23,0.21,4.83c-0.46,6.79-4.38,11.09-10.3,13.85c-3.69,1.72-7.51,3.2-11.1,5.11c-3.73,1.98-4.33,4.56-2.57,8.45
			c2.41,5.31,6.72,8.89,11.1,12.45c4.92,3.99,10.05,7.77,14.55,12.18c5.81,5.69,4.41,12.97-2.96,16.37
			c-3.5,1.62-7.35,2.48-11.05,3.68c-2.87,0.73-5.81,1.26-8.6,2.24c-6.97,2.44-9.51,6.14-9.29,13.05c-3.51,1.35-7.33,2.2-10.45,4.17
			c-3.35,2.11-6.04,5.26-9.03,7.95c-0.57,0.51-1.18,0.97-1.76,1.45c-1.28-1.09-2.56-2.18-3.84-3.27c-0.59-0.69-1.21-1.35-1.76-2.06
			c-3.85-4.97-6.33-10.3-4.8-16.84c1.28-5.5,4.81-9.2,9.27-12.25c2.36-1.09,4.72-2.17,7.08-3.26c1.4-0.35,2.78-0.79,4.2-1.03
			c5.51-0.95,11.02-1.85,16.53-2.76c2.15-0.39,4.3-0.78,7.1-1.29c-4.83-6.16-11.15-8.82-16.92-12.24
			c-7.09-4.31-13.24-9.5-16.34-17.53c-0.19-0.9-0.38-1.8-0.58-2.71c-0.65-5.82,0.6-11.03,4.94-15.23c3.97-1.92,7.87-3.99,11.92-5.7
			c4.17-1.76,8.52-3.1,12.74-4.73c6.64-2.56,7.43-10.17,4.23-15.28C386.25,878.92,382.64,875.62,378.96,872.36z"/>
		<path class="st20" d="M442.6,958.29c0.74,8.43-2.42,15.28-8.2,21.25c-2.5,2.58-4.61,5.55-6.77,8.44
			c-3.49,4.67-3.78,9.8-1.81,15.16c-4.03,1.07-8.07,2.13-12.1,3.2c-0.67-0.96-1.53-1.83-1.98-2.88c-2.28-5.3-6.48-9-10.52-12.83
			c0.87-2.57,1.73-5.14,2.6-7.71c2.96-2.73,5.69-5.8,8.96-8.1c2.77-1.96,6.18-3,9.28-4.52c5.85-2.85,6.95-8.86,2.44-13.36
			c-1.22-1.21-2.56-2.31-3.89-3.4c-2.8-2.3-5.91-4.29-8.4-6.87c-10.05-10.44-9-22.29,2.46-31.09c1.71-1.31,3.09-3.05,4.62-4.6
			c3.95-3.64,2.68-8.34,2.33-12.72c-0.17-2.07-1.46-4.03-2.05-6.1c-0.27-0.94-0.09-2.02-0.11-3.03c1.05,0.19,2.34,0.05,3.1,0.62
			c4.34,3.24,8.39,6.79,11.27,11.48c2.19,6.33,2.36,12.66,0.03,19c-1.64,2.37-3.27,4.73-4.91,7.1c-2.52,2.69-3.35,5.6-1.3,8.56
			c3.98,5.72,8.48,11.08,12.76,16.59C441.14,954.41,441.87,956.35,442.6,958.29z"/>
		<path class="st4" d="M419.29,910.97c-1.53,1.54-2.91,3.29-4.62,4.6c-11.46,8.8-12.51,20.65-2.46,31.09
			c2.49,2.59,5.6,4.58,8.4,6.87c1.33,1.09,2.67,2.18,3.89,3.4c4.51,4.49,3.41,10.5-2.44,13.36c-3.1,1.51-6.51,2.56-9.28,4.52
			c-3.27,2.3-6,5.37-8.96,8.1c-1.46-1.58-2.96-3.11-4.36-4.74c-2.04-2.36-4-4.78-5.99-7.18c3.69-1.2,7.54-2.06,11.05-3.68
			c7.37-3.4,8.77-10.68,2.96-16.37c-4.51-4.41-9.64-8.2-14.55-12.18c-4.38-3.55-8.69-7.13-11.1-12.45
			c-1.76-3.89-1.16-6.46,2.57-8.45c3.59-1.91,7.41-3.39,11.1-5.11c5.91-2.76,9.84-7.06,10.3-13.85c0.11-1.6-0.13-3.22-0.21-4.83
			C411.16,898.88,416.02,904.28,419.29,910.97z"/>
		<path class="st21" d="M289.48,771.35c1.55-1.39,3.01-2.9,4.66-4.15c8.29-6.23,18.55-3.59,24.26,5.01
			c4.41,6.64,5.07,14.01,4.5,21.87c-0.56,7.68-2.47,14.81-5.98,21.55c-8.48,16.32-18.58,31.52-31.26,44.94
			c-7.79,8.24-11.91,18.08-11.96,29.46c-0.02,4.03,0.82,7.91,3.81,11.02c1.45,1.5,2.56,1.52,4.13,0.1
			c5.22-4.72,7.8-10.84,9.42-17.45c2.53-10.34,5.81-20.38,11.05-29.71c3.99-7.09,16.43-15.17,25.27-12.29
			c8.15,2.66,12.76,8.53,14.3,16.64c1.73,9.12-0.95,17.53-5.26,25.54c-4.45,8.28-10.99,14.81-17.5,21.39
			c-10.14,10.25-20,20.78-28.26,32.64c-3.86,5.53-5.1,11.78-3.28,18.4c1.12,4.06,3.11,4.91,6.17,2.08c2.66-2.45,4.78-5.62,6.71-8.73
			c3.28-5.31,5.77-11.16,9.42-16.18c4.6-6.31,10.1-11.85,18.21-13.86c5.48-1.36,10.54-0.67,15.42,2.01c0.48,0.26,1.13,0.2,1.7,0.29
			c0.36,0.78,0.53,1.75,1.1,2.32c3.53,3.51,5.34,7.71,4.89,12.67c-0.36,3.92-1.1,7.8-1.67,11.69c-0.17,0.21-0.41,0.39-0.51,0.62
			c-4.08,10.2-10.16,19.16-16.97,27.68c-1.53,1.91-3.63,3.69-3.28,6.6c-1.87-1.91-2.25,0.54-2.81,1.19
			c-3.14,3.71-6.09,7.58-9.11,11.4c-2.1-1.59-3.62-1.07-5.29,0.93c-2.33,2.77-5.06,5.2-7.57,7.82c-2.82,2.94-5.6,5.92-9.01,8.77
			c0.21-1.59,0.33-3.19,0.63-4.76c1.69-8.65,4.66-16.77,10.14-23.81c1.12-1.44,1.91-2.95,0.64-4.69c-1.25-1.71-3-1.56-4.69-0.95
			c-6.59,2.36-12.44,6.07-17.42,10.9c-4.83,4.68-9.21,9.83-13.74,14.72c-0.34-8.13,0.49-16.41,4.09-24.21
			c1.21-2.63,2.74-5.11,4.22-7.61c1.06-1.79,1.5-3.59,0.11-5.31c-1.37-1.69-3.34-1.66-4.96-0.68c-4.17,2.51-8.65,4.78-12.17,8.05
			c-5.14,4.77-9.54,10.33-14.3,15.6c-0.55-2.66-1.21-5.84-1.87-9.02c2.06-0.2,3.9-1.05,4.09-3.23c0.11-1.35-0.43-3.16-1.35-4.09
			c-1.39-1.41-3.32-1.18-4.93,0.16c-2.88-7.31-7.04-13.65-14.68-16.58c-3.83-1.47-7.99-2.22-12.07-2.79
			c-1.38-0.19-3.53,0.82-4.28,1.97c-0.58,0.89,0.11,3.05,0.84,4.29c4.43,7.57,7.45,15.51,7.04,24.43c-0.09,2.04-0.6,4.05-0.92,6.14
			c-2.55-0.25-3.34-1.75-3.99-3.54c-3-8.21-7.07-15.87-14.19-21.13c-3.69-2.73-8.33-4.19-12.55-6.2c-0.65-0.31-1.36-0.47-2.05-0.69
			c-0.37-1.81-0.74-3.62-1.11-5.43c2-5.98,3.99-11.96,5.99-17.94c2.74-2.22,5.97-2.42,9.29-2.29c2.33,0.22,4.65,0.44,6.98,0.66
			c0.8,0.39,1.62,0.74,2.41,1.16c3.74,1.99,7.95,3.43,11.1,6.11c6.75,5.73,12.95,12.1,19.37,18.23c1.69,1.61,3.18,3.48,5.05,4.85
			c1.01,0.74,3.02,1.33,3.84,0.81c0.89-0.56,1.33-2.51,1.25-3.81c-0.26-4.58-2.1-8.56-5.35-11.83c-6.22-6.28-13.3-11.41-21.01-15.72
			c-4.41-2.46-8.8-4.97-13.21-7.46c-0.4-0.21-0.8-0.41-1.2-0.62c-0.95-0.64-1.9-1.29-2.86-1.91c-4.86-3.17-9.73-6.33-14.6-9.49
			c-0.54-2.15-1.15-4.28-1.61-6.45c-1.75-8.35-4.84-16.03-10.28-22.75c-1.77-2.19-4.95-3.72-4.5-7.33
			c1.05-9.89,8.28-14.9,18.36-13.48c10.38,1.46,18.02,6.86,24.14,14.97c0.8,1.07,1.84,1.96,2.77,2.93
			c3.82,5.79,7.63,11.59,11.45,17.38c2.63,2.77,5.13,5.7,7.96,8.25c1.26,1.14,2.89,0.71,2.97-1.46c0.18-4.97-0.63-9.72-3.3-14.03
			c-2.46-7.53-7.24-13.28-13.6-17.83c-3.82-3.02-7.65-6.02-11.46-9.06c-8.2-6.53-16.83-12.6-24.47-19.74
			c-8.19-7.66-14.12-17.17-18.09-27.77c-0.25-0.66-0.68-1.26-1.02-1.88c-1.33-6.04-2.72-12.08-2.32-18.34
			c0.01-0.22-0.26-0.45-0.4-0.68c0.34-1.85,0.74-3.69,1.02-5.55c1.57-10.21,10.69-15.38,19.36-14.32c5.15,0.63,9.56,2.38,13.96,4.7
			c2.72,2.35,5.6,4.55,8.12,7.1c4.23,4.26,6.26,9.87,8.65,15.23c2.95,8.92,5.79,17.89,8.95,26.74c0.59,1.65,2.65,4.15,3.67,3.99
			c2.42-0.38,2.06-3.13,2.17-5.18c0.01-0.18,0.01-0.36,0-0.54c-0.19-3.43-0.38-6.86-0.56-10.29c-0.82-5.14-0.96-10.51-2.59-15.38
			c-3.79-11.35-8.3-22.47-12.52-33.68c-1.75-6.54-3.87-13.01-5.16-19.64c-1.96-10.07-0.93-20.02,3.42-29.39
			c3.99-8.58,10.52-11.54,19.83-9.38c1.05,0.24,2.12,0.44,3.18,0.67c6.74,3.26,12.39,7.82,16.49,14.11c2.06,3.17,3.8,6.55,5.69,9.83
			c0.12,0.92,0.18,1.86,0.37,2.76c1.51,7.14,3.75,14.21,4.42,21.42c0.96,10.29-0.14,20.59-2.95,30.62
			c-1.92,6.87-4.08,13.67-5.86,20.57c-1.33,5.15-1.29,10.42,0.34,15.53c1.42,4.45,5.42,5.45,8.55,2.05c1.8-1.95,3.37-4.27,4.43-6.69
			c3.95-9,5.83-18.6,7.63-28.19C281.24,786.88,283.67,778.44,289.48,771.35z M240.89,873.01c-0.01,3.96,2.55,6.78,6.19,6.83
			c3.24,0.05,7.32-4.12,7.39-7.54c0.07-3.26-3.61-6.88-7.14-7C243.91,865.18,240.89,868.79,240.89,873.01z M182,806.89
			c-0.01,3.72,2.65,6.51,6.15,6.47c3.54-0.04,6.97-3.71,6.92-7.39c-0.06-3.54-2.92-6.28-6.52-6.24
			C184.81,799.77,182,802.84,182,806.89z M210.99,956.68c-0.03-3.45-2.2-5.33-6.1-5.31c-4.09,0.02-7.1,2.9-6.99,6.67
			c0.1,3.32,3.08,6.33,6.26,6.32C207.9,964.35,211.03,960.84,210.99,956.68z M275.86,956.76c0-3.76-2.83-6.51-6.75-6.57
			c-3.4-0.05-5.92,2.79-5.91,6.65c0.01,3.85,2.46,6.47,6.08,6.5C273.28,963.38,275.86,960.8,275.86,956.76z M200.08,878.71
			c-0.04-3.42-2.66-5.95-6.11-5.92c-3.41,0.03-6.49,3.07-6.48,6.41c0.01,3.64,2.8,6.29,6.48,6.17
			C197.48,885.26,200.13,882.37,200.08,878.71z M285.61,787.54c0.03,2.89,2.82,5.66,5.61,5.59c3.14-0.08,5.74-2.82,5.78-6.1
			c0.05-3.4-2.3-6.26-5.14-6.24C288.67,780.82,285.58,784.16,285.61,787.54z M319.37,864.08c0,3.22,2.26,5.47,5.47,5.47
			c3.11-0.01,5.94-3.02,5.9-6.28c-0.04-2.84-2.84-5.62-5.64-5.6C321.98,857.69,319.37,860.6,319.37,864.08z M245.34,931.99
			c0-3.05-2.24-5.24-5.34-5.22c-3.06,0.02-5.56,2.36-5.56,5.2c0,3.05,2.42,5.26,5.73,5.24
			C243.59,937.18,245.34,935.42,245.34,931.99z M320.31,955.73c3.27,0.04,5.67-2.17,5.67-5.24c0-2.46-3.39-5.74-5.9-5.7
			c-2.41,0.03-4.89,2.8-4.99,5.58C314.99,953.41,317.21,955.69,320.31,955.73z M254.04,779.58c-0.04-2.89-2.02-4.4-5.66-4.32
			c-2.65,0.06-4.58,2.17-4.62,5.04c-0.03,2.49,2.59,5.16,5.06,5.16C251.53,785.46,254.08,782.59,254.04,779.58z M275.49,851.54
			c-2.66,0.02-4.65,2.29-4.64,5.27c0.01,2.58,1.82,4.59,4.03,4.48c2.56-0.12,4.82-2.83,4.77-5.71
			C279.61,853.23,277.85,851.52,275.49,851.54z M311.82,802.98c0.01-2.92-1.68-4.85-4.27-4.86c-2.27-0.01-4.42,2.39-4.41,4.92
			c0.01,2.58,1.86,4.43,4.41,4.42C310.16,807.44,311.8,805.72,311.82,802.98z M194.01,839.43c-0.02,2.63,1.56,4.43,3.96,4.5
			c2.59,0.08,4.79-2.25,4.83-5.11c0.03-2.52-1.18-3.67-3.89-3.69C195.45,835.12,194.04,836.35,194.01,839.43z M310.42,892.41
			c-2.54-0.04-4.48,1.69-4.53,4.06c-0.06,2.27,1.77,4.12,4.11,4.18c2.36,0.05,4.43-1.96,4.38-4.25
			C314.32,894.19,312.58,892.44,310.42,892.41z M213.15,913.6c-0.04-2.3-1.78-4.27-3.73-4.23c-2.1,0.05-3.92,1.97-3.89,4.12
			s1.89,4,4.01,4.01C211.69,917.5,213.19,915.88,213.15,913.6z M268.78,912.02c0.01-2.19-0.9-3.64-3.25-3.78
			c-2.32-0.14-3.89,1.44-3.92,3.81c-0.02,2.27,1.47,3.85,3.61,3.83C267.39,915.86,268.76,914.37,268.78,912.02z M225.71,848.79
			c-2.17,0.05-3.37,1.35-3.35,3.64c0.02,2.26,1.35,3.61,3.48,3.52c1.79-0.08,3.58-1.99,3.52-3.76
			C229.29,850.02,227.91,848.74,225.71,848.79z M292.13,833.88c0,1.96,0.91,3.03,2.95,2.98c1.84-0.05,3.64-2,3.56-4.03
			c-0.08-2.02-1.19-3.14-3.27-3.11C293.37,829.76,292.09,831.42,292.13,833.88z M322.04,885.42c1.77,0.02,3.76-1.58,3.16-3.23
			c-0.48-1.33-2.07-2.88-3.39-3.12c-1.8-0.33-3.29,1.28-3.3,3.2C318.5,884.17,319.65,885.47,322.04,885.42z M319.92,974.81
			c1.85,0.11,3.31-1.24,3.02-3.03c-0.21-1.31-1.82-3.02-3.12-3.37c-1.9-0.51-3.09,1.04-3.2,3.09
			C316.52,973.6,317.43,974.78,319.92,974.81z M282.3,929c1.88-0.33,3.25-1.32,3.2-3.37c-0.05-1.86-1.2-3.13-3.13-3.03
			c-1.91,0.1-3.27,1.18-3.23,3.3C279.17,927.85,280.38,928.78,282.3,929z M295.98,974.8c3.11,0,4.13-1.33,4.24-3.22
			c0.12-1.94-1.21-3.13-3.02-3.1c-1.87,0.03-3.5,1.24-3.25,3.21C294.12,972.95,295.47,974.07,295.98,974.8z M223.96,738.21
			c2.94-0.02,3.89-1.02,3.93-3c0.03-1.64-0.58-3.28-2.25-2.89c-1.36,0.32-2.84,1.73-3.42,3.04
			C221.92,736.02,223.51,737.52,223.96,738.21z M255.68,750.61c-0.08-1.85-1.17-3.03-2.92-2.57c-1.13,0.3-2.66,1.56-2.79,2.56
			c-0.24,1.78,1.12,2.92,3.11,2.84C254.87,753.36,255.65,752.36,255.68,750.61z M237.71,805.06c0.5,2.33,1.35,3.73,3,3.28
			c1.15-0.31,2.52-1.74,2.73-2.87c0.14-0.76-1.57-2.61-2.47-2.62C239.89,802.84,238.8,804.26,237.71,805.06z M308.38,874.16
			c-0.02-0.4-0.04-0.81-0.06-1.21c-1.02-0.59-1.99-1.5-3.08-1.7c-1.84-0.33-2.85,1.14-2.55,2.63c0.2,0.99,1.67,2.4,2.58,2.4
			C306.3,876.27,307.34,874.92,308.38,874.16z M222.9,910.98c1.64,1.2,2.64,2.5,3.54,2.43c0.87-0.06,2.37-1.63,2.27-2.35
			c-0.14-0.99-1.41-2.27-2.43-2.54C225.62,908.34,224.54,909.73,222.9,910.98z M213.22,829.14c-1.61-1.05-2.55-2.14-3.24-2
			c-0.86,0.18-1.52,1.36-2.27,2.11c0.77,0.72,1.48,1.87,2.34,2.01C210.75,831.38,211.65,830.26,213.22,829.14z M292.66,822.71
			c1.09-1.53,2.21-2.44,2.08-3.09c-0.18-0.87-1.33-1.54-2.07-2.29c-0.72,0.74-1.88,1.4-2.02,2.24
			C290.53,820.26,291.61,821.16,292.66,822.71z M209.33,895.03c-1.27-0.91-2.09-1.95-2.82-1.89c-0.72,0.06-1.99,1.43-1.86,1.9
			c0.24,0.88,1.23,1.92,2.1,2.14C207.28,897.33,208.17,896.06,209.33,895.03z M264.5,838.9c-1.17-0.7-1.98-1.55-2.47-1.4
			c-0.76,0.24-1.31,1.17-1.94,1.81c0.67,0.59,1.34,1.64,2.01,1.64C262.75,840.95,263.41,839.89,264.5,838.9z M282.75,822.95
			c0.81-1.15,1.64-1.83,1.66-2.51c0.01-0.52-1.19-1.58-1.58-1.47c-0.77,0.23-1.56,1-1.9,1.75
			C280.79,821.01,281.82,821.84,282.75,822.95z"/>
		<path class="st6" d="M176,879.33c-0.44,3.61,2.73,5.14,4.5,7.33c5.45,6.72,8.54,14.4,10.28,22.75c0.45,2.17,1.07,4.3,1.61,6.45
			c-0.18,0.48-0.49,0.96-0.51,1.45c-0.21,6.62-0.39,13.24-0.57,19.86c-2,5.98-3.99,11.96-5.99,17.94c-1.09,1.61-2.18,3.21-3.27,4.82
			c-1.73,0.47-2.75,1.49-2.62,3.39c-1.69,2.76-3.37,5.52-5.06,8.28c-6.21-4.46-13.09-7.26-20.66-8.38c-2.09-0.25-4.18-0.5-6.47-0.78
			c0.2-0.56,0.31-0.98,0.49-1.37c5.26-12.12,9.46-24.61,12.75-37.41c2.54-9.88,4.37-19.84,5.36-30.02
			c0.68-6.96,0.14-13.65-1.75-20.31c2.11,1.12,4.31,2.09,6.29,3.4c1.71,1.13,3.16,2.65,4.75,4.02
			C175.46,880.23,175.73,879.78,176,879.33z"/>
		<path class="st8" d="M164.09,873.35c1.89,6.66,2.42,13.35,1.75,20.31c-0.99,10.17-2.82,20.14-5.36,30.02
			c-3.29,12.8-7.48,25.28-12.75,37.41c-0.17,0.39-0.29,0.81-0.49,1.37c2.29,0.28,4.38,0.53,6.47,0.78
			c-2.26,0.02-4.54-0.16-6.76,0.14c-1.46,0.2-3.24,0.78-4.05,1.83c-0.43,0.56,0.89,2.48,1.45,3.77c0.14,0.32,0.41,0.58,0.62,0.87
			c-0.31,0.15-0.82,0.25-0.89,0.47c-1.73,5.83-3.4,11.67-5.09,17.52c-3.87,0.18-7.76,0.18-11.59,0.63
			c-1.28,0.15-2.95,1.21-3.46,2.31c-0.36,0.77,0.67,2.6,1.56,3.46c3.87,3.76,7.91,7.35,11.89,10.99c-0.36,2.53-0.72,5.05-1.08,7.58
			c-5.62-2.45-11.58-2.2-17.51-2.15c0.73-4.31,1.32-8.64,2.24-12.91c1.1-5.15,2.47-10.23,3.72-15.35c2.2-4.84,4.61-9.61,6.58-14.54
			c6.51-16.31,12.72-32.75,19.36-49.01c2.87-7.04,6.28-13.83,7.63-21.42c1.51-8.48,2.67-16.94,0.89-25.53
			c-0.13-0.61-0.18-1.31-0.02-1.89c0.2-0.71,0.66-1.34,1.01-2c0.66,0.38,1.59,0.59,1.94,1.16
			C162.94,870.48,163.46,871.95,164.09,873.35z"/>
		<path class="st0" d="M152.03,852.06c-3.34,6.7-6.32,13.61-10.14,20.02c-3.03,5.08-8.1,4.27-10.61-1.11
			c-2.4-5.16-2.55-10.49-1.34-15.92c1.96-8.84,4.18-17.62,8.28-25.75c1.82-3.62,4.13-6.99,6.22-10.47c0.46,2.92,0.8,5.87,1.4,8.76
			c0.88,4.19,2.03,8.32,2.91,12.51c0.7,3.32,1.09,6.7,1.78,10.02C150.68,850.84,151.51,851.42,152.03,852.06z"/>
		<path class="st0" d="M220.11,805.77c-2.38-5.36-4.41-10.97-8.65-15.23c-2.53-2.54-5.4-4.74-8.12-7.1
			c6.28-2.71,11.44-6.89,15.88-12.02c4.22,11.21,8.73,22.33,12.52,33.68c1.63,4.87,1.77,10.24,2.59,15.38
			c-2.73-3.75-5.24-7.7-8.28-11.17C224.6,807.66,222.12,806.92,220.11,805.77z"/>
		<path class="st0" d="M232.72,901.14c-3.82-5.79-7.63-11.59-11.45-17.38c1.83-2.56,3.65-5.12,5.48-7.69
			c6.36,4.55,11.14,10.3,13.6,17.83C237.81,896.32,235.27,898.73,232.72,901.14z"/>
		<path class="st4" d="M515.09,928.45c5.19,0.43,7.45,3.94,9.29,8.29c4.45,10.55,1.21,19.92-4.34,28.8
			c-2.66,4.25-6.17,7.96-9.29,11.92c1.1-9.94,2.33-19.87,3.26-29.82C514.6,941.26,514.74,934.85,515.09,928.45z"/>
		<path class="st11" d="M486.21,1000.38c-2.41,5.54-4.82,11.09-7.22,16.63c-0.56,1.28-1.09,2.57-1.63,3.86
			c-0.27-0.05-0.54-0.11-0.81-0.16c0.38-3.48,0.66-6.98,1.17-10.45c1.46-10.08,7.2-17.95,13.12-25.83
			c4.97-6.6,9.18-13.78,11.07-21.92c2.28-9.82-1.43-22.54-12.13-27.68c-0.15-0.07-0.25-0.25-0.37-0.39
			c7.05,0.4,11.94,3.9,14.8,10.32c4.67,9.68,4.17,19.16-1.07,28.47c-3.3,5.35-6.59,10.7-9.91,16.03
			C490.92,992.98,488.55,996.67,486.21,1000.38z"/>
		<path class="st22" d="M486.21,1000.38c2.35-3.71,4.71-7.4,7.03-11.13c3.32-5.33,6.61-10.69,9.91-16.03
			c-0.06,2.15-0.07,4.31-0.18,6.46c-0.09,1.68-0.29,3.35-0.45,5.02C497.08,989.93,491.64,995.15,486.21,1000.38z"/>
		<path class="st3" d="M449.61,979.21c0.56-2.85,1.32-5.68,1.64-8.56c0.87-7.9,1.55-15.83,2.31-23.74
			c1.39,5.41,2.92,10.79,4.14,16.24c2.66,11.92,4.96,23.9,5.17,36.17c-1.08,1.74-2.23,3.85-3.27,6.33
			c-1.12,2.66-1.86,5.13-2.35,7.23c-0.6-2.5-1.23-5-1.81-7.51c-1.89-8.18-3.77-16.36-5.64-24.55
			C449.67,980.3,449.66,979.75,449.61,979.21z"/>
		<path class="st10" d="M350.48,996.58c1.28,1.09,2.56,2.18,3.84,3.27c0.9,2.13,1.98,4.2,2.66,6.4c0.91,2.92,1.51,5.94,2.24,8.92
			c-6.19,4.63-12.38,9.27-18.62,13.94c0.72-6.5,1.98-13.08,5.43-19.07c0.95-1.65,2.11-3.21,2.81-4.95c0.33-0.82,0.13-2.27-0.43-2.92
			c-0.56-0.65-2.07-1.15-2.82-0.85c-8.4,3.29-16.51,7.12-22.74,13.95c-1.27,1.39-2.38,2.92-3.77,4.63
			c-1.61-3.98-2.08-7.84-1.79-11.83c2.03-1.43,4.19-2.71,6.06-4.33c2.62-2.26,5.02-4.77,7.52-7.17
			C337.41,994.83,343.95,994.89,350.48,996.58z"/>
		<path class="st6" d="M138.99,987.85c1.69-5.84,3.37-11.69,5.09-17.52c0.07-0.23,0.58-0.32,0.89-0.47
			c6.31,5.52,10.39,12.55,13.61,20.16c-1.24,1.28-2.48,2.57-3.71,3.85C150.17,990.29,144.71,988.72,138.99,987.85z"/>
		<path class="st2" d="M174.38,971.62c1.69-2.76,3.37-5.52,5.06-8.28c2.13,2.42,4.4,4.73,6.34,7.29c1.85,2.44,3.4,5.11,5.01,7.72
			c3.3,5.35,1.67,10.98,0.8,17.12C187.07,986.27,182.49,977.63,174.38,971.62z"/>
		<path class="st14" d="M330.88,996.56c-2.49,2.4-4.9,4.91-7.52,7.17c-1.87,1.61-4.03,2.9-6.06,4.33c-0.02-3.22,0-6.43-0.08-9.65
			c-0.02-0.78-0.36-1.55-0.56-2.32c3.02-3.82,5.96-7.69,9.11-11.4c0.56-0.66,0.94-3.1,2.81-1.19
			C329.35,987.85,330.11,992.2,330.88,996.56z"/>
		<path class="st23" d="M188.21,1016.34c-0.03,4.04-3.58,7.44-7.81,7.47c-3.88,0.03-6.89-2.83-6.91-6.54
			c-0.01-4.16,3.77-8.16,7.64-8.06C185.09,1009.31,188.23,1012.47,188.21,1016.34z M184.8,1016.97c0.05-1.91-1.95-3.86-4.09-3.97
			c-1.92-0.1-3.54,1.51-3.63,3.59c-0.1,2.22,1.55,3.97,3.82,4.05C182.96,1020.71,184.74,1019.03,184.8,1016.97z"/>
		<path class="st24" d="M207.65,1022.86c-4.35,0.04-7.15-2.47-7.15-6.41c0.01-4.2,2.96-7.26,7.12-7.36
			c3.57-0.09,6.93,3.16,6.89,6.67C214.48,1019.32,211.09,1022.82,207.65,1022.86z M207.22,1012.88c-1.96,0.23-3.36,1.11-3.47,3.35
			c-0.11,2.17,1.27,3.68,3.39,3.72c2.01,0.04,3.69-1.56,3.63-3.61C210.7,1014.17,209.38,1013.13,207.22,1012.88z"/>
		<path class="st25" d="M136.32,1012.82c0.36-2.53,0.72-5.05,1.08-7.58c3.74,4.06,7.94,7.85,8.59,14.18
			C142.57,1017.1,139.44,1014.96,136.32,1012.82z"/>
		<path class="st26" d="M243.29,974.66c1.61-1.33,3.54-1.56,4.93-0.16c0.92,0.93,1.47,2.74,1.35,4.09
			c-0.18,2.18-2.03,3.02-4.09,3.23C244.75,979.44,244.02,977.05,243.29,974.66z"/>
		<path class="st27" d="M154.86,993.87c1.24-1.28,2.48-2.57,3.71-3.85c1.03,3.02,2.07,6.04,3.1,9.06c-0.23,0.14-0.46,0.28-0.7,0.42
			C158.94,997.62,156.9,995.75,154.86,993.87z"/>
		<path class="st28" d="M182.05,959.94c1.09-1.61,2.18-3.21,3.27-4.82c0.37,1.81,0.74,3.62,1.11,5.43
			C184.97,960.35,183.51,960.15,182.05,959.94z"/>
		<path class="st0" d="M71.38,895.76c0.09-0.39,0.35-0.84,0.24-1.16c-1.64-4.66-3.31-9.32-5.01-13.96c-0.3-0.83-0.79-1.59-1.19-2.39
			c2.71,1.11,5.42,2.22,8.14,3.33c0.92,5.43,1.84,10.86,2.77,16.3C74.67,897.17,73.02,896.46,71.38,895.76z"/>
		<path class="st0" d="M393.47,970.99c1.99,2.4,3.96,4.82,5.99,7.18c1.4,1.62,2.9,3.16,4.36,4.74c-0.87,2.57-1.74,5.14-2.6,7.71
			c-7.08-4.86-14.78-6.57-23.22-4.61c-0.79,0.18-1.62,0.18-2.43,0.27c-0.22-6.91,2.32-10.62,9.29-13.05
			C387.65,972.25,390.59,971.72,393.47,970.99z"/>
		<path class="st0" d="M289.48,771.35c-5.81,7.09-8.24,15.53-9.89,24.34c-1.8,9.59-3.69,19.2-7.63,28.19
			c-1.06,2.42-2.63,4.75-4.43,6.69c-3.14,3.4-7.13,2.4-8.55-2.05c-1.63-5.11-1.67-10.38-0.34-15.53c1.78-6.9,3.94-13.71,5.86-20.57
			c2.81-10.03,3.9-20.33,2.95-30.62c-0.67-7.22-2.91-14.28-4.42-21.42c-0.19-0.91-0.25-1.84-0.37-2.76
			c5.32,5.56,10.59,11.17,15.99,16.66C283.49,759.2,286.87,765.02,289.48,771.35z"/>
		<path class="st4" d="M388.1,883.66c3.2,5.1,2.42,12.71-4.23,15.28c-4.23,1.63-8.57,2.97-12.74,4.73
			c-4.05,1.71-7.96,3.79-11.92,5.7c-0.17-1.25-0.34-2.51-0.51-3.76c0.54-2.08,1.06-4.17,1.61-6.25c1.65-6.28,4.92-11.32,10.9-14.32
			c0.95-0.48,1.75-1.25,2.61-1.88c0.66,0.07,1.36,0.32,1.96,0.17C379.93,882.36,384.03,882.29,388.1,883.66z"/>
		<path class="st29" d="M388.1,883.66c-4.07-1.37-8.17-1.3-12.31-0.33c-0.61,0.14-1.31-0.11-1.96-0.17c1.71-3.6,3.42-7.2,5.13-10.8
			C382.64,875.62,386.25,878.92,388.1,883.66z"/>
		<path class="st30" d="M354.27,924.59c-0.35-2.87-0.64-5.76-1.09-8.62c-0.16-0.99-0.72-1.92-1.1-2.87c2.21-2.5,4.42-5,6.63-7.5
			c0.17,1.25,0.34,2.51,0.51,3.76C354.87,913.57,353.62,918.77,354.27,924.59z"/>
		<path class="st0" d="M349.34,948.58c1.28,5.61,2.57,11.23,3.85,16.84c-4.46,3.04-7.99,6.75-9.27,12.25
			c-1.52,6.54,0.96,11.87,4.8,16.84c0.55,0.71,1.17,1.38,1.76,2.06c-6.53-1.69-13.07-1.75-19.61-0.02
			c-0.76-4.36-1.53-8.71-2.29-13.07c-0.35-2.91,1.75-4.69,3.27-6.6c6.82-8.53,12.89-17.49,16.97-27.68
			C348.93,948.97,349.17,948.79,349.34,948.58z"/>
		<path class="st0" d="M360.27,962.16c-0.83-4.05-1.85-8.06-2.46-12.14c-1.12-7.56-1.99-15.15-2.96-22.72
			c3.09,8.04,9.25,13.22,16.34,17.53c3.27,4.51,6.54,9.03,9.82,13.54c-5.51,0.91-11.03,1.81-16.53,2.76
			C363.05,961.38,361.67,961.82,360.27,962.16z"/>
		<path class="st31" d="M381,958.37c-3.27-4.51-6.54-9.03-9.82-13.54c5.77,3.42,12.09,6.08,16.92,12.24
			C385.3,957.59,383.15,957.98,381,958.37z"/>
		<path class="st32" d="M433.82,936.65c2.19,5.27,4.39,10.54,6.58,15.82c-4.28-5.51-8.78-10.87-12.76-16.59
			c-2.06-2.96-1.22-5.86,1.3-8.56C430.57,930.43,432.2,933.54,433.82,936.65z"/>
		<path class="st33" d="M433.82,936.65c-1.63-3.11-3.25-6.22-4.88-9.33c1.64-2.37,3.27-4.73,4.91-7.1
			C433.84,925.7,433.83,931.17,433.82,936.65z"/>
		<path class="st14" d="M211.05,927.88c4.4,2.49,8.79,5,13.2,7.46c7.71,4.3,14.79,9.44,21.01,15.72c3.25,3.28,5.09,7.26,5.35,11.83
			c0.07,1.3-0.36,3.25-1.25,3.81c-0.82,0.52-2.83-0.07-3.84-0.81c-1.86-1.37-3.35-3.24-5.05-4.85
			c-6.41-6.12-12.62-12.49-19.37-18.23c-3.16-2.68-7.37-4.12-11.1-6.11c-0.79-0.42-1.6-0.78-2.41-1.16
			C208.74,932.99,209.9,930.44,211.05,927.88z"/>
		<path class="st13" d="M220.11,805.77c2.01,1.15,4.49,1.89,5.94,3.54c3.05,3.47,5.55,7.42,8.28,11.17
			c0.19,3.43,0.38,6.86,0.56,10.29c0.01,0.18,0.01,0.36,0,0.54c-0.11,2.05,0.24,4.8-2.17,5.18c-1.02,0.16-3.08-2.34-3.67-3.99
			C225.9,823.65,223.06,814.69,220.11,805.77z"/>
		<path class="st34" d="M240.89,873.01c0.01-4.23,3.02-7.83,6.44-7.71c3.53,0.13,7.21,3.74,7.14,7c-0.07,3.42-4.15,7.59-7.39,7.54
			C243.43,879.8,240.88,876.98,240.89,873.01z"/>
		<path class="st34" d="M182,806.89c0.01-4.05,2.82-7.12,6.55-7.16c3.6-0.04,6.46,2.7,6.52,6.24c0.06,3.68-3.37,7.35-6.92,7.39
			C184.64,813.4,181.99,810.61,182,806.89z"/>
		<path class="st34" d="M210.99,956.68c0.04,4.16-3.09,7.67-6.83,7.68c-3.18,0.01-6.16-3-6.26-6.32c-0.11-3.77,2.9-6.64,6.99-6.67
			C208.78,951.35,210.95,953.24,210.99,956.68z"/>
		<path class="st34" d="M275.86,956.76c0,4.04-2.58,6.62-6.58,6.58c-3.62-0.03-6.07-2.65-6.08-6.5c-0.01-3.87,2.51-6.7,5.91-6.65
			C273.04,950.25,275.87,953,275.86,956.76z"/>
		<path class="st34" d="M200.08,878.71c0.05,3.66-2.6,6.55-6.11,6.66c-3.68,0.12-6.47-2.53-6.48-6.17
			c-0.01-3.33,3.06-6.37,6.48-6.41C197.42,872.76,200.04,875.29,200.08,878.71z"/>
		<path class="st35" d="M285.61,787.54c-0.03-3.38,3.06-6.72,6.25-6.75c2.84-0.02,5.19,2.84,5.14,6.24
			c-0.05,3.28-2.65,6.01-5.78,6.1C288.43,793.2,285.64,790.43,285.61,787.54z"/>
		<path class="st34" d="M319.37,864.08c0-3.47,2.6-6.39,5.73-6.41c2.8-0.02,5.6,2.76,5.64,5.6c0.04,3.25-2.79,6.27-5.9,6.28
			C321.63,869.55,319.37,867.29,319.37,864.08z"/>
		<path class="st36" d="M232.72,901.14c2.54-2.41,5.09-4.82,7.63-7.23c2.68,4.3,3.49,9.06,3.3,14.02c-0.08,2.16-1.71,2.59-2.97,1.46
			C237.85,906.83,235.36,903.91,232.72,901.14z"/>
		<path class="st34" d="M245.34,931.99c0,3.43-1.74,5.19-5.17,5.22c-3.31,0.02-5.73-2.19-5.73-5.24c0-2.83,2.5-5.17,5.56-5.2
			C243.1,926.75,245.33,928.93,245.34,931.99z"/>
		<path class="st34" d="M320.31,955.73c-3.1-0.04-5.33-2.33-5.22-5.37c0.1-2.77,2.58-5.54,4.99-5.58c2.51-0.04,5.9,3.24,5.9,5.7
			C325.98,953.56,323.59,955.78,320.31,955.73z"/>
		<path class="st34" d="M254.04,779.58c0.04,3.01-2.51,5.89-5.22,5.89c-2.47,0-5.08-2.67-5.06-5.16c0.03-2.87,1.97-4.99,4.62-5.04
			C252.03,775.18,254,776.69,254.04,779.58z"/>
		<path class="st35" d="M275.49,851.54c2.36-0.02,4.12,1.69,4.16,4.04c0.05,2.88-2.21,5.59-4.77,5.71c-2.21,0.11-4.02-1.9-4.03-4.48
			C270.84,853.83,272.83,851.57,275.49,851.54z"/>
		<path class="st34" d="M311.82,802.98c-0.01,2.74-1.65,4.46-4.27,4.48c-2.55,0.01-4.4-1.84-4.41-4.42
			c-0.01-2.54,2.14-4.94,4.41-4.92C310.14,798.13,311.83,800.06,311.82,802.98z"/>
		<path class="st34" d="M194.01,839.43c0.03-3.08,1.44-4.31,4.9-4.29c2.71,0.01,3.93,1.17,3.89,3.69c-0.04,2.86-2.24,5.19-4.83,5.11
			C195.57,843.86,193.99,842.06,194.01,839.43z"/>
		<path class="st37" d="M310.42,892.41c2.16,0.03,3.9,1.79,3.96,3.98c0.06,2.29-2.02,4.31-4.38,4.25c-2.34-0.05-4.17-1.91-4.11-4.18
			C305.95,894.1,307.88,892.37,310.42,892.41z"/>
		<path class="st37" d="M213.15,913.6c0.04,2.29-1.46,3.9-3.61,3.89c-2.12-0.01-3.98-1.86-4.01-4.01s1.79-4.07,3.89-4.12
			C211.37,909.32,213.11,911.3,213.15,913.6z"/>
		<path class="st37" d="M268.78,912.02c-0.02,2.35-1.4,3.85-3.56,3.87c-2.14,0.02-3.63-1.57-3.61-3.83c0.02-2.37,1.6-3.95,3.92-3.81
			C267.88,908.38,268.79,909.83,268.78,912.02z"/>
		<path class="st37" d="M225.71,848.79c2.2-0.05,3.58,1.23,3.65,3.4c0.06,1.77-1.73,3.68-3.52,3.76c-2.13,0.09-3.47-1.26-3.48-3.52
			C222.34,850.14,223.54,848.84,225.71,848.79z"/>
		<path class="st38" d="M200.61,934.88c3.08-2.54,6.16-5.08,9.24-7.62c0.4,0.21,0.8,0.41,1.2,0.62c-1.15,2.55-2.31,5.1-3.46,7.66
			C205.26,935.32,202.93,935.1,200.61,934.88z"/>
		<path class="st37" d="M292.13,833.88c-0.03-2.46,1.24-4.13,3.24-4.16c2.08-0.03,3.19,1.09,3.27,3.11
			c0.08,2.03-1.72,3.98-3.56,4.03C293.04,836.92,292.13,835.84,292.13,833.88z"/>
		<path class="st39" d="M322.04,885.42c-2.4,0.06-3.54-1.25-3.53-3.15c0.01-1.92,1.5-3.53,3.3-3.2c1.32,0.24,2.91,1.79,3.39,3.12
			C325.81,883.84,323.82,885.44,322.04,885.42z"/>
		<path class="st39" d="M319.92,974.81c-2.49-0.04-3.4-1.21-3.29-3.31c0.11-2.05,1.3-3.6,3.2-3.09c1.3,0.35,2.91,2.07,3.12,3.37
			C323.23,973.57,321.77,974.92,319.92,974.81z"/>
		<path class="st40" d="M282.3,929c-1.92-0.22-3.13-1.14-3.17-3.1c-0.04-2.11,1.32-3.19,3.23-3.3c1.93-0.11,3.08,1.17,3.13,3.03
			C285.55,927.68,284.18,928.66,282.3,929z"/>
		<path class="st41" d="M295.98,974.8c-0.51-0.74-1.86-1.85-2.02-3.11c-0.25-1.97,1.38-3.18,3.25-3.21c1.81-0.03,3.14,1.16,3.02,3.1
			C300.11,973.47,299.09,974.8,295.98,974.8z"/>
		<path class="st37" d="M223.96,738.21c-0.45-0.69-2.04-2.18-1.74-2.85c0.58-1.3,2.06-2.72,3.42-3.04c1.67-0.39,2.28,1.25,2.25,2.89
			C227.85,737.19,226.9,738.19,223.96,738.21z"/>
		<path class="st41" d="M255.68,750.61c-0.04,1.76-0.82,2.76-2.6,2.83c-1.99,0.08-3.35-1.05-3.11-2.84
			c0.13-0.99,1.67-2.26,2.79-2.56C254.51,747.58,255.6,748.76,255.68,750.61z"/>
		<path class="st39" d="M237.71,805.06c1.09-0.8,2.19-2.22,3.26-2.21c0.9,0.01,2.61,1.86,2.47,2.62c-0.21,1.13-1.59,2.56-2.73,2.87
			C239.06,808.79,238.2,807.39,237.71,805.06z"/>
		<path class="st40" d="M308.38,874.16c-1.04,0.76-2.08,2.11-3.12,2.11c-0.9,0-2.37-1.41-2.58-2.4c-0.3-1.48,0.71-2.96,2.55-2.63
			c1.09,0.2,2.06,1.11,3.08,1.7C308.34,873.35,308.36,873.75,308.38,874.16z"/>
		<path class="st42" d="M222.9,910.98c1.64-1.25,2.72-2.64,3.39-2.46c1.02,0.27,2.28,1.55,2.43,2.54c0.1,0.72-1.4,2.29-2.27,2.35
			C225.53,913.48,224.54,912.18,222.9,910.98z"/>
		<path class="st43" d="M213.22,829.14c-1.58,1.12-2.47,2.24-3.17,2.12c-0.87-0.14-1.57-1.3-2.34-2.01c0.75-0.75,1.4-1.93,2.27-2.11
			C210.67,827,211.61,828.09,213.22,829.14z"/>
		<path class="st44" d="M292.66,822.71c-1.05-1.55-2.13-2.45-2.01-3.15c0.14-0.84,1.3-1.5,2.02-2.24c0.73,0.76,1.89,1.43,2.07,2.29
			C294.87,820.27,293.75,821.18,292.66,822.71z"/>
		<path class="st42" d="M209.33,895.03c-1.17,1.02-2.05,2.3-2.58,2.16c-0.87-0.22-1.86-1.26-2.1-2.14c-0.13-0.47,1.14-1.84,1.86-1.9
			C207.24,893.08,208.07,894.12,209.33,895.03z"/>
		<path class="st45" d="M264.5,838.9c-1.09,0.98-1.74,2.05-2.41,2.05c-0.67,0-1.34-1.05-2.01-1.64c0.64-0.64,1.18-1.57,1.94-1.81
			C262.52,837.35,263.33,838.2,264.5,838.9z"/>
		<path class="st43" d="M282.75,822.95c-0.94-1.11-1.96-1.94-1.83-2.23c0.35-0.75,1.13-1.52,1.9-1.75c0.39-0.11,1.59,0.95,1.58,1.47
			C284.4,821.12,283.57,821.8,282.75,822.95z"/>
		<path class="st46" d="M184.8,1016.97c-0.06,2.06-1.84,3.74-3.91,3.67c-2.27-0.07-3.92-1.82-3.82-4.05
			c0.09-2.09,1.71-3.69,3.63-3.59C182.85,1013.11,184.85,1015.06,184.8,1016.97z"/>
		<path class="st47" d="M207.22,1012.88c2.15,0.25,3.48,1.29,3.55,3.46c0.06,2.05-1.62,3.65-3.63,3.61
			c-2.12-0.04-3.5-1.55-3.39-3.72C203.87,1013.99,205.26,1013.11,207.22,1012.88z"/>
	</g>
</g>
<path class="st16" d="M337.87,375.04c0.44,0.28,0.9,0.58,1.37,0.92c1.17,0.85,2.14,1.74,2.95,2.57c-0.25,0.16-1.25,0.79-2.5,0.54
	c-0.56-0.11-0.97-0.35-1.23-0.54c-0.21-0.19-0.62-0.6-0.83-1.27C337.28,376.16,337.76,375.23,337.87,375.04z"/>
</svg>
