<svg id="Layer_1" data-name="Layer 1" xmlns="http://www.w3.org/2000/svg" viewBox="0 0 401 297.34"><defs><style>.cls-1{fill:#fefefe;}.cls-2{fill:#b5fe88;}.cls-3{fill:#66daf2;}.cls-4{fill:#81ec42;}.cls-5{fill:#abfe77;}.cls-6{fill:#9ffe65;}.cls-7{fill:#9dfe62;}.cls-8{fill:#9dfe63;}.cls-9{fill:#9bfe60;}.cls-10{fill:#92fc54;}.cls-11{fill:#adfc7d;}.cls-12{fill:#affe7e;}.cls-13{fill:#98f361;}.cls-14{fill:#a7fe74;}.cls-15{fill:#010201;}.cls-16{fill:#020201;}.cls-17{fill:#20291a;}.cls-18{fill:#a5f873;}.cls-19{fill:#f8f8f8;}.cls-20{fill:#e8e8e8;}.cls-21{fill:#ededed;}</style></defs><title>lilypad1</title><path class="cls-1" d="M31.56,136.84c-1,1.19-.37,2.56-.46,3.85l-.54,7.69-.07,3.76c-1.12,1.53-.19,3.27-.51,4.89-1.95,2.46-4.05,4.82-5.82,7.4-2.39,3.48-4.47,7.17-6.78,10.71a76.76,76.76,0,0,0-8.55,17.68,31.91,31.91,0,0,0-1.64,14.12,99,99,0,0,0,2.69,13.68,71.84,71.84,0,0,0,7.31,17.64,70.11,70.11,0,0,0,16.3,18.67A125.81,125.81,0,0,0,52.13,269.3c12,6.6,24.74,11.51,37.67,15.92a321,321,0,0,0,39,11c5.78,1.19,11.59,2.2,17.42,3.13,3.45.55,7,.79,10.43,1.19,4.37.5,8.71,1.22,13.09,1.51,5.68.38,11.38.48,17.07.6q6.25.14,12.53,0c6.23-.13,12.47-.34,18.7-.58,2.24-.08,4.49-.28,6.72-.57,4.79-.64,9.57-1.36,14.34-2.09,3.72-.56,7.49-.94,11.13-1.83,10.33-2.53,20.65-5.16,30.75-8.54a135.72,135.72,0,0,0,22.9-10.13,82.54,82.54,0,0,0,20.35-16.45,31.9,31.9,0,0,0,6.42-10.24q1.47-3.76,2.7-7.6c.32-1,.62-1.08,1.68-1,3.4.38,6.82.55,10.24.62,1.79,0,3.57-.35,5.36-.49a55.89,55.89,0,0,0,13.4-2.61c4-1.33,7.92-2.88,11.77-4.57A59.73,59.73,0,0,0,393,225.68c4.57-4.32,7.78-9.67,10.46-15.33A44.94,44.94,0,0,0,408,191.12a75.29,75.29,0,0,0-1.08-12.36,68.1,68.1,0,0,0-4.9-16.71,55.8,55.8,0,0,0-7.09-11.14c-1.85-2.42-4-4.64-6-6.94-.47-2.37-.85-4.76-1.43-7.1a78.36,78.36,0,0,0-7.79-19.11c-6-10.78-14.08-19.67-23.53-27.34-4.72-3.83-10-7-15.05-10.41a130.81,130.81,0,0,0-24-12.21,260.44,260.44,0,0,0-29.42-10.11c-7-1.9-14-3.59-21-5.22-2.6-.61-5.3-.79-7.95-1.17-.14-.11-.33-.19-.41-.34-2.62-5.06-5.21-10.13-7.86-15.17a3.49,3.49,0,0,1-.12-3.1,10.66,10.66,0,0,0,.77-3.66c-.1-8.69-4.43-15-11.3-19.89-4.23-3-9.06-3.79-14.15-3.76A19.52,19.52,0,0,0,212.24,11a3.67,3.67,0,0,1-3.39,1c-2.22-.33-4.44-.79-6.68-.91a34.79,34.79,0,0,0-5.94.3c-4.37.52-8.73,1.19-13.11,1.68a4.75,4.75,0,0,1-2.23-.65c-1.89-.83-3.7-1.9-5.64-2.58a24.93,24.93,0,0,0-11.42-1.15A21.6,21.6,0,0,0,151,14.34c-5.79,5.53-7.92,12.43-7,20.23a5.81,5.81,0,0,1-1.08,4.22,120.92,120.92,0,0,0-9.44,17.36c-4.81,1.66-9.6,3.35-14.42,5-3,1-6.16,1.81-9.18,2.88-6.32,2.24-12.58,4.62-18.88,6.9a57.44,57.44,0,0,0-11.85,5.69c-4,2.64-8.08,5.34-11.94,8.25C63,87.91,59,91.11,55.22,94.54a55.76,55.76,0,0,0-11.79,15.33c-4.06,7.6-8.2,15.16-11.25,23.25l-.1,1-.44,1.18Z" transform="translate(-6.98 -5.38)"/><path class="cls-2" d="M32.18,133.12c3-8.09,7.19-15.65,11.25-23.25A55.76,55.76,0,0,1,55.22,94.54C59,91.11,63,87.91,67.13,84.83,71,81.92,75,79.22,79.07,76.58a57.44,57.44,0,0,1,11.85-5.69c6.3-2.28,12.56-4.66,18.88-6.9,3-1.07,6.13-1.86,9.18-2.88,4.82-1.61,9.61-3.3,14.42-5-.54,1.51-1.15,3-1.63,4.52-2.51,8.07-5.11,16.13-7.43,24.26a94.71,94.71,0,0,0-1.8,10c-.89,1.37-2.2,1.22-3.53,1a13,13,0,0,0-1.81-.39,59.87,59.87,0,0,0-18.14,1.63c-2.13.59-4.21,1.39-6.29,2.16a1.17,1.17,0,0,0-.62,1c0,.27.56.61.91.66,2.82.41,5.64.76,8.47,1.12s5.65.69,8.46,1.14c.42.06.75.68,1.12,1a12.85,12.85,0,0,0-3.47,5.9,14.93,14.93,0,0,0-.71,3.1,63.08,63.08,0,0,0,.24,8.59c.59,4.74,3,8.76,5.93,12.4a40.53,40.53,0,0,0,5.88,6.31c3.76,3,7.82,5.62,11.75,8.41,0,.58-.14.95-.86,1.11-3.89.87-7.82,1.63-11.63,2.78a54.47,54.47,0,0,0-16.34,7.86c-3,2.2-5.77,4.84-8.82,7-5.55,4-9,9.67-12.52,15.28-.23.36-.11.93-.15,1.41.47,0,1,.12,1.39-.1,3.65-2.43,7.22-4.95,10.88-7.36,3.36-2.2,6.62-4.65,10.23-6.35a121.51,121.51,0,0,1,20.22-7.52c3-.8,6-1.5,9-2.14s5.91-1.2,8.9-1.56c1.23-.15,2.66-.64,3.81.45-2.2,1.74-4.22,3.59-5.1,6.41-.69,2.22.82,4.5,2.77,4.47a8.72,8.72,0,0,0,3.64-.64c2.65-1.29,5.19-2.82,7.75-4.3.62-.36.75-.18.75.42,0,1.72-.08,3.45,0,5.17a30.59,30.59,0,0,0,.58,4.78C155.7,178,158,180,159.4,180s3.53-2,3.95-3.73c.47-2,.78-4,1.15-6,.25-1.38.49-2.76.73-4.14a39.07,39.07,0,0,0,2.69,3.3,70.08,70.08,0,0,0,5.73,5.31,3.67,3.67,0,0,0,5.56-4.23c-.36-1.18-.75-2.36-1.13-3.54.38-.82,1-.53,1.59-.34A47.25,47.25,0,0,0,197,169.07c2.41-.14,4.81-.36,7.22-.55,2.89,0,2.85,0,3.84,2.63.61,1.58,1.32,3.12,2,4.67,2,4.58,4.2,9.09,6,13.75,2.73,7,5.11,14.22,7.81,21.28,1.21,3.17,2.81,6.19,4.27,9.26a1.33,1.33,0,0,0,.94.68c.26,0,.62-.53.71-.88a14,14,0,0,0,.55-2.87,48.2,48.2,0,0,0-1.64-16,101.26,101.26,0,0,1-3.13-12.63,35.67,35.67,0,0,0-3.48-10.89,42.92,42.92,0,0,0-5.66-9.11c-.7-.79-.45-1.49.32-2.08,1.64-.28,3.29-.49,4.92-.84a32.65,32.65,0,0,0,10.86-4.62l.55-.55a4.7,4.7,0,0,1,0-.53l.54,1.11a3,3,0,0,1,0,.52l-.52,1.11c0,.63-.08,1.26-.13,1.89a30.23,30.23,0,0,0-.39,4.53,4.27,4.27,0,0,0,6.56,3.58,7.26,7.26,0,0,0,2.12-1.94,25.34,25.34,0,0,0,2.61-4.07c.61-1.26.87-1.36,1.6-.11a19.5,19.5,0,0,0,2.49,3.48c1.63,1.78,3.07,3.81,5.5,4.7a2.64,2.64,0,0,0,3.6-1.18,4.13,4.13,0,0,0,.22-3.89c-1.15-2.52-2.32-5-3.49-7.55h.54c2.29.7,4.57,1.46,6.88,2.07a4.27,4.27,0,0,0,4.57-2.07c.89-1.6.72-2.73-.84-4.35a14.63,14.63,0,0,0-2.67-2.24c-1.67-1-3.44-1.93-5.15-2.91-.53-.31-1-.7-1.52-1a13.26,13.26,0,0,1,1.39-1.11,46.13,46.13,0,0,0,9-6.79c2.41-2.45,4.93-4.79,7.39-7.18,5.35,0,10.71.11,16.05,0a38.45,38.45,0,0,1,10.34,1.33c5.85,1.43,11.59,3.31,17.35,5.08,5.3,1.64,10.6,3.17,16.23,2.9,2-.1,2.25-.49,1.72-2.45a14.71,14.71,0,0,0-7-8.85,83.18,83.18,0,0,0-22.21-9.78c-5.18-1.33-10.4-2.55-15.82-2.37-1.08,0-2.17,0-3.26,0-.76,0-.85-.5-.87-1.08a33.34,33.34,0,0,0,3.51-7.5,17.87,17.87,0,0,0-.39-12.34,10.35,10.35,0,0,0-2.77-3.9,12,12,0,0,0-9.75-2.93c-1.4.23-1.8-.25-2.05-1.46-.44-2.17-.92-4.34-1.51-6.48-2.89-10.47-7.72-20.16-12.17-30-.77-1.7-1.41-3.46-2.1-5.19,2.65.38,5.35.56,7.95,1.17,7,1.63,14.07,3.32,21,5.22A260.44,260.44,0,0,1,317.14,67.8a130.81,130.81,0,0,1,24,12.21c5.07,3.4,10.33,6.58,15.05,10.41,9.45,7.67,17.56,16.56,23.53,27.34a78.36,78.36,0,0,1,7.79,19.11c.58,2.34,1,4.73,1.43,7.1a9.55,9.55,0,0,0,0,2.14c.86,3.63.4,7.3.41,10.95a3.79,3.79,0,0,1-.44-1.15c0-.85,0-1.9-1-1.93-.57,0-1.39.8-1.72,1.44a41.87,41.87,0,0,0-2.2,5.16c-1.18,3.32-2.52,6.56-5.18,9a85.11,85.11,0,0,1-7.27,6,101.43,101.43,0,0,1-9.21,6,31.71,31.71,0,0,1-9.53,3.4,122.65,122.65,0,0,0-12.12,3,59.75,59.75,0,0,1-16.23,3c-4,.08-7.83-.82-11.75-1.2a20.63,20.63,0,0,1-4.74-.71,85.49,85.49,0,0,1-14.7-6.88,4.61,4.61,0,0,0-1.13-.32,3.08,3.08,0,0,0,0,1.25c1,2.09,2.1,4.13,3.05,6.24a23.3,23.3,0,0,1,2.19,9.86c0,.7.24,1.4.28,2.11a25.66,25.66,0,0,1,0,2.63,16.62,16.62,0,0,0-.26,1.84c.2,4-1.32,7.37-3.4,10.56a38.36,38.36,0,0,1-8.06,9.29,25.42,25.42,0,0,1-7.28,4.48c-4.35,1.54-8.74,3-13.15,4.38a136.51,136.51,0,0,1-17.28,4.35c-2.27.4-4.55.78-6.84,1.11a86,86,0,0,0-9,1.24,55.1,55.1,0,0,1-10.85,1.38c-6.55.32-13.1.28-19.65,1.12-4.72.6-9.53.43-14.3.63-4,.17-7.91.44-11.87.5-1.95,0-3.91-.45-5.87-.47a126.92,126.92,0,0,0-14.59.44,36.83,36.83,0,0,1-9.42-.41c-3-.46-6.09-.43-9.13-.62a5.3,5.3,0,0,1-.8-.1c-1.93-.32-3.85-.68-5.78-1-2.81-.44-5.67-.67-8.44-1.28-5.89-1.29-11.72-2.8-17.59-4.17a47.11,47.11,0,0,1-14.57-5.85,87.36,87.36,0,0,1-8-5.88c-4.63-3.66-9.51-7-14.25-10.51q-2.26-1.67-4.4-3.52c-2.31-2-4.62-4-6.8-6.18-1.73-1.7-3.25-3.62-4.91-5.4-3-3.18-6.06-6.22-8.88-9.51a34,34,0,0,1-6.79-11.18c-1.08-3.2-2.28-6.36-3.35-9.57-.48-1.43-.77-2.92-1.15-4.38l-.5-1.08,0-6,.54-1.64c0-2.25,0-4.5,0-6.76a5.15,5.15,0,0,0-.46-1.39l.54-7.69a6.56,6.56,0,0,0,.48-1.05c.22-.72.37-1.46.55-2.19l-.49-2.15.44-1.18.6,0Z" transform="translate(-6.98 -5.38)"/><path class="cls-3" d="M30.51,158.17l0,6v13.07a9.84,9.84,0,0,0,0,1.09,85.23,85.23,0,0,1,.94,9.11,33.18,33.18,0,0,0,1.73,10,78.17,78.17,0,0,0,8.67,18.82,28.26,28.26,0,0,0,3.9,4.83c4.43,4.4,8.82,8.88,13.54,13,4.21,3.64,8.79,6.86,13.3,10.15a54.84,54.84,0,0,0,14.64,7.31,184.15,184.15,0,0,0,19.39,5.32c4.45,1,8.83,2.28,13.29,3.22,5.07,1.08,10.18,2,15.3,2.84,4.86.79,9.73,1.59,14.63,2s9.93.5,14.9.55q13.33.15,26.68.05c3.06,0,6.12-.31,9.17-.58,5.19-.47,10.36-1.29,15.55-1.46a128.37,128.37,0,0,0,17-1.2c2.74-.45,5.51-.76,8.25-1.2,3-.48,6-1,9-1.56,3.16-.6,6.36-1.08,9.44-2,6.79-2,13.53-4.07,20.24-6.28a64.83,64.83,0,0,0,10-4,35.52,35.52,0,0,0,11.93-10,51.51,51.51,0,0,0,8.65-15.76,36,36,0,0,0,1.3-10.1c0-1.68-.15-1.78,1.31-1.19,4.38,1.76,9,2.32,13.62,2.9,3.88.5,7.72-.4,11.45-1.39a91.1,91.1,0,0,0,17.23-5.92c4.45-2.19,9-4.28,13.16-6.89a81.91,81.91,0,0,0,9.29-7.4,30.78,30.78,0,0,0,10-15.41c.38-1.37.07-2.92.42-4.29,1.26-4.9,1.07-9.86.91-14.83,0-3.65.45-7.32-.41-10.95a9.55,9.55,0,0,1,0-2.14c2,2.3,4.13,4.52,6,6.94A55.8,55.8,0,0,1,402,162.05a68.1,68.1,0,0,1,4.9,16.71A75.29,75.29,0,0,1,408,191.12a44.94,44.94,0,0,1-4.52,19.23c-2.68,5.66-5.89,11-10.46,15.33a59.73,59.73,0,0,1-17.24,10.94c-3.85,1.69-7.78,3.24-11.77,4.57a55.89,55.89,0,0,1-13.4,2.61c-1.79.14-3.57.52-5.36.49-3.42-.07-6.84-.24-10.24-.62-1.06-.12-1.36,0-1.68,1q-1.23,3.84-2.7,7.6a31.9,31.9,0,0,1-6.42,10.24,82.54,82.54,0,0,1-20.35,16.45,135.72,135.72,0,0,1-22.9,10.13c-10.1,3.38-20.42,6-30.75,8.54-3.64.89-7.41,1.27-11.13,1.83-4.77.73-9.55,1.45-14.34,2.09-2.23.29-4.48.49-6.72.57-6.23.24-12.47.45-18.7.58q-6.27.12-12.53,0c-5.69-.12-11.39-.22-17.07-.6-4.38-.29-8.72-1-13.09-1.51-3.47-.4-7-.64-10.43-1.19-5.83-.93-11.64-1.94-17.42-3.13a321,321,0,0,1-39-11c-12.93-4.41-25.67-9.32-37.67-15.92a125.81,125.81,0,0,1-18.64-12.37,70.11,70.11,0,0,1-16.3-18.67,71.84,71.84,0,0,1-7.31-17.64,99,99,0,0,1-2.69-13.68,31.91,31.91,0,0,1,1.64-14.12,76.76,76.76,0,0,1,8.55-17.68c2.31-3.54,4.39-7.23,6.78-10.71,1.77-2.58,3.87-4.94,5.82-7.4l.51.08Z" transform="translate(-6.98 -5.38)"/><path class="cls-4" d="M233.66,161.44a3,3,0,0,0,0-.52l.55-1.1.54-1.11c.09-.12.19-.23.27-.36s-.1-.15-.15-.15c-.88,0-1.4-.34-1.21-1.3a10.3,10.3,0,0,1,.68-2.82,82.2,82.2,0,0,0,5.1-12.36,79.12,79.12,0,0,0,4.45-18.87,57.53,57.53,0,0,0-.87-16.11A51.24,51.24,0,0,0,235.84,89a21.87,21.87,0,0,0-3.74-4.55,63,63,0,0,0-6-4.47c-6-4.27-12.88-6.29-20.06-7.42-2.46-.39-4.91-.87-7.39-1a41.76,41.76,0,0,0-8.14.08,62.79,62.79,0,0,0-8.78,2.06c-8.58,2.42-15.29,7.25-19.42,15.34-3.15,6.19-3.83,13-4.25,19.7-.37,5.7-.14,11.43,0,17.15,0,2.42.31,4.83.56,7.24.3,2.92.7,5.83,1,8.75.22,1.86.26,3.76.66,5.58.78,3.46,1.7,6.88,2.69,10.29A6,6,0,0,0,164.4,160a16.6,16.6,0,0,0,7.36,4.22c2.2.7,4.51,1.14,6.32,2.73.38,1.18.77,2.36,1.13,3.54a3.67,3.67,0,0,1-5.56,4.23,70.08,70.08,0,0,1-5.73-5.31,39.07,39.07,0,0,1-2.69-3.3c-.24,1.38-.48,2.76-.73,4.14-.37,2-.68,4-1.15,6-.42,1.72-2.61,3.67-3.95,3.73s-3.7-1.95-4.11-3.84a30.59,30.59,0,0,1-.58-4.78c-.1-1.72,0-3.45,0-5.17,0-.6-.13-.78-.75-.42-2.56,1.48-5.1,3-7.75,4.3a8.72,8.72,0,0,1-3.64.64c-2,0-3.46-2.25-2.77-4.47.88-2.82,2.9-4.67,5.1-6.41l1.26-1c.92-.7.75-1.05-.26-1.58-3.48-1.81-6.88-3.75-10.31-5.64l-4.84-2.71c-3.93-2.79-8-5.4-11.75-8.41a40.53,40.53,0,0,1-5.88-6.31c-2.95-3.64-5.34-7.66-5.93-12.4a63.08,63.08,0,0,1-.24-8.59,14.93,14.93,0,0,1,.71-3.1,12.85,12.85,0,0,1,3.47-5.9c2.93-2.51,6.22-3.91,10.14-3.08.73.15.72-.11.76-.59q.26-2.8.53-5.61a94.71,94.71,0,0,1,1.8-10c2.32-8.13,4.92-16.19,7.43-24.26.48-1.53,1.09-3,1.63-4.52a120.92,120.92,0,0,1,9.44-17.36,5.81,5.81,0,0,0,1.08-4.22c-.88-7.8,1.25-14.7,7-20.23a21.6,21.6,0,0,1,12.87-5.66,24.93,24.93,0,0,1,11.42,1.15c1.94.68,3.75,1.75,5.64,2.58a4.75,4.75,0,0,0,2.23.65c4.38-.49,8.74-1.16,13.11-1.68a34.79,34.79,0,0,1,5.94-.3c2.24.12,4.46.58,6.68.91a3.67,3.67,0,0,0,3.39-1,19.52,19.52,0,0,1,13.42-5.58c5.09,0,9.92.79,14.15,3.76C246.68,14,251,20.34,251.11,29a10.66,10.66,0,0,1-.77,3.66,3.49,3.49,0,0,0,.12,3.1c2.65,5,5.24,10.11,7.86,15.17.08.15.27.23.41.34.69,1.73,1.33,3.49,2.1,5.19,4.45,9.84,9.28,19.53,12.17,30,.59,2.14,1.07,4.31,1.51,6.48.25,1.21.65,1.69,2.05,1.46a12,12,0,0,1,9.75,2.93,10.35,10.35,0,0,1,2.77,3.9,17.87,17.87,0,0,1,.39,12.34,33.34,33.34,0,0,1-3.51,7.5,69.84,69.84,0,0,1-10.57,13.05c-.72.67-1.31,1.46-2,2.2-2.46,2.39-5,4.73-7.39,7.18a46.13,46.13,0,0,1-9,6.79,13.26,13.26,0,0,0-1.39,1.11c.5.35,1,.74,1.52,1,1.71,1,3.48,1.87,5.15,2.91a14.63,14.63,0,0,1,2.67,2.24c1.56,1.62,1.73,2.75.84,4.35a4.27,4.27,0,0,1-4.57,2.07c-2.31-.61-4.59-1.37-6.88-2.07l-.75-.46.21.47c1.17,2.52,2.34,5,3.49,7.55a4.13,4.13,0,0,1-.22,3.89,2.64,2.64,0,0,1-3.6,1.18c-2.43-.89-3.87-2.92-5.5-4.7a19.5,19.5,0,0,1-2.49-3.48c-.73-1.25-1-1.15-1.6.11a25.34,25.34,0,0,1-2.61,4.07,7.26,7.26,0,0,1-2.12,1.94,4.27,4.27,0,0,1-6.56-3.58,30.23,30.23,0,0,1,.39-4.53c.05-.63.09-1.26.13-1.89ZM156.75,19.61a6,6,0,0,0-3,6.69,7.53,7.53,0,0,0,6,6,6.23,6.23,0,0,0,6.74-2.3,6,6,0,0,0,.74-6.87,7.05,7.05,0,0,0-4.81-4l-1.15-.42-2.17,0-1.19.44a.65.65,0,0,0-.45.1Zm68.62,1.84a7.08,7.08,0,0,0,6.88,7,7,7,0,0,0,6.92-6.28,7.38,7.38,0,0,0-6.94-7.29A6.89,6.89,0,0,0,225.37,21.45ZM203.21,38.11c0-1.92-.56-2.44-2-2a7.48,7.48,0,0,0-1.64.89c-1.93,1.18-3.82,1.45-5.66-.18-.13-.11-.27-.28-.43-.32-.38-.09-1-.29-1.13-.14A2,2,0,0,0,192,37.7a5.94,5.94,0,0,0,4.72,4.6,6.35,6.35,0,0,0,6-2.85A5.37,5.37,0,0,0,203.21,38.11Z" transform="translate(-6.98 -5.38)"/><path class="cls-5" d="M30.56,148.38a5.15,5.15,0,0,1,.46,1.39c.05,2.26,0,4.51,0,6.76h-.52l0-4.39Z" transform="translate(-6.98 -5.38)"/><path class="cls-2" d="M30.49,152.14l0,4.39,0,.58L30,157C30.3,155.41,29.37,153.67,30.49,152.14Z" transform="translate(-6.98 -5.38)"/><path class="cls-6" d="M32.13,137.45c-.18.73-.33,1.47-.55,2.19a6.56,6.56,0,0,1-.48,1.05c.09-1.29-.51-2.66.46-3.85Z" transform="translate(-6.98 -5.38)"/><path class="cls-7" d="M32.13,137.45l-.57-.61.08-1.54Z" transform="translate(-6.98 -5.38)"/><path class="cls-8" d="M32.18,133.12l.5,1-.6,0Z" transform="translate(-6.98 -5.38)"/><path class="cls-9" d="M389.37,157.06c.16,5,.35,9.93-.91,14.83-.35,1.37,0,2.92-.42,4.29a30.78,30.78,0,0,1-10,15.41,81.91,81.91,0,0,1-9.29,7.4c-4.19,2.61-8.71,4.7-13.16,6.89a91.1,91.1,0,0,1-17.23,5.92c-3.73,1-7.57,1.89-11.45,1.39-4.61-.58-9.24-1.14-13.62-2.9-1.46-.59-1.28-.49-1.31,1.19a36,36,0,0,1-1.3,10.1A51.51,51.51,0,0,1,302,237.34a35.52,35.52,0,0,1-11.93,10,64.83,64.83,0,0,1-10,4c-6.71,2.21-13.45,4.32-20.24,6.28-3.08.89-6.28,1.37-9.44,2-3,.57-6,1.08-9,1.56-2.74.44-5.51.75-8.25,1.2a128.37,128.37,0,0,1-17,1.2c-5.19.17-10.36,1-15.55,1.46-3,.27-6.11.56-9.17.58q-13.34.1-26.68-.05c-5-.05-9.95-.12-14.9-.55s-9.77-1.22-14.63-2c-5.12-.84-10.23-1.76-15.3-2.84-4.46-.94-8.84-2.23-13.29-3.22a184.15,184.15,0,0,1-19.39-5.32,54.84,54.84,0,0,1-14.64-7.31c-4.51-3.29-9.09-6.51-13.3-10.15-4.72-4.09-9.11-8.57-13.54-13a28.26,28.26,0,0,1-3.9-4.83,78.17,78.17,0,0,1-8.67-18.82,33.18,33.18,0,0,1-1.73-10,85.23,85.23,0,0,0-.94-9.11,9.84,9.84,0,0,1,0-1.09v-12H31c.38,1.46.67,3,1.15,4.38,1.07,3.21,2.27,6.37,3.35,9.57a34,34,0,0,0,6.79,11.18c2.82,3.29,5.93,6.33,8.88,9.51,1.66,1.78,3.18,3.7,4.91,5.4,2.18,2.15,4.49,4.17,6.8,6.18q2.13,1.86,4.4,3.52c4.74,3.51,9.62,6.85,14.25,10.51a87.36,87.36,0,0,0,8,5.88,47.11,47.11,0,0,0,14.57,5.85c5.87,1.37,11.7,2.88,17.59,4.17,2.77.61,5.63.84,8.44,1.28,1.93.29,3.85.65,5.78,1a5.3,5.3,0,0,0,.8.1c3,.19,6.13.16,9.13.62a36.83,36.83,0,0,0,9.42.41,126.92,126.92,0,0,1,14.59-.44c2,0,3.92.5,5.87.47,4-.06,7.91-.33,11.87-.5,4.77-.2,9.58,0,14.3-.63,6.55-.84,13.1-.8,19.65-1.12a55.1,55.1,0,0,0,10.85-1.38,86,86,0,0,1,9-1.24c2.29-.33,4.57-.71,6.84-1.11a136.51,136.51,0,0,0,17.28-4.35c4.41-1.39,8.8-2.84,13.15-4.38a25.42,25.42,0,0,0,7.28-4.48,38.36,38.36,0,0,0,8.06-9.29c2.08-3.19,3.6-6.6,3.4-10.56a16.62,16.62,0,0,1,.26-1.84,25.66,25.66,0,0,0,0-2.63c0-.71-.29-1.41-.28-2.11a23.3,23.3,0,0,0-2.19-9.86c-1-2.11-2.07-4.15-3.05-6.24a3.08,3.08,0,0,1,0-1.25,4.61,4.61,0,0,1,1.13.32,85.49,85.49,0,0,0,14.7,6.88,20.63,20.63,0,0,0,4.74.71c3.92.38,7.74,1.28,11.75,1.2a59.75,59.75,0,0,0,16.23-3,122.65,122.65,0,0,1,12.12-3,31.71,31.71,0,0,0,9.53-3.4,101.43,101.43,0,0,0,9.21-6,85.11,85.11,0,0,0,7.27-6c2.66-2.41,4-5.65,5.18-9a41.87,41.87,0,0,1,2.2-5.16c.33-.64,1.15-1.46,1.72-1.44,1,0,1,1.08,1,1.93A3.79,3.79,0,0,0,389.37,157.06Z" transform="translate(-6.98 -5.38)"/><path class="cls-10" d="M178.08,166.9c-1.81-1.59-4.12-2-6.32-2.73A16.6,16.6,0,0,1,164.4,160a6,6,0,0,1-1.46-2.22c-1-3.41-1.91-6.83-2.69-10.29-.4-1.82-.44-3.72-.66-5.58-.34-2.92-.74-5.83-1-8.75-.25-2.41-.53-4.82-.56-7.24-.09-5.72-.32-11.45,0-17.15.42-6.74,1.1-13.51,4.25-19.7,4.13-8.09,10.84-12.92,19.42-15.34a62.79,62.79,0,0,1,8.78-2.06,41.76,41.76,0,0,1,8.14-.08c2.48.16,4.93.64,7.39,1,7.18,1.13,14,3.15,20.06,7.42a63,63,0,0,1,6,4.47A21.87,21.87,0,0,1,235.84,89a51.24,51.24,0,0,1,7.2,17.73,57.53,57.53,0,0,1,.87,16.11,79.12,79.12,0,0,1-4.45,18.87,82.2,82.2,0,0,1-5.1,12.36,10.3,10.3,0,0,0-.68,2.82c-.19,1,.33,1.31,1.21,1.3.05,0,.16.13.15.15s-.18.24-.27.36h-.56l-1.07,1.09a4.7,4.7,0,0,0,0,.53l-.55.55a32.65,32.65,0,0,1-10.86,4.62c-1.63.35-3.28.56-4.92.84-4,.8-8.06,1.82-12.23,1.77-.1,0-.2.26-.3.4-2.41.19-4.81.41-7.22.55a47.25,47.25,0,0,1-17.37-2.51C179.05,166.37,178.46,166.08,178.08,166.9Z" transform="translate(-6.98 -5.38)"/><path class="cls-9" d="M273.42,136.35c.66-.74,1.25-1.53,2-2.2A69.84,69.84,0,0,0,286,121.1c0,.58.11,1.08.87,1.08,1.09,0,2.18,0,3.26,0,5.42-.18,10.64,1,15.82,2.37a83.18,83.18,0,0,1,22.21,9.78,14.71,14.71,0,0,1,7,8.85c.53,2,.3,2.35-1.72,2.45-5.63.27-10.93-1.26-16.23-2.9-5.76-1.77-11.5-3.65-17.35-5.08a38.45,38.45,0,0,0-10.34-1.33C284.13,136.46,278.77,136.35,273.42,136.35Z" transform="translate(-6.98 -5.38)"/><path class="cls-9" d="M130.73,148.9l4.84,2.71c3.43,1.89,6.83,3.83,10.31,5.64,1,.53,1.18.88.26,1.58l-1.26,1c-1.15-1.09-2.58-.6-3.81-.45-3,.36-5.95,1-8.9,1.56s-6,1.34-9,2.14a121.51,121.51,0,0,0-20.22,7.52c-3.61,1.7-6.87,4.15-10.23,6.35-3.66,2.41-7.23,4.93-10.88,7.36-.34.22-.92.07-1.39.1,0-.48-.08-1,.15-1.41,3.54-5.61,7-11.28,12.52-15.28,3-2.2,5.78-4.84,8.82-7a54.47,54.47,0,0,1,16.34-7.86c3.81-1.15,7.74-1.91,11.63-2.78C130.59,149.85,130.72,149.48,130.73,148.9Z" transform="translate(-6.98 -5.38)"/><path class="cls-9" d="M204.26,168.52c.1-.14.2-.4.3-.4,4.17,0,8.18-1,12.23-1.77-.77.59-1,1.29-.32,2.08a42.92,42.92,0,0,1,5.66,9.11,35.67,35.67,0,0,1,3.48,10.89,101.26,101.26,0,0,0,3.13,12.63,48.2,48.2,0,0,1,1.64,16,14,14,0,0,1-.55,2.87c-.09.35-.45.86-.71.88a1.33,1.33,0,0,1-.94-.68c-1.46-3.07-3.06-6.09-4.27-9.26-2.7-7.06-5.08-14.24-7.81-21.28-1.8-4.66-4-9.17-6-13.75-.68-1.55-1.39-3.09-2-4.67C207.11,168.56,207.15,168.55,204.26,168.52Z" transform="translate(-6.98 -5.38)"/><path class="cls-9" d="M122.54,94.91q-.27,2.81-.53,5.61c0,.48,0,.74-.76.59-3.92-.83-7.21.57-10.14,3.08-.37-.36-.7-1-1.12-1-2.81-.45-5.64-.78-8.46-1.14s-5.65-.71-8.47-1.12c-.35,0-.87-.39-.91-.66a1.17,1.17,0,0,1,.62-1c2.08-.77,4.16-1.57,6.29-2.16a59.87,59.87,0,0,1,18.14-1.63,13,13,0,0,1,1.81.39C120.34,96.13,121.65,96.28,122.54,94.91Z" transform="translate(-6.98 -5.38)"/><path class="cls-11" d="M233.14,159.81l1.07-1.09,0,1.1c-.18.37-.36.73-.55,1.1Z" transform="translate(-6.98 -5.38)"/><path class="cls-12" d="M30.49,157.11l0-.58h.52l-.54,1.64Z" transform="translate(-6.98 -5.38)"/><path class="cls-11" d="M233.66,161.44l-.52,1.11Z" transform="translate(-6.98 -5.38)"/><path class="cls-13" d="M253.83,162l-.21-.47.75.46h-.54Z" transform="translate(-6.98 -5.38)"/><path class="cls-14" d="M31,165.26h-.5v-1.08Z" transform="translate(-6.98 -5.38)"/><path class="cls-11" d="M232.57,160.89l.55-.55Z" transform="translate(-6.98 -5.38)"/><path class="cls-15" d="M162.38,19.09a7.05,7.05,0,0,1,4.81,4,6,6,0,0,1-.74,6.87,6.23,6.23,0,0,1-6.74,2.3,7.53,7.53,0,0,1-6-6,6,6,0,0,1,3-6.69l.67-.43a.65.65,0,0,1,.45-.1l1.18.05a4.69,4.69,0,0,0,0,.53.37.37,0,0,1-.4.1l-.71.41,0,0-.51.49a4.41,4.41,0,0,0-.33.74,2.78,2.78,0,0,0,1.34,3.45,3.18,3.18,0,0,0,3.54-.25c1-.94,1.09-2.09.27-3.7-.13-.23-.31-.44-.46-.66l-1.09-.57h0l-1.62-.57c0-.16,0-.32,0-.49l2.17,0Zm-2.89,7.75c-.66-.48-1.17-1.11-1.52-1s-.75.78-1.11,1.21c.44.33.85.83,1.34.92C158.48,28,158.88,27.38,159.49,26.84Z" transform="translate(-6.98 -5.38)"/><path class="cls-16" d="M225.37,21.45a6.89,6.89,0,0,1,6.86-6.62,7.38,7.38,0,0,1,6.94,7.29,7,7,0,0,1-6.92,6.28A7.08,7.08,0,0,1,225.37,21.45ZM229.23,19A2.7,2.7,0,0,0,232,21.74,2.93,2.93,0,0,0,234.7,19a2.89,2.89,0,0,0-2.95-2.84A2.7,2.7,0,0,0,229.23,19Zm.62,2.63c-.67.69-1.32,1.09-1.5,1.64-.1.3.5,1.07.94,1.26a1.19,1.19,0,0,0,1.61-1.19C230.81,22.85,230.33,22.41,229.85,21.65Z" transform="translate(-6.98 -5.38)"/><path class="cls-15" d="M203.21,38.11a5.37,5.37,0,0,1-.48,1.34,6.35,6.35,0,0,1-6,2.85A5.94,5.94,0,0,1,192,37.7a2,2,0,0,1,.36-1.38c.1-.15.75,0,1.13.14.16,0,.3.21.43.32,1.84,1.63,3.73,1.36,5.66.18a7.48,7.48,0,0,1,1.64-.89C202.65,35.67,203.26,36.19,203.21,38.11Z" transform="translate(-6.98 -5.38)"/><path class="cls-17" d="M159.05,19.13l-1.18-.05,1.19-.44c0,.17,0,.33,0,.49Z" transform="translate(-6.98 -5.38)"/><path class="cls-17" d="M162.38,19.09l-1.15-.42Z" transform="translate(-6.98 -5.38)"/><path class="cls-18" d="M234.23,159.82l0-1.1h.56Z" transform="translate(-6.98 -5.38)"/><path class="cls-17" d="M157.42,19.18l-.67.43Z" transform="translate(-6.98 -5.38)"/><path class="cls-19" d="M158.65,19.76a.37.37,0,0,0,.4-.1l1.62,0h0l1.09.57c.15.22.33.43.46.66.82,1.61.73,2.76-.27,3.7a3.18,3.18,0,0,1-3.54.25,2.78,2.78,0,0,1-1.34-3.45,4.41,4.41,0,0,1,.33-.74l.51-.49,0,0Z" transform="translate(-6.98 -5.38)"/><path class="cls-20" d="M159.49,26.84c-.61.54-1,1.15-1.29,1.1-.49-.09-.9-.59-1.34-.92.36-.43.67-1.11,1.11-1.21S158.83,26.36,159.49,26.84Z" transform="translate(-6.98 -5.38)"/><path class="cls-17" d="M160.67,19.7l-1.62,0a4.69,4.69,0,0,1,0-.53h0Z" transform="translate(-6.98 -5.38)"/><path class="cls-17" d="M161.75,20.27l-1.09-.57Z" transform="translate(-6.98 -5.38)"/><path class="cls-17" d="M157.9,20.2l-.51.49Z" transform="translate(-6.98 -5.38)"/><path class="cls-17" d="M158.65,19.76l-.71.41Z" transform="translate(-6.98 -5.38)"/><path class="cls-19" d="M229.23,19a2.7,2.7,0,0,1,2.52-2.91A2.89,2.89,0,0,1,234.7,19,2.93,2.93,0,0,1,232,21.74,2.7,2.7,0,0,1,229.23,19Z" transform="translate(-6.98 -5.38)"/><path class="cls-21" d="M229.85,21.65c.48.76,1,1.2,1.05,1.71a1.19,1.19,0,0,1-1.61,1.19c-.44-.19-1-1-.94-1.26C228.53,22.74,229.18,22.34,229.85,21.65Z" transform="translate(-6.98 -5.38)"/></svg>