<?xml version="1.0" encoding="utf-8"?>
<!-- Generator: Adobe Illustrator 24.0.2, SVG Export Plug-In . SVG Version: 6.00 Build 0)  -->
<svg version="1.1" id="Layer_1" xmlns="http://www.w3.org/2000/svg" xmlns:xlink="http://www.w3.org/1999/xlink" x="0px" y="0px"
	 viewBox="0 0 414 273.82" style="enable-background:new 0 0 414 273.82;" xml:space="preserve">
<style type="text/css">
	.st0{fill:#B5FE88;}
	.st1{fill:#67DBF1;}
	.st2{fill:#9BFE61;}
	.st3{fill:#8DE063;}
	.st4{fill:#E1F6D6;}
</style>
<g>
	<g>
		<path class="st0" d="M97.18,105.65c1.67-10.53,6.35-19.74,12.51-28.29c9.19-12.76,21.32-22.22,34.77-29.94
			c16.31-9.35,33.45-17.04,51.22-23.19c11.42-3.95,23.35-5.8,35.29-7.42c17.21-2.32,34.53-2.22,51.85-2.12
			c20.71,0.12,40.36,4.65,59.14,13.41c12.41,5.79,24.33,12.35,34.13,21.96c13.11,12.87,21.39,28.05,20.03,47.18
			c-0.53,2.11-1.06,4.22-1.59,6.33c-0.11-0.65-0.22-1.3-0.47-2.82c-0.75,1.51-1.09,2.3-1.51,3.03c-2.08,3.57-3.42,8.05-6.42,10.51
			c-9.72,7.98-20.35,14.82-31.87,19.95c-8.86,3.94-18.32,5.53-28.04,3.85c-12.14-2.09-22.38-8.5-32.59-14.85
			c-3.16-1.96-6.11-4.26-9.5-6.64c-0.61,3.77-0.48,6.35,2.16,8.74c5.34,4.83,10.36,10.03,15.5,15.07c0.19,0.19,0.37,0.38,0.56,0.57
			l-0.04-0.03c1.12,3.43,2.24,6.85,3.36,10.28c-1.12,2.5-2.76,4.9-3.25,7.52c-1.33,7.17-5.89,12.62-11.45,15.78
			c-7.27,4.12-15.65,6.61-23.83,8.75c-9.83,2.57-19.95,4.03-29.95,5.97c-11.01,2.14-22.12,3.55-33.33,3.34
			c-12.1-0.22-24.2-0.8-36.27-1.66c-5.35-0.38-10.84-1.2-15.88-2.95c-5.65-1.97-11.09-4.85-16.22-7.98
			c-9.35-5.7-16.77-13.57-22.03-23.12c-6.02-10.93-9.5-22.85-10.97-35.23c-0.67-5.68-0.51-11.46-0.61-17.2
			c-0.04-2.21,0.22-4.43,0.34-6.64c-0.24-0.03-0.48-0.06-0.72-0.09c-0.49,0.95-0.97,1.91-1.49,2.84
			C99.08,102.28,98.13,103.97,97.18,105.65z M207.22,97.89c-5.36,0.71-11.31,1.22-17.14,2.34c-7.69,1.48-15.55,2.71-22.89,5.33
			c-15.08,5.37-28.1,14.41-40.2,24.77c-1.11,0.95-2.29,1.94-1.11,3.65c1.13,1.63,2.47,1.01,3.85,0.46
			c4.37-1.75,8.71-3.57,13.13-5.18c9.86-3.59,19.8-6.97,29.64-10.65c5.42-2.03,10.53-4.99,16.05-6.6
			c5.62-1.64,10.57-4.45,15.72-6.96c1.26-0.61,2.34-1.67,3.64-2.1c1.81-0.59,4.54-0.22,4.4-2.93
			C212.17,97.24,209.53,98.17,207.22,97.89z M254.5,67.97c0.43,3.45,1.12,4.44,3.63,4.2c1.01-0.09,2.08-0.68,2.91-1.32
			c1.71-1.32,3.31-2.8,4.9-4.26c7.68-7.05,13.24-15.73,18.56-24.55c2.56-4.24,4.73-8.74,6.86-13.21c0.45-0.94,0-2.3-0.04-3.47
			c-1.08,0.17-2.31,0.08-3.22,0.56c-1.83,0.97-3.48,2.26-5.22,3.4c-10.42,6.79-18.15,15.9-23.47,27.09
			c-1.12,2.36-2.09,4.8-3.12,7.21C255.68,65.06,255.1,66.52,254.5,67.97z M283.73,90.82c0,0.41,0,0.82,0,1.23
			c0.81,0.51,1.56,1.25,2.45,1.49c3.72,1.03,7.45,2.1,11.24,2.79c7.34,1.35,14.81,2.11,22.08,3.75c11.48,2.59,22.74,1.98,33.96-1.12
			c1.06-0.29,1.94-1.21,3.35-2.13c-1.18-0.57-1.63-0.9-2.11-0.99c-10.77-2.13-21.55-4.2-32.32-6.35c-9.49-1.9-19.01-3.35-28.66-1.27
			C290.36,88.94,287.05,89.95,283.73,90.82z M242.4,111.62c-5.65,4.7-9.76,11.82-10.91,17.75c-2.37,12.12-3.1,24.36-2.65,36.67
			c0.1,2.78,0.54,5.57,1.14,8.28c0.2,0.92,1.38,1.63,2.11,2.43c0.72-0.91,1.71-1.72,2.08-2.76c0.57-1.59,0.59-3.36,1.04-5
			c4.38-15.98,7.71-32.11,7.2-48.81C242.33,117.55,242.4,114.93,242.4,111.62z M176.55,42.06c0.84,1.59,1.23,2.88,2.06,3.76
			c2.76,2.96,5.58,5.88,8.55,8.62c6.32,5.83,12.83,11.51,21.2,14.22c4.78,1.55,9.72,2.6,14.64,3.67c0.7,0.15,1.65-0.87,2.48-1.34
			c-0.59-0.66-1.09-1.46-1.8-1.95c-1.39-0.95-3.03-1.57-4.34-2.61c-5.28-4.21-10.22-8.91-15.76-12.73
			C195.68,48.24,187.73,42.53,176.55,42.06z"/>
		<path class="st1" d="M394.51,103.59c0.53-2.11,1.06-4.22,1.59-6.33c5.89,7.53,8.99,15.91,5.88,25.32
			c-8.88,26.83-27.09,43.37-55.2,48.09c-5.77,0.97-11.86-0.01-17.91-0.09c2.19,4.36,2.03,9.4,1.12,14.5
			c-0.14,0.23-0.29,0.46-0.43,0.69c-0.9-0.1-1.8-0.22-2.7-0.3c-3.65-0.32-7.12,1.58-7.94,4.35c-0.81,2.75,0.91,5.72,4.23,7.3
			c-1.44,1.85-3.34,3.99-5.78,6.12c-2.92,2.54-5.76,4.33-8.09,5.58c-0.57-0.44-1.17-0.84-1.71-1.31c-3.31-2.89-8.17-2.96-11.39-0.16
			c-3.29,2.87-3.44,5.28-0.59,9.71c-1.41,0.66-2.83,1.33-4.24,1.99c-3.46-5.83-9.81-6.8-14.44-2.21c-2.28,2.26-2.47,4.72-0.59,7.53
			c-1.5,0.61-3,1.22-4.51,1.83c-1.9,0.63-3.8,1.26-5.7,1.9c-0.82,0.27-1.63,0.54-2.45,0.82c-9.79,1.81-19.55,3.8-29.38,5.37
			c-4.63,0.74-9.39,0.86-14.09,0.91c-10.8,0.1-21.62,0.33-32.4-0.2c-6.37-0.31-12.7-1.87-19-3.08c-8.71-1.67-17.38-3.51-26.06-5.32
			c-7.07-1.47-13.35-4.74-19.01-9.06c-5.54-4.22-10.72-8.9-16.05-13.37c0.4-0.11,4.55-1.36,5.47-4.94c0.12-0.45,0.37-1.45,0.03-2.59
			c-1.02-3.45-6.72-5.53-11.18-4.35c-1.59,0.42-2.77,1.19-3.5,1.76c-11.38-13.78-13.74-29.82-12.06-47
			c1.11-11.33,4.32-22.14,7.38-33c0.55-1.96,1.71-3.75,2.59-5.61c-0.06,0.63-0.17,1.26-0.18,1.89c-0.18,8.94-0.87,17.92-0.36,26.82
			c0.55,9.5,4.57,18.24,8.21,26.92c3.48,8.32,7.93,16.28,14.44,22.54c9.39,9.04,20.34,15.76,33.29,18.63
			c13.8,3.06,27.62,6.06,41.86,6.07c11.05,0.01,22.22,0.89,33.12-0.41c14.16-1.7,28.16-4.94,42.14-7.96
			c11.84-2.56,21.93-8.77,30.28-17.36c9.56-9.83,10.41-21.72,6.48-34.3c-1.12-3.43-2.24-6.85-3.36-10.28
			c0.62,0.34,1.27,0.62,1.84,1.02c14.13,10.13,29.56,12.94,46.4,8.48c13.37-3.54,24.39-10.43,33.52-20.96
			C390.68,121.91,394.84,113.77,394.51,103.59z"/>
		<path class="st2" d="M305.68,151.26c3.93,12.59,3.08,24.47-6.48,34.3c-8.35,8.59-18.44,14.8-30.28,17.36
			c-13.98,3.02-27.98,6.26-42.14,7.96c-10.9,1.3-22.07,0.42-33.12,0.41c-14.24-0.01-28.06-3.01-41.86-6.07
			c-12.95-2.87-23.9-9.59-33.29-18.63c-6.5-6.26-10.95-14.22-14.44-22.54c-3.64-8.68-7.66-17.42-8.21-26.92
			c-0.51-8.9,0.18-17.88,0.36-26.82c0.01-0.63,0.12-1.26,0.18-1.89c0.26-0.92,0.52-1.84,0.78-2.77c0.95-1.69,1.91-3.37,2.84-5.07
			c0.52-0.94,0.99-1.89,1.49-2.84c0.24,0.03,0.48,0.06,0.72,0.09c-0.12,2.21-0.38,4.43-0.34,6.64c0.11,5.74-0.06,11.52,0.61,17.2
			c1.47,12.38,4.95,24.3,10.97,35.23c5.26,9.55,12.68,17.41,22.03,23.12c5.13,3.13,10.56,6.02,16.22,7.98
			c5.03,1.75,10.53,2.57,15.88,2.95c12.07,0.86,24.17,1.43,36.27,1.66c11.21,0.2,22.32-1.2,33.33-3.34
			c9.99-1.94,20.11-3.4,29.95-5.97c8.18-2.14,16.56-4.62,23.83-8.75c5.56-3.15,10.12-8.6,11.45-15.78
			C302.91,156.17,304.56,153.76,305.68,151.26z"/>
		<path class="st3" d="M330.95,237.01c-1.06,0.78-2.78,1.8-5.09,2.14c-0.41,0.06-5.3,0.74-6.63-1.39c-0.16-0.26-0.32-0.64-0.52-0.62
			c-0.41,0.04-0.22,1.67-0.83,3.46c-0.16,0.47-0.99,2.72-3.21,4.15c-0.83,0.53-1.78,0.9-2.88,1.08c-3.66,0.6-6.85-0.4-9.11-3.53
			c-0.73-1.02-1.12-2.06-1.1-3.13c0.02-1.25,0.56-2.15,0.91-2.7c1.38-2.21,3.68-3.04,4.58-3.31c-1.3,0.29-3.55,0.58-6.04-0.25
			c-1.18-0.39-2.94-1.03-3.87-2.69c-0.3-0.52-0.49-1.15-0.54-1.89c-0.19-2.71,1.11-4.71,3.33-6.12c2.72-1.73,5.66-2.33,8.84-1.43
			c0.83,0.23,1.7,0.35,2.67,0.54c0.14-0.73,0.27-1.16,0.3-1.59c0.26-4.14,1.34-5.88,5.39-6.63c2.66-0.49,5.65-0.41,8.25,0.29
			c1.56,0.42,2.69,1.29,3.36,2.39c1.39,2.29,0.22,5.33-0.9,6.95c-2.41,3.5-6.86,3.55-7.35,3.55c1.54-0.28,4.68-0.6,7.85,1.01
			c1.2,0.61,3.52,1.85,4.05,4.02c0.5,2.08-0.64,3.9-0.98,4.39c0.7-0.95,2.64-3.3,5.78-3.97c1.21-0.26,2.25-0.19,2.7-0.17
			c3.34,0.17,5.88,1.64,7.41,4.68c1.2,2.39,0.3,4.43-1.21,6.26c-2.19,2.65-5.19,3.56-8.34,2.57
			C333.96,243.88,330.96,242.91,330.95,237.01z M313.82,223.59c-0.22,0.09-0.44,0.17-0.65,0.26c0.51,1.11,0.57,2.02,0.54,2.64
			c-0.17,2.85-2.82,5.48-6.64,6.66c2.47-0.62,4.33-0.26,5.27,0c1.15,0.32,2.01,0.81,2.52,1.08c1.77,0.95,3.04,2.06,3.86,2.9
			c-0.64-0.73-2.36-2.86-1.92-5.24c0.14-0.72,0.43-1.29,0.81-1.97c0.72-1.27,1.82-2.31,2.89-3.63c-1.43-0.44-2.56-0.72-3.63-1.15
			C315.82,224.7,314.83,224.11,313.82,223.59z"/>
		<path class="st3" d="M83.21,217.32c0.64-0.49,1.57-1.08,2.79-1.53c1.63-0.61,3.07-0.7,4-0.69c-2.88-2.08-4.01-5.49-2.96-8.16
			c1.12-2.86,4.29-3.52,4.94-3.79c3.05-1.27,8.02,1.57,8.98,4.73c0.13,0.41,0.64,1.95,0.03,3.52c-1.14,2.91-5.61,4.67-10.99,3.69
			c1.12,0.1,4.22,0.49,6.3,2.62c0.98,1,1.23,1.88,1.28,2.08c0.39,1.46-0.17,2.75-0.32,3.07c-0.57,1.22-1.56,1.91-1.45,2.05
			c0.08,0.09,0.56-0.2,0.63-0.24c2.06-1.25,5-1.56,5.3-1.59c0.97-0.1,3.06-0.31,4.64,1c1.88,1.55,2.46,4.75,1.16,6.65
			c-0.53,0.77-1.31,1.41-2.33,1.79c-2.6,0.97-5.64,1.16-8.45,1.05c-1.09-0.04-2.03-0.37-2.79-0.92c-1.2-0.87-2.39-2.52-2.12-4.04
			c0.41-2.35,4.08-3.49,3.98-3.69c-0.09-0.19-2.84,1.7-6.23,1.7c-0.99,0-4.45-0.01-6.22-2.64
			C81.43,221.11,83.11,217.53,83.21,217.32c-0.31,0.35-0.8,0.84-1.49,1.32c-3.95,2.68-8.92,0.75-9.6,0.48
			c-0.74-0.29-2.18-0.81-3.21-2.25c-0.08-0.12-2.28-2.91-0.73-5.4c1.66-2.66,4.25-4.08,7.56-3.93c0.77,0.04,3.42,0.15,5.77,2.1
			c0.95,0.79,2.57,2.13,2.71,4.31C84.32,215.56,83.57,216.8,83.21,217.32z"/>
		<path class="st4" d="M357.99,189.45c0.02-3.7-1.66-5.44-6.04-6.27c-3.37-0.64-7.18,1.48-8.3,4.61c-0.97,2.72-0.07,4.95,2.67,5.84
			c1.95,0.64,4.02,1.1,6.06,1.24C355.79,195.11,357.97,192.86,357.99,189.45z M351.69,197.53c-4.44-0.04-7.46,2.43-7.48,6.11
			c-0.03,3.35,3.25,5.74,8.06,5.89c2.93,0.09,6.18-3.24,6.24-6.4C358.58,199.59,356.1,197.56,351.69,197.53z M352.9,210.7
			c-4.1,0.05-7.62,3.48-6.84,6.68c0.67,2.75,5.68,6.05,8.49,5.59c3.54-0.58,5.88-3.59,5.55-7.13
			C359.83,212.78,356.84,210.65,352.9,210.7z"/>
		<path class="st3" d="M90.97,233.54c0.32,0.15,1.93,0.91,2.5,2.69c0.1,0.3,0.37,1.26,0.05,2.38c-0.63,2.26-3.07,3.1-2.86,3.58
			c0.21,0.48,2.49-0.63,5.15,0.04c1.19,0.3,2.08,0.86,2.66,1.29c0.16,0.17,0.32,0.33,0.48,0.49c1.35,2.91,1.14,6.13-0.62,8.13
			c-2.06,2.33-5.47,2.14-6.88,2.07c-1.88-0.1-3.35-0.67-4.27-1.1c0,0,0,0,0,0c0,0,0,0,0,0c-0.5-0.47-1.84-1.87-2-3.96
			c-0.2-2.7,1.67-5.43,4.71-6.66c-0.68,0.39-3.14,1.69-6.1,0.96c-0.66-0.16-3.42-0.89-4.44-3.19c-0.31-0.71-0.43-1.51-0.34-2.39
			c0.08-0.83,0.33-1.61,0.72-2.3c1.44-2.58,4.96-2.98,5.69-3.06C87.97,232.21,90,233.05,90.97,233.54z"/>
		<path class="st3" d="M30.52,212.69c-2.85-1.3-4.3-4.41-3.52-7.13c0.94-3.3,4.66-4.37,7.02-4.13c1.25,0.13,2.15,0.63,2.58,0.87
			c0.2,0.12,3.82,2.26,3.67,5.39c-0.16,3.23-4.24,5.46-7.41,5.43C31.86,213.12,31.05,212.89,30.52,212.69
			c0.14,0.11,2.97,2.5,2.5,5.87c-0.17,1.23-0.87,2.42-2.16,3.56c-2.17,1.93-5.93,1.79-8.9-0.19c-2.22-1.48-2.67-3.6-2.02-5.97
			c0,0,0.32-1.1,0.98-1.96C22.34,212.11,26.21,211.51,30.52,212.69z"/>
		<path class="st4" d="M110.05,249.61c3.37,0.08,6.04-1.29,8.15-3.73c2.67-3.1,1.85-7.43-1.68-9.47c-5.95-3.44-10.28-2.2-13.74,3.91
			c-2.12,3.74-0.8,7.25,3.31,8.57C107.36,249.29,108.73,249.37,110.05,249.61z M127.83,254.33c4.27-0.02,7.37-2.83,7.36-6.67
			c-0.01-3.26-3.1-5.47-7.68-5.48c-4.11-0.01-7.22,2.8-7.18,6.49C120.37,252.17,123.25,254.35,127.83,254.33z M109.2,252.31
			c-0.02,0.09-0.03,0.18-0.05,0.27c-0.63,0-1.28-0.08-1.89,0.01c-2.6,0.39-5.11,3.27-5.28,6.15c-0.13,2.32,1.22,4.02,3.27,4.39
			c2.49,0.46,5.2,0.58,7.67,0.11c2.44-0.47,4.07-2.54,4.1-5.12c0.02-2.33-1.32-4.12-3.63-4.87
			C112.03,252.81,110.6,252.62,109.2,252.31z"/>
		<path class="st3" d="M295.59,217.05c-2.85-4.43-2.7-6.84,0.59-9.71c3.21-2.8,8.08-2.73,11.39,0.16c0.54,0.47,1.14,0.87,1.71,1.31
			c0.08,1.35,0.35,2.71,0.19,4.03c-0.31,2.49-4.44,4.48-6.97,5.22c-2.25,0.65-3.56,0.43-3.95,0.35
			C297.16,218.13,296.15,217.48,295.59,217.05z"/>
		<path class="st3" d="M98.49,194.04c0.73-0.54,1.91-1.28,3.5-1.76c0.6-0.18,1.97-0.58,3.62-0.49c2.73,0.15,6.83,1.65,7.55,4.84
			c0.27,1.21,0.07,2.21-0.03,2.59c-0.93,3.63-5.13,4.85-5.47,4.94c-0.66,0.16-1.61,0.33-2.76,0.28c-0.39-0.02-1.4-0.09-2.66-0.5
			c-1.81-0.6-4.6-1.49-5.51-4c-0.5-1.38-0.52-3.36,0.57-4.81C97.71,194.58,98.17,194.24,98.49,194.04z"/>
		<path class="st3" d="M276.32,224.36c-1.88-2.81-1.69-5.27,0.59-7.53c4.64-4.6,10.98-3.63,14.44,2.21c0,0,0,0.26,0,0.26
			c0.08,0.45,0.16,1.16-0.01,2c-0.5,2.44-2.65,3.69-3.15,3.98c-1.19,0.69-2.23,0.83-3.62,1.01c-1.2,0.16-2.91,0.37-4.95-0.24
			C278.18,225.62,277.08,224.94,276.32,224.36z"/>
		<path class="st3" d="M17.91,202.96c-4.09-0.04-6.85-2.37-6.81-5.75c0.04-3.76,3.26-6.55,7.53-6.51c3.96,0.03,7.33,2.81,7.2,5.92
			C25.68,199.82,21.73,202.99,17.91,202.96z"/>
		<path class="st3" d="M77.14,205.24c-1.07-0.3-4.52-1.26-5.31-4.01c-0.22-0.76-0.22-1.59,0.01-2.47c1.04-3.93,4.79-6.14,8.58-4.87
			c1.5,0.5,3,1.32,4.19,2.35c1.49,1.3,2.87,2.94,2.19,5.2c-0.18,0.6-0.44,1.12-0.77,1.56c-1.21,1.64-3.05,2.1-4.06,2.34
			C81.38,205.5,79.48,205.9,77.14,205.24z"/>
		<path class="st3" d="M334.86,205.94c1.7-0.78,3.21-0.69,4.05-0.65c1.36,0.07,3.14,0.16,4.33,1.48c0.75,0.84,1.11,2.01,1.09,3.47
			c-0.05,3.18-3.38,5.54-6.09,6.24c-0.85,0.22-2.53,0.66-4.3-0.2c-1.53-0.75-2.26-2.05-2.52-2.58c-0.01-0.04-0.03-0.1-0.05-0.15
			c-0.03-0.06-0.06-0.12-0.1-0.18c-0.18-0.45-0.63-1.77-0.19-3.35c0.32-1.13,0.94-1.87,1.29-2.22
			C332.82,207.28,333.63,206.5,334.86,205.94z"/>
		<path class="st4" d="M74.63,241.94c-0.01,0.09-0.03,0.17-0.04,0.26c-0.72,0-1.47-0.12-2.16,0.02c-2.49,0.5-4.35,1.83-4.93,4.41
			c-0.66,2.95,0.17,5.56,2.7,6.37c2.54,0.81,5.45,1.09,8.1,0.77c2.7-0.33,4.55-3.36,4.55-6.01c0-2.89-1.96-4.11-4.29-4.92
			C77.3,242.4,75.95,242.23,74.63,241.94z"/>
		<path class="st2" d="M394.51,103.59c0.32,10.18-3.83,18.32-10.44,25.94c-9.13,10.52-20.14,17.42-33.52,20.96
			c-16.84,4.46-32.27,1.65-46.4-8.48c-0.57-0.41-1.23-0.68-1.84-1.02c0,0,0.04,0.03,0.04,0.03c-0.19-0.19-0.37-0.38-0.56-0.57
			c-5.15-5.04-10.16-10.24-15.5-15.07c-2.64-2.39-2.78-4.97-2.16-8.74c3.39,2.38,6.34,4.68,9.5,6.64
			c10.22,6.35,20.45,12.76,32.59,14.85c9.71,1.68,19.18,0.09,28.04-3.85c11.52-5.13,22.14-11.97,31.87-19.95
			c3-2.46,4.34-6.94,6.42-10.51c0.43-0.73,0.76-1.52,1.51-3.03C394.3,102.29,394.41,102.94,394.51,103.59z"/>
		<path class="st2" d="M207.22,97.89c2.32,0.28,4.96-0.64,5.1,2.14c0.13,2.71-2.59,2.33-4.4,2.93c-1.3,0.43-2.38,1.49-3.64,2.1
			c-5.15,2.51-10.1,5.32-15.72,6.96c-5.52,1.61-10.63,4.57-16.05,6.6c-9.83,3.68-19.77,7.05-29.64,10.65
			c-4.42,1.61-8.76,3.43-13.13,5.18c-1.39,0.56-2.72,1.17-3.85-0.46c-1.19-1.71-0.01-2.7,1.11-3.65
			c12.11-10.36,25.13-19.4,40.2-24.77c7.33-2.61,15.19-3.85,22.89-5.33C195.9,99.11,201.85,98.6,207.22,97.89z"/>
		<path class="st2" d="M254.5,67.97c0.6-1.45,1.18-2.91,1.79-4.36c1.02-2.41,1.99-4.84,3.12-7.21
			c5.32-11.19,13.05-20.31,23.47-27.09c1.74-1.13,3.4-2.43,5.22-3.4c0.92-0.48,2.14-0.39,3.22-0.56c0.04,1.17,0.48,2.53,0.04,3.47
			c-2.14,4.48-4.3,8.97-6.86,13.21c-5.32,8.82-10.88,17.5-18.56,24.55c-1.6,1.46-3.19,2.94-4.9,4.26c-0.83,0.64-1.9,1.23-2.91,1.32
			C255.62,72.41,254.93,71.42,254.5,67.97z"/>
		<path class="st2" d="M283.73,90.82c3.33-0.87,6.63-1.88,9.99-2.6c9.65-2.08,19.16-0.63,28.66,1.27
			c10.77,2.15,21.55,4.22,32.32,6.35c0.49,0.1,0.93,0.43,2.11,0.99c-1.41,0.92-2.3,1.83-3.35,2.13c-11.22,3.1-22.48,3.71-33.96,1.12
			c-7.27-1.64-14.74-2.4-22.08-3.75c-3.79-0.7-7.52-1.77-11.24-2.79c-0.88-0.24-1.63-0.98-2.45-1.49
			C283.73,91.64,283.73,91.23,283.73,90.82z"/>
		<path class="st2" d="M242.4,111.62c0,3.31-0.07,5.94,0.01,8.56c0.51,16.7-2.82,32.83-7.2,48.81c-0.45,1.64-0.47,3.41-1.04,5
			c-0.37,1.04-1.37,1.85-2.08,2.76c-0.73-0.8-1.91-1.51-2.11-2.43c-0.6-2.71-1.04-5.51-1.14-8.28c-0.45-12.31,0.28-24.55,2.65-36.67
			C232.64,123.44,236.75,116.31,242.4,111.62z"/>
		<path class="st2" d="M176.55,42.06c11.18,0.47,19.13,6.19,27.03,11.64c5.54,3.82,10.48,8.52,15.76,12.73
			c1.31,1.04,2.95,1.66,4.34,2.61c0.71,0.49,1.2,1.29,1.8,1.95c-0.83,0.48-1.78,1.49-2.48,1.34c-4.91-1.07-9.86-2.13-14.64-3.67
			c-8.37-2.71-14.88-8.39-21.2-14.22c-2.97-2.74-5.79-5.66-8.55-8.62C177.78,44.93,177.39,43.64,176.55,42.06z"/>
		<path class="st1" d="M301.79,140.44c0.19,0.19,0.37,0.38,0.56,0.57C302.17,140.82,301.98,140.63,301.79,140.44z"/>
		<path class="st3" d="M329.57,185.76c1.58,0.74,2.61,2.21,2.62,3.8c0.01,1.42-0.79,2.41-1.05,2.7c1.96-0.8,3.62-0.95,4.64-0.96
			c1.38-0.02,5.28-0.12,7.04,2.48c1.29,1.91,1.25,3.94,0.07,5.88c-1.45,2.37-4.34,3.59-7,3.02c-0.61-0.13-4.35-0.21-5.52-2.5
			c-0.78-1.52,0.03-3.08-0.81-3.56c-0.68-0.39-1.47,0.5-3.25,0.77c-1.31,0.2-2.44-0.05-3.16-0.28c-3.32-1.59-5.04-4.56-4.23-7.3
			c0.82-2.76,4.29-4.67,7.94-4.35C327.77,185.54,328.67,185.66,329.57,185.76z"/>
		<path class="st3" d="M271.81,226.19c1.07,0.14,2.15,0.21,3.21,0.43c3.53,0.72,5.37,2.36,5.65,4.92c0.35,3.19-1.25,5.85-4.69,7.06
			c-3.28,1.15-6.63,0.88-9.62-1.02c-2.88-1.84-3.36-4.83-1.47-7.75c0.39-0.59,0.82-1.16,1.22-1.74c0.6-0.41,1.44-0.9,2.51-1.28
			C269.89,226.36,271.01,226.23,271.81,226.19z"/>
		<path class="st3" d="M357.99,189.45c-0.02,3.41-2.2,5.66-5.61,5.42c-2.04-0.14-4.11-0.6-6.06-1.24c-2.74-0.89-3.65-3.12-2.67-5.84
			c1.12-3.13,4.93-5.25,8.3-4.61C356.33,184.01,358.01,185.76,357.99,189.45z"/>
		<path class="st3" d="M351.69,197.53c4.41,0.04,6.88,2.07,6.82,5.6c-0.06,3.16-3.31,6.49-6.24,6.4c-4.81-0.15-8.09-2.54-8.06-5.89
			C344.24,199.95,347.26,197.49,351.69,197.53z"/>
		<path class="st3" d="M352.9,210.7c3.94-0.05,6.92,2.08,7.2,5.13c0.33,3.54-2.01,6.55-5.55,7.13c-2.81,0.46-7.83-2.84-8.49-5.59
			C345.29,214.18,348.8,210.75,352.9,210.7z"/>
		<path class="st3" d="M110.05,249.61c-1.32-0.23-2.7-0.31-3.96-0.72c-4.11-1.32-5.43-4.83-3.31-8.57
			c3.46-6.12,7.79-7.35,13.74-3.91c3.53,2.04,4.35,6.38,1.68,9.47C116.1,248.32,113.42,249.69,110.05,249.61z"/>
		<path class="st3" d="M127.83,254.33c-4.57,0.02-7.46-2.17-7.5-5.67c-0.04-3.68,3.07-6.5,7.18-6.49c4.57,0.01,7.67,2.22,7.68,5.48
			C135.2,251.5,132.1,254.32,127.83,254.33z"/>
		<path class="st3" d="M110.45,252.63c0.83,0.02,1.86,0.18,2.94,0.63c0.88,0.37,2.11,0.88,2.92,2.19c0.47,0.77,0.72,1.68,0.71,2.69
			c-0.02,2.59-1.65,4.66-4.1,5.12c-2.47,0.47-5.18,0.35-7.67-0.11c-2.05-0.38-3.4-2.07-3.27-4.39c0.16-2.79,2.45-5.47,5.28-6.15
			C108.58,252.27,109.74,252.46,110.45,252.63z"/>
		<path class="st3" d="M78.56,242.84c1.42,0.54,2.9,1.11,3.75,2.63c0.35,0.62,0.54,1.37,0.54,2.29c0,2.65-1.85,5.67-4.55,6.01
			c-2.65,0.33-5.56,0.04-8.1-0.77c-2.53-0.81-3.36-3.42-2.7-6.37c0.21-0.93,0.58-1.7,1.09-2.32c1.2-1.47,2.83-1.86,3.84-2.09
			C75.14,241.58,77.36,242.39,78.56,242.84z"/>
	</g>
</g>
</svg>
