<?xml version="1.0" encoding="utf-8"?>
<!-- Generator: Adobe Illustrator 24.0.2, SVG Export Plug-In . SVG Version: 6.00 Build 0)  -->
<svg version="1.1" id="Layer_1" xmlns="http://www.w3.org/2000/svg" xmlns:xlink="http://www.w3.org/1999/xlink" x="0px" y="0px"
	 viewBox="0 0 304.36 232.36" style="enable-background:new 0 0 304.36 232.36;" xml:space="preserve">
<style type="text/css">
	.st0{fill:#B5FE88;}
	.st1{fill:#66DAF2;}
	.st2{fill:#FECEEF;}
	.st3{fill:#FE99DF;}
	.st4{fill:#FE9ADF;}
	.st5{fill:#68DAF2;}
	.st6{fill:#9BFE60;}
	.st7{fill:#91F853;}
	.st8{fill:#89F04C;}
</style>
<g>
	<g>
		<path class="st0" d="M18.46,71.19c2.2-5.79,5.72-10.82,9.37-15.74c4.21-5.67,8.32-11.58,14.29-15.5
			c10.44-6.85,20.98-13.66,32.96-17.62c8.14-2.69,16.36-5.17,24.67-7.28c4.96-1.26,10.16-1.55,15.22-2.44
			c6.31-1.11,12.56-2.54,18.88-3.54c5.52-0.88,11.09-1.66,16.66-1.94c6.31-0.31,12.67-0.4,18.96,0.1
			c11.51,0.93,22.96,2.21,34.16,5.47c9.72,2.83,18.94,6.67,27.61,11.81c4.92,2.91,9.14,6.74,12.78,11.23
			c4.38,5.41,9.05,10.6,13.37,16.05c1.78,2.24,3.25,4.81,4.4,7.43c1.89,4.29,3.42,8.75,5.09,13.14c-4.49,2.18-7.91,5.61-11,9.43
			c-0.26-3.6,0.58-7.32-1.13-11.13c-1.02,0.78-2.02,1.21-2.51,1.97c-2.64,4.07-5.47,8.06-7.63,12.38
			c-2.52,5.04-4.43,10.4-6.56,15.63c-0.2,0.5-0.08,1.14-0.11,1.72c-0.7,0.9-1.41,1.81-2.11,2.71c0.14-1.16,0.4-2.31,0.41-3.47
			c0.06-8.95,0.08-17.89,0.09-26.84c0-0.75-0.15-1.49-0.24-2.24c-0.2-0.07-0.4-0.15-0.6-0.22c-1.36,1.49-2.72,2.98-4.07,4.47
			c-0.92-3.27-1.83-6.53-2.75-9.8c4.64,0.75,9.28,1.51,14.53,2.36c-1.01-2.72-2.58-4.01-4.27-5.12c-5.03-3.29-10.62-5.26-16.32-7.08
			c-7.7-2.46-15.47-3.32-23.44-2.12c-9.14,1.37-18,3.73-26.06,8.45c-2.25,1.32-4.41,2.8-6.5,4.36c-1.3,0.97-2.07,2.46-1.5,4.08
			c0.64,1.82,2.46,1.89,4.08,2.11c0.35,0.05,0.74,0.04,1.08-0.05c3.47-0.95,7.01-1.71,10.38-2.93c8.71-3.15,17.7-4.72,26.9-5.14
			c4.12-0.19,8.26-0.03,12.39-0.03c-0.98,1.82-2.15,3.57-2.92,5.48c-2.54,6.26-2.43,13.03-3.6,19.56c-0.52-0.7-1.14-1.35-1.55-2.11
			c-2.18-4.06-4.27-8.17-6.48-12.21c-0.33-0.6-1.14-0.94-1.73-1.4c-0.39,0.55-1.01,1.05-1.12,1.65c-0.62,3.53-1.39,7.07-1.59,10.64
			c-0.31,5.47,1.45,10.67,2.7,15.93c-2.06,2.03-2.67,4.58-2.78,7.38c-0.27,6.64,2.02,12.61,5.05,18.29
			c1.11,2.08,2.93,3.83,4.61,5.55c2.87,2.96,6.65,4.22,10.52,5.27c-2.57,4.97-3.6,10.42-4.9,15.79c-1.13,0.53-2.22,1.23-3.41,1.57
			c-10.07,2.87-20.34,4.73-30.82,4.9c-5.69,0.1-11.38-0.54-17.07-0.43c-8.26,0.17-16.13-1.39-23.74-4.47
			c-5.37-2.17-10.86-4.3-15.21-8.17c-3.47-3.09-6.35-6.85-9.41-10.38c-2.87-3.31-5.69-6.84-10.51-6.9c-3.95-0.05-7.9,0.5-11.86,0.76
			c-4.32,0.28-8.64,0.76-12.95,0.71c-4.4-0.05-8.79-0.81-13.19-0.95c-7.64-0.24-15-1.65-22.13-4.42
			c-7.21-2.79-14.16-5.86-19.43-11.88c-3.96-4.51-7.17-9.38-7.87-15.41c-0.52-4.47-0.58-9.01-0.55-13.51
			c0.03-5.34,0.76-10.59,3.3-15.42c0.18-0.35,0.24-0.77,0.41-1.31c-1.17,0.4-2.09,0.72-3,1.03C18.6,71.34,18.52,71.28,18.46,71.19z
			 M191.38,153.89c0-4.18,0.39-7.8-0.1-11.29c-0.56-3.98-1.9-7.85-2.93-11.76c-3.71-14.04-9.99-26.68-20.61-36.81
			c-2.43-2.32-5.44-4.13-8.4-5.79c-2.07-1.16-4.24-0.5-5.41,0.92c-1.21,1.48-1.36,4.04-0.18,5.86c1.03,1.58,2.1,3.17,3.37,4.56
			c5.68,6.2,10.82,12.84,15.03,20.1c3.61,6.24,6.84,12.72,9.99,19.21c2.25,4.63,4.04,9.48,7.37,13.5
			C189.91,152.86,190.49,153.18,191.38,153.89z M58.96,112.23c1.13-0.41,1.79-0.56,2.36-0.88c12.01-6.65,23.76-13.8,36.41-19.23
			c7.12-3.05,14.38-5.72,22.15-6.76c2-0.27,3.93-1.12,5.87-1.79c1.26-0.43,2.04-1.46,1.59-2.73c-0.35-0.98-1.09-2.23-1.96-2.55
			c-2.08-0.77-4.35-1.55-6.51-1.47c-7.64,0.3-14.96,2.37-21.83,5.63c-6.52,3.08-12.93,6.45-19.13,10.13
			c-5.41,3.22-10.79,6.59-15.09,11.37C60.84,106.16,59.56,108.63,58.96,112.23z M107.05,26.96c0.41,0.81,0.54,1.37,0.89,1.7
			c3.59,3.44,7.08,6.99,10.86,10.21c6.29,5.38,11.94,11.25,16.11,18.47c1.52,2.64,3.13,5.28,5.07,7.62c1.53,1.84,3.79,1.18,4.7-1.02
			c1.33-3.2,0.76-6.42-0.15-9.54C140.51,40.69,131,32.36,117.8,27.97C114.55,26.89,111.04,26.16,107.05,26.96z"/>
		<path class="st1" d="M278.83,127.31c-1.65,5.34-2.9,10.85-5.04,15.99c-2.65,6.33-5.65,12.58-9.2,18.45
			c-5.4,8.93-13.16,15.57-22.32,20.58c-1.08,0.59-2.12,1.26-3.42,2.03c1.95,1.44,3.73,2.52,5.25,3.89
			c10.76,9.69,8.72,25.82-4.16,32.5c-6.69,3.47-13.89,4.53-21.35,3.64c-4.66-0.55-9.36-0.95-13.94-1.91
			c-4.01-0.84-7.68-2.66-10.37-6.01c-3.13-3.9-3.84-8.27-2.73-13.04c0.22-0.95,0.39-1.9,0.65-3.22c-1.12,0-2,0-2.88,0
			c-2.72,0.01-5.45,0.11-8.17,0.02c-10.32-0.34-20.65-0.56-30.95-1.2c-4.2-0.26-8.35-1.42-12.49-2.31
			c-5.47-1.19-10.91-2.53-16.37-3.8c-6.84-1.59-12.72-5.02-18.35-9.1c-3.58-2.59-7.37-4.97-11.31-6.97
			c-1.82-0.92-4.21-0.88-6.35-0.94c-4.44-0.14-8.91,0.18-13.33-0.12c-15.05-1.03-29.31-4.52-41.47-14.13
			c-6.8-5.38-12.95-11.33-17.2-18.99c-2.86-5.13-4.14-10.81-5.1-16.51c-1.24-7.36-0.65-14.78-0.26-22.21
			c0.37-6.94,1.82-13.63,4.12-20.12c1.38-3.91,3.33-7.63,5.08-11.4c0.23-0.5,0.85-0.83,1.29-1.24c0.06,0.09,0.14,0.15,0.25,0.18
			c-0.27,0.95-0.47,1.93-0.83,2.85c-3.03,7.74-4.62,15.8-4.58,24.06c0.03,5.21,0.74,10.44,1.38,15.63
			c0.9,7.33,4.04,13.57,9.36,18.81c8.62,8.5,18.72,14.17,30.6,16.52c6.02,1.19,12.07,2.56,18.16,2.95
			c9.39,0.61,18.84,0.59,28.2-0.88c1.88-0.3,3.17,0.37,4.56,1.65c4.84,4.49,9.72,8.96,14.84,13.13c5.27,4.3,11.69,6.59,18.05,8.6
			c6.09,1.93,12.42,3.12,18.66,4.54c8.57,1.96,17.23,2.01,25.91,0.84c2.24-0.3,4.45-0.76,6.69-1.06c6.62-0.87,13.33-1.21,19.69-3.58
			c1.4-0.52,2.88-0.81,4.45-1.23c0.1,0.83,0.17,1.44,0.25,2.06c0.18,7.5,0.18,15.01,0.62,22.5c0.18,3.11,1.15,6.2,2.02,9.22
			c0.24,0.83,1.44,1.92,2.21,1.92c0.96,0,2.2-0.79,2.8-1.61c0.64-0.88,0.87-2.18,0.94-3.32c0.25-3.79,0.28-7.59,0.51-11.38
			c0.52-8.3,1.12-16.59,1.69-24.88c12.87-7.62,24.98-16.13,33.49-28.81c0.4-0.59,0.9-1.12,1.35-1.68c1.09-0.69,2.19-1.38,3.28-2.06
			c1.57-0.6,3.26-1,4.69-1.84C271.46,132.09,275.12,129.66,278.83,127.31z"/>
		<path class="st2" d="M278.83,127.31c-3.71,2.35-7.37,4.78-11.15,7.01c-1.43,0.84-3.12,1.24-4.69,1.84
			c0.44-0.55,0.92-1.07,1.3-1.65c2.04-3.08,4.11-6.14,6.03-9.29c0.39-0.64,0.17-1.64,0.23-2.48c-0.77,0.02-1.59-0.13-2.3,0.09
			c-3.71,1.17-7.49,2.21-11.07,3.71c-5.28,2.21-10.82,2.6-16.58,3.19c0.1-0.7,0.09-1.24,0.27-1.71c1.7-4.58,3.38-9.17,5.18-13.71
			c1.57-3.95,3.28-7.82,3.4-12.21c0.09-3.45-0.99-4.16-4.06-3.4c-2.63,0.65-4.99,2.38-7.46,3.64c0.03-0.58-0.1-1.21,0.11-1.72
			c2.13-5.24,4.04-10.59,6.56-15.63c2.16-4.32,4.99-8.31,7.63-12.38c0.49-0.76,1.49-1.2,2.51-1.97c1.71,3.8,0.87,7.53,1.13,11.13
			c-0.16,0.61-0.37,1.2-0.48,1.82c-1.12,6.17-2.17,12.35-3.37,18.5c-0.5,2.58-1.31,5.09-1.97,7.64c0.16,0.11,0.32,0.22,0.48,0.33
			c0.55-0.37,1.24-0.63,1.64-1.12c4.49-5.5,8.92-11.05,13.41-16.55c1.63-2,3.37-3.92,5.06-5.88c2.03-0.48,4.07-0.95,6.41-1.5
			c0.36,3.8-1.19,7.16-2.08,10.62c-1.85,4.39-3.7,8.79-5.55,13.18c-2.45,3.14-4.91,6.29-7.36,9.43c0.13,0.18,0.25,0.37,0.38,0.55
			c3.46-1.42,6.91-2.89,10.39-4.26c4.69-1.85,9.38-3.68,14.12-5.39c1.76-0.64,3.64-0.93,5.47-1.38c1.18,0.28,2.35,0.56,4.04,0.96
			c-0.55,1.33-0.78,2.86-1.66,3.79c-3.7,3.91-7.55,7.69-11.44,11.41C281.99,125.21,280.34,126.19,278.83,127.31z"/>
		<path class="st3" d="M270.64,86.52c-1.69,1.96-3.43,3.88-5.06,5.88c-4.49,5.5-8.92,11.05-13.41,16.55
			c-0.4,0.49-1.09,0.75-1.64,1.12c-0.16-0.11-0.32-0.22-0.48-0.33c0.67-2.54,1.47-5.06,1.97-7.64c1.2-6.15,2.25-12.33,3.37-18.5
			c0.11-0.61,0.32-1.21,0.48-1.82c3.09-3.81,6.51-7.24,11-9.43c2.99-0.71,3.14-0.56,3.25,2.55
			C270.25,78.77,270.46,82.64,270.64,86.52z"/>
		<path class="st4" d="M292.4,107.77c-1.83,0.45-3.71,0.75-5.47,1.38c-4.73,1.72-9.43,3.55-14.12,5.39
			c-3.48,1.37-6.93,2.84-10.39,4.26c-0.13-0.18-0.25-0.37-0.38-0.55c2.45-3.14,4.91-6.29,7.36-9.43c1.49,0.43,2.75,0.05,3.96-0.91
			c1.96-1.57,4-3.05,6.01-4.56c4.58-3.24,9.41-5.99,14.84-7.54c0.8-0.23,1.69-0.15,2.54-0.21c0.06,1.01,0.47,2.18,0.1,3.02
			C295.53,101.73,293.92,104.72,292.4,107.77z"/>
		<path class="st5" d="M279.4,103.35c-2.01,1.51-4.05,2.99-6.01,4.56c-1.21,0.97-2.47,1.34-3.96,0.91c1.85-4.39,3.7-8.79,5.55-13.18
			C276.44,98.21,277.92,100.78,279.4,103.35z"/>
		<path class="st6" d="M214.09,176.27c-0.07-0.62-0.15-1.23-0.25-2.06c-1.57,0.43-3.05,0.71-4.45,1.23
			c-6.35,2.37-13.06,2.71-19.69,3.58c-2.24,0.29-4.45,0.75-6.69,1.06c-8.68,1.18-17.33,1.12-25.91-0.84
			c-6.24-1.43-12.57-2.61-18.66-4.54c-6.37-2.01-12.78-4.3-18.05-8.6c-5.12-4.17-10-8.64-14.84-13.13
			c-1.39-1.29-2.68-1.95-4.56-1.65c-9.36,1.47-18.81,1.49-28.2,0.88c-6.09-0.39-12.14-1.76-18.16-2.95
			c-11.88-2.35-21.99-8.02-30.6-16.52c-5.31-5.24-8.45-11.48-9.36-18.81c-0.64-5.19-1.35-10.42-1.38-15.63
			c-0.04-8.27,1.56-16.32,4.58-24.06c0.36-0.92,0.55-1.9,0.83-2.85c0.91-0.31,1.83-0.63,3-1.03c-0.16,0.54-0.22,0.96-0.41,1.31
			c-2.54,4.83-3.27,10.08-3.3,15.42c-0.02,4.51,0.04,9.04,0.55,13.51c0.7,6.03,3.91,10.89,7.87,15.41
			c5.28,6.02,12.23,9.09,19.43,11.88c7.13,2.76,14.49,4.17,22.13,4.42c4.4,0.14,8.79,0.9,13.19,0.95c4.31,0.05,8.64-0.43,12.95-0.71
			c3.95-0.25,7.91-0.81,11.86-0.76c4.82,0.07,7.64,3.6,10.51,6.9c3.06,3.53,5.94,7.29,9.41,10.38c4.35,3.87,9.84,6,15.21,8.17
			c7.61,3.07,15.48,4.63,23.74,4.47c5.68-0.11,11.38,0.52,17.07,0.43c10.49-0.18,20.75-2.03,30.82-4.9
			c1.19-0.34,2.27-1.04,3.41-1.57c-0.94,6.71-2.2,13.38-1.76,20.21C214.41,175.98,214.2,176.13,214.09,176.27z"/>
		<path class="st7" d="M237.94,102.34c2.48-1.25,4.84-2.99,7.46-3.64c3.07-0.76,4.16-0.05,4.06,3.4c-0.12,4.39-1.83,8.26-3.4,12.21
			c-1.81,4.54-3.48,9.13-5.18,13.71c-0.17,0.47-0.16,1.01-0.27,1.71c5.75-0.59,11.29-0.98,16.58-3.19c3.58-1.5,7.35-2.54,11.07-3.71
			c0.71-0.22,1.53-0.07,2.3-0.09c-0.06,0.83,0.16,1.84-0.23,2.48c-1.92,3.15-3.99,6.21-6.03,9.29c-0.39,0.58-0.87,1.1-1.3,1.65
			c-1.09,0.69-2.19,1.38-3.28,2.06c-0.26,0.05-0.61,0-0.78,0.15c-3.93,3.45-8.76,4.85-13.71,5.83c-3.2,0.63-6.4,1.59-9.8,0.67
			c-1.11-0.3-2.88-0.94-3.72,1.06c-0.15,0.36-1.29,0.32-1.97,0.46c-0.68-0.09-1.35-0.18-1.97-0.26c-0.46-4.38-2.56-6.28-6.7-6.28
			c-3.87-1.04-7.65-2.31-10.52-5.27c-1.67-1.73-3.5-3.47-4.61-5.55c-3.03-5.68-5.32-11.64-5.05-18.29c0.11-2.8,0.72-5.34,2.78-7.38
			c1.97,0.8,4.36,1.14,5.81,2.49c3.56,3.29,6.66,7.07,9.98,10.62c2,2.13,4.07,4.19,6.44,6.63c2.63-6.91,6.04-12.62,9.93-18.05
			C236.54,104.15,237.24,103.25,237.94,102.34z"/>
		<path class="st2" d="M235.83,105.05c-3.89,5.44-7.3,11.14-9.93,18.05c-2.38-2.44-4.45-4.5-6.44-6.63
			c-3.32-3.55-6.43-7.32-9.98-10.62c-1.46-1.35-3.85-1.69-5.81-2.49c-1.25-5.25-3.01-10.46-2.7-15.93c0.2-3.57,0.97-7.11,1.59-10.64
			c0.1-0.6,0.73-1.1,1.12-1.65c0.59,0.46,1.4,0.8,1.73,1.4c2.21,4.04,4.3,8.15,6.48,12.21c0.41,0.76,1.03,1.41,1.55,2.11
			c1.97,6.9,5.83,14.83,8.03,16.23c0.25-0.8,0.5-1.55,0.71-2.31c1.79-6.29,3.46-12.62,5.42-18.85c0.99-3.15,2.54-6.13,3.83-9.19
			c1.36-1.49,2.72-2.98,4.07-4.47c0.2,0.07,0.4,0.15,0.6,0.22c0.08,0.75,0.24,1.49,0.24,2.24c-0.01,8.95-0.03,17.89-0.09,26.84
			C236.23,102.74,235.97,103.89,235.83,105.05z"/>
		<path class="st6" d="M191.38,153.89c-0.89-0.71-1.48-1.02-1.87-1.5c-3.33-4.02-5.12-8.87-7.37-13.5
			c-3.15-6.49-6.38-12.97-9.99-19.21c-4.21-7.26-9.35-13.89-15.03-20.1c-1.27-1.39-2.34-2.98-3.37-4.56
			c-1.18-1.81-1.03-4.38,0.18-5.86c1.17-1.42,3.34-2.08,5.41-0.92c2.96,1.66,5.97,3.46,8.4,5.79c10.62,10.13,16.9,22.77,20.61,36.81
			c1.03,3.91,2.36,7.78,2.93,11.76C191.78,146.09,191.38,149.71,191.38,153.89z"/>
		<path class="st6" d="M219.94,65.84c-4.13,0-8.27-0.16-12.39,0.03c-9.2,0.42-18.19,1.99-26.9,5.14c-3.37,1.22-6.91,1.98-10.38,2.93
			c-0.34,0.09-0.73,0.1-1.08,0.05c-1.61-0.22-3.44-0.29-4.08-2.11c-0.57-1.61,0.2-3.11,1.5-4.08c2.09-1.56,4.25-3.04,6.5-4.36
			c8.06-4.72,16.91-7.07,26.06-8.45c7.97-1.2,15.74-0.34,23.44,2.12c5.7,1.82,11.29,3.78,16.32,7.08c1.69,1.1,3.27,2.4,4.27,5.12
			c-5.25-0.85-9.89-1.6-14.53-2.36c-0.37-0.71-0.74-1.42-1.1-2.15c-1.88-3.86-3.09-4.01-6.02-0.78
			C221.01,64.63,220.48,65.24,219.94,65.84z"/>
		<path class="st8" d="M221.06,139.85c4.14,0,6.24,1.9,6.7,6.28c0.62,0.08,1.3,0.17,1.97,0.26c-0.89,1.53-2.3,2.98-2.57,4.61
			c-0.97,5.87-1.56,11.8-2.29,17.71c-0.57,8.29-1.16,16.59-1.69,24.88c-0.24,3.79-0.27,7.59-0.51,11.38
			c-0.07,1.14-0.3,2.45-0.94,3.32c-0.6,0.82-1.84,1.61-2.8,1.61c-0.76,0-1.97-1.09-2.21-1.92c-0.88-3.02-1.84-6.12-2.02-9.22
			c-0.43-7.49-0.44-15-0.62-22.5c0.11-0.14,0.32-0.28,0.32-0.41c-0.44-6.83,0.82-13.51,1.76-20.21
			C217.45,150.27,218.49,144.83,221.06,139.85z"/>
		<path class="st6" d="M58.96,112.23c0.6-3.6,1.87-6.07,3.86-8.28c4.3-4.78,9.68-8.15,15.09-11.37c6.2-3.68,12.61-7.05,19.13-10.13
			c6.87-3.25,14.18-5.32,21.83-5.63c2.16-0.09,4.44,0.7,6.51,1.47c0.87,0.32,1.61,1.56,1.96,2.55c0.45,1.27-0.32,2.3-1.59,2.73
			c-1.94,0.67-3.87,1.52-5.87,1.79c-7.77,1.04-15.03,3.71-22.15,6.76c-12.65,5.42-24.4,12.57-36.41,19.23
			C60.76,111.67,60.09,111.82,58.96,112.23z"/>
		<path class="st6" d="M107.05,26.96c3.98-0.8,7.49-0.08,10.75,1.01c13.2,4.39,22.71,12.72,26.72,26.44
			c0.91,3.12,1.48,6.34,0.15,9.54c-0.91,2.2-3.17,2.85-4.7,1.02c-1.94-2.33-3.55-4.98-5.07-7.62c-4.16-7.22-9.81-13.09-16.11-18.47
			c-3.77-3.23-7.27-6.78-10.86-10.21C107.59,28.33,107.47,27.77,107.05,26.96z"/>
		<path class="st3" d="M219.94,65.84c0.54-0.6,1.07-1.21,1.61-1.81c2.93-3.24,4.14-3.08,6.02,0.78c0.35,0.72,0.73,1.43,1.1,2.15
			c0.92,3.27,1.83,6.53,2.75,9.8c-1.29,3.06-2.83,6.04-3.83,9.19c-1.97,6.23-3.63,12.56-5.42,18.85c-0.22,0.76-0.46,1.5-0.71,2.31
			c-2.2-1.39-6.06-9.33-8.03-16.23c1.17-6.53,1.06-13.3,3.6-19.56C217.8,69.41,218.96,67.66,219.94,65.84z"/>
		<path class="st6" d="M224.88,168.72c0.73-5.91,1.32-11.84,2.29-17.71c0.27-1.63,1.68-3.08,2.57-4.61
			c0.68-0.14,1.81-0.09,1.97-0.46c0.84-2,2.61-1.36,3.72-1.06c3.4,0.92,6.6-0.04,9.8-0.67c4.95-0.98,9.78-2.38,13.71-5.83
			c0.17-0.15,0.52-0.11,0.78-0.15c-0.45,0.56-0.95,1.09-1.35,1.68C249.85,152.59,237.75,161.09,224.88,168.72z"/>
	</g>
</g>
</svg>
