<!-- .cls-1{fill:#0A8062;} -->
<svg id="Layer_1" data-name="Layer 1" xmlns="http://www.w3.org/2000/svg" viewBox="0 0 1112.07 391.66"><defs><style>.cls-1{fill:#31946b;}.cls-2{fill:#4ae4e2;}.cls-3{fill:#9efa7e;}.cls-4{fill:#46c786;}.cls-5{fill:#79fa4b;}.cls-6{fill:#46c787;}.cls-7{fill:#a3abfe;}.cls-8{fill:#d1d0fe;}.cls-9{fill:#369968;}.cls-10{fill:#a3acfe;}.cls-11{fill:#369a68;}.cls-12{fill:#47c887;}.cls-13{fill:#46c887;}.cls-14{fill:#47c888;}.cls-15{fill:#47c787;}.cls-16{fill:#48c888;}.cls-17{fill:#d1d0fd;}.cls-18{fill:#49c889;}.cls-19{fill:#49c888;}.cls-20{fill:#4bc98a;}.cls-21{fill:#4dc98b;}.cls-22{fill:#49c887;}.cls-23{fill:#9ef882;}.cls-24{fill:#4cc98b;}.cls-25{fill:#c7c6fa;}.cls-26{fill:#c8c7fa;}.cls-27{fill:#77f750;}.cls-28{fill:#c9c8fb;}.cls-29{fill:#a2f889;}.cls-30{fill:#cccbfb;}.cls-31{fill:#ccccfb;}.cls-32{fill:#cac9fb;}.cls-33{fill:#fdfdfd;}.cls-34{fill:#a1acfc;}.cls-35{fill:#a2acfd;}.cls-36{fill:#46c686;}.cls-37{fill:#45c585;}.cls-38{fill:#a1adfc;}.cls-39{fill:#a2acfe;}.cls-40{fill:#40a573;}.cls-41{fill:#a0adfd;}.cls-42{fill:#fff;}</style></defs><title>shroomie_zyvjbo_c_scale,w_2040</title><path class="cls-1" d="M661,148.81l-9,6L636.5,165.71c-11.65,9.29-23.18,18.77-36,26.4-7.58,4.49-15.3,8.79-23.24,12.59-4.79,2.29-10.13,3.44-15.22,5.11A80.82,80.82,0,0,1,549.29,212c-21.9,2-39.81-5.39-50-10.85L487.83,193l-6-5.43c-2.22-2.59-4.47-5.15-6.65-7.77-4.51-5.42-9-10.87-13.46-16.31l0,.05-12-14.76,0,.06-13.13-15.31,0,0L430,127.07l-16.29-14.14-8.24-6.54-3.76-2.72L393,98.22a78.84,78.84,0,0,0-29-8.94c-5.57-.56-10.88.15-16.29.61-1.26.11-2.54,0-3.8,0a30.93,30.93,0,0,1,13.85-19.41c-.59,0-1.43.09-2.42.22-3.26.41-10.14,1.28-15.33,6.11a21.69,21.69,0,0,0-6.33,12.67l-.68-.67c-5-10.48-11.73-19.51-22.54-24.31a50.4,50.4,0,0,0-29.15-3.72c-.9,0-1.8,0-2.69.09-7.73.52-13.31,5.08-18.7,10A42.11,42.11,0,0,0,241.76,94a16.22,16.22,0,0,0,2.49,15.69c3,4.41,7.64,5.51,12.42,6.39l5.42,1.42q-1.33,2.35-2.65,4.71l-9.95,4.27c-4.55,1.64-9,3.49-13.65,4.86s-9.36,2.25-14.06,3.34l-13.64.52q-.22-4-.43-7.95a7.76,7.76,0,0,0-2.33,2.67c-.95,1.6-1.85,3.22-2.77,4.83l-4.83-.66a5.46,5.46,0,0,1-1.21-.35c-5.36-2.29-6.85-13.1-8-15.47,0,0-.15-.28-.32-.63-.28-.6-.55-1.22-.84-1.82l-.76.19a25,25,0,0,0-.19,7.95,25.34,25.34,0,0,0,2.75,8.45c-6.33-2.18-11.85-3.91-16.29-5.23-12.14-3.61-15.61-3.61-18.65-3.49a71.4,71.4,0,0,0-8.15,1.26c-1.13.17-2.28.24-3.42.35a19.6,19.6,0,0,1,2-2.51,11.85,11.85,0,0,0,3.95-8.13c.52-7.63-1.21-14.9-4.09-21.93q-5.83-15.3-11.68-30.59c-2.58-4.25-4.93-8.65-7.76-12.72C116.5,37.14,104.65,29.78,90,26.87l-17-1.45c-1.34.1-2.69.16-4,.3-9.24,1-18.16,2.7-25.28,9.54-4.22,4.06-8.1,8.23-9.9,14a27,27,0,0,0-1.21,2.69,92.62,92.62,0,0,0-5.18,27.38L25.76,98.72q-1.1,11.18-2.18,22.35c-1.08,5.28-1.75,10.62,2.76,14.7,2.5,2.27,5.57,3.93,8.39,5.86,9.8,3.59,19.64,7,30,8.61q-1,6.39-2,12.8l-4.38,16.88L51.6,184.8c-5.15,3.27-10.19,6.75-15.5,9.75A115.11,115.11,0,0,1,20.74,202c-5.15,2-10.63,3.06-16,4.48-1.52.4-3.1.57-4.76.86V-.92H141.64c1.09,0,2.18,0,3.27-.08.91,0,1.81.08,2.72.08h964.44V198.45c-7.91,3.22-15.89,6.31-24.48,7.11-18.47,1.74-35.51-2.14-50.66-13.25-8-5.89-14.9-13-21.39-20.46A65,65,0,0,1,1026,144.28a10.8,10.8,0,0,0-2.71,0c-4.74.65-6.74,4.66-13.07,9.17-1.89,1.35-3.73,2.76-5.6,4.14l-8.76-12.49a5.72,5.72,0,0,1-.34-1.82c.68-4.36,1.42-8.71,2.16-13.06,1.68-9.87.5-19.58-1.78-29.2-.16-.68-.83-1.24-1.26-1.86l-.84.22c-.25,1.83-.08,3.85-.82,5.45-3.37,7.29-7,14.46-10.53,21.67l-4-5-1.66-5.33a9.49,9.49,0,0,0-.23-1.6C971,98,965.51,81.3,959.71,64.75c-2.88-8.23-8.83-14.17-16-18.94A86.51,86.51,0,0,0,918.57,35a26.59,26.59,0,0,0-4.31-1.51c-7.3-1.23-14.59-2.51-21.93-3.43-10.69-1.34-20.48,1.45-29.33,7.44-7,4.73-10.65,12-13.91,19.4-5.46,12.42-10.66,25-16,37.45-.93,2-2,3.88-2.77,5.9-3,7.84-5.92,15.71-8.86,23.57-2.32,6.54-4.34,13.11-2.35,20.15a34.16,34.16,0,0,0,8.3,16.48l2.3,3.5a75.05,75.05,0,0,1-25.34-.13c-3.08-.55-7.92-1.69-19.64-6.53a302.76,302.76,0,0,1-29.83-14.32l5.59-9.34a18.08,18.08,0,0,0-.81-11.94,191,191,0,0,0-10-20.72A47.49,47.49,0,0,0,740.52,90c-6.32-5.79-14.49-7.52-22.64-9a37.29,37.29,0,0,0-19.13.86,35.66,35.66,0,0,0-16.65,9.68c-7,6.92-10.61,16-13.89,25.11L662.36,131c-1.14,4.07-2.2,8.15-1.14,12.41.36,1.45.83,2.86,1.26,4.3Zm-363.43-125-.22,1c1.05.84,2.17,1.6,3.14,2.53a37,37,0,0,1,10.24,17.59c.25,1,1.29,1.69,2,2.53.59-1.07,1.24-2.12,1.74-3.24.16-.35-.05-.88-.15-1.32-1.53-7.16-5.81-12.62-11.23-17.18C301.66,24.57,299.41,24.44,297.56,23.83ZM173.82,83.23l.93.06,10.6-17.24a10.16,10.16,0,0,0-2.75.92c-3.95,3.1-7.26,6.78-8.93,11.57C173.19,79.92,173.74,81.66,173.82,83.23ZM163.13,70.12c.9,2.13,1.85,3.63,2.17,5.26.65,3.35.92,6.77,1.45,10.14a8.41,8.41,0,0,0,1.06,2.23c.54-.69,1.5-1.36,1.55-2.08a25.27,25.27,0,0,0-.14-7.17C168.46,75.16,167,72.05,163.13,70.12ZM322.06,50.57c4.27-4.15,1.45-16.3-3.45-18.69.92,2.82,2.21,5.72,2.78,8.75S321.85,46.91,322.06,50.57Z" transform="translate(0 1)"/><path class="cls-2" d="M943.71,45.81c7.17,4.77,13.12,10.71,16,18.94C965.51,81.3,971,98,976.57,114.59a9.49,9.49,0,0,1,.23,1.6c-8.29,2.38-12,8.91-9.73,17.05,1.73,6.14,8.61,10.88,14.12,9.72a28.91,28.91,0,0,1-6.65,22.5c-1.61,1.93-3.27,3.83-4.9,5.74L966.16,173l-7.9,3.92c-1.13-5.38-3.62-9.8-8.69-12.43-9.3-4.82-16.24-5-22.51,2.41-3.53,4.19-4.71,9.33-4.7,14.7a14.66,14.66,0,0,0,1,3.81,4.8,4.8,0,0,1-1.27.44c-8.58.39-17.18,1.2-25.75,1a70.41,70.41,0,0,1-25.82-5.68A14.76,14.76,0,0,0,860,167.69c-6.06-1.68-11.73-1.62-15.6,4.05q-6.07-3.19-12.14-6.4c-.86-.45-1.69-1-2.54-1.43l-2.3-3.5c6.13-5.95,1.4-15-5.49-16.69a9.37,9.37,0,0,0-2.81.21c-2-7,0-13.61,2.35-20.15a17.58,17.58,0,0,0,18.1-7.47c3.23-5.07,2.78-12.29-1.42-17.77-1.31-1.7-3.35-2.83-5-4.23,5.31-12.49,10.51-25,16-37.45,3.26-7.4,6.94-14.67,13.91-19.4,8.85-6,18.64-8.78,29.33-7.44,7.34.92,14.63,2.2,21.93,3.43A26.59,26.59,0,0,1,918.57,35c0,2.58-.64,5.33.08,7.68,1.62,5.31,5.77,8.31,11.13,9.17C935.54,52.74,940.28,50.64,943.71,45.81Zm-10.82,68.33c7.36-.12,12.3-3,15.23-9.1a19.74,19.74,0,0,0,1.55-12.15,34.57,34.57,0,0,0-9.6-18.53c-4-4.13-8.82-5.69-14.71-6.43C914,66.49,906.18,74.7,907.19,85.87a33.4,33.4,0,0,0,6.44,16.8C918.58,109.48,924.82,113.93,932.89,114.14Zm-78.2-3c0,8,5.12,13.84,12.12,13.85,7.18,0,11.93-4.83,11.94-12.15,0-8.39-4.8-12.95-13.65-13C858.74,99.85,854.68,104.24,854.69,111.12Zm22.53-47.5c-1-3-1.57-5.87-2.89-8.35a6.81,6.81,0,0,0-11.4-1.33,33.93,33.93,0,0,0-3.31,4.64c-2.46,4-2,8,.11,11.9a8.39,8.39,0,0,0,14.45.67C875.61,69,876.2,66.24,877.22,63.62Zm36.5,84.69c.15-3.39-2.17-6.18-5.05-8.47-4.52-3.6-10.39-1.63-11.55,4-1,4.66,1.61,8.1,5.16,10.82,2.5,1.92,5.25,1.77,8,.51S913.7,151.7,913.72,148.31ZM863.41,148c0,4.35,3.44,8,7.51,8a6,6,0,0,0,6-6.07,8.07,8.07,0,0,0-7.71-7.61C865.55,142.29,863.43,144.38,863.41,148ZM942,139c.06-2.64-1.64-4.87-3.52-4.71a3.32,3.32,0,0,0-3.25,3.37c-.12,2.06,2.22,5,3.83,4.9C941.34,142.37,941.68,140.52,942,139Z" transform="translate(0 1)"/><path class="cls-2" d="M33.72,49.21c1.8-5.72,5.68-9.89,9.9-14,7.12-6.84,16-8.54,25.28-9.54,1.34-.14,2.69-.2,4-.3a16.61,16.61,0,0,0,2.06,2c4.93,3.44,11.2,3.66,15-.6,14.67,2.91,26.52,10.27,35.09,22.58,2.83,4.07,5.18,8.47,7.76,12.72-11.66.55-18.68,13.38-12.58,24.8,4,7.53,17.38,10.25,24.26,5.79,2.88,7,4.61,14.3,4.09,21.93a11.85,11.85,0,0,1-3.95,8.13,19.6,19.6,0,0,0-2,2.51l-.53.44c-5.31,4.28-10.52,8.7-16.82,11.53a46.68,46.68,0,0,0-4.54,1.73c-7.78,3.93-15.59,7.81-24.37,9-7.79,1-15.6,1.89-23.4,2.83-.39-4.64-2.93-8.16-6.31-11-5.89-4.92-12.93-6.42-20.38-5.61-4.92.54-9.25,2.52-11.58,7.37-2.82-1.93-5.89-3.59-8.39-5.86-4.51-4.08-3.84-9.42-2.76-14.7a11,11,0,0,0,10.08-9.32c.67-5.56-2.9-11.44-7.9-13q.78-9.72,1.57-19.45c5.42.63,9.65-2,13.34-5.4a10.79,10.79,0,0,0,3.74-9.28C43.53,57.71,40.08,52.39,33.72,49.21ZM84.37,50.8A8.94,8.94,0,0,0,77,53c-5.2,4.83-5.22,13.64,0,19.08a10.77,10.77,0,0,0,8.45,3.71C92.31,75.4,98.17,69.45,98,63.37,97.78,56,92.52,51,84.37,50.8ZM69.14,104.58c0-5.56-4.5-10.76-9.34-10.73-4.46,0-8.16,4-8.13,8.78,0,5.11,4.81,10.33,9.36,10.21A8.56,8.56,0,0,0,69.14,104.58Zm22.32,14.36c-4.08,0-7,2.81-7.08,6.67s3.9,7.86,7.61,7.94c4,.08,7.7-3.52,7.55-7.38A7.74,7.74,0,0,0,91.46,118.94Zm3.27-22.12c0-2.77-1.6-4.64-3.87-4.59a4.07,4.07,0,0,0-3.68,3.94c.09,2.35,2.32,4.8,4.34,4.78S94.75,99.42,94.73,96.82Zm35.52,21.79c0-2.63-1.37-4-3.88-4a2.91,2.91,0,0,0-3.31,3.12c-.1,2.37,1.76,4.51,3.94,4.28C129,121.76,130.46,120.79,130.25,118.61Z" transform="translate(0 1)"/><path class="cls-2" d="M262.09,117.53l-5.42-1.42c-1.11-6.53-6.37-9.23-12.42-6.39A16.22,16.22,0,0,1,241.76,94a42.11,42.11,0,0,1,18.17-23.15c5.1,1.85,10,1,14.71-1.3,3.58-1.76,6.5-4.29,6.68-8.77a50.4,50.4,0,0,1,29.15,3.72c10.81,4.8,17.58,13.83,22.54,24.31-2.27,5.83-1,11.07,2.69,15.9a24.59,24.59,0,0,1-1.31,5,24.2,24.2,0,0,1-2.48,4.77,13.11,13.11,0,0,1-1.43,1.56,13.41,13.41,0,0,1-1.69,1.35,14.07,14.07,0,0,1-1.8,1c-2.08.55-4.25,1.11-6.53,1.56-3.16.62-6.35,1.1-9.52,1.65l-2.92-.11c-.76-1.7-1.2-3.65-2.32-5.06-4.23-5.29-10.76-5.15-17.3-1.76-2.45,1.27-4.17,3.22-4,6.26Zm44-37.32c-5,0-8.33,2.85-9.26,7.72-.72,3.77,1.34,6.46,3.56,8.93a10,10,0,0,0,10.65,2.89,8.64,8.64,0,0,0,6.44-7.35C318.33,87.7,313.65,80,306.13,80.21ZM262.72,92.34A8.77,8.77,0,0,0,254,83.49a7.71,7.71,0,0,0-7.62,7.61c0,4.15,4.4,8.59,8.61,8.68A7.72,7.72,0,0,0,262.72,92.34Zm22.91,7.87c0-3.35-1.67-5.24-4.75-5.3-2.86-.06-4.61,1.61-4.62,4.4a5.22,5.22,0,0,0,4.85,5.44A4.25,4.25,0,0,0,285.63,100.21Z" transform="translate(0 1)"/><path class="cls-3" d="M908.55,244.3c-16.85,1.78-33.36.8-49.19-5.93-.58-.24-1.18-.42-1.78-.63a43.45,43.45,0,0,0-15.31-29c.34-4.64.58-9.3,1.08-13.93a37.05,37.05,0,0,1,1.53-5.73,9.78,9.78,0,0,0,2.48.75c4.16.07,8.44-.59,12.47.15,6.46,1.18,12.73,3.32,19.12,4.92a42,42,0,0,0,12.58,1c5.23-.26,11.06-.27,15.69,1.75,9,3.9,13.86,11.56,14,21.61,0,3.76-.66,7.53-1,11.29L918,236l-4.35,4.94c-1.92-4.89-3.62-10-8.91-11.78C906,234.25,907.28,239.27,908.55,244.3Z" transform="translate(0 1)"/><path class="cls-2" d="M972.91,265c1.79-6.24,4.28-12.21,8.46-17.21a25,25,0,0,1,7.28-5.79c7.4-4.28,14.82-4.49,19.55-4.62a53.89,53.89,0,0,1,6.33.18c2,7.07,8.83,9.29,15.23,5,11.94,6.48,19,16.5,21.23,29.82a73.87,73.87,0,0,1,1,9.95,13.74,13.74,0,0,1-5.57,12.05,36.14,36.14,0,0,1-18.29,7.61c-.94-5-6.1-9.22-11.48-9.32-5.93-.11-10.19,3.24-11.44,9a88.81,88.81,0,0,1-9.71-.59c-2.81-.33-5.42-.77-7.81-1.27-1.07-.2-6.31-1.23-10.05-3.79a12.43,12.43,0,0,1-3.42-3.26,11.53,11.53,0,0,1-1.23-2.29,11.53,11.53,0,0,0,4.85-4.51c1.39-2.5,1.3-4.79,1.19-7.45-.09-2.18-.38-7.49-4.22-11.72A14.44,14.44,0,0,0,972.91,265Zm66.12,6.25c0-6.85-5.67-13.42-11.68-13.44-5.69,0-11.21,6-11.2,12.22,0,6.54,6,12.84,12.06,12.78S1039,277.87,1039,271.28Zm-36,9c0-3.53-3.33-7.05-6.6-7-3,0-6,3.16-6,6.25.06,4,3,7.25,6.61,7.18A6.12,6.12,0,0,0,1003.07,280.29Zm2.73-23.6c0-3.33-2.26-5.43-5.77-5.44-3.21,0-5.71,2.21-5.65,5s3.15,5.36,6.78,5.33C1004,261.56,1005.83,259.64,1005.8,256.69Z" transform="translate(0 1)"/><path class="cls-4" d="M969.64,171.2c1.64-1.91,3.29-3.81,4.9-5.74a28.91,28.91,0,0,0,6.65-22.5q-.51-5.73-1-11.46c.78-1.65,1.55-3.31,2.32-5,3.53-7.21,7.16-14.38,10.53-21.67.74-1.6.57-3.62.82-5.45l.84-.22c.43.62,1.1,1.18,1.26,1.86,2.28,9.62,3.46,19.33,1.78,29.2-.74,4.35-1.48,8.7-2.16,13.06a5.72,5.72,0,0,0,.34,1.82c-.35.43-.87.8-1,1.28-1.39,4.48-2.61,9-4.09,13.47a68.42,68.42,0,0,0-3.64,21.23,67.58,67.58,0,0,0,1.06,12.4c.3,1.58.61,2.9.86,3.86.14.43.29.85.46,1.29.44,1.18.92,2.27,1.41,3.27l.88-.23q-.45-2.79-.88-5.56a35.61,35.61,0,0,1,1.68-12.08c1.42-4.33,2.44-7.77,5.19-14.45a71.52,71.52,0,0,1,5.06-10.26c.58-1,1.08-1.72,1.43-2.25a43.11,43.11,0,0,1,7.46-7.9c3.57-2.92,8-6.53,12.63-5.5a7.91,7.91,0,0,1,1.65.57c-.35.74-.89,1.85-1.51,3.21-3.14,6.88-4.61,11.43-9,24.36-6.16,18.19-.34,1.27-5.51,15.22a46.78,46.78,0,0,1-4.4,9.35,42.67,42.67,0,0,1-3,4.29c-1.73,2.23-3.27,4.08-4.5,5.51-1.84,2.13-2.66,2.94-3.87,3.11s-2.33-.36-4-1.55c-4.09-2.91-7.87-6.25-11.79-9.4a23.64,23.64,0,0,0-1.95-2.56c-6.49-6.53-7.93-14.53-6.92-23.27C969.6,172.1,969.61,171.65,969.64,171.2Z" transform="translate(0 1)"/><path class="cls-3" d="M58.32,179.92,62.7,163a14.89,14.89,0,0,1,8.37,1.69,16.23,16.23,0,0,0,12.67,1.09c6.34-2.09,12.59-4.51,18.79-7,3.56-1.42,8.71,1,9.08,4.72,1,10.26,1.87,20.53-.51,30.73-1.49,6.41-2.61,13.05-9,16.84-.38.22-.49.92-.72,1.39l-9.8.52a27.8,27.8,0,0,1,5.24-10.89l-.32-.62c-1.17.58-2.77.85-3.45,1.79-2.17,2.95-4,6.16-6,9.27l-4.73-.45c-.54-7.92-3.43-14.73-9.47-20A10.05,10.05,0,0,0,65,189.16c4.52,7.14,8.78,14.07,10,22.31a28.23,28.23,0,0,1-5.14-1.15A19.57,19.57,0,0,1,63.17,207a15.81,15.81,0,0,1-4.92-7.43,43.39,43.39,0,0,1,.07-19.63Z" transform="translate(0 1)"/><path class="cls-5" d="M920.18,230.64c.36-3.76,1.07-7.53,1-11.29-.12-10-5-17.71-14-21.61-4.63-2-10.46-2-15.69-1.75A42,42,0,0,1,879,195c-6.39-1.6-12.66-3.74-19.12-4.92-4-.74-8.31-.08-12.47-.15a9.78,9.78,0,0,1-2.48-.75c1.62-3.86,3.23-7.72,4.86-11.59.41-1,.86-2,1.29-2.95.86.28,1.72.55,2.57.84l17,5.69a70.41,70.41,0,0,0,25.82,5.68c8.57.21,17.17-.6,25.75-1a4.8,4.8,0,0,0,1.27-.44c4.14-.8,8.28-1.63,12.43-2.38,3.24-.58,6.5-1,9.76-1.56a192,192,0,0,1-2.9,44c-1.41,7.91-5.62,12.12-13.15,13.7-1.5.31-2.95.83-4.42,1.26,2-5,4.08-10,6.09-15,.41-1,.7-2,1.07-3.15a6.46,6.46,0,0,0-6.9,1.89C923.5,226.12,921.91,228.44,920.18,230.64Z" transform="translate(0 1)"/><path class="cls-5" d="M101.33,212.51c.23-.47.34-1.17.72-1.39,6.44-3.79,7.56-10.43,9-16.84,2.38-10.2,1.52-20.47.51-30.73-.37-3.72-5.52-6.14-9.08-4.72-6.2,2.48-12.45,4.9-18.79,7a16.23,16.23,0,0,1-12.67-1.09A14.89,14.89,0,0,0,62.7,163q1-6.4,2-12.8l8.25.61c7.8-.94,15.61-1.79,23.4-2.83,8.78-1.18,16.59-5.06,24.37-9a46.68,46.68,0,0,1,4.54-1.73c1,5.23,2.18,10.45,3,15.71,2.13,13.06,3.92,26.15,2.14,39.43-1.25-.58-2.55-1.16-3.9-1.71l-1.76-.71q1.32,1.74,2.66,3.61c.66.92,1.3,1.84,1.92,2.75-.25.48-.63,1.21-1.13,2.06-2,3.36-4.65,7.66-9.14,10.19a20.45,20.45,0,0,1-7.55,2.42,31.59,31.59,0,0,0-3.89,1Z" transform="translate(0 1)"/><path class="cls-3" d="M255.61,134.7l1.23-4.35c.2.38.41.76.75,1.37.48-.85.83-1.63,1.31-2.32,4.7-6.74,4.77-8.27,13.07-5.58a47.06,47.06,0,0,0,9.27,1.6c3.14.35,6.34.19,9.45.64s5.51,1.74,6.42,5.26c1.84,7.07,2.75,14.15,1.56,21.42a22.39,22.39,0,0,0-9.34,15.83l-4.52.24a26.14,26.14,0,0,1,.78-5.68,26.66,26.66,0,0,1,2.14-5.63,16.7,16.7,0,0,0-2.83,2.56,17.23,17.23,0,0,0-2.11,3,18,18,0,0,0-1.94,6l-2.86-.19a9.31,9.31,0,0,0-5-7.89,12.59,12.59,0,0,1,1.81,7.46,40,40,0,0,1-17-8.17h0c-4.11-6-4.67-12.54-3.3-19.44C254.94,138.79,255.26,136.75,255.61,134.7Z" transform="translate(0 1)"/><path class="cls-5" d="M742,153.09A43.53,43.53,0,0,1,744,180.71c-1,3.92-3.23,7.53-4.9,11.29l-.51.84-4.78,2.77a9.93,9.93,0,0,1-2,.91,8.27,8.27,0,0,1-1.29.34l-6.65-8.76c-.21-2.15-.1-4.39-.67-6.44-2.9-10.35-5.5-13.4-15.08-14.56a47.93,47.93,0,0,0-23.46,2.69c-.77.3-1.82-.13-2.73-.22l.15-9.86,7.56,1.06c8.11,1,16.23,1.88,24.39.63a89.18,89.18,0,0,0,26.69-8.06Z" transform="translate(0 1)"/><path class="cls-5" d="M298.67,152.74c1.19-7.27.28-14.35-1.56-21.42-.91-3.52-3.36-4.82-6.42-5.26s-6.31-.29-9.45-.64a47.06,47.06,0,0,1-9.27-1.6c-8.3-2.69-8.37-1.16-13.07,5.58-.48.69-.83,1.47-1.31,2.32-.34-.61-.55-1-.75-1.37.3-1.09.61-2.17.92-3.26l1.68-4.85q1.32-2.35,2.65-4.71L284.38,121a85.5,85.5,0,0,0,23.64.56l2.92.11c1.82,5.6,3.75,11.18,5.45,16.82,2.25,7.52,1.81,14.85-2.16,21.79-5.44,4.36-11.3,7.7-18.58,7.54a15.74,15.74,0,0,1,7.81-15.06,5.48,5.48,0,0,0-4.79,0Z" transform="translate(0 1)"/><path class="cls-6" d="M331.91,114.5a24.2,24.2,0,0,0,2.48-4.77,23.94,23.94,0,0,0,1.31-5,33.78,33.78,0,0,0,.05-7.76,20.42,20.42,0,0,0-2.06-7.47,24.22,24.22,0,0,1,5.73-12.74c4.6-4.66,11-5.44,15.93-6,1-.12,1.83-.19,2.42-.22a33,33,0,0,0-8.37,7.93,35.65,35.65,0,0,0-5.48,11.48,47.73,47.73,0,0,0-2.15,15.41,25.6,25.6,0,0,1,2.86-3c1-.88,9.89-8.55,21.09-6.75a21.83,21.83,0,0,1,4.11,1.09c-3.38.26-11.76,1.39-17.66,7.59-1.74,1.83-6.06,6.38-4.93,10.84a5.61,5.61,0,0,0,.51,1.33,9.93,9.93,0,0,1,8.77-3.56A26.55,26.55,0,0,0,348,122c-.61,1.11-1.22,2.22-1.82,3.34-.81,1.5-1.62,3-2.41,4.47a14.67,14.67,0,0,1-3.88-2.7,16.42,16.42,0,0,1-3.05-4.22C335.77,120.88,334.16,118.09,331.91,114.5Z" transform="translate(0 1)"/><path class="cls-7" d="M945.6,181.43c-3.26.52-6.52,1-9.76,1.56-4.15.75-8.29,1.58-12.43,2.38a14.66,14.66,0,0,1-1-3.81c0-5.37,1.17-10.51,4.7-14.7,6.27-7.46,13.21-7.23,22.51-2.41,5.07,2.63,7.56,7.05,8.69,12.43Z" transform="translate(0 1)"/><path class="cls-6" d="M188.73,131.63a25.29,25.29,0,0,1-2.31-7.64,25,25,0,0,1,.19-7.95l.76-.19c.39.82.74,1.65,1.16,2.45,1,2,4.8,8.56,7.73,14.8.38.81.63,1.35,1,2.14a61.1,61.1,0,0,1,3.38,10.21l2-10.67c.48-1.35.94-2.6,1.38-3.73.61-1.58.89-2.22,1.55-2.79a4.37,4.37,0,0,1,2.17-1,18.52,18.52,0,0,1,.61,2.06,21.33,21.33,0,0,1,.54,6.58,41.69,41.69,0,0,1-.61,9.13,55.35,55.35,0,0,1-3.09,10.31c-.43,1.12-.81,2-1.09,2.69-1,.8-2,1.56-2.86,2.42-2.4,2.3-5.19,2.94-8.14,1.5a34.83,34.83,0,0,1-5-3.6,18,18,0,0,1-2.49-4c-2.24-4.88-3.13-12.79-4.27-13.72a1.27,1.27,0,0,1-.54-.84.7.7,0,0,1,.18-.53c.33-.31,1.13-.1,2.05.52a24.21,24.21,0,0,1,4.33,3.75c1.6,1.82,2.59,2.95,4.13,4.95,1,1.35,1.87,2.5,2.45,3.32a41.71,41.71,0,0,0-.94-9A41.2,41.2,0,0,0,188.73,131.63Z" transform="translate(0 1)"/><path class="cls-5" d="M987.69,299.82c1.8.38,4.5.9,7.81,1.27,3.09.35,4.53.33,9.71.59,8,.4,7.9.63,11.69.68,4.63.06,8.49-.15,11.23-.36.16,3.56.5,12.41.07,20.19a10.68,10.68,0,0,1-1.29,4.91c-1.49,2.65-4.18,4.39-7.52,5.48-1.63,0-3.69.68-4.81-.06a5.58,5.58,0,0,0-1.44-.73,5.81,5.81,0,0,0-4.29.41c0-.17.11-.42.18-.73,2.46-9.81,3.19-10.19,3.35-13.18a16.92,16.92,0,0,0-2.14-8.8,5.27,5.27,0,0,0-1.21-1.39,6.33,6.33,0,0,0-4.67-1.31,36.56,36.56,0,0,1-8.09-.62c-3-.6-6-1.72-9-2.61C987.44,302.31,987.56,301.07,987.69,299.82Z" transform="translate(0 1)"/><path class="cls-3" d="M987.31,303.56c3,.89,5.92,2,9,2.61a36.56,36.56,0,0,0,8.09.62c2.52-.06,4.62.64,5.88,2.7,2.91,4.74,5.67,9.7,3.11,15.47-1,2.34-2.85,4.35-4.32,6.51-.17.71-.35,1.42-.52,2.13L1001,333q-.36-1.15-.78-2.31a67.8,67.8,0,0,0-6.48-13.39q.91,3.56,1.74,7.39.74,3.42,1.32,6.69l-4-1.7a22.42,22.42,0,0,0-7.2-17Z" transform="translate(0 1)"/><path class="cls-8" d="M852.28,250.77a63.9,63.9,0,0,1,4.7,5.07c2.07,2.8,2.1,5.42.41,7.2s-4.85,2-7.36.55a33.41,33.41,0,0,1-4-3.11c-2.56,4.7-7,6.76-10.28,4.69-3-1.92-3-6.25,0-10.26-7-3.2-8.36-5.18-6.23-9.35,2-3.93,6.09-4.09,11.73-.6a7.81,7.81,0,0,1,5.43-3.73c3.34-.37,7.21,1.92,7.5,5.09A6,6,0,0,1,852.28,250.77Z" transform="translate(0 1)"/><path class="cls-8" d="M42.07,220c-1.55-1.47-3.76-2.61-4.34-4.3-1.34-3.89,2.21-6.82,6.56-5.56A53.76,53.76,0,0,1,51,213.05c3.14-4.29,7-5.7,11.5-4.25a4.15,4.15,0,0,1,3,4.57c-.11,1.42-1.51,2.79-2.5,4.06a4,4,0,0,1-1.45.92c1.13,2.63,2.29,4.85,3,7.2a5,5,0,0,1-2.44,5.78c-2.07.92-4.33.2-5.87-2.08s-2.83-4.54-4.67-7.54c-1.28,2.16-2.21,3.81-3.21,5.4a17.73,17.73,0,0,1-2.63,3.67c-2.47,2.28-4.71,2.07-7-.35s-2.54-5.2-.33-7.47A33.51,33.51,0,0,1,42.07,220Z" transform="translate(0 1)"/><path class="cls-7" d="M742,153.09l-1.21.25c-2.79-2.46-4.06-5.73-4.68-9.24-1.11-6.39,2.79-15.14,11-16,5.57-.6,9.7,1.93,13.47,5.52l-2.63,4.81a32.55,32.55,0,0,1-3,4.53A34.86,34.86,0,0,1,742,153.09Z" transform="translate(0 1)"/><path class="cls-9" d="M978.42,198.38c3.92,3.15,7.7,6.49,11.79,9.4,1.67,1.19,2.89,1.71,4,1.55s2-1,3.87-3.11c1.23-1.43,2.77-3.28,4.5-5.51,3,2.67,4.42,6.35,3.6,9.61-.95,3.77-4.42,5.77-6.59,6.48A24.71,24.71,0,0,1,976.35,213C971.21,209.16,972.38,202,978.42,198.38Z" transform="translate(0 1)"/><path class="cls-6" d="M854.21,246.32l-1.53-3.18q-1.17-4.87-2.32-9.74a40,40,0,0,0-7-14.76l-9.92-12.54c3.87-1.2,6.28,1,8.83,2.69a43.45,43.45,0,0,1,15.31,29,33.39,33.39,0,0,1-.8,6C856.47,244.79,855.1,245.48,854.21,246.32Z" transform="translate(0 1)"/><path class="cls-8" d="M297.14,217.62c.93,1.93,2.14,3.59,2.46,5.41.19,1.09-.86,3.34-1.59,3.45a6.33,6.33,0,0,1-4.58-1.24c-1.42-1.23-2.19-3.22-3.59-5.45-.92,1.42-1.69,2.45-2.27,3.57-.95,1.81-2.19,3.49-4.36,2.74-1.29-.45-2.93-1.9-3.09-3.07-.18-1.33,1-2.92,1.84-4.27.4-.68,1.26-1.09,2.07-1.75-.52-.3-.73-.52-.95-.53-1.72,0-3.4-.19-3.48-2.44-.09-2.4,1.94-2.48,3.53-3,.16,0,.41-.11.53,0,3.87,2.57,7.71.23,11.57,0a3.35,3.35,0,0,1,3.84,2.7C299.47,215.56,298.86,217.09,297.14,217.62Z" transform="translate(0 1)"/><path class="cls-6" d="M75.06,211.47c-1.25-8.24-5.51-15.17-10-22.31a10.05,10.05,0,0,1,7.82,2.92c6,5.32,8.93,12.13,9.46,20a23.58,23.58,0,0,1,0,4.45A24.3,24.3,0,0,1,81.17,222a4.19,4.19,0,0,1-3.09,2.43,3.45,3.45,0,0,1-1.86-.35c0-2-.16-4.19-.38-6.47S75.37,213.38,75.06,211.47Z" transform="translate(0 1)"/><path class="cls-6" d="M178,217.47a1.36,1.36,0,0,1-1,.48,1.38,1.38,0,0,1-1-.44,12.57,12.57,0,0,1-1.84-2.83c-1.35-2.86-1.36-5.77-.69-10a51,51,0,0,1,4-14.33s3.57-7.87,8.69-12.3a12.87,12.87,0,0,1,3.43-2.1c.33-.13.59-.21.76-.26a.77.77,0,0,1,.42.52.83.83,0,0,1-.12.66c-.74,1.11-1.47,2.28-2.19,3.53a62.91,62.91,0,0,0-4.59,9.85,64.71,64.71,0,0,0-3.32,14.43c-.11,1.15-.66,4.28-1.37,8.52A41.57,41.57,0,0,1,178,217.47Z" transform="translate(0 1)"/><path class="cls-8" d="M641.2,190.43c-.58.72-1.29,1.6-2,2.47-1.27,1.55-2.74,2.46-4.67,1.13s-2.18-3.28-.7-5.45a10.62,10.62,0,0,1,.86-1c-1.13-4.21-.38-6.11,2.68-6.86.35-.09.78-.28,1-.16,3.22,1.44,6.46,1.1,9.82.54,2.13-.36,4,.57,4.36,3s-1.25,3.56-3.46,4a3.7,3.7,0,0,0-.68.31c.57,1.29,1.55,2.52,1.54,3.74a7.08,7.08,0,0,1-1.53,4.21c-.35.41-2.62-.18-3.46-.94C643.6,194.16,642.64,192.39,641.2,190.43Z" transform="translate(0 1)"/><path class="cls-4" d="M920.18,230.64c1.73-2.2,3.32-4.52,5.21-6.56a6.46,6.46,0,0,1,6.9-1.89c-.37,1.11-.66,2.15-1.07,3.15-2,5-4.06,10-6.09,15-.52,2.91-.87,5.87-1.63,8.72-.31,1.2-1.47,2.17-2.25,3.24-1.14-.85-2.81-1.49-3.28-2.62-.88-2.11-1.05-4.51-1.52-6.79.51-2.31,1-4.62,1.52-6.93Z" transform="translate(0 1)"/><path class="cls-10" d="M870.57,181.12l-17-5.69c-.85-.29-1.71-.56-2.57-.84l-6.61-2.85c3.87-5.67,9.54-5.73,15.6-4.05A14.76,14.76,0,0,1,870.57,181.12Z" transform="translate(0 1)"/><path class="cls-8" d="M164.33,234.25c.28,1.5.86,2.78.65,3.92a4.2,4.2,0,0,1-2,2.79c-.91.41-2.31,0-3.41-.4a3.27,3.27,0,0,1-1.52-1.51c-.93-1.77-2.05-1.93-3.68-.87-1.89,1.22-3.66.3-4.74-1.16a3.44,3.44,0,0,1,.53-5.05,6.67,6.67,0,0,0,1.34-2.36c.48-1.13.59-3.07,1.3-3.31,1.47-.48,3.25-.17,4.88,0,1.09.12,2.23,1,3.19.8,2.24-.49,4.3-.48,5.37,1.72S167,233.32,164.33,234.25Z" transform="translate(0 1)"/><path class="cls-11" d="M188.1,158.37a34.83,34.83,0,0,0,5,3.6c3,1.44,5.74.8,8.14-1.5.9-.86,1.9-1.62,2.86-2.42a5.85,5.85,0,0,1,2.25,2.17,6.42,6.42,0,0,1,.27,5.33,7.85,7.85,0,0,1-4.68,4.5c-2.92,1-5.8,2.42-9,1.16-4.46-2-8.12-4.58-7-10.37a3.31,3.31,0,0,1,1.29-2A3.16,3.16,0,0,1,188.1,158.37Z" transform="translate(0 1)"/><path class="cls-6" d="M894.68,267.53c5.34-1.28,9.36,1.85,14.86,11.19a20,20,0,0,1,5.05-3.17,11.34,11.34,0,0,1,5-1.21c1.54,0,3.76.45,3.83,1.15s-2.7,1-5.8,3.06a17.22,17.22,0,0,0-5.06,5.47c-2.73,4.48-2.29,8.28-3.81,8.45-1,.11-2-1.52-2.51-2.33a4.8,4.8,0,0,1-.54-2.88c.93-8.83-3.25-14.82-10.5-19.15A2.66,2.66,0,0,1,894.68,267.53Z" transform="translate(0 1)"/><path class="cls-10" d="M689.68,160.76l-7.56-1a45.66,45.66,0,0,1-12.78-6.4c2.88-5.34,7.57-7.36,12.81-5.53C686.87,149.43,690.52,155.72,689.68,160.76Z" transform="translate(0 1)"/><path class="cls-10" d="M1005.21,301.68c1.25-5.76,5.51-9.11,11.44-9,5.38.1,10.54,4.28,11.48,9.32-3.45.26-7.21.41-11.23.36C1012.7,302.31,1008.79,302.05,1005.21,301.68Z" transform="translate(0 1)"/><path class="cls-8" d="M764.21,237.45c-.38.87-.64,1.43-.88,2-.63,1.5-1.7,3.23-3.3,2.36-1.3-.71-1.93-2.7-2.78-4.17a12.78,12.78,0,0,1-.85-2.13C756,234.32,755,233,755.33,232s1.72-1.94,2.86-2.4a25.71,25.71,0,0,1,6.13-1.69c1.46-.19,3.36-.14,4.42.65.8.6.58,2.56.48,4,1.46,1.85,3.5,3.91,1.51,6.35C768.41,241.7,766.48,238.63,764.21,237.45Z" transform="translate(0 1)"/><path class="cls-8" d="M933.24,325.63c-1.31,2-1.9,5.1-5.27,3.83-1.88-.72-2-2.91-.8-5.37-.77-1.63-1.92-2.93-1.88-4.2.06-2.35,3-3.63,5.19-2.28,1.59,1,2.72,1.16,4.36.06,1.94-1.29,5-.32,5.65,1.85.29,1-.72,2.39-1.15,3.61l-.8-.25a12.37,12.37,0,0,1,1.8,3.21c.23,1.06.17,2.84-.48,3.3a3.82,3.82,0,0,1-3.42-.21C935.22,328.4,934.4,327,933.24,325.63Z" transform="translate(0 1)"/><path class="cls-11" d="M336.87,122.84a14.86,14.86,0,0,0,3.05,4.22,14.67,14.67,0,0,0,3.88,2.7c.79-1.48,1.6-3,2.41-4.47.6-1.12,1.21-2.23,1.82-3.34a6.11,6.11,0,0,1,3.3,2.19A7.4,7.4,0,0,1,352.5,129c0,.05,0,.11,0,.2a6.18,6.18,0,0,1-2.25,4.3,5.65,5.65,0,0,1-2.71,1.12,15.8,15.8,0,0,1-3,.42,16.38,16.38,0,0,1-4-.35,7.58,7.58,0,0,1-2.59-.94,7.66,7.66,0,0,1-3.19-3.79,6.18,6.18,0,0,1,.09-4.94A5.63,5.63,0,0,1,336.87,122.84Z" transform="translate(0 1)"/><path class="cls-8" d="M930.19,254a3.4,3.4,0,0,1-.26-1.3,4.15,4.15,0,0,1,1-2.62,5.44,5.44,0,0,1,1.75-1.47,9,9,0,0,1,1.34-.79,10,10,0,0,1,1.76-.67,6.25,6.25,0,0,1-3.38,0,6.35,6.35,0,0,1-3.23-2.15,2.79,2.79,0,0,1,.58-1.9,3.1,3.1,0,0,1,2.18-1.06,7.72,7.72,0,0,1,6.64,2.87c5.06-1.64,7.36-1.1,8.85,2a2.62,2.62,0,0,1-.33,1.38c-.79,1.34-3,1.87-5.45,1.22l.05.7a7,7,0,0,1,2.07,3.57,5.73,5.73,0,0,1,.12,1.05,3.91,3.91,0,0,1-2.47.74,4.24,4.24,0,0,1-3.19-2.1c0,.37-.06.75-.1,1.12l-1.61-.62c.18-.92.36-1.84.5-2.54a5.5,5.5,0,0,1-1.94,2.07A6,6,0,0,1,930.19,254Z" transform="translate(0 1)"/><path class="cls-10" d="M972.91,265a14.44,14.44,0,0,1,1.9,1.77c3.84,4.23,4.13,9.54,4.22,11.72.11,2.66.2,5-1.19,7.45a11.53,11.53,0,0,1-4.85,4.51c-2.75-6.5-2.56-13.2-1.34-20C972,268.68,972.48,266.86,972.91,265Z" transform="translate(0 1)"/><path class="cls-8" d="M1075.76,323.48a4.69,4.69,0,0,1-1.47,4.81,4.53,4.53,0,0,1-3.12.91,2.75,2.75,0,0,1-1.62-3.85l3.22-2.87c-.17-.24-.35-.47-.53-.7a4.85,4.85,0,0,1-6.38,1.6,3.34,3.34,0,0,1,.26-2.73,4.48,4.48,0,0,1,.75-.88,5.12,5.12,0,0,1,2.58-1c1.8-.33,2.85-.2,2.92-.53s-.67-.41-.81-1c-.19-.78.82-1.92,2-2.21a2.83,2.83,0,0,1,1.51.07c2.66.71,4.62,3.21,4.34,3.58-.16.22-1.12-.27-1.16-.19a9.34,9.34,0,0,0,1.52.84,8.62,8.62,0,0,1,2.72,1.83,6.1,6.1,0,0,1,1.26,3.13c-3.52,3.87-5-.63-7.68-2.15Z" transform="translate(0 1)"/><path class="cls-12" d="M188.51,202.27a28.88,28.88,0,0,1,3.13-6,15.72,15.72,0,0,1,3.91-4.37,13.26,13.26,0,0,1,5.19-2.24,1.77,1.77,0,0,1,.26,1.11,2,2,0,0,1-.89,1.24c-1.69,1.22-4.41,7.21-4.8,8.06a29.4,29.4,0,0,0-2.46,11.31,3.57,3.57,0,0,1-2.19,2.38,6.77,6.77,0,0,1-2.42-2.49,8.65,8.65,0,0,1-.62-5.47A13.89,13.89,0,0,1,188.51,202.27Z" transform="translate(0 1)"/><path class="cls-13" d="M298.67,152.74a5.48,5.48,0,0,1,4.79,0,15.74,15.74,0,0,0-7.81,15.06c.05,1.18.05,2.18,0,2.95-.05,2.64-.28,3.25-.52,3.69a3.48,3.48,0,0,1-4.62,1.69,9.09,9.09,0,0,1-1.34-3.22,9.47,9.47,0,0,1,.12-4.34,22.4,22.4,0,0,1,9.34-15.83Z" transform="translate(0 1)"/><path class="cls-12" d="M233.42,148.9c6.48-2.92,13.33,2.45,14.38,8.89a29.11,29.11,0,0,1,0,6.12,2.54,2.54,0,0,1-3.15,2.47c-1-.19-2-1.52-2.54-2.57a9.32,9.32,0,0,1-.59-3.67,10.93,10.93,0,0,0-5.66-9.47C235.12,150.21,234.45,149.65,233.42,148.9Z" transform="translate(0 1)"/><path class="cls-12" d="M161.26,195.89c-.88-1.75-1.77-3.5-2.88-5.69a11.65,11.65,0,0,1,4,1.64c2.64,1.74,3.74,4.12,5,7A30.45,30.45,0,0,1,170,211.4c.09,3.14-.26,5.15-1.69,6.38a4.48,4.48,0,0,1-1.52.85,3.26,3.26,0,0,1-1.44-1.49,3.15,3.15,0,0,1-.29-1.26C165.15,210.72,165,203.32,161.26,195.89Z" transform="translate(0 1)"/><path class="cls-14" d="M1055.11,210.1c-1.14,3.09-2.25,6.2-3.41,9.28a44.2,44.2,0,0,0-3,19.18c.06.79-.64,1.64-1,2.45-.75-.55-2-1-2.15-1.69-.57-3-1.41-6.1-1-9a36.77,36.77,0,0,1,7.61-18.06,21.81,21.81,0,0,1,2.62-2.45Z" transform="translate(0 1)"/><path class="cls-15" d="M1036.41,330.84a13.18,13.18,0,0,1-.55,2.07c-2.47,4.93-4.92,9.86-7.49,14.73-.37.69-1.41,1.57-2,1.47a3.55,3.55,0,0,1-2.06-1.78,6.83,6.83,0,0,1-.67-2.86c-.28-4.78,4.81-12,9.47-13.4A17.74,17.74,0,0,1,1036.41,330.84Z" transform="translate(0 1)"/><path class="cls-12" d="M908.55,244.3c-1.27-5-2.55-10.05-3.84-15.14,5.29,1.82,7,6.89,8.91,11.78l.6,2.32c-.14,2.25,0,4.59-.55,6.71-.32,1.16-1.94,2-3,2.93-.66-1.15-1.62-2.22-1.89-3.46A28.26,28.26,0,0,1,908.55,244.3Z" transform="translate(0 1)"/><path class="cls-12" d="M996.79,331.39q-.42-2.56-1-5.27c-.72-3.35-1.55-6.47-2.44-9.35,1.35.86,4.12,2.07,5,5,1.17,3.66,1.76,7.5,2.6,11.27.06.36.14.91.2,1.57a10.45,10.45,0,0,1-.73,5.9,7.25,7.25,0,0,1-1.92,2.29,6.91,6.91,0,0,1-1.72-3c-.41-1.58,0-2.59.06-5.41C996.9,333.1,996.84,332.07,996.79,331.39Z" transform="translate(0 1)"/><path class="cls-12" d="M738.29,193.78a14.88,14.88,0,0,1,3.48-3.18,18,18,0,0,1,2.66-1.3c3.08-1.34,4.24-1.16,4.69-1.07.12,0,1.59.32,1.65.93,0,.34-.37.63-.76.91-1.21.86-2.23,1.57-3,2.14a22.28,22.28,0,0,0-5.65,6.18,22,22,0,0,0-2.92,7.63,1.35,1.35,0,0,1-.88.54,1.29,1.29,0,0,1-.92-.2,6.72,6.72,0,0,1-1.49-2.42,9.65,9.65,0,0,1-.29-1.09C734.27,200.17,736.21,196.35,738.29,193.78Z" transform="translate(0 1)"/><path class="cls-12" d="M129.67,196.77a16.2,16.2,0,0,0-2.73-3.21c-.78-.7-1.62-1.31-3.15-2.73-.44-.4-.79-.74-1-1a6.77,6.77,0,0,1,4,.17,13.47,13.47,0,0,1,3.68,2.41,14.65,14.65,0,0,1,2.34,2.19,14.82,14.82,0,0,1,1.65,2.39l.45,1,.45,1c1.12,3.6,2,7.19,0,10.79a2.62,2.62,0,0,1-2.26.27c-.7-.34-1-1.12-1.27-2.27a31,31,0,0,1-.73-5.71A16.69,16.69,0,0,0,129.67,196.77Z" transform="translate(0 1)"/><path class="cls-12" d="M985.54,312.73a23.42,23.42,0,0,1,7.3,18.62c-.23,1.52.1,3.79-2.08,3.7s-1.62-2.34-1.8-3.86-.41-3.15-.62-4.73q-1.82-4.62-3.62-9.23a20.45,20.45,0,0,0-2.49-4.29,19.61,19.61,0,0,0-2.79-3,9.32,9.32,0,0,1,1,.08,9.12,9.12,0,0,1,4.07,1.73Z" transform="translate(0 1)"/><path class="cls-12" d="M87.05,212.58c.82-1.79,1.56-3.25,2.11-4.29,2.2-4.19,3.12-5,3.94-5.58a7.66,7.66,0,0,1,3.35-1.19l.32.62a28.09,28.09,0,0,0-2.39,3.6A25.42,25.42,0,0,0,91.53,213c-.08.35-.17.77-.25,1.34-.13.87.11,4.06-.29,6.59-.24,1.5-.63,2.3-1.3,2.76a2.71,2.71,0,0,1-.65.3,2.66,2.66,0,0,1-.86-.22,3.13,3.13,0,0,1-1.61-1.93,14.39,14.39,0,0,1-.26-6.89A14.21,14.21,0,0,1,87.05,212.58Z" transform="translate(0 1)"/><path class="cls-16" d="M323.91,164.45c4.37-.44,8.69,3.77,10.52,10,1.75,6,1.28,9.41-2,11.07a3.17,3.17,0,0,1-1.08-1,4.23,4.23,0,0,1-.46-3c.36-2.31-.52-7.75-2.63-11.37a18.78,18.78,0,0,0-3.95-4.75C324.15,165.27,324.12,165,323.91,164.45Z" transform="translate(0 1)"/><path class="cls-14" d="M1067.64,219.62a17.78,17.78,0,0,0-4.64,4.61c-2.12,3.12-4.94,9.59-6.7,13.13-.2.41-.67,1.5-1.33,1.34s-1.64-.89-1.63-1.38c0-2.34,0-4.76.7-6.45a18.31,18.31,0,0,1,7.61-9.1A17.77,17.77,0,0,1,1067.64,219.62Z" transform="translate(0 1)"/><path class="cls-17" d="M1008.51,333.6a1.74,1.74,0,0,1,.34-1.4,1.65,1.65,0,0,1,1.09-.57,6.07,6.07,0,0,1,3.2.16,5.63,5.63,0,0,1,1.44.73c1.12.74,3.18.09,4.81.06a2.72,2.72,0,0,1,.72,1.4,2.66,2.66,0,0,1,0,.68,1.34,1.34,0,0,1-.28.79,1.42,1.42,0,0,1-1.05.5c-.46.15-1.06.38-1,.57s1.67-.07,2.36.75.29,3-1,3.67a2.07,2.07,0,0,1-.85.25,2,2,0,0,1-1.42-.45c-.41-.39-.34-.82-.57-1.44-.43-1.14-1.59-2.21-2.46-2.08-.6.08-.68.7-1.45,1.38a4.82,4.82,0,0,1-2.93,1.08,2.27,2.27,0,0,1-1.36-1.26c-.38-1.29,1.26-2.57,1.61-2.85a5.29,5.29,0,0,1,2.22-1,2,2,0,0,1-2.69.8A1.88,1.88,0,0,1,1008.51,333.6Z" transform="translate(0 1)"/><path class="cls-12" d="M280.85,169.05a15.68,15.68,0,0,1,6.88-11.55,26.66,26.66,0,0,0-2.14,5.63,26.14,26.14,0,0,0-.78,5.68c.06,1.12.15,2.29.28,3.5s.23,2.16.38,3.18a2.42,2.42,0,0,1-1.78.51,2.1,2.1,0,0,1-1.39-.86,8.31,8.31,0,0,1-1.15-2.32A8.62,8.62,0,0,1,280.85,169.05Z" transform="translate(0 1)"/><path class="cls-18" d="M1035.83,368.55a20.3,20.3,0,0,1,3.21,1.94c4.9,4.65,7.59,10.25,7.06,17.14a3.78,3.78,0,0,1-.48,1.81,6.53,6.53,0,0,1-1.54,1.22c-.27-.52-.76-1-.79-1.55a30.52,30.52,0,0,0-3.29-13.29C1038.83,373.6,1037.51,371.46,1035.83,368.55Z" transform="translate(0 1)"/><path class="cls-10" d="M1029.76,242.57c-6.4,4.31-13.22,2.09-15.23-5C1020,238.1,1025.21,239.32,1029.76,242.57Z" transform="translate(0 1)"/><path class="cls-19" d="M1032.28,222c2-.55,3.58.36,4.81,1.88a18.58,18.58,0,0,1,4.05,14.74c-.11.75-.93,1.39-1.42,2.09a7.88,7.88,0,0,1-1.28-2c-1-3.66-1.57-7.42-2.74-11C1035.06,225.78,1033.56,224.1,1032.28,222Z" transform="translate(0 1)"/><path class="cls-19" d="M1064.75,369.36a58.79,58.79,0,0,0-6.14,5c-2,2.13-3.6,4.66-5.43,7a12.65,12.65,0,0,1-1.87,1.62,7,7,0,0,1-.94-2.31C1050.28,374.62,1058.27,368.17,1064.75,369.36Z" transform="translate(0 1)"/><path class="cls-18" d="M347.7,170c-1.78,3.54-3.52,7.11-5.38,10.61a2.49,2.49,0,0,1-1.73,1.28c-.56,0-1.33-.75-1.64-1.35-1.28-2.5-.14-6.26,3-8.76,1.54-1.24,3.59-1.83,5.41-2.72Z" transform="translate(0 1)"/><path class="cls-18" d="M900.69,291.54a18.24,18.24,0,0,0-2.56-5.83c-2.83-4.2-7-6.38-6.45-7.6.09-.19.32-.41,1-.52,1.79.7,8.74,3.57,9.6,8.83.28,1.7.17,5.19-.8,5.43A.92.92,0,0,1,900.69,291.54Z" transform="translate(0 1)"/><path class="cls-18" d="M797.57,193.86c-2.45-2.1-2.1-4.52-1.14-6.9,2-4.81,6.23-8.13,10.59-8C802,182.89,798.24,187.36,797.57,193.86Z" transform="translate(0 1)"/><path class="cls-20" d="M791,198.6c-1-6.06-2.08-11.46-7-15,2.64-.63,4.68.73,6.94,4.5S793.46,195.7,791,198.6Z" transform="translate(0 1)"/><path class="cls-21" d="M321.56,171.28c3.27.44,5,3.31,6.44,6.27a9.82,9.82,0,0,1,1,4.4,1.78,1.78,0,0,1-.35,1.12,1.88,1.88,0,0,1-.93.6,2.13,2.13,0,0,1-.64-.49,2.37,2.37,0,0,1-.55-1,80,80,0,0,0-2.93-7.57A19.21,19.21,0,0,0,321.56,171.28Z" transform="translate(0 1)"/><path class="cls-22" d="M274.83,168.43a16.69,16.69,0,0,0-.18-2.24A17.2,17.2,0,0,0,273,161a9.31,9.31,0,0,1,5,7.89c0,.43,0,1,0,1.7a18.54,18.54,0,0,1-.17,2c-.29,2.09-.66,2.52-.85,2.7a.93.93,0,0,1-1.61,0,2.28,2.28,0,0,1-.73-1.21Z" transform="translate(0 1)"/><path class="cls-23" d="M843.36,218.64a40,40,0,0,1,7,14.76C846,229.43,844,224.35,843.36,218.64Z" transform="translate(0 1)"/><path class="cls-24" d="M952.33,367.45c-3-3.61-1.18-8.43,4.08-11Z" transform="translate(0 1)"/><path class="cls-25" d="M1008.24,338.71c.76,1.29,1.72,2.46,2.75,2.39,1.7-.11,2.46-3.53,3.56-3.36s.75,3.6,2.54,4.28a2.57,2.57,0,0,0,2.46-.61,3.11,3.11,0,0,0,.91-2.76,2.67,2.67,0,0,1-1.36,2.07,1.73,1.73,0,0,1-2.32-.79c-.22-.39-.12-.48-.29-.9a3.37,3.37,0,0,0-1.74-1.6,3.75,3.75,0,0,0-.64-.22h-.25c-.77.07-1.07.78-1.7,1.33a3.33,3.33,0,0,1-2.61.82A2.67,2.67,0,0,1,1008.24,338.71Z" transform="translate(0 1)"/><path class="cls-26" d="M930.19,254a6.38,6.38,0,0,0,4.53-.43,6.13,6.13,0,0,0,2.3-2.09c-.17.85-.34,1.69-.5,2.54a3.78,3.78,0,0,1-4.11,1.89A3.65,3.65,0,0,1,930.19,254Z" transform="translate(0 1)"/><path class="cls-27" d="M914.22,243.26l-.6-2.32L918,236c-.51,2.31-1,4.62-1.52,6.93Z" transform="translate(0 1)"/><path class="cls-28" d="M929.43,246.4a4.13,4.13,0,0,1-.16-.61,4.27,4.27,0,0,1-.09-.82,6.35,6.35,0,0,0,3.23,2.15,6.25,6.25,0,0,0,3.38,0v0c0,.35-.85.47-1.45.63a5.73,5.73,0,0,0-1.65.78,4.07,4.07,0,0,1-1.93-.66A4,4,0,0,1,929.43,246.4Z" transform="translate(0 1)"/><path class="cls-26" d="M938.13,254.6l.1-1.12a4.19,4.19,0,0,0,1.49,1.54,3.65,3.65,0,0,0,4.17-.18,2.94,2.94,0,1,1-5.76-.24Z" transform="translate(0 1)"/><path class="cls-29" d="M984.72,317.23q1.8,4.62,3.62,9.23A9.54,9.54,0,0,1,984.72,317.23Z" transform="translate(0 1)"/><path class="cls-30" d="M1071.17,329.2a4.53,4.53,0,0,0,3.12-.91,4.69,4.69,0,0,0,1.47-4.81c0-.88.14-1.32.27-1.34s.35.53.6,1.62c-.14,1.28-.31,2.33-.45,3.1a4.29,4.29,0,0,1-.14.63,3.4,3.4,0,0,1-2.54,2.33A3.28,3.28,0,0,1,1071.17,329.2Z" transform="translate(0 1)"/><path class="cls-31" d="M945.39,251.26a3.47,3.47,0,0,1-3.69-1l-.05-.7c2.46.65,4.66.12,5.45-1.22a2.62,2.62,0,0,0,.33-1.38,4.33,4.33,0,0,1,.06,1.08,5.17,5.17,0,0,1-.26,1.13A3.78,3.78,0,0,1,945.39,251.26Z" transform="translate(0 1)"/><path class="cls-32" d="M1076.63,323.76c-.14-.39-.29-.78-.6-1.62,2.65,1.52,4.16,6,7.68,2.15-1,3.09-2.84,3.74-5.23,1.7A15.43,15.43,0,0,1,1076.63,323.76Z" transform="translate(0 1)"/><path class="cls-33" d="M487.83,193l11.42,8.19Z" transform="translate(0 1)"/><path class="cls-25" d="M1065.86,323.38a4.85,4.85,0,0,0,2.36.61,5.34,5.34,0,0,0,4-2.21l.53.7-3.22,2.87a2.31,2.31,0,0,1-1.7.54A2.56,2.56,0,0,1,1065.86,323.38Z" transform="translate(0 1)"/><path class="cls-33" d="M548.34,212.09h0" transform="translate(0 1)"/><path class="cls-33" d="M405.51,106.39l8.24,6.54Z" transform="translate(0 1)"/><path class="cls-33" d="M430,127.07l6.66,6.47Z" transform="translate(0 1)"/><path class="cls-33" d="M549.29,212,562,209.81Z" transform="translate(0 1)"/><path class="cls-33" d="M393,98.22l8.78,5.45Z" transform="translate(0 1)"/><path class="cls-2" d="M669.34,153.31l-6.86-5.64c-.43-1.44-.9-2.85-1.26-4.3-1.06-4.26,0-8.34,1.13-12.41,5.16,1.59,10.21-1.19,10.51-6.07.21-3.58-1.57-6.37-4.65-8.27,3.28-9.12,6.9-18.19,13.89-25.11a35.66,35.66,0,0,1,16.65-9.68c.26,7.12,5.34,11.39,11.46,9.62,4.07-1.17,7.52-5.89,7.67-10.48,8.15,1.53,16.32,3.26,22.64,9a47.49,47.49,0,0,1,9.16,10.91,191,191,0,0,1,10,20.72,18.08,18.08,0,0,1,.81,11.94c-3.77-3.59-7.9-6.12-13.47-5.52-8.18.89-12.08,9.64-11,16,.62,3.51,1.89,6.78,4.68,9.24a89.18,89.18,0,0,1-26.69,8.06c-8.16,1.25-16.28.39-24.39-.63.84-5.05-2.81-11.34-7.53-13C676.91,146,672.22,148,669.34,153.31ZM727.6,97.09c-3.76,0-6.16,1.84-7.07,5.42-1.21,4.74,2.51,12.18,7.28,14.56a6.88,6.88,0,0,0,8.42-1.45c2.92-3.09,2.84-6.58,1.41-10.33C735.76,100.35,731.86,97.08,727.6,97.09Zm-28.17,19.07c0-5.51-3.4-10.57-7.21-10.28-6.12.48-9.91,2.84-10,8.83-.11,5.35,3.33,10.28,9,10.24C696.15,124.92,699.42,121.45,699.43,116.16ZM719.24,142a6.8,6.8,0,0,0-6.78-6.71,3.93,3.93,0,0,0-4.17,4c.12,3.26,4.06,7.44,6.92,7.35A4.61,4.61,0,0,0,719.24,142Zm-36.57-3.32a2.35,2.35,0,0,0-2.39-2.14,2.2,2.2,0,0,0-2.08,2.13,2.14,2.14,0,0,0,1.7,2A2.51,2.51,0,0,0,682.67,138.65Z" transform="translate(0 1)"/><path class="cls-7" d="M144.51,92.76c-6.88,4.46-20.24,1.74-24.26-5.79-6.1-11.42.92-24.25,12.58-24.8Q138.67,77.46,144.51,92.76Z" transform="translate(0 1)"/><path class="cls-7" d="M73,150.85l-8.25-.61c-10.38-1.57-20.22-5-30-8.61,2.33-4.85,6.66-6.83,11.58-7.37,7.45-.81,14.49.69,20.38,5.61C70.07,142.69,72.61,146.21,73,150.85Z" transform="translate(0 1)"/><path class="cls-7" d="M833.12,94.31c1.7,1.4,3.74,2.53,5,4.23,4.2,5.48,4.65,12.7,1.42,17.77a17.58,17.58,0,0,1-18.1,7.47c2.94-7.86,5.86-15.73,8.86-23.57C831.13,98.19,832.19,96.28,833.12,94.31Z" transform="translate(0 1)"/><path class="cls-7" d="M33.72,49.21c6.36,3.18,9.81,8.5,10.69,15.38a10.79,10.79,0,0,1-3.74,9.28c-3.69,3.37-7.92,6-13.34,5.4A92.62,92.62,0,0,1,32.51,51.9,27,27,0,0,1,33.72,49.21Z" transform="translate(0 1)"/><path class="cls-7" d="M980.16,131.5q.52,5.73,1,11.46c-5.51,1.16-12.39-3.58-14.12-9.72-2.29-8.14,1.44-14.67,9.73-17.05q.84,2.67,1.66,5.34C979,124.85,979.6,128.18,980.16,131.5Z" transform="translate(0 1)"/><path class="cls-7" d="M943.71,45.81c-3.43,4.83-8.17,6.93-13.93,6-5.36-.86-9.51-3.86-11.13-9.17-.72-2.35-.09-5.1-.08-7.68A86.51,86.51,0,0,1,943.71,45.81Z" transform="translate(0 1)"/><path class="cls-7" d="M717.88,81c-.15,4.59-3.6,9.31-7.67,10.48-6.12,1.77-11.2-2.5-11.46-9.62A37.29,37.29,0,0,1,717.88,81Z" transform="translate(0 1)"/><path class="cls-7" d="M25.76,98.72c5,1.59,8.57,7.47,7.9,13a11,11,0,0,1-10.08,9.32Q24.67,109.9,25.76,98.72Z" transform="translate(0 1)"/><path class="cls-10" d="M281.32,60.81c-.18,4.48-3.1,7-6.68,8.77-4.67,2.29-9.61,3.15-14.71,1.3,5.39-4.9,11-9.46,18.7-10C279.52,60.84,280.42,60.84,281.32,60.81Z" transform="translate(0 1)"/><path class="cls-10" d="M819.14,143.93a9.37,9.37,0,0,1,2.81-.21c6.89,1.65,11.62,10.74,5.49,16.69A34.16,34.16,0,0,1,819.14,143.93Z" transform="translate(0 1)"/><path class="cls-10" d="M668.21,116.62c3.08,1.9,4.86,4.69,4.65,8.27-.3,4.88-5.35,7.66-10.51,6.07Q665.29,123.79,668.21,116.62Z" transform="translate(0 1)"/><path class="cls-4" d="M297.56,23.83c1.85.61,4.1.74,5.48,1.9,5.42,4.56,9.7,10,11.23,17.18.1.44.31,1,.15,1.32-.5,1.12-1.15,2.17-1.74,3.24-.67-.84-1.71-1.58-2-2.53a37,37,0,0,0-10.24-17.59c-1-.93-2.09-1.69-3.14-2.53Z" transform="translate(0 1)"/><path class="cls-4" d="M173.82,83.23c-.08-1.57-.63-3.31-.15-4.69,1.67-4.79,5-8.47,8.93-11.57a10.16,10.16,0,0,1,2.75-.92l-10.6,17.24Z" transform="translate(0 1)"/><path class="cls-34" d="M90,26.87c-3.79,4.26-10.06,4-15,.6a16.61,16.61,0,0,1-2.06-2Z" transform="translate(0 1)"/><path class="cls-35" d="M244.25,109.72c6.05-2.84,11.31-.14,12.42,6.39C251.89,115.23,247.21,114.13,244.25,109.72Z" transform="translate(0 1)"/><path class="cls-36" d="M163.13,70.12c3.86,1.93,5.33,5,6.09,8.38a25.27,25.27,0,0,1,.14,7.17c-.05.72-1,1.39-1.55,2.08a8.41,8.41,0,0,1-1.06-2.23c-.53-3.37-.8-6.79-1.45-10.14C165,73.75,164,72.25,163.13,70.12Z" transform="translate(0 1)"/><path class="cls-37" d="M322.06,50.57c-.21-3.66-.09-6.86-.67-9.94s-1.86-5.93-2.78-8.75C323.51,34.27,326.33,46.42,322.06,50.57Z" transform="translate(0 1)"/><path class="cls-38" d="M333.69,89.51c2.45,4.84,2.37,10,2,15.23-3.71-4.83-5-10.07-2.69-15.9Z" transform="translate(0 1)"/><path class="cls-7" d="M932.89,114.14c-8.07-.21-14.31-4.66-19.26-11.47a33.4,33.4,0,0,1-6.44-16.8c-1-11.17,6.76-19.38,18.17-17.94,5.89.74,10.75,2.3,14.71,6.43a34.57,34.57,0,0,1,9.6,18.53A19.74,19.74,0,0,1,948.12,105C945.19,111.15,940.25,114,932.89,114.14Z" transform="translate(0 1)"/><path class="cls-7" d="M854.69,111.12c0-6.88,4-11.27,10.41-11.26,8.85,0,13.66,4.57,13.65,13,0,7.32-4.76,12.15-11.94,12.15C859.81,125,854.7,119.12,854.69,111.12Z" transform="translate(0 1)"/><path class="cls-7" d="M877.22,63.62c-1,2.62-1.61,5.35-3,7.53a8.39,8.39,0,0,1-14.45-.67c-2.12-3.87-2.57-7.94-.11-11.9a33.93,33.93,0,0,1,3.31-4.64,6.81,6.81,0,0,1,11.4,1.33C875.65,57.75,876.22,60.64,877.22,63.62Z" transform="translate(0 1)"/><path class="cls-7" d="M913.72,148.31c0,3.39-.88,5.69-3.49,6.9s-5.45,1.41-8-.51c-3.55-2.72-6.12-6.16-5.16-10.82,1.16-5.67,7-7.64,11.55-4C911.55,142.13,913.87,144.92,913.72,148.31Z" transform="translate(0 1)"/><path class="cls-10" d="M863.41,148c0-3.59,2.14-5.68,5.78-5.68a8.07,8.07,0,0,1,7.71,7.61,6,6,0,0,1-6,6.07C866.85,156,863.38,152.32,863.41,148Z" transform="translate(0 1)"/><path class="cls-39" d="M942,139c-.27,1.5-.61,3.35-2.94,3.56-1.61.15-4-2.84-3.83-4.9a3.32,3.32,0,0,1,3.25-3.37C940.31,134.15,942,136.38,942,139Z" transform="translate(0 1)"/><path class="cls-7" d="M84.37,50.8C92.52,51,97.78,56,98,63.37c.18,6.08-5.68,12-12.53,12.41A10.77,10.77,0,0,1,77,72.07C71.78,66.63,71.8,57.82,77,53A8.94,8.94,0,0,1,84.37,50.8Z" transform="translate(0 1)"/><path class="cls-7" d="M69.14,104.58A8.56,8.56,0,0,1,61,112.84c-4.55.12-9.32-5.1-9.36-10.21,0-4.76,3.67-8.75,8.13-8.78C64.64,93.82,69.16,99,69.14,104.58Z" transform="translate(0 1)"/><path class="cls-7" d="M91.46,118.94a7.74,7.74,0,0,1,8.08,7.23c.15,3.86-3.54,7.46-7.55,7.38-3.71-.08-7.65-4.19-7.61-7.94S87.38,119,91.46,118.94Z" transform="translate(0 1)"/><path class="cls-39" d="M94.73,96.82c0,2.6-1.15,4.11-3.21,4.13s-4.25-2.43-4.34-4.78a4.07,4.07,0,0,1,3.68-3.94C93.13,92.18,94.7,94.05,94.73,96.82Z" transform="translate(0 1)"/><path class="cls-39" d="M130.25,118.61c.21,2.18-1.25,3.15-3.25,3.35-2.18.23-4-1.91-3.94-4.28a2.91,2.91,0,0,1,3.31-3.12C128.88,114.58,130.26,116,130.25,118.61Z" transform="translate(0 1)"/><path class="cls-7" d="M306.13,80.21c7.52-.25,12.2,7.49,11.39,12.19a8.64,8.64,0,0,1-6.44,7.35,10,10,0,0,1-10.65-2.89c-2.22-2.47-4.28-5.16-3.56-8.93C297.8,83.06,301.17,80.2,306.13,80.21Z" transform="translate(0 1)"/><path class="cls-7" d="M262.72,92.34A7.72,7.72,0,0,1,255,99.78c-4.21-.09-8.62-4.53-8.61-8.68A7.71,7.71,0,0,1,254,83.49,8.77,8.77,0,0,1,262.72,92.34Z" transform="translate(0 1)"/><path class="cls-10" d="M308,121.54a85.5,85.5,0,0,1-23.64-.56c-.15-3,1.57-5,4-6.26,6.54-3.39,13.07-3.53,17.3,1.76C306.82,117.89,307.26,119.84,308,121.54Z" transform="translate(0 1)"/><path class="cls-39" d="M285.63,100.21a4.25,4.25,0,0,1-4.52,4.54,5.22,5.22,0,0,1-4.85-5.44c0-2.79,1.76-4.46,4.62-4.4C284,95,285.65,96.86,285.63,100.21Z" transform="translate(0 1)"/><path class="cls-7" d="M1039,271.28c0,6.59-4.62,11.5-10.82,11.56s-12-6.24-12.06-12.78c0-6.22,5.51-12.25,11.2-12.22C1033.36,257.86,1039.06,264.43,1039,271.28Z" transform="translate(0 1)"/><path class="cls-10" d="M1003.07,280.29a6.12,6.12,0,0,1-6,6.4c-3.57.07-6.55-3.17-6.61-7.18,0-3.09,3-6.23,6-6.25C999.74,273.24,1003,276.76,1003.07,280.29Z" transform="translate(0 1)"/><path class="cls-10" d="M1005.8,256.69c0,2.95-1.78,4.87-4.64,4.9-3.63,0-6.72-2.39-6.78-5.33s2.44-5,5.65-5C1003.54,251.26,1005.78,253.36,1005.8,256.69Z" transform="translate(0 1)"/><path class="cls-40" d="M990.62,196.15a.29.29,0,0,1,.31,0q.44,2.78.88,5.56l-.88.23a47.44,47.44,0,0,1-1.87-4.56C989,197.16,990.07,196.57,990.62,196.15Z" transform="translate(0 1)"/><path class="cls-3" d="M683.35,180.24A37.3,37.3,0,0,1,682,169.57c.59-.2,1.52-.5,2.68-.83a51.82,51.82,0,0,1,23.51-1.64c4.67.83,7,1.25,9.36,3.21,2.62,2.18,4.13,5.66,5.72,11.35.57,2.05.46,4.29.67,6.44-1.73-1.24-3.34-1.43-3.89-.8-.09.1-.38.47-.14,1.42a22.41,22.41,0,0,1,3.5,5.4,21.18,21.18,0,0,1,1,2.78l.28,1.39a84,84,0,0,1-13.25,1.39c-4.14.1-6.21.1-8.28-.33s-9.52-1.91-14.87-8.47C685.29,187.17,684.25,183.44,683.35,180.24Z" transform="translate(0 1)"/><path class="cls-6" d="M723.38,194.12q-1.75-2.7-3.5-5.4c-.24-.95,0-1.32.14-1.42.55-.63,2.16-.44,3.89.8a18.44,18.44,0,0,1,6.65,8.76,21.45,21.45,0,0,1,1.19,4.93,18.29,18.29,0,0,1-.09,4.36,9.74,9.74,0,0,1-.81,3.17,4.14,4.14,0,0,1-.5.85c-1.31,1.84-3.37,1.54-4.11-.59-.15-.43-.27-.86-.38-1.3a22.55,22.55,0,0,1-.79-3.89c-.55-3.91.07-4.8-.64-7.49A13.54,13.54,0,0,0,723.38,194.12Z" transform="translate(0 1)"/><path class="cls-7" d="M727.6,97.09c4.26,0,8.16,3.26,10,8.2,1.43,3.75,1.51,7.24-1.41,10.33a6.88,6.88,0,0,1-8.42,1.45c-4.77-2.38-8.49-9.82-7.28-14.56C721.44,98.93,723.84,97.09,727.6,97.09Z" transform="translate(0 1)"/><path class="cls-7" d="M699.43,116.16c0,5.29-3.28,8.76-8.21,8.79-5.69,0-9.13-4.89-9-10.24.11-6,3.9-8.35,10-8.83C696,105.59,699.44,110.65,699.43,116.16Z" transform="translate(0 1)"/><path class="cls-10" d="M719.24,142a4.61,4.61,0,0,1-4,4.68c-2.86.09-6.8-4.09-6.92-7.35a3.93,3.93,0,0,1,4.17-4A6.8,6.8,0,0,1,719.24,142Z" transform="translate(0 1)"/><path class="cls-41" d="M682.67,138.65a2.51,2.51,0,0,1-2.77,1.95,2.14,2.14,0,0,1-1.7-2,2.2,2.2,0,0,1,2.08-2.13A2.35,2.35,0,0,1,682.67,138.65Z" transform="translate(0 1)"/><path class="cls-42" d="M951.88,277.73" transform="translate(0 1)"/><path class="cls-41" d="M682.67,138.65" transform="translate(0 1)"/><path class="cls-28" d="M930.46,244.86" transform="translate(0 1)"/><path class="cls-22" d="M277.36,170.07" transform="translate(0 1)"/></svg>