<?xml version="1.0" encoding="utf-8"?>
<!-- Generator: Adobe Illustrator 24.0.2, SVG Export Plug-In . SVG Version: 6.00 Build 0)  -->
<svg version="1.1" id="Layer_1" xmlns="http://www.w3.org/2000/svg" xmlns:xlink="http://www.w3.org/1999/xlink" x="0px" y="0px"
	 viewBox="0 0 1178.18 130.91" style="enable-background:new 0 0 1178.18 130.91;" xml:space="preserve">
<style type="text/css">
	.st0{fill:#CFC3FE;}
</style>
<g>
	<g>
		<path class="st0" d="M0.55,80.39c15.07-4.97,30.37-9.35,45.14-15.06c20.24-7.83,39.56-18.33,60.2-24.72
			c29.37-9.09,57.62-1.18,84.85,10.93c23.08,10.26,45.97,21.05,69.48,30.23c29.71,11.61,60.05,12.39,90.59,1.91
			c41.65-14.28,80.96-7.34,120.67,10.21c49.23,21.76,100.63,27.53,149.84,0.14c28.76-16.01,54.82-36.77,82.41-54.92
			c20.91-13.76,43.23-24.56,68.84-26.02c27.83-1.59,49.79,12.06,69.88,28.83c21.68,18.1,43.69,36.21,72.36,40.28
			c15.23,2.16,31.93,0.49,46.9-3.45c23.85-6.28,41.39,1.03,59.13,16.36c42.27,36.53,106.95,44.68,155.51,7.53
			c0.41-0.31,0.92-0.5,1.83-0.98c0,10.17,0,19.98,0,29.79c-391.73,0-783.46,0-1175.2-0.1c-0.81,0-2.33-1.53-2.34-2.36
			C0.51,112.8,0.55,96.59,0.55,80.39z"/>
	</g>
</g>
</svg>
