<?xml version="1.0" encoding="utf-8"?>
<!-- Generator: Adobe Illustrator 24.0.2, SVG Export Plug-In . SVG Version: 6.00 Build 0)  -->
<svg version="1.1" id="Layer_1" xmlns="http://www.w3.org/2000/svg" xmlns:xlink="http://www.w3.org/1999/xlink" x="0px" y="0px"
	 viewBox="0 0 1178.18 130.91" style="enable-background:new 0 0 1178.18 130.91;" xml:space="preserve">
<style type="text/css">
	.st0{fill:#99EDFE;}
</style>
<g>
	<g>
		<path class="st0" d="M1178.18,131.45c-392.55,0-785.09,0-1177.64,0C0.36,98.19,0.18,64.93,0,31.66c0.57-0.44,1.4-1.06,2.41-1.8
			c6.06-4.42,19.08-13.78,38.15-19.38c15.17-4.46,30.68-5.87,46.27-3.82c9.34,1.23,18.61,3.7,27.64,6.5
			c11.89,3.68,23.42,8.49,33.45,16.08c8.23,6.23,16.08,12.96,24.29,19.23c6.91,5.29,14.89,9.23,23.58,8.31
			c13.74-1.45,27.31-4.42,40.98-6.55c11.15-1.73,22.3-2.23,33.35,0.94c22.27,6.38,41.4,18.29,58.66,33.34
			c12.44,10.85,25.62,20.5,40.65,27.48c14.17,6.58,29.04,10.02,44.6,7.06c26.34-5.01,49.62-16.93,71.27-32.41
			c21.74-15.55,42.55-32.39,66.07-45.44c15.4-8.55,31.52-14.78,48.8-17.9c14.97-2.71,30.02-2.42,45.19-1.18
			c17.62,1.43,34.33,6.34,50.91,11.73c10.4,3.39,20.31,8.26,30.51,12.3c18.38,7.27,37.12,13.24,57.25,10.79
			c12.46-1.52,25.01-3.22,37.13-6.35c19.91-5.14,39.53-11.54,60.51-8.21c9.45,1.5,19.25,2.23,28.15,5.38
			c14.46,5.13,28.29,12.02,42.44,18.06c16.66,7.1,33.27,14.32,50.09,21.03c12.58,5.01,25.84,7.74,39.34,8.69
			c13.83,0.97,27.6-0.99,40.39-5.84c16.67-6.32,32.73-14.28,48.97-21.69c14.11-6.44,28.21-12.82,43.66-15.59
			c1.52-0.27,2.4-0.21,2.91,0.26c0.51,0.47,0.64,1.36,0.63,2.74C1178.15,80.76,1178.18,106.1,1178.18,131.45z"/>
	</g>
</g>
</svg>
