<svg id="Layer_1" data-name="Layer 1" xmlns="http://www.w3.org/2000/svg" viewBox="0 0 2851.61 1047.76"><defs><style>.cls-1{fill:#a1ff7d;}.cls-2{fill:#7bffb8;}.cls-3{fill:#57dd8c;}.cls-4{fill:#83df9c;}.cls-5{fill:#6bd788;}.cls-6{fill:#39e46d;}.cls-7{fill:#a5edb9;}.cls-8{fill:#87ffdc;}.cls-9{fill:#90fd8c;}.cls-10{fill:#fefffe;}.cls-11{fill:#a3f6cc;}.cls-12{fill:#9cffab;}.cls-13{fill:#53f2b4;}.cls-14{fill:#a5f7cf;}.cls-15{fill:#7cff8f;}.cls-16{fill:#a5f7ce;}.cls-17{fill:#a4f7ce;}.cls-18{fill:#f9fffc;}.cls-19{fill:#90fd8d;}.cls-20{fill:#a4f6cd;}.cls-21{fill:#a7f7cf;}.cls-22{fill:#a5f5cd;}.cls-23{fill:#a3f5cc;}.cls-24{fill:#f1fff7;}.cls-25{fill:#f4fff9;}.cls-26{fill:#e6fcee;}.cls-27{fill:#d0f5de;}.cls-28{fill:#eaffed;}.cls-29{fill:#8ffd8f;}.cls-30{fill:#c7ffe1;}.cls-31{fill:#e7fff2;}.cls-32{fill:#e9fff3;}.cls-33{fill:#9dfc7f;}.cls-34{fill:#8ef780;}.cls-35{fill:#94f97f;}.cls-36{fill:#81f083;}.cls-37{fill:#e9fbf0;}.cls-38{fill:#97eab6;}.cls-39{fill:#fdfffe;}.cls-40{fill:#90fc8d;}.cls-41{fill:#fafefb;}.cls-42{fill:#dafbdc;}.cls-43{fill:#a5f6cd;}.cls-44{fill:#a5f6ce;}.cls-45{fill:#a8f6ce;}.cls-46{fill:#f7fef9;}.cls-47{fill:#f2fef8;}.cls-48{fill:#a5f3c9;}.cls-49{fill:#effcf3;}.cls-50{fill:#fcfefd;}.cls-51{fill:#7effd9;}.cls-52{fill:#a7fdd8;}.cls-53{fill:#7effd8;}.cls-54{fill:#a5fdd7;}.cls-55{fill:#7bfed6;}.cls-56{fill:#9dfcd4;}.cls-57{fill:#91fbcf;}.cls-58{fill:#92fbd0;}</style></defs><title>midcompressed</title><path class="cls-1" d="M2402,1716a20.65,20.65,0,0,1,1.75-3.56c14.38-19,22.15-40.71,25.6-64,4.2-28.28,8.12-56.58,8.32-85.29.2-27.79-7.94-52.72-21.66-76.75-12-21.1-27.54-39.08-43.67-56.85s-32.07-35.64-47.57-53.91c-8.67-10.22-14.95-21.85-17.32-35.46-4.17-23.9,13.92-41.15,37.72-35.34,16.53,4,29.88,12.91,38.95,27.49,5.28,8.47,9.81,17.41,15.12,25.86a56.4,56.4,0,0,0,9.57,11.39c4.09,3.73,7.21,2.72,9-2.54a43.82,43.82,0,0,0,1.29-22.65c-3.64-18.61-13.7-33.73-25.51-48-13.88-16.74-30.18-31-46.51-45.19-14.28-12.44-26.34-26.59-30.17-45.87-2.56-12.89-1.47-25.14,7.94-35.59,9.14-10.15,20.8-13,33.57-11.38,17.77,2.21,31.95,10.78,41.88,26,5.27,8.08,10.62,16.12,16.11,24.05,3.12,4.51,7.26,7.73,12.91,8.59,4.55-2.09,5.64-6.32,6.73-10.53,5.53-21.34-1.63-40.12-12.33-57.89-13.92-23.13-33.58-41.18-53.8-58.61-10.38-8.94-20.23-18.24-27.47-30.12a72.5,72.5,0,0,1-10.28-46.92c2.72-24.73,32.11-46,56.43-40.56,13.63,3.07,23.4,12.51,31.21,23.61,5.16,7.33,9,15.55,13.89,23.1,3.77,5.84,7.55,11.95,12.52,16.68,7.45,7.08,13.41,6.8,16.45-4.39a57.07,57.07,0,0,0,.43-28.66,151.43,151.43,0,0,0-9.44-27.27c-10.12-22.1-16-45.21-16.74-69.37-.55-18.58,7.8-33.46,23.07-44.12a114.32,114.32,0,0,1,51.81-19.57c15.24-1.92,32.28,7.49,39.62,22,10.51,20.77,11.06,42.18,2.57,63.78-7.55,19.2-15.83,38.12-22.78,57.53-3.44,9.6-4.94,20-6.68,30.07-1.07,6.27-.41,12.6,5.2,18.84,2.85-2.86,6-5.16,8-8.25,5-7.83,9.83-15.85,14.17-24.09,8.19-15.55,20.11-26.53,37.35-30.74,21.09-5.16,34-1.46,46.47,17.25,6.62,9.93,9.72,21.06,10.61,32.88-7.18-1.87-14.24-1.49-21.48.27-22.51,5.48-38.22,18.78-47.13,40.1-7,16.78-7.23,34.09-3.77,51.66-19.15,5.63-37.84,12.51-55.32,22.24-5.93,3.3-10.62,8-10.55,15.66-12.25-2.86-23.64.13-34.35,5.77a31,31,0,0,0-9.51,8.43c-7.74,10-8,21.57-4.76,33.12,5.4,19.53,15.63,36.46,29.53,51.14,8.85,9.33,17.89,18.47,26.84,27.7-11.11,3.31-19.4,10.26-25.55,19.94a79.45,79.45,0,0,0-8.76,1.58c-10.62,3.12-17,8.86-18.9,15.81-2.4,9,4.25,17.57,8.69,23.34a47.17,47.17,0,0,0,8.62,8.63c2.33,1.86,4.9,3.77,7.69,5.67,2.29,1.56,4.52,3,6.67,4.25a26,26,0,0,0,3.69,2.59c.68.4,1.21.65,1.28.7,22.32,13.79,42.15,30.82,61.76,48.07,10.41,9.16,20.36,19,27,31.51-5.21,4.64-10.45,9.24-15.61,13.92-13,11.82-26.18,23.53-39,35.6a42.67,42.67,0,0,0-8.91,11.87c-18.46,37.78-29.07,77.72-29.86,119.78a129,129,0,0,0,11.42,56.1c6.37,14.12,15,26.54,23.9,38.92Z" transform="translate(-2 -668.24)"/><path class="cls-2" d="M1524.13,1226c.95-.28,2.18-.27,2.8-.88,10-9.89,21.47-8.71,33.37-4.65,1.26.43,2.47,1,3.7,1.47l31.74,24.09a108.23,108.23,0,0,0,35.6,33.38c6.72-8.84,6.91-17.06-.62-24.76-9-9.25-19.47-17-32.44-20.27l-32-20.45c-8.78-9.07-17.27-18.34-23.41-29.53a53.31,53.31,0,0,1-6.76-25.7,28.1,28.1,0,0,1,27.06-28.75c4.31-.22,8.64,0,13,0,9.06,1.75,16.69,6.17,23.33,12.46,4.09,3.87,8.22,7.7,12.33,11.55,6.7,8.2,13.26,16.52,20.17,24.54,4.2,4.88,8.3,10.25,15.78,11.13,4.69-8,4.45-15.71.26-22.93-7.93-13.65-20.65-20.77-35.6-24.41-3.94-3.35-7.54-7.26-11.9-9.92a83.42,83.42,0,0,1-22.34-20.34c-.87-2.14-1.67-4.32-2.63-6.42-5.08-11.12-4.76-21.74,2.89-31.7,11.14-6.12,22.56-10.6,35.51-6,16,3.3,28.84,11.59,39.31,24a93,93,0,0,0,10.55,10.64c2.61,2.25,5.9,3.72,8.92,5.56,4.83-5.39,3.9-10.37,1-14.58a62.55,62.55,0,0,0-11.19-12.51c-13-11-23.66-23.36-27.45-40.54-4.43-20.13,3.6-34,23.25-39.72,17.13-5,34.2,2.11,42.34,19,3.67,7.65,4.93,16.45,7.25,24.73,1,3.68,2,7.38,3.26,12.15,7.66-6,8.16-13.25,8.94-20.4,1.16-10.56,1.51-21.31,3.87-31.6,6-26.39,26-33.24,47.48-30.23,10.64,1.49,17.73,8.59,20.67,19.3,3.41,12.38,2.05,24.28-2.85,36.07-6.6,15.89-15.43,30.18-28.25,41.86-2,1.82-3.46,4.2-5.18,6.33l1.61,2c3.89-2.12,8-4,11.62-6.44,3.85-2.6,7.3-5.78,10.92-8.72a49.69,49.69,0,0,1,24.54-10.35c13.42-2,23.51,5.72,25.44,19.22,4,27.82-9.75,50.17-36.71,58.56-8.82,2.75-18.16,3.85-27.26,5.7l-20,.14-14.3,1.69-8.56,2.34.37,1.6h8.59l14.31-1.6,19.68-.67c18.67,1.56,29.93,10.26,34.27,26.46,2.83,10.6-1.68,23.62-10.43,30.14a40.16,40.16,0,0,1-23.12,8.07c-13.59.48-27.17,1.21-40.76,1.84l-27.67,4.27-4.73,2.18.42,1.94,12.18-2.18L1748,1212c17.72,3.73,28.33,14.62,32.57,32.09,2.59,10.66-1.28,18.82-9.45,25.29a75.16,75.16,0,0,1-31.15,14.56c-12.25-.6-24.49-1.55-36.73-1.63a47.79,47.79,0,0,0-15.43,3c-3.67,1.25-8.23,2.56-9.55,9.25,8.41-.51,16-.32,23.38-1.56,15.38-2.6,30.64-5.8,46.37-5,9.72,3.23,16.32,10.64,21.43,18.62,7.53,11.77,5.2,24.39-1.31,36-7.85,14-20.89,19.83-36.3,21.36-6,.59-11.89,1.34-17.83,2-10.23-.07-20.46-.22-30.69-.19-4.69,0-9,1-11,6.84.93.25,2.42.63,4.25,1,27.41,5.66,40.55-8,64.63-3.58,6.36,1.18,14.46,3,19.48,9.55,4.15,5.46,5.5,13,3.82,22.43a51.8,51.8,0,0,1-1.23,6.86c-8.68,27.06-15.55,30-39.62,34.59-14.2,2.7-29.1,1.74-43.69,2.27-5.32.2-10.67.18-16-.14-9.35-.58-15.93,3.89-21,11.1-4,5.71-7.67,11.7-11.78,17.34-6,8.26-5.53,17.67-4.69,26.91,1.26,13.72,4.79,26.87,13,38.26,12.09,16.69,24,33.51,36.55,49.87,13.93,18.17,21.39,38.28,19.74,61.23s-9.22,43.46-25.48,60.28c-1.59,1.65-2.87,3.59-4.29,5.39h-60l10-15a49.15,49.15,0,0,0,7.61-31.37c-1.46-18.08-5.81-35.56-15.88-50.91-8.76-13.34-18-26.36-27.61-39.11a131.75,131.75,0,0,1-21.78-45.63,54.67,54.67,0,0,1-1.73-16.75,122,122,0,0,1,13.36-49.71c5.77-11.25,11.23-22.68,16.29-34.26a136.89,136.89,0,0,0,7-20.74,27.37,27.37,0,0,0-3.34-22.14c-5.47-8.39-11.69-16.41-23.7-14.44-1.39-1.3-2.57-3.07-4.21-3.83-7.62-3.51-15.37-6.75-23.07-10.08-10.25-8.78-20.27-17.75-26.8-29.87-.72-2.86-1.29-5.77-2.2-8.57-3.8-11.82-3-22.66,6.38-31.81,9.85-2.06,19.46-2,28.75,2.62,1.94,1,4.37.92,6.57,1.34a43.41,43.41,0,0,0,4.12,4.13c7.79,6,15.65,11.94,23.49,17.9,6.24,6.38,12.09,13.22,18.88,19,4.16,3.51,9.56,5.85,14.77,7.7,5.64,2,10.19-1.81,9-7.58a14.39,14.39,0,0,0-5.77-8.5c-10.12-6.26-20.65-11.83-31.11-17.51-1.35-.73-3.19-.56-4.81-.81l-28-18.07c-12.23-12.45-23.26-25.74-30.1-42Q1523.08,1238,1524.13,1226Z" transform="translate(-2 -668.24)"/><path class="cls-3" d="M2588,1439.81c-6.65-12.51-16.6-22.35-27-31.51-20.4-18-45.77-39.14-61.76-48.07a122,122,0,0,1-17.11-11.59c-4.58-3.7-7.67-6.19-10.84-10.25-4.33-5.54-11.13-14.19-8.69-23.34,1.86-7,8.28-12.69,18.9-15.81a79.45,79.45,0,0,1,8.76-1.58c12-.26,22.95,3.17,33.28,8.95,5.5,3.08,10.91,6.31,16.36,9.48l26,26,16.12,23.93,16,31.94q3,7,5.92,14l2.44,6.85,1.93-.63c-.77-2.13-1.54-4.27-2.32-6.4q-3-7.92-6-15.84c-4-11.34-8.58-22.41-16-32.06l-15.93-24.07-21.71-29.49-30.59-32.61c-8.95-9.23-18-18.37-26.84-27.7-13.9-14.68-24.13-31.61-29.53-51.14-3.2-11.55-3-23.09,4.76-33.12a31,31,0,0,1,9.51-8.43c10.71-5.64,22.1-8.63,34.35-5.76,12,1,21.86,7.16,32,12.8,6.58,6.44,13.85,12.34,19.63,19.44,17.39,21.33,28.39,46.07,36.58,72.15,4.58,18,10.46,35.72,13.48,54,6.28,37.88,11.05,76,16.43,114l.36,7,2.28.12q.54-4.53,1.06-9c.87-6.23,1.88-12.44,2.57-18.69a354.18,354.18,0,0,0-1.84-92.34c-3.4-22.29-7.5-44.47-11.29-66.69-9.1-35.18-23.26-68.53-37-102q-4.18-14.29-8.38-28.58c-3.46-17.57-3.24-34.88,3.77-51.66,8.91-21.32,24.62-34.62,47.13-40.1,7.24-1.76,14.3-2.14,21.48-.27,31.65,11.43,47.92,35.94,55.25,67a367.7,367.7,0,0,1,7.92,51.18c1.71,18.87,2,37.89,2.3,56.85.58,36.07-4.33,71.65-10.59,107.08-8.79,49.71-24.66,97.28-43.49,144q-1.84,3.42-3.68,6.86l1.67,1.06,4.51-5.45c5-7.44,10.17-14.76,15-22.33,17.61-27.76,29.2-58.1,39-89.35,10.58-33.74,23.8-66.45,42.86-96.47,11.56-18.21,25-34.67,45.44-43.56a80.39,80.39,0,0,1,16.09-5.06c16.62-3.3,29.47,5.48,33.46,22,3,12.37,1.22,24.51-1.09,36.61-8.35,43.72-29.56,80.93-58.23,114.34-27,31.45-58.49,58.22-89.07,86-8.1,7.36-15,16-22.89,23.65-17.21,16.66-34.7,33-52.07,49.55-10,9.54-18.12,20.34-22.35,33.75-5.7,18-2.06,33.44,12.6,45.88,3.81,3.23,7.61,6.5,11.13,10,16.71,16.71,20.05,39.87,8.73,60.55-3,5.54-6.5,10.86-9.59,16.37-4.21,7.53-8.85,14.92-9.2,23.94h-18c.63-12,5.95-22.36,11.76-32.5,3-5.19,6.37-10.16,9.15-15.46,8.66-16.44,5.52-31.66-8.43-43.82a182.41,182.41,0,0,1-16.47-16,46.85,46.85,0,0,1-12-32c-.1-17.35,5.48-32.59,15.49-46.51,3.68-5.13,7.25-10.36,10.4-15.81,3.78-6.54,5.13-13.53,2.8-21.1C2608.79,1473.69,2600.66,1455.63,2588,1439.81Z" transform="translate(-2 -668.24)"/><path class="cls-4" d="M1444,1716H1336c-5.6-7-13.87-7.19-21.66-8.14-8.25-1-16.66-.75-24.83-2.08-13.56-2.2-26.25-6.73-31.24-21.28-1.88-5.49-2.37-11.71-2.27-17.57.36-22.69,24.29-37.41,43.09-26.65,10.08,5.76,20.29,11.39,30.85,16.19a53.84,53.84,0,0,0,19,5c9,.46,12.8-6.53,9.52-14.87-2.41-6.15-7-9.77-12.83-11.74-7.85-2.65-15.9-4.72-23.89-6.93s-16.34-3.55-24-6.56c-22.57-8.83-31.14-30.14-21-51.11,4.92-10.14,13.3-15.46,24.45-16.47,10.32-.93,19.59,1.31,28.2,7.61s18.53,10.55,29.61,10.51a10.84,10.84,0,0,0,10.51-7.7c1.17-4.1-.81-9.8-5.16-12a50.79,50.79,0,0,0-13.15-4.29c-11.74-2.23-23.72-3.33-35.31-6.1-20.09-4.8-35-16-40.63-37-2.16-7.93,1-17.68,7.63-22.2a30.94,30.94,0,0,1,22.66-5.38c9.59,1.35,17.51,6,25.49,10.88a168.66,168.66,0,0,0,15.64,8.75c3.37,1.61,7.25,1.82,10.2-1.3,2.4-2.55,2.09-8.72-.8-12.08a21,21,0,0,0-6.84-5.68c-6.64-2.95-13.39-5.92-20.4-7.7-8-2.05-16.36-2.82-24.56-4.18-26.73-4.45-42.36-32.24-41.71-53,.58-18.56,13.4-30,31.12-29.22,11.17.46,19.79,5.52,26.45,14,4.1,5.21,7.06,11.32,11.15,16.54,4.26,5.45,8.75,11,14.09,15.27s9.69,2.63,12.8-3.65a20.24,20.24,0,0,0,1.86-6.65c1.18-11-3.79-19.31-12.1-25.92-8.52-6.77-18.57-10.11-28.86-13.17-9.84-2.93-19.4-6.74-29.09-10.16-5.08-4.73-10.65-9-15.14-14.26-14-16.35-19.51-37.16-8-57.64,8.3-14.78,27.88-21,43-13.26,10.79,5.54,16,15.34,20.19,26.06,2.5,6.41,5.33,12.7,8,19a69.46,69.46,0,0,0,5,6.15c3.34,3.3,7.06,6.64,12.2,5s7.57-6,8.89-11.13c1.91-7.36-.77-13.68-4.25-19.85-5.12-6.89-10.4-13.67-15.32-20.7-5.36-7.65-9.68-15.85-10.56-25.41-2-21.45,5.64-38.89,21.85-52.89,15.73-13.58,47-21.47,65.8-.95,6.39,10.94,9.13,22.28,7,35.23-2,12.06-6.84,22.75-11.9,33.61s-9.4,21.91-13.53,33.08c-1.81,4.88-2.08,10.24.89,17,3.31-3,6.45-4.83,8.13-7.56,4-6.48,6.9-13.64,11-20.07,5.3-8.35,10.06-17.65,17.26-24.07,16-14.31,28.74-12.19,39.51,1.43a28,28,0,0,0,2.1,2.12c2.16,7.9,4.44,15.76,6.46,23.7,2.66,10.43.16,20.24-4.65,29.43-1.94,3.72-5.21,6.75-7.87,10.1l-4.31,3.35c-9.58,6-19.42,11.59-28.7,18-13.23,9.16-23.25,20.91-26.27,37.34-.79,4.3-2.37,8.89,1.79,13.71,4.29-4.37,8.28-8.26,12.07-12.35,7-7.55,13.71-15.4,20.89-22.78,5.63-5.79,12.34-10.09,20.54-11.53,14.64-.92,24.44,5.93,30.48,18.92a49.89,49.89,0,0,0,3,5l-.25,24.44c-5.72,14-12.89,27-26.09,35.44-5.57,3.57-11.4,6.72-17.12,10.06-14.11,4.06-28.07,8.34-34.47,23.82,3.84-.09,7.55-.6,10.37-2.45,8.28-5.44,16.2-11.41,24.27-17.17,13.41-6.78,27-11.85,41.82-4.06,16.57,9.65,21.39,24.56,12.3,41.19-3.74,6.84-9.5,12.58-14.35,18.83-8.42,3.58-16.75,7.42-25.32,10.64-5.17,1.94-10.71,2.92-16.09,4.33-5,1.71-10,3.56-15.06,5.11-8.87,2.73-17.9,5-26.68,8-6.8,2.32-13.76,4.89-16.59,12.38,2.59,5.68,7.21,6.16,12,6,17.29-.56,33-6.52,48.1-14.4,6-1.46,12.12-2.78,18.11-4.41,7.29-2,14.59-3.17,22.13-1.84,9.22,2.53,13.91,8.73,16.07,18,3.66,15.71.85,29.27-11.17,40.47-11.54,6.76-22,15.5-35.18,19.28-13.91,2.84-27.87,5.46-41.7,8.68a33.08,33.08,0,0,0-11.29,5.56c-3.52,2.53-7,6.44-4.87,11,2.29,4.84,7.35,3,11.58,2.39,17.28-2.5,33-9.37,48.48-17,13.49-4,26.33-1.69,38.82,4,5.59,7.91,9.92,16.19,7.85,26.38-2.6,12.36-9.76,21.25-20.65,27.38-2.26,1.27-4.36,2.83-6.54,4.25-7.84.81-15.94.64-23.45,2.67C1460.93,1705.27,1449.8,1705.62,1444,1716Z" transform="translate(-2 -668.24)"/><path class="cls-5" d="M1087.87,1491.6c-6.62.71-13.14,1-19.39-2.13-12.74-6.43-14.81-19.75-3.77-28.88,4.43-3.67,10.19-5.91,15.63-8.13,3.6-1.47,7.7-1.76,11.58-2.57,9.27-.84,19.12,2.43,28.08-3.15-.58-6.25-2.88-10-8.71-11.27-9.15-1.92-18.26-2.89-27.34.27-7.09,1.71-14.1,4-21.28,5a42.33,42.33,0,0,1-15.54-.8c-7.88-2-13.71-7.06-15-15.51-1.24-8.28,3.66-13.93,9.93-18.18a57.7,57.7,0,0,1,29.77-10.15c2.68-.14,3.65-.09,10-.42a41.57,41.57,0,0,0,9.44-1.29c5-1.36,5.78-2.76,6-3.53a3.93,3.93,0,0,0-.47-2.62c-1.32-3.29-4.34-4.9-5.67-5.59a18.36,18.36,0,0,0-3.44-1.31,32.24,32.24,0,0,0-9.09-1.57,31.2,31.2,0,0,0-10.13,1.44,103.18,103.18,0,0,1-18.11,4.15,28.28,28.28,0,0,1-8.45.14,26.57,26.57,0,0,1-9.75-3.58c-9.56-5.71-16.51-21.31-3.74-33,6.4-5.86,13.43-8.45,21.06-10.69a76.5,76.5,0,0,1,10.53-2.33,80,80,0,0,1,28.45,1.08c-4.2-5.36-17.11-8.52-32.53-8.84-8.83-5.4-18.1-10.39-20.07-22,0-4.29-.51-8.67.14-12.86.74-4.74,1.57-9.91,4-13.88,12.81-20.87,32-26.12,54.17-15.42,13.44,12.38,16.68,28.7,17.7,45.86.22,3.63-.2,7.39.63,10.85.76,3.16,2.83,6,5.25,10.83,4.79-13.93,8.78-25.57,12.78-37.2,14.41-12.92,25.36-10.54,34.21,6.92,5,9.87,5.18,20.35,5.48,30.93-.14,1.27-.29,2.53-.43,3.8-6.44,12.08-15.06,22-27.33,28.58-1.66.88-3,2.44-4.44,3.69-3.3,3.13-7,5.93-9.76,9.51-2.41,3.17-3.77,7.49-.26,10.9,3.21,3.12,6.72,1.5,9.87-.76,4.1-3,6.23-4.78,6.23-4.78,3.74-3.88,11.86-11.07,24.27-21.62q3.47-2.28,7.49-4.57c2-1.14,4-2.18,5.89-3.13,18.75.8,29,12.45,26.65,30.15-1.55,11.55-8.3,19.56-18.08,24.84-7.83,4.24-16.26,7.39-24.43,11l-7.81,4.37c-2.38,3.33-5.22,6.44-7,10.06s-1.83,7.74,3,9.88l8.17-1.88c4.65-2.48,9.22-5.1,14-7.4,9.21-4.46,18.21-9.6,27.84-12.86,11.54-3.9,16.62-1.47,23.77,8.21a24.94,24.94,0,0,1,1.54,10.73c-.67,8-5.24,13.37-9.22,18a53.45,53.45,0,0,1-13.56,11.38c-.93.44-14.15,6.74-21.6,11.35a9.93,9.93,0,0,0-4.4,4.78,8.89,8.89,0,0,0-.26,5.29c1.13,4.66,5.43,5.55,9.35,6,2.06.22,4.27-1,6.41-1.56,4.23-1.81,8.52-3.5,12.68-5.47,7.52-3.57,15-7.06,23.6-7.08,6.11,0,10.3,2.73,12.56,8a36.64,36.64,0,0,1,2.92,11.47c1.64,22.87-16.68,42.53-39.7,42.9-2,0-4-.11-6-.17-6-.18-12.28-1.44-18-.28-6.68,1.35-11,7.5-9.77,11.77,1.68,5.7,6.59,6.64,11.75,6.71,4.24-.55,8.58-.7,12.68-1.75,5.46-1.41,10.66-3.8,16.11-5.27,16.53-4.49,30.34,6.32,28.92,22.74-1.09,12.7-11.55,30-29,30.8-8.9.38-17.85-.27-26.78-.46-13.31,2.09-16.54,5.34-14.54,15.75a55,55,0,0,0,13.28.6c1.2-.09,2.36-.22,3.47-.38a81.3,81.3,0,0,1,24.33-5.06c8.47-.41,11.78.82,14,2a20.35,20.35,0,0,1,9.35,11.59c4.08,12.22-.61,25.08-12.29,31.3-6.66,3.54-14,5.76-21.06,8.58-7.27.54-14.55,1-21.79,1.67a75.46,75.46,0,0,0-11.7,2c-4.34,1.13-5.74,4.15-4,9.14,4.51.79,9.36,2.35,14.19,2.31,10.27-.07,20.53-1,30.8-1.55,12,5.53,16.15,15.57,16,28H1102c-4.69-5.23-10.72-3.8-16.61-3.48a90.75,90.75,0,0,1-11.54-.19c-8-.6-13.77-5.78-19.78-10.35-.84-5.21-2.32-10.4-2.41-15.62-.19-11.73,7.16-18.74,16.52-24.18,10.41-1,20.41.91,30.24,4.14,3.14,1,6.37,1.75,9.53,2.72,7.83,2.41,15.16.42,22-3.07,7.66-3.88,10.71-15,6.64-22.5-2.16-4-5.17-5.48-9.87-4.12-7.61,2.19-15.32,4.09-23.08,5.66-10.81,2.19-21.12,1.64-29.3-7.2-4.32-13.42-3.89-25.88,7.26-36.19,10.57-5.93,21.1-3.92,31.69.05,6.53,2.44,13.08,4.87,19.75,6.9s12.21-1,14.09-7.16c1.64-5.41-1.44-10.62-8.68-12a53.26,53.26,0,0,0-17.59,0c-17.19,2.72-31.86-8.32-33.14-25.53.16-1.29.33-2.57.49-3.85,5.51-11.72,14.72-14.24,27-12.69,7.68,1,15.85-.89,23.64-2.32,3-.54,5.87-3.09,8.2-5.35,3.65-3.53,4.09-11.74,1.39-15.79s-6.87-4.9-13.39-2.45c-3.12,1.17-6.26,2.29-9.27,3.69a70.75,70.75,0,0,1-35.84,6.89c-9.23-5.71-10.74-12.85-4.1-20.85,2.29-2.76,5.19-5,7.82-7.47l26.21-9.7,3.94-.22c2.61-.28,5.53.08,7.75-1,2.4-1.18,6.07-4.13,5.75-5.54-.59-2.64-3.49-4.91-5.78-7-.73-.65-2.54-.11-3.86-.11l-7.55.11Z" transform="translate(-2 -668.24)"/><path class="cls-6" d="M766,1534c1.35-5,3-10,4-15.09,4-20.54,1.9-41-.88-61.49-1.43-10.52-2.72-21.16-2.64-31.73a49.4,49.4,0,0,1,4.4-20.17c6.82-14.52,22.14-15.9,32.11-3.33,8.8,11.1,11.33,24.59,13.07,38.17,3.55,27.77-1.75,54-14,79.06-3.59,7.35-6.8,14.87-10.18,22.31-3.26,5.11-7.51,9.72-8.32,16.17,4.54-3.15,9.4-5.87,10.41-11.92,6.4-13.24,12.38-26.71,19.38-39.63,3.37-6.24,7.83-12.45,13.26-16.91,10.41-8.56,19.87-5.14,23.11,7.89a56.51,56.51,0,0,1,1.75,18.73c-2.35,24-9.4,46.22-27.86,63.26-7.45,4.35-14.68,9.13-22.4,12.9-7.46,3.64-15.42,6.24-25.28,10.12,3.62,1.13,5.22,2.23,6.4,1.89,7.15-2.11,14.62-3.73,21.18-7.09,8.46-4.32,16.17-10.11,24.19-15.27,6.36-4.78,12.61-9.72,19.12-14.28,5-3.55,10.74-6.08,16.68-2.36,6.57,4.12,8.83,10.69,7.91,18.15-1.27,10.37-6.57,18.85-14.11,25.68-16.61,15-34.4,28.28-56.45,34.47-2.69.76-5.26,1.91-9.35,3.42,8.73,2.65,15.36.69,21.64-1.87a246.5,246.5,0,0,0,24.32-11.36c17.26-9.34,23.48-6.86,28.44,12.06.17.64.22,1.31.33,2q-2.06,8.16-4.12,16.31l-4.05,6c-7.69,9.16-16.57,16.83-28.58,22,12.95,3.47,16.69,13,18.52,24H678a52,52,0,0,0-4.77-4.4c-8.16-5.89-10.42-13.44-7.27-24.77,2.51-9,9.39-15,18.65-15.15,6.6-.1,13.21.94,19.82,1.4,4.71.32,9.43.51,14.14.77l.54-2.47c-5.1-1.86-10.13-4-15.31-5.55a126.69,126.69,0,0,1-44.22-24.22c-7.42-6.16-12-14.15-11.86-24.2.14-11.1,4.74-16.05,16-17.29a67.63,67.63,0,0,1,10.74,1.3,72.1,72.1,0,0,1,26.78,11.72c16,11.21,22.4,25,24.49,23.77.73-.41.81-2.53-1.76-9.72-.81-1.27-2.09-3-3.72-5.11-7.21-9.17-14.23-12.95-19.33-14.72-5.68-2-12.23-2.54-23.08-7.18-2.41-1-4.35-2-5.59-2.59a41.3,41.3,0,0,1-18.44-18.68c-2.21-4.7-7.08-15-2.15-24.88.46-.93,4.22-8.17,12.33-10.8,8.62-2.78,16.53,1.45,23.82,5.34,5,2.67,7.95,5.12,23,18.34q7.13,6.27,13.37,11.79c-.49-3-.28-4.53-1-5.36-3.63-4.46-4.91-9.63-19.17-22.78l-4.66-4.26a86.61,86.61,0,0,0-13.49-8.2c-17-8.31-27-6.26-37.26-14.82a37.4,37.4,0,0,1-10.43-14.55q1.51-4.55,2.92-9.54,1.13-4.07,2-7.9a32.18,32.18,0,0,1,16.69-6.94c8-.78,14.54,1.35,20.66,4.64,4.36,2.35,8.62,4.87,12.92,7.32l14.38,16L712,1518l7.74,12.61,2.59,5.34,5.43,10.5,2.7,5.12,2.13-1.08c-1-2-1.9-4.14-2.82-6.39-1.37-3.36-2.5-6.58-3.44-9.61l-8-15.08a118.54,118.54,0,0,0-18.88-23.19,213.33,213.33,0,0,0-19-16.11,108.86,108.86,0,0,1-14.74-12.7,57.65,57.65,0,0,1-4.07-4.72c-8.71-11.16-3.75-23.82,10.23-26.12a40.2,40.2,0,0,1,20.39,1.92c13.23,4.72,21.52,13.85,25.71,19.39q1.95,2.81,3.79,5.83c15.15,24.94,14.79,63.54,17.88,63.53.88,0,1.53-3.14,1.72-4.1,2-10.23-.6-17.73-6.33-35.14,0,0-9-24-14.83-32.09-1.2-1.66-1.45-1.13-6.35-7.8-9.05-12.31-18.59-24.31-26.89-37.1-3.26-5-4.73-11.77-5.22-17.87-.67-8.32,5.48-14.93,13.87-15.19a45.18,45.18,0,0,1,17.46,2.75c17.7,6.89,28.36,24.91,30.27,27.93,0,0,29.11,46.12,19.57,105.25-.07.45-.46,3.3-1.25,9-1,7.07-1.25,9.23-1,12.17a29.41,29.41,0,0,0,1.86,8.15Z" transform="translate(-2 -668.24)"/><path class="cls-7" d="M862.11,1664.06q2.05-8.14,4.12-16.31a458.54,458.54,0,0,1,17.29-46.41c6.07-13.93,12.72-29,24.37-47.38,6.08-9.59,6.16-8.47,7.77-11.93,7.37-15.8-.3-31.31-9.79-64.85-8.74-30.92-20.63-60.41-39.61-86.64-7.23-10-14.84-19.7-25.36-26.51a108,108,0,0,0-13.06-7.14,20,20,0,0,0-16.36-.63c-3.15,1.22-6.78,1.2-10.45,1.79-1.85-7.23.84-11.15,5.56-14.5,24.86-17.62,59.69-18.1,84.87.77a81.86,81.86,0,0,1,24.48,29.73,404.66,404.66,0,0,1,29.11,78.34c1.16,4.49,2,9.07,3,13.61.16,3.14-.85,6.73,3.86,9.36v-7.45c1.38-49.37-11.43-95-38.48-136-10.9-16.53-25.39-30.69-38.25-45.92-2.79-3.3-5.88-6.38-8.38-9.88-4.16-5.83-3.08-10.54,3.9-11.8,8.69-1.58,17.9-2.37,26.61-1.28,27.11,3.41,47,18.68,62.56,40.46,18.53,26,29.5,54.92,34.23,86.28a332.86,332.86,0,0,1,3.76,36.58c1,25.77-6,50.17-15.95,73.48-12,28.07-16.42,23.54-24.14,45.82-7.83,22.62-2.62,26.5-9.26,70.21-3.38,22.28-6.16,39.86-14.76,61.2a201.47,201.47,0,0,1-21,39H894c2.77-12.5,5.36-22.44,7.07-28.71,8.57-31.54,14.78-44.49,16.54-67.42a154.9,154.9,0,0,0,.22-20,171.7,171.7,0,0,0-11,15.32A180.44,180.44,0,0,0,886,1661.36a211.37,211.37,0,0,0-9.17,54.62L856,1716q2-19,4.09-38Q861.1,1671,862.11,1664.06Z" transform="translate(-2 -668.24)"/><path class="cls-8" d="M2,1256c1.68,2.68,4.19,5.16,4.9,8.08,4.55,18.7,9.44,37.36,12.81,56.28,4.08,22.85,7.21,45.89,9.92,69,2.16,18.45,2.94,37.06,4.55,55.58,3.86,44.46,4.37,89,3.48,133.6-.49,24.89-1.64,49.76-5.21,74.48-2.65,18.39-4.33,36.91-6.56,55.35A61.44,61.44,0,0,1,24,1716H2Z" transform="translate(-2 -668.24)"/><path class="cls-9" d="M1616,1701l-10,15h-22c-1.33-3-2.52-6-4-8.94-4.13-8-8.54-15.76-12.57-23.76a380.88,380.88,0,0,1-30.22-83.15c-6.42-26.81-12.32-53.77-11.3-81.57.9-24.54,2.84-49,3.69-73.57,1-27.94,5-55.48,9.32-83,7.7,3.33,15.45,6.57,23.07,10.08,1.64.76,2.82,2.53,4.21,3.83-.4,2.62-.62,5.28-1.21,7.85a578.58,578.58,0,0,0-14.37,104.29c-.93,21.49.23,43.14,1.81,64.62.95,12.78,3.74,25.59,7.11,38,7.12,26.12,19.69,50,32.86,73.47C1599.5,1676.83,1608.08,1688.72,1616,1701Z" transform="translate(-2 -668.24)"/><path class="cls-8" d="M68,1716c5-52.71,4.57-105.57,4-158.4-.27-23.19-2.63-46.36-4-69.54,7.07,8.72,13.33,18.29,21.41,25.94,1.63,1.54,4.76,4.38,8.56,7.61,3,2.53,5.35,4.41,16.7,13.31l6.07,4.76c-.13,1.65-.24,3.31-.34,5-.69,11.24-.89,22.13-.67,32.64-7.66-.83-13.29-1.64-17.76-2.5a14.43,14.43,0,0,0-7.77.22,13.14,13.14,0,0,0-4.94,3.18A8,8,0,0,0,87.3,1581c-1.06,2.81-.3,5.59,1,9.19.54,1.53,1,2.8,1.45,3.91,1.78,4.58,2.15,4.37,2.51,6.2s.18,3,1,5.1a14.48,14.48,0,0,0,1,2c.83,1.48,1.48,3.21,3.94,12.88a53,53,0,0,0,2.21,7.3s.57,1.43,1.28,2.91c1.7,3.53,8,11.94,17.42,22.33q-.16,9.38-.91,19.46A347,347,0,0,1,112,1716Z" transform="translate(-2 -668.24)"/><path class="cls-8" d="M158,1716q1.8-17.82,3.59-35.64c18.45,2.17,37.09,3.43,54.44,11.05-.77,3.32-2,6.62-2.2,10-.31,4.84.08,9.74.17,14.61Z" transform="translate(-2 -668.24)"/><path class="cls-9" d="M1521.13,1668.38q10.44,23.8,20.87,47.62h-42l-6.06-16c2.18-1.42,4.28-3,6.54-4.25C1511.37,1689.63,1518.53,1680.74,1521.13,1668.38Z" transform="translate(-2 -668.24)"/><path class="cls-10" d="M1493.94,1700l6.06,16h-56c5.8-10.38,16.93-10.73,26.49-13.32C1478,1700.65,1486.1,1700.82,1493.94,1700Z" transform="translate(-2 -668.24)"/><path class="cls-11" d="M1054.07,1702c6,4.57,11.74,9.75,19.78,10.35a90.75,90.75,0,0,0,11.54.19c5.89-.32,11.92-1.75,16.61,3.48h-54Z" transform="translate(-2 -668.24)"/><path class="cls-12" d="M376,1716c.62-1.38,1.25-2.75,1.87-4.13,3.09.71,6.18,2,9.27,2,25.55.14,51.1,0,76.65,0L464,1716Z" transform="translate(-2 -668.24)"/><path class="cls-12" d="M555.78,1713.92,556,1716H508a4.25,4.25,0,0,1-.12-1.94Z" transform="translate(-2 -668.24)"/><path class="cls-13" d="M216,1691.41c-17.35-7.62-36-8.88-54.44-11.05-5.27-2.79-10.76-5.22-15.75-8.43-8-5.17-16.48-10.14-23.77-16.42-5.81-5-16-13.76-21.74-27.92-2.36-5.78-1.21-5.65-4.91-15.82-2.59-7.11-4.67-14.4-7.15-21.55-1.44-4.17-2.73-8.41.91-12s7.58-4.53,12.71-3.4c6.7,1.47,13.63,1.93,20.45,2.83l39.57.27c5.88,1.95,11.84,3.69,17.62,5.9,13.61,5.2,23.25,15.48,32.61,26.06.78.62,1.62,1.17,2.32,1.85,8.29,8.09,19.83,2.87,19.55-9.26a161.34,161.34,0,0,0-2.2-22.58c-1-6-3.88-11.26-9.68-14.27-3.8-.53-7.64-1.65-11.42-1.48-17.24.78-34.16-.59-50.59-6.17-12.79-3.68-25.32-7.93-36.31-15.75-11.56-9.33-23.73-18-34.48-28.2-8.08-7.65-14.34-17.22-21.41-25.94-2.31-4-4.84-8-6.87-12.14-2.22-4.58.66-5.92,4.62-6.21a82.85,82.85,0,0,0,46.62-1.31q2.42-.7,4.92-1.35a161,161,0,0,1,36.81-5,96.33,96.33,0,0,1,45.15,21.92c5.25,4.47,11.45,7.83,17.21,11.69,10.28,3,12,1.82,12.15-8.29.16-8.09-1-15.91-4.62-23.25-6.74-13.35-17.33-20.54-32.53-19.92-12.54.51-25.07,1.35-37.6,2l-43.43-5.56a84.47,84.47,0,0,1-33.86-14.58,94.57,94.57,0,0,1-16.65-16c-5.83-6.9-9.39-12.65-14.25-21.11a177,177,0,0,1-8.65-17.19,34,34,0,0,1-2.86-8.39c-.64-4.25,1.5-7.18,5.93-7.52,4-.29,8,0,11.92,0,5-.05,10,.23,14.95-.2,13.15-1.17,26.28-2.64,39.42-4,17.51-.81,33.17,4.63,47.66,14.07,9,8.78,17.76,17.87,27.17,26.21,5.39,4.78,11.81,8.41,17.87,12.41,2.75,1.82,6.06,2.16,8-.73,1.52-2.22,3.14-5.9,2.29-7.91-1.84-4.38-4.38-9.36-8.13-11.9-15.94-10.82-31.47-22.05-44.92-36-1-1.33-1.9-2.73-3-4-24-27.62-27.3-58.63-15-92.15q7-19.15,14.27-38.24a48.51,48.51,0,0,1,4.76-9.83c4.35-6.44,9-7.25,15.07-2.3,4.87,4,9.07,8.77,13.61,13.16,2.63,2.54,5.33,5,8,7.5,2.48,2.17,5.1,4.2,7.42,6.53,13.69,13.73,25.45,29,33.81,46.51,8,16.88,11.7,34.54,7.08,53.21-2.39,9.66-4.92,19.28-7,29-1.83,8.73-4.3,17.81,4.54,24.67,6,5.18,9.35,5.42,14.47,1s6.87-10.4,7.68-16.84c1.3-10.22,1.88-20.62,4.24-30.6,7.73-32.72,28.37-53.38,60.71-62.29,3.47-1,7.23-1,10.87-1.23,9.61-.63,19.25-1,28.85-1.73,12.4-.92,15.86,2.19,17.7,14.47,2.32,15.39.83,30.71-1.35,45.76-4.39,30.19-23.85,48.62-50.52,61-12.36,5.72-24.43,12.15-36.25,18.92-17.59,10.07-27.1,26.12-31.14,45.54-2.61,12.53-.48,24.33,7.6,36.15,2.38-2.2,4.62-3.57,5.87-5.56a166,166,0,0,0,8.76-15.69c7.18-14.89,17.51-27.49,28.57-39.52s24.68-17.46,40.95-17.48c8.89,0,17.77-1.26,26.66-1.95,4.66,0,9.39-.38,14,.28,3.79.56,8,1.59,10.93,3.86,4.71,3.68,5.33,9.6,5.54,15.39.83,23.1-3.69,44.86-16,64.69-12.06,14.74-26.73,25.85-44.82,32.22-5.33,1.87-10.7,3.67-16,5.74-9.91,3.89-20.16,7.18-29.53,12.12-15.46,8.14-27.48,19.89-32.6,37.31-1.15,3.92-2.28,8.06.89,12.34,2.79-2.93,5-5.38,7.35-7.71,12.09-12,26.13-20.34,42.83-24.38,15.77-3.83,31.67-4,47.64-2.68,10.26.83,20.65,1.46,30,6.69a12.65,12.65,0,0,1,3.43,5,14.85,14.85,0,0,1,.69,6.37,28,28,0,0,1-1.16,6.25c-.61,2.25-1.54,5.74-2.78,10.56a53.69,53.69,0,0,1-5.78,14.21c-5.44,11.41-11.41,22.39-20.37,31.63-11,11.31-24.22,18.46-39.06,23-16.19,5-32.49,9.5-47.64,17.45-10.07,5.3-18.22,12-22.8,22.67-.87,2-3.44,4.67-5.32,4.74-11.88.43-23.79.22-36.12.22C226.32,1701.27,223.52,1694.82,216,1691.41ZM268,1598v-24.4l-1.86-.26-2,4.78c-1.79,9.57-4.52,19.18.36,28.71C270.76,1605.35,268.41,1601.35,268,1598Zm-132-5.91H105.44l-.23,1.66,3,2.1c8.77,1.39,17.53,2.86,26.32,4.14,3.91.57,7.93.49,11.8,1.21,14.9,2.73,28.21,9.36,41.07,17.07,5.12,3.06,10.33,6,15.5,9l1.28-2.53C186.46,1603.79,164.73,1591,136,1592.09Zm160.89-204.18c.29.75.59,1.5.88,2.24,3-.53,6.16-.63,9-1.68,17.59-6.58,33.16-15.84,46.25-30,16.87-18.23,21.71-39.7,20.59-63.23-.18-3.9.1-9.35-4.8-12.28-.89,1-2,1.6-2.11,2.39-1,5.85-1.87,11.73-2.65,17.62-1.28,9.53-3,18.83-7.24,27.68-8.43,17.64-21.39,30.78-37.83,41C311.22,1376.54,304.21,1382.48,296.88,1387.91ZM295,1661.46l1.23,2.94c10.53-2.68,21-5.48,31.59-8,18.84-4.54,33.75-15.22,46.31-29.53a71.19,71.19,0,0,0,17.46-40.52c.3-2.93-1.09-6-1.69-9.06l-2-.12c-1.11,2.6-2.33,5.16-3.29,7.81-10.56,29-29.75,49.66-58.57,61.43C315.42,1650.72,305.35,1656.39,295,1661.46ZM220,1351.54l2,.73c1.32-3.58,3.44-7.08,3.8-10.75,1.11-11.52,1.61-23.1,2.24-34.67.68-12.44-3.94-23.28-10-33.85-11.05-19.37-27.65-33.78-43.3-49-.83-.8-2.21-1-5-2.28,1.1,3.47,1.26,5.79,2.42,7.36,5,6.62,10,13.25,15.4,19.47,20.58,23.55,33.22,50.13,32.41,82.1C219.82,1337.58,220,1344.56,220,1351.54Zm175.54,76.84c-1.17,2.61-1.92,4.26-2.65,5.93-4.51,10.34-8.33,21.06-13.72,30.92-4.9,9-10.94,17.46-19.91,23.17-9.78,6.23-19.69,12.28-29.33,18.72-9.16,6.12-18.06,12.65-27.07,19,2.11,1.49,3.45,1.6,4.54,1.12,11.88-5.16,24.05-9.78,35.47-15.82,10.19-5.4,20.79-11.11,29-19,13.91-13.37,21.79-30.75,25.56-49.76C398.26,1438.24,399.06,1433.61,395.51,1428.38Zm-188.92,87.9c.4-2.09.83-3,.58-3.25-3.3-3.71-6.64-7.4-10.09-11-21.59-22.36-48.06-27.79-77.57-21.92-9.32,1.85-18.47,4.52-28.48,7,8.35,5,16.9,3.42,24.76,2.28,23.6-3.43,45.39.5,65.77,12.93C189.58,1507.24,198,1511.52,206.59,1516.28Zm-32.53-116.55c-18.2-30.3-72-45.06-104.2-28.94,4.44,3.3,8.82,5.81,13.78,4.78,19-3.94,36.83-.29,54.12,7.31C149.47,1388,161,1393.64,174.06,1399.73Zm86,101.79c4.21-1.91,4.09-4.51,2.83-7.68-5.94-14.9-6.38-30.2-3.33-45.78.31-1.59-.4-3.37-.74-5.78C248.22,1453.51,246.77,1488.62,260.07,1501.52Z" transform="translate(-2 -668.24)"/><path class="cls-14" d="M1290,1370a443.87,443.87,0,0,0-56.16,51.3c-2.4,2.59-4.07,5.84-6.08,8.78-7.16-9.68-12.24-12.11-23.78-8.21-9.63,3.26-18.63,8.4-27.84,12.86-4.74,2.3-9.31,4.92-14,7.4.92-3.69,1.76-7.71,2.44-12,.58-3.66,1-7.14,1.26-10.4,8.17-3.63,16.6-6.78,24.43-11,9.78-5.28,16.53-13.29,18.08-24.84,2.38-17.7-7.9-29.35-26.65-30.15q2.94-29.18,5.87-58.33c.26-2.64.31-5.32.31-8,0-22.63.74-45.29-.17-67.88-.77-19.16-3.3-38.26-5.29-57.35-2-19.44-4.45-38.83-6.5-58.27-2-19.1-4.4-38.19-5.45-57.35-.71-12.86.21-25.87,1.18-38.75.84-11.2,1.76-22.58,4.53-33.39,2.26-8.81,6.47-17.42,11.27-25.22,10.73-17.43,35.14-20.85,50.45-4.66,13.47,14.24,21,31.27,26.14,49.71,2.72,9.81,5.16,19.7,7.72,29.55-.77,2-1.62,4.29-2.46,6.89,0,0-1,3.09-1.84,6.28-6.83,25.94-3.19,50.33-3.19,50.33a118.37,118.37,0,0,0,11,34.94c-.21,3.67-.54,9.25-1,16-1.16,16.44-3,43.33-6.74,68.2-7.3,49.06-21.45,89.07-31.68,118-1.73,4.89-3.2,8.88-4.16,11.48-.9,3.2-1.9,6.51-3,9.92-1.31,3.95-2.68,7.71-4.07,11.26q-5.62,17.83-4.89,18.1,1,.38,14.35-33.21,16-34.74,32.1-69.46c5.28-11.39,10.26-21.72,17.31-35.63,16-31.58,23.73-43.25,33.72-54.22a156.86,156.86,0,0,1,12.58-12.32c13.34,8.17,28.13,10.75,43.47,11.68,16.19,1,31.55-2.09,46.42-8.22a64.73,64.73,0,0,1,2,36.29c-23-12-49.71-12.94-65.8.95S1332,1242.55,1334,1264c.88,9.56,5.2,17.76,10.56,25.41,4.92,7,10.2,13.81,15.32,20.7q-5.73,4.29-12.06,8.65-5.79,4-11.35,7.48c-1-2.06-2.57-5-4.49-8.59-10.69-19.74-16-29.62-22.14-32.81-12.72-6.65-34.82-1.29-43,13.26-11.49,20.48-6,41.29,8,57.64C1279.33,1361,1284.9,1365.27,1290,1370Z" transform="translate(-2 -668.24)"/><path class="cls-9" d="M1419.65,1173.87c-14.87,6.13-30.23,9.21-46.42,8.22-15.34-.93-30.13-3.51-43.47-11.68-4.67-2.85-15.8-7.84-27.65-17.73-7.66-6.38-18.42-15.36-26.82-30.46-12.7-22.86-12-45.47-11.68-58.15a127.63,127.63,0,0,1,1.84-18,120,120,0,0,1,6.33-22.33,89.8,89.8,0,0,0,5.31-8.36c12.87-26.07,33.41-44.39,58.4-58.27,17.13-9.52,35.07-16.29,55.06-15,33.56,2.18,64.64,12,92.1,31.74,10.43,7.52,17.91,17.86,23.71,29.24,12.8,25.09,21.17,51.53,24,79.71,3.29,33,.88,65.74-2,98.53-1.29,14.89-2.82,29.76-4.24,44.64q-1.05,11.94-2.12,23.86-2.87,20.94-5.74,41.87c-9.39,9.15-10.18,20-6.38,31.81.91,2.8,1.48,5.71,2.2,8.57l-6.6,61.73a49.89,49.89,0,0,1-3-5c-6-13-15.84-19.84-30.48-18.92l2.22-15.71q.88-5,1.76-10c2.67-3.35,5.94-6.38,7.88-10.1,4.81-9.19,7.31-19,4.65-29.43-2-7.94-4.3-15.8-6.46-23.7.54-1.56,1.44-3.09,1.56-4.67,1.53-21.21,4-42.43,4.18-63.66.31-31.25-.53-62.54-1.75-93.78-.93-23.71-7.35-46.37-14.55-69-9.87-31-48.58-57.2-84.42-50.32-29.6,5.69-59.81,30-55.08,65.44,2.19,16.35,7.82,30.9,21.81,41,13.56,9.82,28.52,9.49,44,6.37,17.25-3.5,28.61-24.12,24.2-41.09-2.33-9-8.43-13.68-17.54-12.08-4.4.77-8,1.21-9.76-3.78-1.69-4.73-.33-9,3.77-11.3s9.21-5.11,13.82-5c19.37.3,32.3,6.92,40.92,27.45,2.79,6.64,3.73,14.08,5.37,21.18C1465,1116,1453.51,1159,1419.65,1173.87Z" transform="translate(-2 -668.24)"/><path class="cls-9" d="M1613.89,1068c-13-4.65-24.37-.17-35.51,6-1.11-25-4.68-49.76-12.57-73.52-5.85-17.64-13.47-34.7-20.64-51.88-7.82-18.72-16.85-37-23.89-56-11.41-30.81-13.77-63.16-10.85-95.51,3.24-35.91,21.38-64.73,48.36-87.92,17-14.63,36-26.73,57.23-34,25.49-8.75,51.48-9.27,77.37-.54a84.23,84.23,0,0,1,41.46,30c19.93,26.73,31.32,56.94,28.8,90.39-2.9,38.54-19.46,70.2-54.16,90.26-13.18,7.63-27.26,9.66-42.33,7.06-22.15-3.84-42.06-11.61-58.37-27.91-18.49-18.48-21.36-40.41-13.54-63.64,8.89-26.44,28.83-40.7,56.35-44.41a9.57,9.57,0,0,1,4.89.36c1.34.58,3.08,2.08,3.18,3.3a6.9,6.9,0,0,1-1.87,5.1c-1.66,1.48-4.13,2-6.24,3-15.57,7.14-28.62,33.56-23.73,50.8,5.08,17.85,17.62,28.61,38.45,30.86,26.88,2.9,45.69-9.62,53.88-35.54,5.19-16.43,6.34-33.46,1.7-50.22-6.23-22.45-29.66-49.39-59.63-48-29.09,1.34-55.38,10.09-72.17,37.29-12.15,19.67-19.2,40.6-22.42,63.37-3.62,25.56,2.15,49.58,9.68,73.47,3.8,12.06,8,24,12.3,35.89,8.78,24.51,15.44,49.53,18.12,75.47C1610,1023.6,1611.86,1045.79,1613.89,1068Z" transform="translate(-2 -668.24)"/><path class="cls-15" d="M555.78,1713.92l-47.9.14c-1.91-11.46-4.08-22.89-5.65-34.39-3-21.79-5-43.66-4.25-65.69,1.44-45.79,7.26-90.85,22.57-134.29,9-25.6,13.7-52,15.89-79,1.8-22.11-2.41-43.76-3.15-65.65-.58-17-.76-33.93-1-50.89,0-2.27.85-4.57,1.42-6.83,3.26-13,12.89-16.54,22.85-7.89A56.78,56.78,0,0,1,568.19,1283c9.64,16.31,14.1,34.24,16,53.06,4.52,44.53-3.89,87.45-15.44,130-8.19,30.2-15.49,60.58-20,91.56-.77,5.25-.67,10.63-1,15.95q-.79,6.18-1.61,12.38-.2,2.88-.41,5.76l-2.13,12.44,2.46.49c.61-2.92,1.21-5.83,1.82-8.75,2.49-9.57,4.69-19.22,7.56-28.68,2.79-9.22,5.95-18.36,9.48-27.32,16.25-41.26,29.33-83.45,36.09-127.33,1.66-10.75.43-21.92.83-32.88.21-5.59.13-11.49,1.87-16.68,4.49-13.4,15.32-15.42,25.09-5,7.19,7.68,11.55,17.06,14.49,27.06,5.87,20,11.45,49.11,3.74,89.62-1.35,7-2.81,12.79-3.84,16.56q-.94,3.89-2,7.9c-.53,1.94-1.06,3.84-1.61,5.71-2.75,8.06-6.83,19.73-12.06,33.72-8.49,22.76-14.75,38.25-23.34,57.28-6.14,13.61-14.55,26.18-21.06,39.64-8.25,17-16.29,34.26-23,51.92C557,1695.64,557.11,1705.06,555.78,1713.92Z" transform="translate(-2 -668.24)"/><path class="cls-8" d="M106.3,1351.73c-13.14,1.35-26.27,2.82-39.42,4-4.95.43-10,.15-14.95.2-.78-11.26-1.39-22.53-2.42-33.76-.84-9.25-2.52-18.43-3.21-27.68-1.7-22.87-3.35-45.75-4.45-68.65-1-19.92-2.31-39.95-1.37-59.83,2.17-46.47,5.58-92.9,21.11-137.38,5.66-16.19,13.47-31.13,26.09-43.11,12.1-11.49,26.85-13.75,38.3-7.2,8.81,5,16.06,12.52,19,22.41,3.17,10.76,5.92,21.89,6.8,33,3.11,39.35-4.13,77.39-15.49,115-7.5,24.79-14.17,49.88-20,75.11-3.4,14.81-4.3,30.19-6.48,45.3-3.47,24.1-4,48.36-3.93,72.66C105.89,1345.08,106.15,1348.4,106.3,1351.73Z" transform="translate(-2 -668.24)"/><path class="cls-15" d="M403.92,1595.92c.72-3.31.95-3.25,2.24-8.52,1.12-4.54,1.68-6.81,1.71-8.29,0-2.3-.42-6.33-4.12-11.35,1.14-12.11.62-26.82-.48-43.56-.62-9.44-3.44-18.74-5.27-28.09,12.34-19.83,16.86-41.59,16-64.69-.21-5.79-.83-11.71-5.54-15.39-2.91-2.27-7.14-3.3-10.93-3.86-4.58-.66-9.31-.24-14-.28,1.51-5.38,2.21-11.19,4.72-16.05,4.51-8.72,12.84-11.14,21.09-5.62a74.28,74.28,0,0,1,16.48,15.68c3.94,5,12,19.39,16.09,42.51a142.22,142.22,0,0,1,2.15,27.17l-.39,25.62a61,61,0,0,0,.26,10.62,60.11,60.11,0,0,0,1.78,9.18c.49-1.66,1.22-4.16,2.08-7.21,1.94-6.9,11.95-42.53,14.14-65.2,2.54-26.2-4.2-60.39-17.05-88.94-5.92-13.15-10.46-26.55-9.19-41.39s8.92-20.51,23.54-16.48c11.69,3.21,21,10.1,28.21,19.56,13.69,17.93,20.21,38.46,22.74,60.82,3.56,31.51.88,62.6-6.63,93-5.15,20.87-13.41,41-21.16,61.18-12.17,31.63-19.5,64.15-20.72,98-.41,11.29-1.56,22.61-1.2,33.87.49,15.25,2.12,30.45,3.26,45.68-25.55,0-51.1.12-76.65,0-3.09,0-6.18-1.33-9.27-2,6.38-25.35,12.91-50.67,19.05-76.08,1.71-7,2.28-14.37,3.37-21.56.26-1.7,1.22-4.28,2-8.2C403.2,1601.2,403,1600.29,403.92,1595.92Z" transform="translate(-2 -668.24)"/><path class="cls-14" d="M1169.29,1316.9a40.8,40.8,0,0,0-4.58-15.76c-2.91-5.47-7.11-13.43-15.34-14.91-5.56-1-11.8,1.65-18.87,8-4.82-29.68-13.67-58.27-24.63-86.12-13.53-34.35-28.17-68.25-42-102.49a293.23,293.23,0,0,1-19.47-73,86.37,86.37,0,0,1,3.46-37.48A42.57,42.57,0,0,1,1062,975c8-6.55,20.59-7.15,30.85-.25a80.61,80.61,0,0,1,18.39,16.59c12.82,16.35,21.51,35.1,29,54.44a358,358,0,0,1,22,90.75c3,27.59,6.47,49.15,8.07,79.18A814.12,814.12,0,0,1,1169.29,1316.9Z" transform="translate(-2 -668.24)"/><path class="cls-14" d="M1094.14,1263.88a43.8,43.8,0,0,0-23.06-4.22c-4.36.41-15,1.57-23.94,10.28a37.32,37.32,0,0,0-10.72,21.88c-2.9-3.81-7.47-9.89-12.94-17.44-10-13.74-17-25.82-51.58-81.75-6.63-10.71-12.26-22-14.41-34.73a27.12,27.12,0,0,1,32-31.17c13.95,2.66,25.25,10.07,35.36,19.31,24.66,22.57,43,49.68,55.57,80.58C1085.4,1238.87,1089.58,1251.45,1094.14,1263.88Z" transform="translate(-2 -668.24)"/><path class="cls-8" d="M239.92,1382c-8.84-6.86-6.37-15.94-4.54-24.67,2-9.73,4.56-19.35,7-29,4.62-18.67,1-36.33-7.08-53.21-8.36-17.55-20.12-32.78-33.81-46.51-2.32-2.33-4.94-4.36-7.42-6.53,2.69-1.8,5.27-3.8,8.09-5.37a143.53,143.53,0,0,1,13.94-7.07c6.65-2.8,12.31-.28,17.2,4.35a56.88,56.88,0,0,1,16.54,29c5.07,22.06,7.24,44.22,4.76,67-2.51,23.2-7.83,45.69-13,68.29A20.16,20.16,0,0,1,239.92,1382Z" transform="translate(-2 -668.24)"/><path class="cls-8" d="M59.84,1410.09A106.72,106.72,0,0,0,72,1421.3a110.17,110.17,0,0,0,38.32,19.34c-.09,2.73-.1,5.57,0,8.54a137.23,137.23,0,0,0,2,19.22,82.85,82.85,0,0,1-46.62,1.31q-2.11-22-4.21-44C61,1420.51,60.38,1415.3,59.84,1410.09Z" transform="translate(-2 -668.24)"/><path class="cls-14" d="M1074.39,1637.81c8.18,8.84,18.49,9.39,29.3,7.2,7.76-1.57,15.47-3.47,23.08-5.66,4.7-1.36,7.71.13,9.87,4.12,4.07,7.54,1,18.62-6.64,22.5-6.89,3.49-14.22,5.48-22,3.07-3.16-1-6.39-1.69-9.53-2.72-9.83-3.23-19.83-5.18-30.24-4.14Z" transform="translate(-2 -668.24)"/><path class="cls-16" d="M1092.37,1532.21c19.71-1.49,28.88-4.38,33.49-7,3.15-1.81,5.27-2.19,9.27-3.69,6.52-2.45,10.64-1.67,13.39,2.45s2.26,12.26-1.39,15.79c-2.33,2.26-5.22,4.81-8.2,5.35-7.79,1.43-16,3.28-23.64,2.32-12.31-1.55-21.52,1-27,12.69.94-3.74,1.63-6.87,2.1-9.14a84.12,84.12,0,0,0,1.89-11.32A58.67,58.67,0,0,0,1092.37,1532.21Z" transform="translate(-2 -668.24)"/><path class="cls-8" d="M156.28,1347.93c13.45,13.9,29,25.13,44.92,36,3.75,2.54,6.29,7.52,8.13,11.9.85,2-.77,5.69-2.29,7.91-2,2.89-5.29,2.55-8,.73-6.06-4-12.48-7.63-17.87-12.41-9.41-8.34-18.15-17.43-27.17-26.21Q155.11,1356.86,156.28,1347.93Z" transform="translate(-2 -668.24)"/><path class="cls-17" d="M1087.77,1563.94c1.28,17.21,16,28.25,33.14,25.53a53.26,53.26,0,0,1,17.59,0c7.24,1.35,10.32,6.56,8.68,12-1.88,6.21-7.39,9.21-14.09,7.16s-13.22-4.46-19.75-6.9c-10.59-4-21.12-6-31.69-.05Z" transform="translate(-2 -668.24)"/><path class="cls-16" d="M1138,1368.14c1.47-1.25,2.78-2.81,4.44-3.69,12.27-6.54,20.89-16.5,27.33-28.58q-.55,8.88-1,17.87-.21,3.84-.39,7.65c-4.84,4.21-8.67,7.68-11.32,10.11,0,0-7,6.26-13,11.51-2,1.73-4.15,3.19-6.23,4.78Z" transform="translate(-2 -668.24)"/><path class="cls-18" d="M1748,1288c-15.73-.85-31,2.35-46.37,5-7.36,1.24-15,1-23.38,1.56,1.32-6.69,5.88-8,9.55-9.25a47.79,47.79,0,0,1,15.43-3c12.24.08,24.48,1,36.73,1.63Z" transform="translate(-2 -668.24)"/><path class="cls-19" d="M1611.75,1154c-4.11-3.85-8.24-7.68-12.33-11.55-6.64-6.29-14.27-10.71-23.33-12.46q1-9,2-17.92a83.42,83.42,0,0,0,22.34,20.34c4.36,2.66,8,6.57,11.9,9.92Q1612,1148.13,1611.75,1154Z" transform="translate(-2 -668.24)"/><path class="cls-20" d="M1091.6,1434a46.56,46.56,0,0,1,7.82-.82c3.91-.08,8.21-.12,12.79,2a13.31,13.31,0,0,1,4.43,2.92,13.16,13.16,0,0,1,3.36,8.64c-9,5.58-18.81,2.31-28.08,3.15V1437Z" transform="translate(-2 -668.24)"/><path class="cls-19" d="M1566.24,1214l32,20.45q-1.27,5.82-2.54,11.65L1564,1222C1564.75,1219.29,1565.49,1216.62,1566.24,1214Z" transform="translate(-2 -668.24)"/><path class="cls-21" d="M1120,1494.05l-26.21,9.7a52.8,52.8,0,0,0,.12-5.72,54.44,54.44,0,0,0-.94-8.52l27.28-9.19Q1120.06,1487.19,1120,1494.05Z" transform="translate(-2 -668.24)"/><path class="cls-22" d="M1078.24,1379.76c3.14-.24,10.89-.37,16.09,4.69,1,1,3.21,3.73,3.19,6.47,0,1.29-3,3.22-5,3.68-3.47.82-7.15.74-10.74,1a31,31,0,0,0-1.4-10.72A29.66,29.66,0,0,0,1078.24,1379.76Z" transform="translate(-2 -668.24)"/><path class="cls-23" d="M1055.89,1328.07c15.42.32,28.33,3.48,32.53,8.84-4.87.11-10,.08-15.46-.16-4.53-.19-8.87-.51-13-.92a37.3,37.3,0,0,0-1.76-3.89A36.6,36.6,0,0,0,1055.89,1328.07Z" transform="translate(-2 -668.24)"/><path class="cls-24" d="M1698.34,1212.29,1726,1208l11,2,11,2-41.79,2.26Z" transform="translate(-2 -668.24)"/><path class="cls-25" d="M1766.05,1141.51l-19.68.67-14.31,1.6h-8.59l-.37-1.6,8.56-2.34,14.3-1.69,20-.14Z" transform="translate(-2 -668.24)"/><path class="cls-26" d="M951.86,1467.91v7.45c-4.71-2.63-3.7-6.22-3.86-9.36Z" transform="translate(-2 -668.24)"/><path class="cls-27" d="M2660.22,1450.2l-4.51,5.45-1.67-1.06q1.83-3.43,3.68-6.86Z" transform="translate(-2 -668.24)"/><path class="cls-28" d="M546.16,1586q.81-6.2,1.61-12.38Q547,1579.78,546.16,1586Z" transform="translate(-2 -668.24)"/><path class="cls-29" d="M1551.59,1295.71c.17-1.26.35-2.53.52-3.79l28,18.07-.93,7.75c-7.84-6-15.7-11.88-23.49-17.9A43.41,43.41,0,0,1,1551.59,1295.71Z" transform="translate(-2 -668.24)"/><path class="cls-30" d="M1698.34,1212.29l7.86,1.94-12.17,2.18-.42-1.94Z" transform="translate(-2 -668.24)"/><path class="cls-31" d="M1732.06,1143.78l14.31-1.6Z" transform="translate(-2 -668.24)"/><path class="cls-32" d="M1746,1138.15l-14.3,1.69Z" transform="translate(-2 -668.24)"/><path class="cls-1" d="M2540.05,1164.37l42.28-22.13c13.72,33.51,27.88,66.86,37,102-8.77,1.74-15.49,7.55-23,11.68-8.19-26.08-19.19-50.82-36.58-72.15C2553.9,1176.71,2546.63,1170.81,2540.05,1164.37Z" transform="translate(-2 -668.24)"/><path class="cls-33" d="M2539.92,1316.09c2.17-1.92,4.33-3.85,6.5-5.76q10.86,14.75,21.71,29.5l-2.2,2.22Z" transform="translate(-2 -668.24)"/><path class="cls-34" d="M2598.1,1397.92l-16-31.94,2-2.09c7.41,9.65,12,20.72,16,32.06Z" transform="translate(-2 -668.24)"/><path class="cls-35" d="M2584.06,1363.89l-2,2.09-16.12-23.93,2.2-2.22Z" transform="translate(-2 -668.24)"/><path class="cls-36" d="M2598.1,1397.92l2-2q3,7.92,6,15.84l-2.05.18Q2601.07,1404.95,2598.1,1397.92Z" transform="translate(-2 -668.24)"/><path class="cls-37" d="M2626.17,1423.94l3.7-1.94q-.52,4.51-1.06,9l-2.28-.12Z" transform="translate(-2 -668.24)"/><path class="cls-38" d="M2604,1412l2.05-.18c.78,2.13,1.55,4.27,2.32,6.4l-1.93.63Z" transform="translate(-2 -668.24)"/><path class="cls-10" d="M1462.3,1556c-15.11,7.88-30.81,13.84-48.1,14.4-4.76.16-9.38-.32-12-6,2.83-7.49,9.79-10.06,16.59-12.38,8.78-3,17.81-5.25,26.68-8,5.06-1.55,10-3.4,15-5.11Q1461.42,1547.48,1462.3,1556Z" transform="translate(-2 -668.24)"/><path class="cls-39" d="M1474.46,1638c-15.46,7.66-31.2,14.53-48.48,17-4.23.61-9.29,2.45-11.58-2.39-2.15-4.52,1.35-8.43,4.87-11a33.08,33.08,0,0,1,11.29-5.56c13.83-3.22,27.79-5.84,41.7-8.68Q1473.36,1632.73,1474.46,1638Z" transform="translate(-2 -668.24)"/><path class="cls-19" d="M1462.3,1556q-.88-8.54-1.75-17.07c5.39-1.41,10.93-2.39,16.1-4.33,8.57-3.22,16.9-7.06,25.32-10.64l.57,25.79c-7.54-1.33-14.84-.14-22.13,1.84C1474.42,1553.22,1468.34,1554.54,1462.3,1556Z" transform="translate(-2 -668.24)"/><path class="cls-19" d="M1474.46,1638q-1.11-5.28-2.2-10.56c13.18-3.78,23.64-12.52,35.18-19.28q2.93,16.92,5.84,33.83C1500.79,1636.32,1488,1634,1474.46,1638Z" transform="translate(-2 -668.24)"/><path class="cls-40" d="M1505.24,1418.3q-.62,22.82-1.22,45.65c-14.83-7.8-28.41-2.73-41.82,4-.06-1.4-.11-2.8-.17-4.2,5.72-3.34,11.55-6.49,17.12-10.06C1492.35,1445.3,1499.52,1432.31,1505.24,1418.3Z" transform="translate(-2 -668.24)"/><path class="cls-41" d="M1462,1463.8c.06,1.4.11,2.8.17,4.2-8.07,5.76-16,11.73-24.27,17.17-2.82,1.85-6.53,2.36-10.37,2.45C1434,1472.14,1447.92,1467.86,1462,1463.8Z" transform="translate(-2 -668.24)"/><path class="cls-42" d="M1474.18,1354.2q-1.26-3.35-2.54-6.67l4.31-3.36Z" transform="translate(-2 -668.24)"/><path class="cls-20" d="M1204.44,1674.4,1212,1688c-10.27.57-20.53,1.48-30.8,1.55-4.83,0-9.68-1.52-14.19-2.31-1.77-5-.37-8,4-9.14a75.46,75.46,0,0,1,11.7-2C1189.89,1675.36,1197.17,1674.94,1204.44,1674.4Z" transform="translate(-2 -668.24)"/><path class="cls-43" d="M1206.49,1470.24c-5.33,8-8.58,14.55-9.32,17.52-.26,1-.46,2.06-.46,2.06-.35,2.06-.44,4.18-.72,6.25-2.14.57-4.35,1.78-6.41,1.56-3.92-.42-8.22-1.31-9.35-6a8.89,8.89,0,0,1,.26-5.29,9.93,9.93,0,0,1,4.4-4.78C1192.34,1477,1205.56,1470.68,1206.49,1470.24Z" transform="translate(-2 -668.24)"/><path class="cls-44" d="M1188,1610c0,.5,0,1.25,0,2.16,0,4.37,0,6.55.47,8.84a20.28,20.28,0,0,0,1.76,5c-1.11.16-2.27.29-3.47.38a55,55,0,0,1-13.28-.6C1171.41,1615.33,1174.64,1612.08,1188,1610Z" transform="translate(-2 -668.24)"/><path class="cls-45" d="M1186.73,1545.08a32,32,0,0,0-.72,18.85c-3.67,0-7.22-.54-9.57-2.88a7.85,7.85,0,0,1-2.18-3.83c-.94-4.18,2.11-8.34,5.22-10.34A12.14,12.14,0,0,1,1186.73,1545.08Z" transform="translate(-2 -668.24)"/><path class="cls-46" d="M1138,1368.14l-.15,19.65c-3.15,2.26-6.66,3.88-9.87.76-3.51-3.41-2.15-7.73.26-10.9C1130.94,1374.07,1134.69,1371.27,1138,1368.14Z" transform="translate(-2 -668.24)"/><path class="cls-43" d="M1127.75,1480.21c1.32,0,3.13-.54,3.86.11,2.29,2,5.19,4.32,5.78,7,.32,1.41-3.35,4.36-5.75,5.54-2.22,1.09-5.14.73-7.75,1Q1125.83,1487,1127.75,1480.21Z" transform="translate(-2 -668.24)"/><path class="cls-47" d="M1127.75,1480.21q-1.93,6.81-3.86,13.62l-3.94.22q.12-6.85.25-13.73Z" transform="translate(-2 -668.24)"/><path class="cls-48" d="M1158.05,1424.07q-2,10-4.06,19.94c-4.8-2.14-4.85-6.11-3-9.88S1155.67,1427.4,1158.05,1424.07Z" transform="translate(-2 -668.24)"/><path class="cls-49" d="M727.78,1546.41l-5.43-10.5c.67-.84,1.33-1.68,2-2.51l5.44,10.66Z" transform="translate(-2 -668.24)"/><path class="cls-50" d="M727.78,1546.41l2-2.35,2.82,6.39-2.13,1.08Z" transform="translate(-2 -668.24)"/><path class="cls-41" d="M724.35,1533.4c-.67.83-1.33,1.67-2,2.51l-2.59-5.34c.14-1,.29-2,.43-3Z" transform="translate(-2 -668.24)"/><path class="cls-8" d="M153.78,1446.2c12.53-.7,25.06-1.54,37.6-2a32.66,32.66,0,0,1,17.52,3.61,33.27,33.27,0,0,1,12.5,11.9c-.08,1.39-.24,3.58-.55,6.27-.52,4.42-1.23,7.67-1.39,8.74-1.07,7-2.06,14-3.08,20.94-5.76-3.86-12-7.22-17.21-11.69A96.33,96.33,0,0,0,154,1462Z" transform="translate(-2 -668.24)"/><path class="cls-51" d="M296.88,1387.91c7.33-5.43,14.34-11.37,22.05-16.18,16.44-10.27,29.4-23.41,37.83-41,4.22-8.85,6-18.15,7.24-27.68.78-5.89,1.65-11.77,2.65-17.62.13-.79,1.22-1.42,2.11-2.39,4.9,2.93,4.62,8.38,4.8,12.28,1.12,23.53-3.72,45-20.59,63.23-13.09,14.13-28.66,23.39-46.25,30-2.8,1-6,1.15-9,1.68C297.47,1389.41,297.17,1388.66,296.88,1387.91Z" transform="translate(-2 -668.24)"/><path class="cls-8" d="M161.91,1577.9q-.9-10-1.79-20a432.36,432.36,0,0,0,50.81,6.1l1.16.06c0,.85,0,1.69,0,2.53v43.22c-9.36-10.58-19-20.86-32.61-26.06C173.75,1581.59,167.79,1579.85,161.91,1577.9Z" transform="translate(-2 -668.24)"/><path class="cls-52" d="M295,1661.46c10.32-5.07,20.39-10.74,31-15.08,28.82-11.77,48-32.4,58.57-61.43,1-2.65,2.18-5.21,3.29-7.81l2,.12c.6,3,2,6.13,1.69,9.06a71.19,71.19,0,0,1-17.46,40.52c-12.56,14.31-27.47,25-46.31,29.53-10.56,2.55-21.06,5.35-31.59,8Z" transform="translate(-2 -668.24)"/><path class="cls-53" d="M220,1351.54c0-7-.15-14,0-20.93.81-32-11.83-58.55-32.41-82.1-5.44-6.22-10.44-12.85-15.4-19.47-1.16-1.57-1.32-3.89-2.42-7.36,2.81,1.25,4.19,1.48,5,2.28,15.65,15.26,32.25,29.67,43.3,49,6,10.57,10.65,21.41,10,33.85-.63,11.57-1.13,23.15-2.24,34.67-.36,3.67-2.48,7.17-3.8,10.75Z" transform="translate(-2 -668.24)"/><path class="cls-53" d="M395.51,1428.38c3.55,5.23,2.75,9.86,1.88,14.28-3.77,19-11.65,36.39-25.56,49.76-8.2,7.88-18.8,13.59-29,19-11.42,6-23.59,10.66-35.47,15.82-1.09.48-2.43.37-4.54-1.12,9-6.34,17.91-12.87,27.07-19,9.64-6.44,19.55-12.49,29.33-18.72,9-5.71,15-14.22,19.91-23.17,5.39-9.86,9.21-20.58,13.72-30.92C393.59,1432.64,394.34,1431,395.51,1428.38Z" transform="translate(-2 -668.24)"/><path class="cls-53" d="M206.59,1516.28c-8.61-4.76-17-9-25-13.93-20.38-12.43-42.17-16.36-65.77-12.93-7.86,1.14-16.41,2.7-24.76-2.28,10-2.49,19.16-5.16,28.48-7,29.51-5.87,56-.44,77.57,21.92,3.45,3.58,6.79,7.27,10.09,11C207.42,1513.31,207,1514.19,206.59,1516.28Z" transform="translate(-2 -668.24)"/><path class="cls-53" d="M174.06,1399.73c-13.08-6.09-24.59-11.7-36.3-16.85-17.29-7.6-35.14-11.25-54.12-7.31-5,1-9.34-1.48-13.78-4.78C102,1354.67,155.86,1369.43,174.06,1399.73Z" transform="translate(-2 -668.24)"/><path class="cls-54" d="M136,1592.09c28.74-1.13,50.47,11.7,68.15,32.61l-1.28,2.53c-5.17-3-10.38-5.9-15.5-9-12.86-7.71-26.17-14.34-41.07-17.07-3.87-.72-7.89-.64-11.8-1.21-8.79-1.28-17.55-2.75-26.33-4.14,4.81-.61,9.62-1.2,14.42-1.85C127.05,1593.4,131.52,1592.73,136,1592.09Z" transform="translate(-2 -668.24)"/><path class="cls-55" d="M260.07,1501.52c-13.3-12.9-11.85-48-1.24-59.24.34,2.41,1.05,4.19.74,5.78-3.05,15.58-2.61,30.88,3.33,45.78C264.16,1497,264.28,1499.61,260.07,1501.52Z" transform="translate(-2 -668.24)"/><path class="cls-56" d="M268,1598c.42,3.35,2.77,7.35-3.48,8.83-4.88-9.53-2.15-19.14-.36-28.71.61,3.32,1.21,6.64,1.85,10S267.32,1594.69,268,1598Z" transform="translate(-2 -668.24)"/><path class="cls-57" d="M136,1592.09c-4.47.64-8.94,1.31-13.41,1.91-4.8.65-9.61,1.24-14.42,1.85l-3-2.1.23-1.66Z" transform="translate(-2 -668.24)"/><path class="cls-58" d="M268,1598c-.67-3.31-1.35-6.61-2-9.92s-1.24-6.64-1.85-10l2-4.78,1.86.26Z" transform="translate(-2 -668.24)"/><path class="cls-6" d="M703.62,1505.94" transform="translate(-2 -668.24)"/><path class="cls-7" d="M884.21,1690.71" transform="translate(-2 -668.24)"/><path class="cls-14" d="M1219.56,1373.32" transform="translate(-2 -668.24)"/><path class="cls-9" d="M1252.79,1080.65" transform="translate(-2 -668.24)"/></svg>