<?xml version="1.0" encoding="utf-8"?>
<!-- Generator: Adobe Illustrator 24.0.2, SVG Export Plug-In . SVG Version: 6.00 Build 0)  -->
<svg version="1.1" id="Layer_1" xmlns="http://www.w3.org/2000/svg" xmlns:xlink="http://www.w3.org/1999/xlink" x="0px" y="0px"
	 viewBox="0 0 124 134" style="enable-background:new 0 0 124 134;" xml:space="preserve">
<style type="text/css">
	.st0{fill:#4CE4E2;}
	.st1{fill:#9FFA7E;}
	.st2{fill:#7BF94F;}
	.st3{fill:#A2B1FD;}
	.st4{fill:#A3B3FC;}
	.st5{fill:#A2B2FC;}
	.st6{fill:#A1ADFD;}
	.st7{fill:#9FAEFD;}
	.st8{fill:#A1ADFC;}
	.st9{fill:#9DAFFC;}
</style>
<g>
	<g>
		<path class="st0" d="M15.95,41.87C25.43,19.63,43.26,7.83,70.82,11.3c0.24,0.84,2.14,7.16,8.76,10.03
			c6.77,2.93,12.83-0.2,13.56-0.6c2.21,1.74,15.75,12.59,19.71,24.72c0.86,2.64,2.28,6.99,0.73,11.97
			c-0.63,2.04-1.71,4.01-3.33,5.86c-6.5-2.81-10.88-0.56-13.14,6.76c-1.75,0.45-3.5,0.9-5.25,1.35c-1.58,0.4-3.2,0.78-4.86,1.13
			c-6.74,1.42-13.11,2.18-18.97,2.5c-1.94-5.7-7.6-9.24-14.36-8.98c-0.74,0.03-2.64,0.13-4.72,1.23c-4.82,2.55-5.97,8.02-6.17,9.04
			c-1.12-0.08-2.25-0.16-3.37-0.24c-2.04-0.11-4.92-0.39-8.27-1.19c-4.87-1.16-8.97-2.13-12.41-5.32
			c-4.04-3.75-5.21-8.73-5.58-11.53C17.17,53.17,18.31,47.83,15.95,41.87z M42.97,53.03c5.79-0.03,11.79-5.98,11.91-11.81
			c0.11-5.12-4.45-9.26-10.21-9.28c-6.4-0.02-12.61,5.82-12.47,11.73C32.34,49.07,36.93,53.06,42.97,53.03z M90.95,44.29
			c-0.1,4.74,3.28,8.43,7.86,8.58c4.71,0.16,9.19-4.32,9.25-9.26c0.06-4.72-3-8.31-7.26-8.53C95.72,34.84,91.06,39.19,90.95,44.29z
			 M71.07,58c2.99-0.02,5.83-2.79,5.77-5.62c-0.05-2.34-2.8-5.12-5.15-5.2c-2.68-0.09-5.6,2.99-5.57,5.88
			C66.14,56.03,68.13,58.02,71.07,58z"/>
		<path class="st1" d="M96.95,86.96c2.85,6.55,3.69,13.42,3.05,20.46c-0.66,7.2-5.03,11.72-11.37,14.53
			c-9.53,4.22-19.55,4.81-29.76,3.64c-5.8-10.42-8.51-21.43-5.82-33.28c1.89-8.33,2.41-11.33,11.74-11.54
			c6.33-0.14,12.73-1.42,18.88-3.04c3.74-0.99,6.04-0.15,8.16,2.58C93.56,82.51,95.25,84.74,96.95,86.96z"/>
		<path class="st2" d="M96.95,86.96c-1.7-2.22-3.4-4.45-5.11-6.66c-2.12-2.73-4.42-3.57-8.16-2.58c-6.15,1.62-12.55,2.9-18.88,3.04
			c-9.33,0.21-9.85,3.2-11.74,11.54c-2.69,11.85,0.02,22.86,5.82,33.28c-4.84-1.01-10.02-1.24-14.46-3.18
			c-9.98-4.36-13.73-12.05-11.84-22.97c0.76-4.38,2.31-8.63,3.57-12.92c1.03-3.5,2.17-6.97,3.26-10.46
			c0.79,0.07,1.96,0.17,3.37,0.24c2.6,0.13,4.89,0.14,6.93,0.08c4.91-0.12,9.94-0.59,18.32-1.37c5.63-0.53,8.46-0.79,9.08-0.87
			c6.11-0.79,11.15-1.88,14.74-2.76C93.56,76.57,95.25,81.77,96.95,86.96z"/>
		<path class="st3" d="M93.14,20.73c-0.73,0.4-6.78,3.53-13.56,0.6c-6.62-2.87-8.52-9.19-8.76-10.03c2.84,0.27,6.69,0.93,10.96,2.61
			C86.95,15.95,90.73,18.68,93.14,20.73z"/>
		<path class="st4" d="M97.11,70.03c2.26-7.32,6.64-9.57,13.14-6.76c-1.44,1.21-3.31,2.58-5.65,3.84
			C101.78,68.63,99.17,69.51,97.11,70.03z"/>
		<path class="st5" d="M15.95,41.87c2.37,5.95,1.22,11.3-2.79,16.15C13,56,12.99,53.43,13.43,50.51
			C13.97,46.92,15.01,43.99,15.95,41.87z"/>
		<path class="st6" d="M42.97,53.03c-6.04,0.03-10.64-3.97-10.77-9.37c-0.14-5.91,6.07-11.75,12.47-11.73
			c5.77,0.02,10.32,4.16,10.21,9.28C54.77,47.05,48.76,53,42.97,53.03z"/>
		<path class="st7" d="M90.95,44.29c0.11-5.11,4.77-9.46,9.85-9.2c4.26,0.21,7.32,3.8,7.26,8.53c-0.06,4.94-4.54,9.42-9.25,9.26
			C94.23,52.72,90.85,49.03,90.95,44.29z"/>
		<path class="st8" d="M68.03,75.01c-3.82,0.6-8.07,1.07-12.69,1.3c-4.55,0.23-8.75,0.18-12.56-0.02c0.2-1.02,1.35-6.49,6.17-9.04
			c2.08-1.1,3.98-1.2,4.72-1.23C60.44,65.77,66.1,69.32,68.03,75.01z"/>
		<path class="st9" d="M71.07,58c-2.94,0.02-4.93-1.97-4.96-4.94c-0.03-2.89,2.9-5.97,5.57-5.88c2.35,0.08,5.1,2.86,5.15,5.2
			C76.89,55.21,74.06,57.98,71.07,58z"/>
	</g>
</g>
</svg>
