<?xml version="1.0" standalone="no"?>
<!DOCTYPE svg PUBLIC "-//W3C//DTD SVG 20010904//EN"
 "http://www.w3.org/TR/2001/REC-SVG-20010904/DTD/svg10.dtd">
<svg version="1.0" xmlns="http://www.w3.org/2000/svg"
 width="304.000000pt" height="304.000000pt" viewBox="0 0 304.000000 304.000000"
 preserveAspectRatio="xMidYMid meet">
<metadata>
Created by potrace 1.11, written by Peter Selinger 2001-2013
</metadata>
<g transform="translate(0.000000,304.000000) scale(0.100000,-0.100000)"
fill="#000000" stroke="none">
<path d="M1495 2911 c-4 -3 -14 -6 -23 -7 -14 0 -116 -12 -172 -19 -8 -1 -40
-5 -70 -10 -30 -4 -59 -9 -63 -12 -5 -3 -22 -7 -39 -10 -17 -3 -43 -10 -57
-16 -14 -5 -28 -11 -31 -12 -3 -1 -13 -5 -22 -9 -9 -4 -22 -9 -30 -10 -21 -4
-123 -58 -126 -67 -2 -5 -8 -9 -14 -9 -10 0 -80 -55 -136 -107 -19 -18 -39
-33 -44 -33 -5 0 -7 -4 -3 -9 3 -5 -5 -18 -18 -28 -30 -23 -167 -201 -178
-230 -5 -13 -14 -23 -20 -23 -7 0 -9 -3 -6 -7 4 -3 3 -11 -2 -17 -27 -34 -111
-219 -119 -266 -16 -85 -9 -276 11 -330 10 -25 19 -49 21 -55 13 -43 42 -82
111 -148 58 -56 128 -89 215 -103 69 -10 80 -13 87 -17 5 -3 35 -8 68 -11 33
-4 69 -8 80 -10 11 -3 25 -5 31 -5 6 -1 -5 -46 -26 -109 -19 -59 -37 -111 -38
-117 -14 -57 -26 -92 -34 -102 -6 -7 -8 -13 -4 -13 3 0 -1 -17 -10 -37 -8 -21
-17 -45 -19 -53 -2 -8 -8 -30 -14 -49 -6 -18 -10 -36 -9 -40 0 -3 -1 -8 -2
-11 -2 -5 -10 -102 -11 -125 0 -5 2 -30 5 -54 3 -24 8 -64 11 -89 6 -52 15
-93 24 -107 3 -5 6 -16 7 -22 5 -33 72 -95 160 -148 99 -60 202 -97 304 -110
30 -3 84 -11 120 -16 90 -15 310 -12 433 6 147 20 339 89 398 141 8 8 19 14
23 14 15 0 78 77 102 124 45 86 64 221 49 346 -6 49 -12 85 -16 85 -1 0 -2 11
-3 25 -1 14 -5 31 -9 38 -5 6 -6 12 -3 12 3 0 -2 21 -10 48 -8 26 -26 92 -40
147 -32 123 -92 278 -116 295 -12 9 6 29 32 34 256 50 360 100 438 211 23 33
53 119 58 169 19 168 -20 286 -164 502 -65 97 -110 148 -187 209 -27 22 -52
43 -55 46 -3 3 -32 25 -65 50 -33 24 -87 67 -120 94 -115 97 -243 152 -369
161 -39 3 -84 7 -101 10 -30 4 -90 12 -152 18 -18 2 -35 1 -38 -3z"/>
</g>
</svg>
